<svg width="21" height="22" viewBox="0 0 21 22" fill="none" xmlns="http://www.w3.org/2000/svg">
<circle cx="10.5" cy="11" r="9.65" stroke="#ADADAF" stroke-width="1.7"/>
<path d="M6.3 9.5C5.72011 9.5 5.25 10.0149 5.25 10.65C5.25 11.2851 5.72011 11.8 6.3 11.8H14.7C15.2799 11.8 15.75 11.2851 15.75 10.65C15.75 10.0149 15.2799 9.5 14.7 9.5H6.3Z" fill="#ADADAF"/>
<path d="M11.6504 14.85C11.6504 15.4299 11.1355 15.9 10.5004 15.9C9.86525 15.9 9.35039 15.4299 9.35039 14.85L9.35039 6.45C9.35039 5.87008 9.86525 5.4 10.5004 5.4C11.1355 5.4 11.6504 5.87008 11.6504 6.45L11.6504 14.85Z" fill="#ADADAF"/>
</svg>
