<svg width="686" height="449" viewBox="0 0 686 449" fill="none" xmlns="http://www.w3.org/2000/svg">
<g clip-path="url(#clip0_971_648)">
<g filter="url(#filter0_d_971_648)">
<rect x="1" width="684" height="449" rx="30" fill="white"/>
</g>
<g filter="url(#filter1_d_971_648)">
<rect x="1" width="684" height="449" rx="30" fill="white"/>
</g>
<path d="M83.48 81.2144C86.0133 81.2144 88.1333 81.4544 89.84 81.9344C91.5733 82.3877 92.8667 83.1477 93.72 84.2144C94.6 85.2544 95.04 86.6677 95.04 88.4544C95.04 89.5211 94.8667 90.4944 94.52 91.3744C94.1733 92.2544 93.6667 92.9744 93 93.5344C92.36 94.0944 91.5733 94.4544 90.64 94.6144V94.8144C91.6 95.0011 92.4667 95.3344 93.24 95.8144C94.0133 96.2944 94.6267 96.9877 95.08 97.8944C95.5333 98.8011 95.76 100.001 95.76 101.494C95.76 103.228 95.3333 104.721 94.48 105.974C93.6533 107.201 92.4533 108.148 90.88 108.814C89.3067 109.454 87.44 109.774 85.28 109.774H74.6V81.2144H83.48ZM84.16 92.5344C85.92 92.5344 87.1333 92.2544 87.8 91.6944C88.4933 91.1344 88.84 90.3211 88.84 89.2544C88.84 88.1611 88.44 87.3744 87.64 86.8944C86.84 86.4144 85.5733 86.1744 83.84 86.1744H80.64V92.5344H84.16ZM80.64 97.3344V104.774H84.6C86.4133 104.774 87.68 104.428 88.4 103.734C89.12 103.014 89.48 102.068 89.48 100.894C89.48 100.174 89.32 99.5477 89 99.0144C88.7067 98.4811 88.1867 98.0677 87.44 97.7744C86.6933 97.4811 85.68 97.3344 84.4 97.3344H80.64ZM100.995 109.774V87.9344H106.955V96.3744H109.835C112.075 96.3744 113.915 96.6144 115.355 97.0944C116.795 97.5477 117.862 98.2544 118.555 99.2144C119.275 100.174 119.635 101.374 119.635 102.814C119.635 104.228 119.302 105.454 118.635 106.494C117.995 107.534 116.968 108.348 115.555 108.934C114.168 109.494 112.328 109.774 110.035 109.774H100.995ZM109.715 105.654C110.888 105.654 111.835 105.441 112.555 105.014C113.302 104.588 113.675 103.881 113.675 102.894C113.675 102.041 113.328 101.428 112.635 101.054C111.968 100.681 110.968 100.494 109.635 100.494H106.955V105.654H109.715ZM122.795 109.774V87.9344H128.755V109.774H122.795ZM138.969 87.9344H145.489L149.609 100.214C149.742 100.614 149.849 101.014 149.929 101.414C150.035 101.814 150.115 102.228 150.169 102.654C150.249 103.081 150.302 103.534 150.329 104.014H150.449C150.529 103.321 150.635 102.668 150.769 102.054C150.929 101.414 151.102 100.801 151.289 100.214L155.329 87.9344H161.729L152.489 112.574C151.929 114.068 151.195 115.321 150.289 116.334C149.409 117.348 148.382 118.108 147.209 118.614C146.035 119.121 144.755 119.374 143.369 119.374C142.702 119.374 142.115 119.334 141.609 119.254C141.129 119.201 140.702 119.134 140.329 119.054V114.334C140.622 114.388 140.969 114.441 141.369 114.494C141.795 114.548 142.235 114.574 142.689 114.574C143.515 114.574 144.222 114.401 144.809 114.054C145.422 113.708 145.929 113.228 146.329 112.614C146.729 112.028 147.049 111.388 147.289 110.694L147.649 109.614L138.969 87.9344ZM173.742 110.174C171.582 110.174 169.742 109.788 168.222 109.014C166.702 108.214 165.542 106.988 164.742 105.334C163.942 103.681 163.542 101.561 163.542 98.9744C163.542 96.3077 163.996 94.1344 164.902 92.4544C165.809 90.7744 167.062 89.5344 168.662 88.7344C170.289 87.9344 172.156 87.5344 174.262 87.5344C175.756 87.5344 177.049 87.6811 178.142 87.9744C179.262 88.2677 180.236 88.6144 181.062 89.0144L179.302 93.6144C178.369 93.2411 177.489 92.9344 176.662 92.6944C175.862 92.4544 175.062 92.3344 174.262 92.3344C173.222 92.3344 172.356 92.5877 171.662 93.0944C170.969 93.5744 170.449 94.3077 170.102 95.2944C169.782 96.2544 169.622 97.4677 169.622 98.9344C169.622 100.374 169.796 101.574 170.142 102.534C170.516 103.468 171.049 104.174 171.742 104.654C172.436 105.108 173.276 105.334 174.262 105.334C175.516 105.334 176.622 105.174 177.582 104.854C178.542 104.508 179.476 104.041 180.382 103.454V108.534C179.476 109.121 178.516 109.534 177.502 109.774C176.516 110.041 175.262 110.174 173.742 110.174ZM205.249 87.9344V109.774H199.289V92.4144H191.369V109.774H185.409V87.9344H205.249ZM220.503 87.5344C222.529 87.5344 224.263 87.9211 225.703 88.6944C227.169 89.4677 228.303 90.5877 229.103 92.0544C229.903 93.5211 230.303 95.3211 230.303 97.4544V100.334H216.223C216.276 102.014 216.769 103.334 217.703 104.294C218.663 105.254 219.983 105.734 221.663 105.734C223.076 105.734 224.356 105.601 225.503 105.334C226.649 105.041 227.836 104.601 229.063 104.014V108.614C227.996 109.148 226.863 109.534 225.663 109.774C224.489 110.041 223.063 110.174 221.383 110.174C219.196 110.174 217.263 109.774 215.583 108.974C213.903 108.148 212.583 106.908 211.623 105.254C210.663 103.601 210.183 101.521 210.183 99.0144C210.183 96.4544 210.609 94.3344 211.463 92.6544C212.343 90.9477 213.556 89.6677 215.103 88.8144C216.649 87.9611 218.449 87.5344 220.503 87.5344ZM220.543 91.7744C219.396 91.7744 218.436 92.1477 217.663 92.8944C216.916 93.6411 216.476 94.8011 216.343 96.3744H224.703C224.703 95.4944 224.543 94.7077 224.223 94.0144C223.929 93.3211 223.476 92.7744 222.863 92.3744C222.249 91.9744 221.476 91.7744 220.543 91.7744ZM267.656 87.9344V109.774H235.136V87.9344H241.096V105.294H248.416V87.9344H254.376V105.294H261.696V87.9344H267.656ZM279.846 87.9344V96.3344H288.166V87.9344H294.126V109.774H288.166V100.774H279.846V109.774H273.886V87.9344H279.846ZM320.21 98.8144C320.21 100.628 319.957 102.241 319.45 103.654C318.97 105.068 318.263 106.268 317.33 107.254C316.423 108.214 315.317 108.948 314.01 109.454C312.703 109.934 311.223 110.174 309.57 110.174C308.05 110.174 306.637 109.934 305.33 109.454C304.05 108.948 302.943 108.214 302.01 107.254C301.077 106.268 300.343 105.068 299.81 103.654C299.303 102.241 299.05 100.628 299.05 98.8144C299.05 96.3877 299.477 94.3477 300.33 92.6944C301.183 91.0144 302.41 89.7344 304.01 88.8544C305.61 87.9744 307.503 87.5344 309.69 87.5344C311.743 87.5344 313.557 87.9744 315.13 88.8544C316.703 89.7344 317.943 91.0144 318.85 92.6944C319.757 94.3477 320.21 96.3877 320.21 98.8144ZM305.13 98.8144C305.13 100.254 305.277 101.468 305.57 102.454C305.89 103.414 306.383 104.148 307.05 104.654C307.717 105.134 308.583 105.374 309.65 105.374C310.717 105.374 311.57 105.134 312.21 104.654C312.877 104.148 313.357 103.414 313.65 102.454C313.97 101.468 314.13 100.254 314.13 98.8144C314.13 97.3744 313.97 96.1744 313.65 95.2144C313.357 94.2544 312.877 93.5344 312.21 93.0544C311.543 92.5744 310.677 92.3344 309.61 92.3344C308.037 92.3344 306.89 92.8811 306.17 93.9744C305.477 95.0411 305.13 96.6544 305.13 98.8144ZM93.76 137.934V155.414H96.96V167.614H91.6V159.774H76.92V167.614H71.56V155.414H73.4C74.36 153.948 75.1733 152.281 75.84 150.414C76.5067 148.521 77.04 146.508 77.44 144.374C77.84 142.241 78.1333 140.094 78.32 137.934H93.76ZM83.32 142.414C83.1067 144.014 82.84 145.574 82.52 147.094C82.2 148.588 81.8 150.028 81.32 151.414C80.8667 152.801 80.3067 154.134 79.64 155.414H87.8V142.414H83.32ZM120.523 148.814C120.523 150.628 120.269 152.241 119.763 153.654C119.283 155.068 118.576 156.268 117.643 157.254C116.736 158.214 115.629 158.948 114.323 159.454C113.016 159.934 111.536 160.174 109.883 160.174C108.363 160.174 106.949 159.934 105.643 159.454C104.363 158.948 103.256 158.214 102.323 157.254C101.389 156.268 100.656 155.068 100.123 153.654C99.6158 152.241 99.3625 150.628 99.3625 148.814C99.3625 146.388 99.7892 144.348 100.643 142.694C101.496 141.014 102.723 139.734 104.323 138.854C105.923 137.974 107.816 137.534 110.003 137.534C112.056 137.534 113.869 137.974 115.443 138.854C117.016 139.734 118.256 141.014 119.163 142.694C120.069 144.348 120.523 146.388 120.523 148.814ZM105.443 148.814C105.443 150.254 105.589 151.468 105.883 152.454C106.203 153.414 106.696 154.148 107.363 154.654C108.029 155.134 108.896 155.374 109.963 155.374C111.029 155.374 111.883 155.134 112.523 154.654C113.189 154.148 113.669 153.414 113.963 152.454C114.283 151.468 114.443 150.254 114.443 148.814C114.443 147.374 114.283 146.174 113.963 145.214C113.669 144.254 113.189 143.534 112.523 143.054C111.856 142.574 110.989 142.334 109.923 142.334C108.349 142.334 107.203 142.881 106.483 143.974C105.789 145.041 105.443 146.654 105.443 148.814ZM124.128 146.694C124.128 143.468 124.528 140.734 125.328 138.494C126.128 136.228 127.395 134.428 129.128 133.094C130.861 131.734 133.128 130.814 135.928 130.334C137.341 130.094 138.768 129.894 140.208 129.734C141.675 129.548 143.181 129.361 144.728 129.174L145.408 134.374C144.741 134.454 144.008 134.548 143.208 134.654C142.408 134.734 141.595 134.828 140.768 134.934C139.968 135.014 139.195 135.108 138.448 135.214C137.701 135.321 137.021 135.414 136.408 135.494C135.421 135.654 134.555 135.881 133.808 136.174C133.061 136.441 132.435 136.828 131.928 137.334C131.421 137.841 131.021 138.534 130.728 139.414C130.461 140.268 130.288 141.374 130.208 142.734H130.488C130.808 142.228 131.248 141.721 131.808 141.214C132.395 140.708 133.115 140.281 133.968 139.934C134.821 139.588 135.795 139.414 136.888 139.414C138.621 139.414 140.128 139.774 141.408 140.494C142.688 141.214 143.675 142.281 144.368 143.694C145.061 145.108 145.408 146.868 145.408 148.974C145.408 151.454 144.955 153.521 144.048 155.174C143.141 156.828 141.888 158.081 140.288 158.934C138.688 159.761 136.835 160.174 134.728 160.174C133.128 160.174 131.675 159.881 130.368 159.294C129.061 158.708 127.941 157.841 127.008 156.694C126.075 155.548 125.355 154.134 124.848 152.454C124.368 150.774 124.128 148.854 124.128 146.694ZM135.088 155.334C135.941 155.334 136.675 155.148 137.288 154.774C137.928 154.401 138.421 153.788 138.768 152.934C139.141 152.081 139.328 150.934 139.328 149.494C139.328 147.761 139.035 146.388 138.448 145.374C137.888 144.334 136.901 143.814 135.488 143.814C134.635 143.814 133.835 144.028 133.088 144.454C132.368 144.854 131.755 145.321 131.248 145.854C130.741 146.361 130.395 146.801 130.208 147.174C130.208 148.214 130.288 149.228 130.448 150.214C130.608 151.174 130.875 152.041 131.248 152.814C131.621 153.588 132.115 154.201 132.728 154.654C133.368 155.108 134.155 155.334 135.088 155.334ZM159.291 137.494C162.224 137.494 164.464 138.134 166.011 139.414C167.584 140.668 168.371 142.601 168.371 145.214V159.774H164.211L163.051 156.814H162.891C162.278 157.588 161.638 158.228 160.971 158.734C160.331 159.241 159.584 159.601 158.731 159.814C157.904 160.054 156.878 160.174 155.651 160.174C154.371 160.174 153.211 159.934 152.171 159.454C151.158 158.948 150.358 158.188 149.771 157.174C149.184 156.134 148.891 154.828 148.891 153.254C148.891 150.934 149.704 149.228 151.331 148.134C152.958 147.014 155.398 146.401 158.651 146.294L162.451 146.174V145.214C162.451 144.068 162.144 143.228 161.531 142.694C160.944 142.161 160.118 141.894 159.051 141.894C157.984 141.894 156.944 142.054 155.931 142.374C154.918 142.668 153.904 143.041 152.891 143.494L150.931 139.454C152.104 138.841 153.398 138.361 154.811 138.014C156.251 137.668 157.744 137.494 159.291 137.494ZM160.131 149.734C158.211 149.788 156.878 150.134 156.131 150.774C155.384 151.414 155.011 152.254 155.011 153.294C155.011 154.201 155.278 154.854 155.811 155.254C156.344 155.628 157.038 155.814 157.891 155.814C159.171 155.814 160.251 155.441 161.131 154.694C162.011 153.921 162.451 152.841 162.451 151.454V149.654L160.131 149.734ZM193.832 143.654C193.832 144.828 193.458 145.828 192.712 146.654C191.992 147.481 190.912 148.014 189.472 148.254V148.414C190.992 148.601 192.205 149.121 193.112 149.974C194.045 150.828 194.512 151.921 194.512 153.254C194.512 154.188 194.325 155.054 193.952 155.854C193.605 156.654 193.045 157.348 192.272 157.934C191.498 158.521 190.498 158.974 189.272 159.294C188.072 159.614 186.605 159.774 184.872 159.774H174.472V137.934H184.872C186.578 137.934 188.098 138.121 189.432 138.494C190.792 138.841 191.858 139.428 192.632 140.254C193.432 141.081 193.832 142.214 193.832 143.654ZM188.352 152.934C188.352 152.081 188.018 151.468 187.352 151.094C186.685 150.694 185.685 150.494 184.352 150.494H180.432V155.654H184.472C185.592 155.654 186.512 155.454 187.232 155.054C187.978 154.628 188.352 153.921 188.352 152.934ZM187.792 144.134C187.792 143.441 187.525 142.934 186.992 142.614C186.458 142.294 185.672 142.134 184.632 142.134H180.432V146.454H183.952C185.205 146.454 186.152 146.281 186.792 145.934C187.458 145.561 187.792 144.961 187.792 144.134ZM205.388 146.574C205.388 147.028 205.361 147.588 205.308 148.254C205.281 148.921 205.241 149.601 205.188 150.294C205.161 150.988 205.121 151.601 205.068 152.134C205.014 152.668 204.974 153.041 204.948 153.254L215.028 137.934H222.188V159.774H216.428V151.054C216.428 150.334 216.454 149.548 216.508 148.694C216.561 147.814 216.614 147.001 216.668 146.254C216.748 145.481 216.801 144.894 216.828 144.494L206.788 159.774H199.628V137.934H205.388V146.574ZM247.977 159.774H242.017V142.414H236.537C236.27 145.614 235.937 148.348 235.537 150.614C235.164 152.854 234.684 154.681 234.097 156.094C233.537 157.508 232.817 158.548 231.937 159.214C231.057 159.854 229.977 160.174 228.697 160.174C228.004 160.174 227.377 160.121 226.817 160.014C226.257 159.908 225.75 159.748 225.297 159.534V154.774C225.59 154.881 225.897 154.974 226.217 155.054C226.537 155.134 226.87 155.174 227.217 155.174C227.59 155.174 227.937 155.028 228.257 154.734C228.604 154.441 228.924 153.921 229.217 153.174C229.537 152.428 229.83 151.401 230.097 150.094C230.364 148.788 230.604 147.148 230.817 145.174C231.057 143.174 231.27 140.761 231.457 137.934H247.977V159.774ZM259.958 146.574C259.958 147.028 259.931 147.588 259.878 148.254C259.851 148.921 259.811 149.601 259.758 150.294C259.731 150.988 259.691 151.601 259.638 152.134C259.585 152.668 259.545 153.041 259.518 153.254L269.598 137.934H276.758V159.774H270.998V151.054C270.998 150.334 271.025 149.548 271.078 148.694C271.131 147.814 271.185 147.001 271.238 146.254C271.318 145.481 271.371 144.894 271.398 144.494L261.358 159.774H254.198V137.934H259.958V146.574ZM317.617 137.934V159.774H312.057V149.054C312.057 147.988 312.07 146.948 312.097 145.934C312.15 144.921 312.217 143.988 312.297 143.134H312.177L306.137 159.774H301.657L295.537 143.094H295.377C295.483 143.974 295.55 144.921 295.577 145.934C295.63 146.921 295.657 148.014 295.657 149.214V159.774H290.097V137.934H298.537L303.977 152.734L309.497 137.934H317.617ZM332.807 137.494C335.74 137.494 337.98 138.134 339.527 139.414C341.1 140.668 341.887 142.601 341.887 145.214V159.774H337.727L336.567 156.814H336.407C335.793 157.588 335.153 158.228 334.487 158.734C333.847 159.241 333.1 159.601 332.247 159.814C331.42 160.054 330.393 160.174 329.167 160.174C327.887 160.174 326.727 159.934 325.687 159.454C324.673 158.948 323.873 158.188 323.287 157.174C322.7 156.134 322.407 154.828 322.407 153.254C322.407 150.934 323.22 149.228 324.847 148.134C326.473 147.014 328.913 146.401 332.167 146.294L335.967 146.174V145.214C335.967 144.068 335.66 143.228 335.047 142.694C334.46 142.161 333.633 141.894 332.567 141.894C331.5 141.894 330.46 142.054 329.447 142.374C328.433 142.668 327.42 143.041 326.407 143.494L324.447 139.454C325.62 138.841 326.913 138.361 328.327 138.014C329.767 137.668 331.26 137.494 332.807 137.494ZM333.647 149.734C331.727 149.788 330.393 150.134 329.647 150.774C328.9 151.414 328.527 152.254 328.527 153.294C328.527 154.201 328.793 154.854 329.327 155.254C329.86 155.628 330.553 155.814 331.407 155.814C332.687 155.814 333.767 155.441 334.647 154.694C335.527 153.921 335.967 152.841 335.967 151.454V149.654L333.647 149.734ZM380.507 137.934V159.774H347.987V137.934H353.947V155.294H361.267V137.934H367.227V155.294H374.547V137.934H380.507ZM392.497 146.574C392.497 147.028 392.471 147.588 392.417 148.254C392.391 148.921 392.351 149.601 392.297 150.294C392.271 150.988 392.231 151.601 392.177 152.134C392.124 152.668 392.084 153.041 392.057 153.254L402.137 137.934H409.297V159.774H403.537V151.054C403.537 150.334 403.564 149.548 403.617 148.694C403.671 147.814 403.724 147.001 403.777 146.254C403.857 145.481 403.911 144.894 403.937 144.494L393.897 159.774H386.737V137.934H392.497V146.574ZM421.486 137.934V146.334H429.806V137.934H435.766V159.774H429.806V150.774H421.486V159.774H415.526V137.934H421.486ZM438.891 137.934H445.411L449.531 150.214C449.664 150.614 449.771 151.014 449.851 151.414C449.957 151.814 450.037 152.228 450.091 152.654C450.171 153.081 450.224 153.534 450.251 154.014H450.371C450.451 153.321 450.557 152.668 450.691 152.054C450.851 151.414 451.024 150.801 451.211 150.214L455.251 137.934H461.651L452.411 162.574C451.851 164.068 451.117 165.321 450.211 166.334C449.331 167.348 448.304 168.108 447.131 168.614C445.957 169.121 444.677 169.374 443.291 169.374C442.624 169.374 442.037 169.334 441.531 169.254C441.051 169.201 440.624 169.134 440.251 169.054V164.334C440.544 164.388 440.891 164.441 441.291 164.494C441.717 164.548 442.157 164.574 442.611 164.574C443.437 164.574 444.144 164.401 444.731 164.054C445.344 163.708 445.851 163.228 446.251 162.614C446.651 162.028 446.971 161.388 447.211 160.694L447.571 159.614L438.891 137.934Z" fill="#1C1C1C"/>
<path d="M106.698 236.719C106.157 235.138 105.623 233.542 105.114 231.94C104.966 231.496 104.434 231.139 103.916 231.167C103.397 231.195 103.071 231.566 103.219 232.01C103.721 233.626 104.249 235.237 104.809 236.827C104.957 237.271 105.515 237.622 106.04 237.58C106.367 237.57 106.603 237.4 106.699 237.184C106.763 237.04 106.762 236.886 106.705 236.705L106.698 236.719ZM101.744 227.193C101.28 225.594 100.823 223.981 100.391 222.362C100.268 221.912 100.594 221.541 101.145 221.544C101.676 221.539 102.202 221.91 102.325 222.36C102.763 223.965 103.201 225.57 103.671 227.155C103.717 227.312 103.717 227.467 103.659 227.597C103.557 227.826 103.302 227.988 102.956 227.989C102.424 227.994 101.886 227.652 101.763 227.202L101.744 227.193ZM118.718 265.79C118.635 265.977 118.456 266.121 118.181 266.171C117.682 266.258 117.092 265.98 116.873 265.539C116.096 263.972 115.325 262.392 114.56 260.796C114.341 260.355 114.597 259.936 115.096 259.848C115.595 259.76 116.172 260.068 116.391 260.509C117.136 262.095 117.914 263.661 118.698 265.213C118.814 265.419 118.814 265.626 118.737 265.798L118.718 265.79ZM290.517 335.64C290.059 334.078 289.57 332.485 289.048 330.861C288.9 330.416 289.207 330.037 289.732 329.995C290.25 329.967 290.789 330.309 290.956 330.762C291.491 332.409 291.993 334.025 292.45 335.587C292.496 335.745 292.477 335.891 292.419 336.02C292.317 336.25 292.061 336.412 291.716 336.413C291.184 336.418 290.652 336.061 290.523 335.626L290.517 335.64ZM99.1911 217.547C98.7976 215.944 98.4298 214.336 98.0875 212.723C97.9906 212.267 98.3486 211.927 98.8737 211.937C99.4181 211.955 99.9182 212.331 100.021 212.773C100.37 214.372 100.738 215.98 101.119 217.56C101.144 217.709 101.132 217.841 101.081 217.956C100.972 218.2 100.697 218.353 100.352 218.354C99.8265 218.345 99.3007 217.974 99.1974 217.532L99.1911 217.547ZM114.244 256.322C114.155 256.524 113.95 256.673 113.662 256.7C113.15 256.765 112.593 256.466 112.393 256.034C111.692 254.45 110.992 252.866 110.323 251.262C110.149 250.824 110.405 250.404 110.91 250.353C111.422 250.288 111.993 250.61 112.167 251.049C112.842 252.638 113.523 254.214 114.224 255.797C114.321 255.995 114.308 256.179 114.238 256.337L114.244 256.322ZM285.573 321.32C285.4 320.882 285.674 320.471 286.18 320.42C286.686 320.37 287.256 320.692 287.43 321.13C288.086 322.763 288.684 324.37 289.257 325.931C289.315 326.112 289.309 326.281 289.252 326.41C289.156 326.626 288.926 326.782 288.618 326.8C288.093 326.842 287.548 326.514 287.381 326.062C286.808 324.5 286.204 322.907 285.56 321.298L285.573 321.32ZM110.237 246.271C110.314 246.46 110.308 246.629 110.244 246.773C110.149 246.988 109.925 247.13 109.63 247.171C109.125 247.222 108.554 246.9 108.38 246.461C107.75 244.874 107.152 243.267 106.553 241.66C106.38 241.222 106.673 240.819 107.198 240.777C107.723 240.735 108.268 241.063 108.436 241.515C109.015 243.114 109.62 244.707 110.256 246.279L110.237 246.271ZM281.528 311.82C281.336 311.373 281.565 310.959 282.084 310.88C282.596 310.815 283.16 311.099 283.372 311.555C284.105 313.17 284.8 314.768 285.468 316.321C285.545 316.51 285.552 316.702 285.488 316.846C285.399 317.047 285.195 317.197 284.9 317.238C284.388 317.303 283.817 316.981 283.644 316.543C282.975 314.99 282.293 313.415 281.56 311.8L281.528 311.82ZM202.885 361.699C204.545 362.831 206.199 363.927 207.847 364.985C208.257 365.253 208.437 365.677 208.291 366.008C208.271 366.051 208.246 366.108 208.227 366.151C207.965 366.482 207.357 366.504 206.889 366.211C205.222 365.144 203.529 364.031 201.849 362.89C201.388 362.582 201.246 362.072 201.534 361.735C201.815 361.413 202.436 361.413 202.898 361.722L202.885 361.699ZM212.937 368.139C214.661 369.18 216.405 370.177 218.116 371.143C218.578 371.4 218.79 371.855 218.637 372.2C218.624 372.229 218.611 372.258 218.599 372.286C218.369 372.649 217.786 372.717 217.293 372.429C215.536 371.46 213.799 370.448 212.036 369.39C211.562 369.111 211.362 368.575 211.624 368.244C211.873 367.89 212.463 367.86 212.956 368.147L212.937 368.139ZM97.0863 207.875C96.7825 206.278 96.4851 204.667 96.2133 203.05C96.1356 202.603 96.5128 202.272 97.0508 202.304C97.5888 202.337 98.0825 202.728 98.1602 203.175C98.4384 204.778 98.7166 206.38 99.0268 207.963C99.059 208.097 99.0272 208.221 98.9826 208.321C98.8741 208.566 98.5735 208.725 98.2084 208.717C97.6705 208.685 97.1703 208.308 97.0735 207.852L97.0863 207.875ZM193.254 354.775C194.838 355.977 196.435 357.15 198.018 358.3C198.384 358.565 198.525 358.972 198.391 359.274C198.366 359.331 198.334 359.403 198.27 359.444C197.97 359.757 197.355 359.743 196.9 359.42C195.297 358.261 193.7 357.088 192.103 355.863C191.655 355.527 191.558 355.019 191.877 354.714C192.197 354.409 192.805 354.438 193.254 354.775ZM223.398 373.97C225.199 374.889 227.013 375.781 228.782 376.618C229.282 376.839 229.545 377.335 229.373 377.723L229.366 377.737C229.194 378.125 228.618 378.23 228.105 377.986C226.298 377.132 224.465 376.232 222.626 375.295C222.119 375.036 221.888 374.52 222.092 374.164C222.303 373.793 222.872 373.702 223.379 373.961L223.398 373.97ZM188.624 351.154C188.964 351.426 189.093 351.81 188.965 352.097C188.933 352.169 188.895 352.255 188.806 352.301C188.473 352.584 187.846 352.546 187.422 352.203C185.89 350.99 184.357 349.724 182.831 348.445C182.414 348.088 182.342 347.574 182.694 347.301C183.046 347.027 183.667 347.079 184.084 347.436C185.591 348.707 187.117 349.935 188.624 351.154ZM155.314 319.288C155.545 319.546 155.596 319.844 155.494 320.074C155.437 320.203 155.341 320.315 155.194 320.388C154.778 320.599 154.157 320.443 153.804 320.046C152.565 318.636 151.321 317.189 150.101 315.736C149.755 315.324 149.831 314.842 150.259 314.654C150.695 314.452 151.31 314.621 151.637 315.025C152.856 316.478 154.069 317.893 155.307 319.303L155.314 319.288ZM171.109 335.811C171.385 336.071 171.462 336.415 171.347 336.674C171.303 336.774 171.219 336.858 171.117 336.933C170.733 337.175 170.112 337.071 169.721 336.709C168.335 335.371 166.956 334.019 165.564 332.645C165.179 332.267 165.197 331.76 165.581 331.517C165.965 331.275 166.599 331.401 166.984 331.779C168.357 333.145 169.717 334.488 171.09 335.803L171.109 335.811ZM291.607 372.534C292.187 371.227 292.652 369.817 293.034 368.335C293.142 367.936 293.667 367.739 294.186 367.917C294.724 368.105 295.064 368.583 294.956 368.982C294.549 370.521 294.058 371.989 293.452 373.354C293.28 373.742 292.717 373.87 292.217 373.648C291.698 373.418 291.409 372.928 291.581 372.54L291.607 372.534ZM292.852 345.207C292.548 343.662 292.199 342.063 291.793 340.438C291.69 339.996 292.035 339.634 292.56 339.643C293.085 339.653 293.611 340.024 293.714 340.465C294.127 342.127 294.469 343.741 294.786 345.309C294.818 345.444 294.786 345.567 294.742 345.668C294.633 345.912 294.333 346.071 293.967 346.064C293.43 346.032 292.929 345.655 292.833 345.199L292.852 345.207ZM278.552 384.729C280.12 384.152 281.579 383.459 282.935 382.633C283.319 382.391 283.953 382.517 284.338 382.895C284.607 383.169 284.672 383.49 284.563 383.734C284.512 383.849 284.429 383.933 284.327 384.008C282.907 384.874 281.327 385.634 279.676 386.243C279.234 386.408 278.612 386.201 278.311 385.791C278.015 385.368 278.13 384.903 278.571 384.738L278.552 384.729ZM179.757 344.793C179.405 345.067 178.771 344.992 178.361 344.62C176.905 343.337 175.436 342.032 173.999 340.706C173.608 340.343 173.581 339.833 173.946 339.582C174.317 339.316 174.938 339.42 175.329 339.783C176.766 341.109 178.196 342.397 179.659 343.666C179.973 343.943 180.07 344.295 179.949 344.568C179.91 344.655 179.846 344.747 179.75 344.807L179.757 344.793ZM161.554 328.508C160.233 327.131 158.924 325.724 157.622 324.303C157.262 323.92 157.3 323.421 157.716 323.21C158.132 322.999 158.74 323.131 159.093 323.529C160.376 324.941 161.672 326.325 163 327.688C163.25 327.954 163.321 328.261 163.207 328.52C163.156 328.634 163.066 328.732 162.945 328.799C162.542 329.033 161.914 328.892 161.554 328.508ZM255.989 386.511C255.982 386.061 256.404 385.784 256.961 385.877C258.915 386.193 260.817 386.419 262.668 386.552C263.206 386.585 263.7 386.976 263.771 387.438C263.784 387.564 263.778 387.681 263.733 387.782C263.618 388.041 263.318 388.2 262.934 388.184C261.012 388.053 259.027 387.808 257.009 387.48C256.471 387.396 256.015 386.97 256.008 386.52L255.989 386.511ZM233.051 379.39C233.217 378.965 233.749 378.857 234.274 379.073C236.158 379.858 238.016 380.597 239.843 381.253C240.374 381.454 240.695 381.924 240.581 382.337C240.575 382.351 240.562 382.38 240.555 382.395C240.396 382.754 239.897 382.893 239.403 382.709C237.539 382.036 235.623 381.271 233.719 380.478C233.2 380.247 232.905 379.772 233.058 379.376L233.051 379.39ZM286.574 379.828C287.648 378.809 288.619 377.657 289.468 376.418C289.718 376.064 290.294 376.01 290.794 376.284C291.236 376.532 291.448 376.987 291.295 377.332C291.282 377.361 291.27 377.389 291.25 377.433C290.35 378.735 289.321 379.964 288.196 381.047C287.876 381.352 287.268 381.323 286.819 380.986C286.37 380.649 286.273 380.142 286.593 379.837L286.574 379.828ZM244.361 383.62C244.45 383.212 244.962 382.992 245.488 383.157C247.41 383.752 249.345 384.267 251.196 384.71C251.74 384.832 252.138 385.283 252.107 385.717C252.082 385.774 252.075 385.84 252.05 385.898C251.909 386.214 251.493 386.373 251.039 386.257C249.123 385.802 247.156 385.256 245.17 384.649C244.625 384.476 244.26 384.004 244.349 383.597L244.361 383.62ZM267.524 387.487C267.376 387.043 267.689 386.649 268.22 386.644C270.071 386.571 271.883 386.378 273.56 386.073C274.059 385.985 274.649 386.264 274.867 386.705C274.964 386.903 274.983 387.118 274.907 387.29C274.824 387.477 274.645 387.621 274.369 387.671C272.59 387.999 270.682 388.201 268.735 388.283C268.217 388.31 267.659 387.96 267.537 387.51L267.524 387.487ZM127.306 284.29C126.356 282.75 125.431 281.205 124.512 279.645C124.268 279.209 124.44 278.77 124.933 278.645C125.42 278.534 126.003 278.776 126.266 279.219C127.165 280.771 128.097 282.302 129.034 283.819C129.163 284.048 129.195 284.286 129.112 284.473C129.036 284.645 128.882 284.784 128.652 284.836C128.178 284.97 127.576 284.72 127.306 284.29ZM294.053 354.684C293.948 353.159 293.798 351.578 293.59 349.973C293.532 349.534 293.928 349.211 294.466 349.244C294.998 349.29 295.485 349.696 295.544 350.135C295.758 351.778 295.914 353.395 296.026 354.958C296.026 355.061 296.007 355.156 295.969 355.242C295.848 355.515 295.496 355.686 295.086 355.624C294.541 355.555 294.086 355.129 294.053 354.684ZM123.659 275.19C123.583 275.362 123.404 275.506 123.173 275.559C122.687 275.67 122.091 275.405 121.847 274.97C120.973 273.412 120.125 271.849 119.283 270.272C119.039 269.837 119.256 269.4 119.762 269.297C120.248 269.187 120.838 269.466 121.076 269.915C121.898 271.484 122.752 273.033 123.607 274.582C123.723 274.788 123.736 275.017 123.659 275.19ZM142.991 306.973C142.67 306.555 142.765 306.081 143.213 305.902C143.661 305.722 144.269 305.907 144.59 306.324C145.733 307.794 146.875 309.265 148.037 310.692C148.249 310.941 148.281 311.23 148.185 311.446C148.122 311.59 148.007 311.693 147.834 311.771C147.405 311.959 146.771 311.781 146.45 311.363C145.275 309.913 144.114 308.434 142.978 306.95L142.991 306.973ZM141.376 302.627C141.312 302.77 141.184 302.903 140.998 302.958C140.557 303.123 139.929 302.93 139.633 302.507C138.542 301.025 137.457 299.529 136.385 298.004C136.09 297.58 136.224 297.124 136.665 296.958C137.126 296.802 137.722 297.015 138.024 297.424C139.083 298.926 140.168 300.422 141.246 301.881C141.432 302.136 141.458 302.388 141.363 302.604L141.376 302.627ZM293.839 363.928C294.022 362.479 294.128 360.944 294.164 359.36C294.176 358.918 294.617 358.65 295.168 358.757C295.719 358.864 296.149 359.295 296.137 359.737C296.108 361.358 295.983 362.936 295.8 364.437C295.774 364.495 295.774 364.546 295.749 364.604C295.608 364.92 295.192 365.079 294.718 364.955C294.18 364.819 293.789 364.353 293.839 363.928ZM130.209 288.898C129.939 288.469 130.098 288.006 130.572 287.873C131.046 287.739 131.635 287.966 131.924 288.404C132.907 289.924 133.908 291.452 134.923 292.951C135.09 293.198 135.103 293.427 135.014 293.628C134.943 293.786 134.796 293.91 134.604 293.98C134.144 294.136 133.535 293.9 133.239 293.477C132.206 291.969 131.204 290.441 130.209 288.898Z" fill="#7879F1"/>
<g filter="url(#filter2_dddd_971_648)">
<rect x="251" y="295.192" width="50" height="50" rx="25" transform="rotate(-79.6911 251 295.192)" fill="#50BFA5"/>
<path fill-rule="evenodd" clip-rule="evenodd" d="M268.637 269.373C268.111 269.337 267.305 269.567 267.055 269.932C266.005 271.465 268.669 271.249 269.418 271.283C268.933 271.695 267.082 273.637 266.972 274.097C266.845 274.612 266.847 278.717 266.836 279.6C266.818 280.875 266.521 283.884 267.635 284.293C267.955 284.41 269.737 284.422 270.123 284.337C271.042 284.134 270.845 283.295 270.886 282.3C274.118 282.075 286.034 282.075 289.252 282.3C289.291 283.227 289.107 284.059 289.909 284.311C290.297 284.433 292.157 284.419 292.502 284.293C293.883 283.787 293.166 278.758 293.194 277.043C293.244 274.046 293.15 273.2 290.72 271.283C291.514 271.247 293.903 271.533 293.141 270.026C292.911 269.57 291.45 269.001 290.91 269.631C289.815 270.909 289.934 269.534 288.935 268.095C287.775 265.769 287.484 265.808 283.838 265.847C282.637 265.792 281.339 265.746 280.14 265.743C278.896 265.739 274.095 265.888 273.059 266.129C272.046 266.15 270.716 268.771 270.245 269.699C269.506 271.152 269.641 269.446 268.637 269.372L268.637 269.373ZM270.238 271.035C273.305 271.088 276.791 270.66 279.998 270.658C283.319 270.653 286.638 271.009 289.9 271.035L288.139 267.619C287.814 267.091 287.805 266.886 287.109 266.771C284.543 266.353 275.817 266.408 273.162 266.755C272.191 266.884 272.198 267.265 271.437 268.619C270.978 269.435 270.571 270.196 270.238 271.035ZM275.057 277.974C275.057 278.875 275.794 279.611 276.693 279.611L283.451 279.611C284.349 279.611 285.086 278.875 285.086 277.974L285.086 276.846C285.086 275.947 284.349 275.209 283.451 275.209L276.693 275.209C275.794 275.209 275.057 275.947 275.057 276.846L275.057 277.974ZM272.976 277.979C273.35 277.802 273.732 277.37 273.869 277.011C272.861 276.416 269.112 276.151 267.962 276.379C267.443 279.43 271.919 278.483 272.976 277.979ZM286.273 277.011C286.411 277.37 286.792 277.802 287.166 277.979C288.223 278.482 292.7 279.43 292.181 276.379C291.03 276.152 287.281 276.416 286.273 277.011Z" fill="white"/>
</g>
<g clip-path="url(#clip1_971_648)">
<path d="M758.68 388.911C752.929 416.929 741.367 438.789 723.905 447.156C722.018 448.059 720.033 448.952 717.954 449.83C689.806 461.716 644.537 471 598.24 471C551.944 471 507.815 462.332 475.672 438.97C458.733 426.659 445.557 410.268 438.268 388.913H758.681L758.68 388.911Z" fill="#B3DDAA"/>
<path d="M630.865 389.302H412.018L340.48 451.287C387.982 480.219 455.506 490.95 521.61 490.95C587.714 490.95 656.925 479.453 698.521 464.735L630.864 389.3L630.865 389.302Z" fill="#96D9C9"/>
<path d="M758.666 389.294H640.283C640.283 389.294 644.679 373.102 670.637 371.14C696.594 369.178 701.619 346.684 730.508 349.34C744.138 350.594 755.626 345.727 764.969 340.743C765.279 357.927 763.183 374.477 758.666 389.296V389.294Z" fill="#9BCC8F"/>
<path d="M665.396 310.21H641.549V298.174C641.549 296.026 643.291 294.282 645.437 294.282H661.991C666.146 294.282 669.521 297.66 669.521 301.82V306.081C669.521 308.359 667.674 310.21 665.396 310.21Z" fill="#F4B043"/>
<path d="M641.548 303.353H630.66V310.211H641.548V303.353Z" fill="#F4B043"/>
<path d="M402.217 298.003V310.208H378.556C376.174 310.208 374.242 308.441 374.242 306.263V301.488C374.242 297.509 377.769 294.282 382.118 294.282H398.149C400.396 294.282 402.217 295.946 402.217 298.003Z" fill="#F4B043"/>
<path d="M413.105 303.351V310.209H378.558C376.176 310.209 374.244 308.441 374.244 306.263V303.351H413.106H413.105Z" fill="#F4B043"/>
<path d="M400.973 316.467L407.589 306.263H635.73L638.184 316.467L572.851 355.054H449.771L400.973 316.467Z" fill="#FACD49"/>
<path d="M441.315 244.108C462.958 242.208 533.701 237.075 601.439 244.111C605.169 244.499 608.619 246.923 611.001 250.811C617.602 261.591 630.877 284.739 635.733 303.894C636.602 307.324 634.728 310.893 632.039 310.893H411.054C408.37 310.893 406.553 307.21 407.592 303.874C410.949 293.098 418.424 271.665 430.03 252.068C432.797 247.395 436.888 244.497 441.315 244.11V244.108Z" fill="#F4B043"/>
<path d="M626.523 310.892C626.493 310.911 626.462 310.929 626.432 310.945C626.004 311.184 625.534 311.316 625.033 311.316H418.068C418.024 311.316 417.979 311.316 417.935 311.312C416.956 311.264 416.108 310.692 415.508 309.827C415.28 309.5 415.089 309.133 414.937 308.735C414.487 307.554 414.396 306.117 414.825 304.743C417.969 294.65 424.97 274.576 435.838 256.223C438.431 251.847 442.262 249.133 446.408 248.769C466.68 246.99 532.934 242.184 596.374 248.772C599.869 249.134 603.099 251.405 605.33 255.047C611.512 265.144 623.944 286.823 628.49 304.761C629.132 307.287 628.182 309.894 626.523 310.892Z" fill="#C2D9FF"/>
<path d="M438.107 253.149C440.454 250.589 443.346 249.038 446.409 248.768C466.679 246.99 532.935 242.183 596.377 248.77C599.87 249.134 602.006 250.593 603.608 252.717C603.874 253.069 438.109 253.147 438.109 253.147L438.107 253.149Z" fill="#FAE4A4"/>
<path d="M383.82 355.055C383.82 355.055 379.527 331.732 400.974 316.467C400.974 316.467 459.406 310.877 474.326 355.055H383.821H383.82Z" fill="#FACD49"/>
<path d="M655.336 355.055C655.336 355.055 659.629 331.732 638.182 316.467C638.182 316.467 579.748 310.877 564.83 355.055H655.335H655.336Z" fill="#FACD49"/>
<path d="M400.897 386.722H425.315C429.048 386.722 432.079 389.756 432.079 393.492V426.04C432.079 429.777 429.048 432.811 425.315 432.811H400.899C397.166 432.811 394.135 429.777 394.135 426.04V393.492C394.135 389.756 397.166 386.722 400.899 386.722H400.897Z" fill="#233862"/>
<path d="M618.206 386.722H642.623C646.357 386.722 649.388 389.756 649.388 393.492V426.04C649.388 429.777 646.357 432.811 642.623 432.811H618.206C614.472 432.811 611.441 429.777 611.441 426.04V393.492C611.441 389.756 614.472 386.722 618.206 386.722Z" fill="#233862"/>
<path d="M655.688 355.055V408.368C655.688 413.901 650.788 418.387 644.738 418.387H581.945C579.708 418.387 577.656 417.673 576.041 416.483C575.024 415.734 574.183 414.796 573.575 413.728C572.214 411.325 569.564 409.764 566.606 409.764H471.477C467.559 409.764 464.697 411.584 462.56 414.589C461.113 416.624 459.62 418.504 456.131 418.387H394.12C388.432 418.387 383.818 414.166 383.818 408.96V355.053H655.688V355.055Z" fill="#F5B444"/>
<path d="M647.744 331.323V347.612C647.744 349.838 645.773 351.641 643.341 351.641H584.079C582.062 351.641 580.852 349.59 581.96 348.047L587.938 339.724C592.313 333.635 599.619 329.839 607.575 329.526L644.05 328.086C646.065 328.006 647.746 329.479 647.746 331.325L647.744 331.323Z" fill="#F9AF2F"/>
<path d="M461.435 351.641H402.173C399.74 351.641 397.77 349.837 397.77 347.611V331.323C397.77 329.479 399.45 328.006 401.463 328.084L404.516 328.205L425.074 329.015L428.642 329.158L437.938 329.523C443.849 329.757 449.399 331.91 453.655 335.499C455.13 336.74 456.45 338.155 457.575 339.724L463.551 348.047C464.66 349.59 463.452 351.643 461.435 351.643V351.641Z" fill="#F9AF2F"/>
<path d="M425.965 393.093H396.333C395.116 393.093 394.131 393.994 394.131 395.108V403.252C394.131 404.175 394.972 404.911 395.979 404.872L397.504 404.811L407.782 404.406L409.566 404.335L414.213 404.151C417.168 404.035 419.944 402.958 422.072 401.164C422.809 400.543 423.469 399.835 424.032 399.052L427.02 394.891C427.574 394.118 426.97 393.093 425.962 393.093H425.965Z" fill="#F3962C"/>
<path d="M615.133 393.093H644.765C645.982 393.093 646.967 393.994 646.967 395.108V403.252C646.967 404.175 646.126 404.911 645.119 404.872L643.594 404.811L633.316 404.406L631.532 404.335L626.885 404.151C623.93 404.035 621.154 402.958 619.026 401.164C618.289 400.543 617.629 399.835 617.066 399.052L614.078 394.891C613.524 394.118 614.128 393.093 615.136 393.093H615.133Z" fill="#F3962C"/>
<path d="M471.241 334.574H567.989C569.499 334.574 570.498 336.103 569.859 337.437L565.053 347.477C563.838 350.017 561.222 351.64 558.347 351.64H481.733C479.114 351.64 476.701 350.256 475.429 348.023L469.454 337.535C468.696 336.206 469.682 334.574 471.241 334.574Z" fill="#FACD49"/>
<path d="M480.954 373.065H563.114C564.714 373.065 566.013 374.366 566.013 375.967V386.659C566.013 388.26 564.714 389.561 563.114 389.561H480.954C479.354 389.561 478.055 388.26 478.055 386.659V375.967C478.055 374.366 479.354 373.065 480.954 373.065Z" fill="#F3962C"/>
<path d="M453.696 336.479C453.696 343.453 447.516 349.109 439.893 349.109C432.27 349.109 426.09 343.453 426.09 336.479C426.09 333.75 427.034 331.224 428.643 329.157L437.94 329.523C443.85 329.757 449.401 331.909 453.656 335.498C453.681 335.823 453.696 336.149 453.696 336.479Z" fill="#EAFCFC"/>
<path d="M425.276 330.907C425.276 336.258 420.534 340.598 414.688 340.598C408.841 340.598 404.098 336.26 404.098 330.907C404.098 329.969 404.242 329.063 404.516 328.205L425.075 329.015C425.206 329.627 425.278 330.258 425.278 330.907H425.276Z" fill="#EAFCFC"/>
<path d="M591.871 336.479C591.871 343.453 598.051 349.109 605.674 349.109C613.297 349.109 619.477 343.453 619.477 336.479C619.477 333.75 618.532 331.224 616.923 329.157L607.627 329.523C601.718 329.757 591.871 336.149 591.871 336.479Z" fill="#EAFCFC"/>
<path d="M620.289 330.907C620.289 336.258 625.031 340.598 630.877 340.598C636.724 340.598 641.469 336.26 641.469 330.907C641.469 329.969 641.325 329.063 641.05 328.205L620.492 329.015C620.36 329.627 620.289 330.258 620.289 330.907Z" fill="#EAFCFC"/>
<path d="M576.041 416.483C575.024 415.734 574.183 414.796 573.575 413.727C572.214 411.325 569.564 409.764 566.606 409.764H471.477C467.559 409.764 464.697 411.583 462.561 414.589C462.561 414.589 464.688 399.019 475.567 398.984C486.446 398.948 564.831 398.984 564.831 398.984C564.831 398.984 574.746 399.283 576.04 416.483H576.041Z" fill="#233862"/>
<path opacity="0.5" d="M582.317 262.702H568.808C567.265 262.702 566.014 263.954 566.014 265.499V271.094C566.014 272.639 567.265 273.891 568.808 273.891H582.317C583.86 273.891 585.111 272.639 585.111 271.094V265.499C585.111 263.954 583.86 262.702 582.317 262.702Z" fill="#95BEEF"/>
<path opacity="0.5" d="M470.729 262.702H457.22C455.677 262.702 454.426 263.954 454.426 265.499V271.094C454.426 272.639 455.677 273.891 457.22 273.891H470.729C472.272 273.891 473.523 272.639 473.523 271.094V265.499C473.523 263.954 472.272 262.702 470.729 262.702Z" fill="#95BEEF"/>
<path opacity="0.5" d="M489.55 284.202V307.739C489.55 308.692 489.392 309.61 489.099 310.468C489 310.759 488.886 311.041 488.755 311.315H429.693C429.184 310.227 428.898 309.015 428.898 307.739V284.202C428.898 284.159 428.898 284.117 428.898 284.074C428.968 279.459 432.76 275.703 437.388 275.703H481.057C482.727 275.703 484.29 276.192 485.607 277.036C487.221 278.068 488.469 279.631 489.098 281.473C489.368 282.271 489.525 283.12 489.545 284.001C489.548 284.067 489.548 284.134 489.548 284.202H489.55Z" fill="#95BEEF"/>
<path opacity="0.5" d="M549.302 284.202V307.739C549.302 309.015 549.017 310.227 548.507 311.315H489.443C489.313 311.041 489.199 310.759 489.099 310.468C488.807 309.61 488.648 308.692 488.648 307.739V284.202C488.648 283.853 488.67 283.508 488.711 283.169C488.782 282.584 488.914 282.017 489.099 281.473C489.541 280.184 490.284 279.031 491.245 278.1C492.252 277.125 493.497 276.395 494.883 276.012C495.602 275.81 496.359 275.703 497.139 275.703H540.811C541.795 275.703 542.741 275.873 543.621 276.185C544.313 276.429 544.965 276.763 545.56 277.169C545.768 277.31 545.97 277.462 546.162 277.621C546.788 278.131 547.336 278.725 547.796 279.39C548.742 280.762 549.298 282.42 549.298 284.202H549.302Z" fill="#95BEEF"/>
<path opacity="0.5" d="M610.261 284.202V307.739C610.261 307.793 610.261 307.845 610.261 307.896C610.245 308.754 610.101 309.582 609.848 310.359C609.741 310.689 609.614 311.007 609.468 311.315H550.406C549.896 310.227 549.611 309.015 549.611 307.739V284.202C549.611 281.55 550.843 279.171 552.76 277.61C554.221 276.418 556.082 275.703 558.102 275.703H601.772C605.247 275.703 608.251 277.822 609.561 280.831C610.014 281.866 610.263 283.007 610.263 284.202H610.261Z" fill="#95BEEF"/>
<path d="M477.639 291.931V309.931C477.639 310.061 477.639 310.192 477.632 310.32C477.623 310.655 477.598 310.987 477.563 311.315H426.166C426.117 310.861 426.09 310.399 426.09 309.931V291.931C426.09 288.957 427.145 286.219 428.9 284.074C431.02 281.477 434.164 279.747 437.699 279.513C437.972 279.493 438.246 279.484 438.524 279.484H465.207C466.641 279.484 468.021 279.731 469.305 280.184C474.145 281.889 477.639 286.521 477.639 291.931Z" fill="#73A3DD"/>
<path d="M616.382 291.931V309.931C616.382 310.399 616.355 310.861 616.305 311.315H564.909C564.859 310.861 564.832 310.399 564.832 309.931V291.931C564.832 285.085 570.427 279.484 577.266 279.484H603.949C605.964 279.484 607.871 279.971 609.559 280.831C613.598 282.893 616.382 287.102 616.382 291.931Z" fill="#73A3DD"/>
<path d="M581.038 261.226H597.578C600.613 261.226 603.075 263.691 603.075 266.728V271.419C603.075 274.455 600.613 276.922 597.578 276.922H581.038C578.005 276.922 575.541 274.457 575.541 271.419V266.728C575.541 263.692 578.004 261.226 581.038 261.226Z" fill="#73A3DD"/>
<path d="M460.143 261.226H443.605C440.569 261.226 438.107 263.689 438.107 266.728V271.419C438.107 274.458 440.569 276.922 443.605 276.922H460.143C463.179 276.922 465.64 274.458 465.64 271.419V266.728C465.64 263.689 463.179 261.226 460.143 261.226Z" fill="#73A3DD"/>
<path d="M519.259 311.316H510.116C509.762 310.386 509.557 309.818 509.557 309.818L509.929 294.628C509.929 294.628 513.865 296.981 515.188 299.993C515.464 300.621 515.777 301.415 516.118 302.321C517.059 304.834 518.197 308.214 519.259 311.316Z" fill="#F3A393"/>
<path d="M490.715 301.378C490.715 301.378 490.265 301.868 489.549 302.658C489.282 302.953 488.979 303.288 488.647 303.656C487.863 304.524 486.924 305.573 485.953 306.67C484.567 308.239 483.115 309.913 481.953 311.316H474.955C475.547 310.066 476.183 308.826 476.835 307.619C477.101 307.125 477.368 306.64 477.639 306.162C478.665 304.335 479.708 302.617 480.664 301.1C481.691 299.471 482.619 298.074 483.327 297.024C483.867 296.225 487.961 293.688 487.961 293.688L488.647 295.604L489.549 298.123L490.715 301.378Z" fill="#F3A393"/>
<path d="M516.603 300.982C516.603 300.982 516.454 301.549 516.117 302.321C515.575 303.563 514.551 305.334 512.886 306.149L512.79 311.316H486.182C486.188 310.491 486.172 309.665 486.136 308.837L486.125 308.598L486.045 306.706C486.013 306.693 485.983 306.682 485.952 306.67C482.235 305.222 481.04 302.485 480.664 301.1C480.521 300.581 480.496 300.251 480.496 300.251C482.239 297.315 485.874 293.703 487.861 292.62C488.092 292.493 488.356 292.379 488.647 292.274C488.923 292.174 489.224 292.085 489.548 292.005C491.011 291.639 492.925 291.461 495.024 291.411C497.71 291.348 500.701 291.496 503.449 291.732H503.451C504.395 291.814 505.31 291.907 506.174 292.003C510.75 292.517 513.171 295.301 513.171 295.301C513.171 295.301 514.677 296.462 516.603 300.982Z" fill="#B23F36"/>
<path d="M502.463 294.509C500.74 295.343 497.213 295.948 494.916 293.833C494.578 293.521 494.681 292.943 494.793 292.495C495.018 291.603 495.358 289.859 495.338 287.568C495.326 286.142 495.176 284.499 494.766 282.719L502.186 285.178C502.186 285.178 502.119 285.84 502.154 286.796C502.167 287.067 502.185 287.363 502.215 287.676C502.277 288.294 502.386 288.976 502.573 289.652C502.65 289.923 502.739 290.194 502.84 290.46C502.962 290.77 503.102 291.07 503.265 291.359C503.954 292.568 503.714 293.904 502.459 294.512L502.463 294.509Z" fill="#F3A393"/>
<path d="M502.574 289.648C496.733 289.794 495.338 287.566 495.338 287.566L502.216 287.672C502.279 288.291 502.387 288.972 502.574 289.648Z" fill="#F28C80"/>
<path d="M504.402 287.984C504.402 287.984 496.925 291.252 493.276 285.464C489.338 279.216 491.768 273.843 494.365 273.105C499.543 271.63 502.922 273.171 504.178 275.156C505.434 277.143 508.535 286.218 504.402 287.984Z" fill="#F3A393"/>
<path d="M500.771 284.97C500.771 284.97 501.222 285.725 503.209 284.954C503.209 284.954 504.877 284.309 504.54 283.427C504.54 283.427 502.687 283.315 500.771 284.97Z" fill="white"/>
<path d="M495.003 287.419C495.003 287.419 493.674 284.875 493.561 283.423C493.561 283.423 491.125 281.142 492.211 280.316C493.298 279.49 494.174 280.928 494.399 280.584C494.623 280.24 494.258 275.072 495.723 275.01C497.188 274.947 502.769 275.775 504.791 273.397C506.814 271.02 499.932 264.023 490.803 268.551C481.674 273.08 485.286 283.459 495.001 287.417L495.003 287.419Z" fill="#2C3A64"/>
<path d="M486.716 273.476C486.716 273.476 486.08 272.245 486.405 271.246C486.405 271.246 486.626 272.52 487.214 273.01C487.803 273.501 486.716 273.476 486.716 273.476Z" fill="#2C3A64"/>
<path d="M486.777 272.538C486.777 272.538 485.569 272.588 485.15 273.589C485.15 273.589 485.899 272.893 486.838 273.362L486.777 272.538Z" fill="#2C3A64"/>
<path d="M530.486 299.32L528.731 311.315H523.188C523.489 309.371 524.16 305.007 524.599 302.114C524.843 300.519 525.014 299.372 525.014 299.32H530.486Z" fill="#F3A393"/>
<path d="M536.932 273.377C536.932 273.377 534.907 272.405 532.635 273.377C530.363 274.349 528.708 278.491 529.727 282.36C530.745 286.229 527.309 286.293 528.9 289.395C529.465 290.495 536.933 291.431 537.188 287.147C537.347 284.493 534.945 284.361 535.645 281.477C536.345 278.593 536.933 273.377 536.933 273.377H536.932Z" fill="#2C3A64"/>
<path d="M532.064 274.553C532.127 274.449 534.711 270.361 539.54 269.544C543.451 268.882 547.113 271.649 547.715 275.575C548.319 279.52 547.703 284.63 541.274 286.473L532.064 274.553Z" fill="#2C3A64"/>
<path d="M533.246 292.13L540.522 296.455L542.361 291.329C542.361 291.329 541.518 289.462 541.272 286.472C541.17 285.217 541.172 283.761 541.39 282.163L535.062 284.913C535.062 284.913 535.172 285.49 535.217 286.333C535.263 287.245 535.233 288.467 534.903 289.608C534.618 290.589 534.114 291.509 533.246 292.128V292.13Z" fill="#F3A393"/>
<path d="M534.906 289.611C538.397 289.739 541.275 286.475 541.275 286.475L535.22 286.336C535.266 287.247 535.236 288.469 534.906 289.611Z" fill="#F28C80"/>
<path d="M533.339 287.559C533.339 287.559 540.173 289.838 542.923 284.459C545.89 278.653 543.327 274.122 540.986 273.678C536.317 272.794 533.468 274.415 532.521 276.261C531.573 278.107 529.569 286.333 533.341 287.557L533.339 287.559Z" fill="#F3A393"/>
<path d="M536.293 284.619C536.293 284.619 535.956 285.319 534.149 284.8C534.149 284.8 532.631 284.364 532.857 283.563C532.857 283.563 534.477 283.317 536.293 284.619Z" fill="white"/>
<path d="M551.296 311.316H527.075C526.857 308.417 526.691 305.51 526.61 302.927C526.569 301.629 526.547 300.412 526.549 299.321C526.558 296.545 526.727 294.567 527.116 294.075C527.151 294.038 527.169 294.018 527.169 294.018C530.197 291.376 533.734 291.109 534.211 291.062C534.208 291.089 534.206 291.116 534.204 291.143C534.129 292.195 534.527 293.167 536.36 293.526C538.778 294 541.066 292.543 542.317 291.451H542.319C542.364 291.412 542.405 291.375 542.447 291.337C544.254 291.714 547.342 292.944 549.302 294.701C549.408 294.794 549.511 294.89 549.611 294.988C549.666 295.044 549.721 295.099 549.775 295.156C550.762 296.194 551.177 302.963 551.296 311.316Z" fill="#FAE4A4"/>
<path d="M538.127 274.319C538.127 274.319 537.48 280.734 543.56 283.009C545.978 283.913 547.236 274.112 542.184 272.155C537.131 270.198 532.149 272.523 531.553 275.944C530.958 279.365 531.411 280.078 531.411 280.078C531.411 280.078 533.775 273.57 538.127 274.319Z" fill="#2C3A64"/>
<path d="M545.676 273.431C545.676 273.431 547.701 272.336 549.973 273.431C552.244 274.526 553.9 279.19 552.881 283.544C551.863 287.9 555.299 287.973 553.707 291.466C553.143 292.705 545.674 293.758 545.42 288.935C545.261 285.945 547.663 285.797 546.963 282.549C546.263 279.301 545.674 273.429 545.674 273.429L545.676 273.431Z" fill="#2C3A64"/>
<path d="M527.166 294.017C527.166 294.017 524.138 297.223 523.848 301.593C523.848 301.593 525.886 303.283 527.748 302.932C529.612 302.583 527.166 294.016 527.166 294.016V294.017Z" fill="#FAE4A4"/>
<path d="M548.846 304.099C548.846 304.099 547.916 307.693 546.679 311.315H539.338C540.389 307.415 541.628 301.418 541.628 301.418C544.655 304.448 548.846 304.099 548.846 304.099Z" fill="#F3A393"/>
<path d="M616.382 293.96C614.988 292.531 613.78 291.424 612.936 290.753C612.143 290.123 611.234 289.553 610.261 289.039C604.831 286.173 597.36 285.049 596.26 284.895C596.171 284.881 596.123 284.876 596.123 284.876C596.123 287.038 591.52 288.907 587.768 288.661C584.608 288.454 582.555 286.049 582.555 284.746L582.552 284.74C582.552 284.74 582.548 284.742 582.546 284.742C582.534 284.742 582.495 284.751 582.427 284.765C581.278 284.986 572.272 286.872 565.778 291.666C565.502 291.871 565.183 292.139 564.832 292.467C561.504 295.563 555.155 303.847 551.965 311.317H625.033C625.154 311.317 625.274 311.309 625.391 311.292C625.794 311.242 626.174 311.104 626.523 310.894C627.031 310.587 627.473 310.129 627.822 309.569C624.876 303.568 620.006 297.679 616.382 293.96Z" fill="#B23F36"/>
<path d="M587.242 289.587C582.058 288.972 582.426 284.759 582.426 284.759C582.426 284.759 582.971 283.496 583.318 281.4C583.541 280.036 583.682 278.317 583.53 276.365L585.163 276.098L595.154 276.297C595.17 276.306 595.186 276.319 595.198 276.33C595.268 276.39 595.302 276.442 595.295 276.483C594.746 280.066 595.667 283.291 596.261 284.889C596.399 288.139 592.426 290.201 587.244 289.586L587.242 289.587Z" fill="#F3A393"/>
<path d="M595.204 276.299C595.202 276.312 595.198 276.321 595.197 276.331C595.001 277.309 592.458 280.814 587.201 281.427C586.437 281.518 584.788 281.517 583.316 281.402C583.539 280.038 583.68 278.318 583.528 276.367L585.161 276.1L595.152 276.299H595.204Z" fill="#F28C80"/>
<path d="M596.148 274.227C594.983 280.503 586.893 280.296 583.397 279.902C582.413 279.793 581.793 279.667 581.793 279.667C580.683 279.371 580.064 277.621 579.777 275.329C579.207 270.795 579.927 264.138 580.693 262.437C581.845 259.875 584.015 257.103 592.162 259.103C600.311 261.104 597.643 266.184 596.148 274.227Z" fill="#F3A393"/>
<path d="M580.736 274.937C580.736 274.937 580.964 276.219 582.002 276.385C584.452 276.775 585.045 275.482 585.045 275.482C585.045 275.482 582.279 274.501 580.738 274.937H580.736Z" fill="white"/>
<path d="M596.326 255.852C596.347 255.836 596.365 255.816 596.378 255.795C596.492 255.588 596.814 255.634 596.814 255.634C596.355 255.427 595.638 255.557 595.638 255.557C595.654 255.547 595.626 255.513 595.562 255.465C595.469 254.839 594.838 254.391 594.838 254.391C595.052 254.701 595.143 255.012 595.18 255.238C593.774 254.496 591.091 251.956 586.009 254.345C583.699 255.431 581.458 256.101 579.713 256.512C577.45 257.041 576.42 259.701 577.751 261.606C578.427 262.573 579.28 263.484 580.223 264.133C583.247 265.082 587.352 263.402 589.332 265.005C591.312 266.609 589.426 269.251 591.688 270.194L591.698 270.199C592.274 270.438 592.939 270.226 593.261 269.693C593.814 268.781 594.576 267.934 595.378 268.45C597.041 269.52 596.219 272.827 595.818 273.512C595.203 274.56 595.291 276.483 595.291 276.483C595.291 276.483 599.573 274.027 600.808 271.139C603.853 264.019 601.679 258.442 596.323 255.85L596.326 255.852Z" fill="#233862"/>
<path d="M566.313 311.316H569.793C569.996 309.973 570.148 308.751 570.249 307.845C570.258 307.763 570.267 307.684 570.276 307.609C570.363 306.808 570.408 306.305 570.411 306.264V306.261C570.433 306.198 570.787 305.059 569.757 304.392C569.28 304.081 568.503 303.872 567.254 303.922C567.254 303.922 566.721 304.151 565.841 304.565C565.543 304.704 565.204 304.866 564.832 305.046C562.168 306.345 557.822 308.647 554.504 311.316H566.313Z" fill="#C65447"/>
<path d="M616.382 304.388C614.792 303.391 613.712 302.795 613.712 302.795H613.707C612.392 302.743 611.403 303.098 610.665 303.599C610.521 303.698 610.385 303.801 610.261 303.908C609.881 304.233 609.585 304.591 609.357 304.928C608.874 305.644 608.705 306.262 608.705 306.262C608.705 306.262 608.773 307.058 608.919 308.285C608.93 308.387 608.942 308.494 608.955 308.603C609.051 309.386 609.172 310.317 609.323 311.316H625.033C625.154 311.316 625.274 311.308 625.391 311.291C622.592 308.492 618.866 305.949 616.382 304.388Z" fill="#C65447"/>
<path d="M477.638 296.467C477.075 294.678 475.881 292.633 473.884 290.298C470.714 286.595 469.628 283.276 469.304 280.184C469.14 278.64 469.167 277.152 469.219 275.704C469.236 275.188 469.256 274.68 469.274 274.174C469.277 274.083 469.279 273.99 469.279 273.892C469.29 271.316 468.358 266.548 465.869 262.703C463.509 259.054 459.748 256.234 454.063 256.901C454.063 256.901 450.989 255.716 447.058 257.652C445.107 258.611 443.65 259.872 442.543 261.33C439.854 264.872 439.243 269.563 438.678 273.858C438.598 274.484 438.516 275.101 438.43 275.704C438.236 277.06 438.015 278.347 437.698 279.514C437.126 281.615 436.238 283.325 434.624 284.331C431.834 286.069 429.975 288.198 428.897 290.428C427.249 293.84 427.427 297.491 428.897 300.342C429.152 300.837 429.448 301.31 429.777 301.752C431.905 304.59 435.524 306.206 439.891 305.157C439.729 304.843 440.431 304.173 441.634 303.463C445.982 300.896 456.87 297.8 457.084 309.026C457.084 309.026 462.372 308.896 467.636 307.544C470.63 306.775 473.615 305.612 475.614 303.852C476.525 303.051 477.23 302.125 477.638 301.057C478.141 299.753 478.196 298.235 477.638 296.467Z" fill="#163560"/>
<path d="M468.053 311.316H441.365C441.454 308.609 441.547 305.924 441.634 303.463C441.859 297.072 442.048 292.167 442.048 292.167C442.541 292.014 443.532 291.876 444.074 291.757C445.783 291.377 447.196 290.175 447.786 288.525C448.493 286.538 449.058 283.606 449.044 279.928L449.578 280.031L458.55 281.809C458.55 281.809 458.547 281.865 458.54 281.968C458.538 281.991 458.536 282.016 458.534 282.045V282.056C458.534 282.072 458.531 282.09 458.531 282.107C458.524 282.195 458.518 282.3 458.511 282.423C458.507 282.462 458.506 282.503 458.502 282.546C458.5 282.58 458.499 282.616 458.497 282.653C458.497 282.689 458.491 282.726 458.49 282.766C458.481 282.921 458.472 283.09 458.461 283.274C458.461 283.311 458.458 283.347 458.456 283.386C458.447 283.566 458.436 283.759 458.427 283.961C458.424 284.03 458.42 284.1 458.418 284.173C458.417 284.198 458.417 284.223 458.415 284.248C458.411 284.319 458.409 284.392 458.406 284.465C458.402 284.558 458.399 284.653 458.395 284.749C458.388 284.942 458.381 285.14 458.374 285.339C458.37 285.466 458.367 285.594 458.363 285.723C458.356 285.981 458.351 286.244 458.347 286.506C458.347 286.547 458.347 286.588 458.347 286.627C458.344 286.85 458.342 287.075 458.342 287.298V287.364C458.331 289.677 459.846 291.718 462.066 292.358C463.167 292.677 464.131 292.95 464.183 292.966C464.183 292.966 466.523 299.651 467.636 307.544C467.809 308.778 467.953 310.043 468.053 311.316Z" fill="#F3A393"/>
<path d="M458.548 281.81C458.548 281.81 458.343 284.635 458.338 287.298C453.318 287.157 450.663 282.571 449.576 280.031L458.548 281.81Z" fill="#F28C80"/>
<path d="M460.226 284.33C460.226 284.33 448.348 284.526 448.339 277.121C448.33 269.715 446.792 264.751 454.376 264.314C461.96 263.875 463.437 266.7 464.039 269.171C464.644 271.643 463.314 284.089 460.226 284.33Z" fill="#F3A393"/>
<path d="M459.786 264.132C459.786 264.132 456.534 272.82 451.543 274.106C446.552 275.39 444.387 274.053 444.387 274.053C444.387 274.053 448.214 271.008 449.009 265.694C449.009 265.694 457.332 259.997 459.786 264.134V264.132Z" fill="#163560"/>
<path d="M458.98 264.836C458.98 264.836 461.391 265.739 462.384 267.499C463.355 269.221 464.182 271.502 463.989 274.299C463.989 274.299 466.44 268.393 463.687 265.052C460.766 261.51 458.98 264.836 458.98 264.836Z" fill="#163560"/>
<path d="M457.641 279.735C457.641 279.735 458.46 280.814 460.1 280.737C461.42 280.675 461.93 279.528 461.93 279.528C461.93 279.528 459.503 278.944 457.641 279.735Z" fill="#EBF3FA"/>
<path d="M457.904 279.933C457.904 279.933 458.109 280.805 460.28 280.672C460.28 280.672 462.101 280.559 462.046 279.6C462.046 279.6 460.28 278.916 457.906 279.933H457.904Z" fill="white"/>
<path d="M477.631 310.321C477.729 310.658 477.823 310.99 477.916 311.316H428.084C428.337 309.47 428.604 307.658 428.897 305.978C429.166 304.431 429.456 302.997 429.777 301.752C430.106 300.474 430.468 299.396 430.871 298.601C434.403 291.634 442.029 292.169 442.045 292.167C454.458 302.3 464.015 293.125 464.179 292.966C464.179 292.966 470.241 294.245 472.358 296.969C473.527 298.472 474.621 301.023 475.61 303.852C476.036 305.075 476.444 306.351 476.831 307.617C477.109 308.532 477.374 309.442 477.627 310.321H477.631Z" fill="#FAE4A4"/>
<path d="M610.722 303.675C610.722 303.675 610.703 303.648 610.665 303.602C610.612 303.527 610.517 303.404 610.393 303.25C610.38 303.232 610.366 303.216 610.352 303.198C610.323 303.163 610.293 303.124 610.261 303.086C610.158 302.959 610.04 302.82 609.912 302.672C608.007 300.398 605.703 298.463 603.114 296.972C599.396 294.835 595.091 293.611 590.505 293.611C583.126 293.611 576.472 296.779 571.832 301.827C571.632 302.044 571.434 302.267 571.244 302.492C571.142 302.61 571.044 302.728 570.946 302.845C570.533 303.345 570.139 303.86 569.763 304.392C568.918 305.59 568.173 306.864 567.543 308.202C567.069 309.206 566.659 310.246 566.318 311.316H570.764C571.194 310.212 571.714 309.154 572.316 308.15C572.874 307.217 573.501 306.332 574.191 305.499C578.081 300.803 583.952 297.806 590.508 297.806C597.064 297.806 602.864 300.767 606.752 305.416C607.513 306.323 608.199 307.297 608.8 308.325C608.857 308.417 608.91 308.51 608.96 308.603C609.284 309.174 609.582 309.759 609.851 310.36C609.992 310.676 610.125 310.993 610.25 311.316H614.698C613.812 308.53 612.456 305.952 610.728 303.675H610.722Z" fill="#142644"/>
<path d="M610.724 307.777C610.724 307.777 610.558 307.816 610.259 307.896C609.945 307.98 609.485 308.11 608.919 308.285C608.878 308.298 608.837 308.31 608.794 308.325C607.026 308.877 604.296 309.86 601.703 311.316H579.928C577.954 309.901 575.461 308.753 572.31 308.15C571.653 308.023 570.965 307.921 570.249 307.845C570.112 307.83 569.973 307.818 569.834 307.805H569.832C569.723 307.795 569.614 307.786 569.504 307.777L570.411 306.264V306.261L571.25 304.864C571.343 304.864 571.822 304.986 572.647 305.173C573.07 305.267 573.585 305.378 574.185 305.499C579.536 306.58 591.7 308.385 606.746 305.415C607.596 305.248 608.457 305.064 609.327 304.864L609.357 304.928L610.26 306.81L610.724 307.777Z" fill="#142644"/>
<path d="M613.714 302.796C613.714 302.796 612.78 301.585 611.435 300.22C609.746 298.51 607.408 296.56 605.448 296.462C604.318 296.407 600.871 297.486 601.256 298.715C601.693 300.113 604.982 300.696 607.495 300.843C608.701 300.912 610.724 303.675 610.724 303.675C610.724 303.675 611.93 302.794 613.714 302.796Z" fill="#F3A393"/>
<path d="M567.756 301.611C568.355 301.484 570.242 302.313 570.666 302.636C572.254 303.844 574.194 305.31 570.668 307.399C568.872 308.462 566.732 308.374 566.069 307.729C565.436 307.113 565.504 302.085 567.756 301.609V301.611Z" fill="#F3A393"/>
<path d="M568.314 301.669C568.314 301.669 570.679 301.545 571.552 301.389C572.425 301.236 571.566 302.276 571.21 302.513C570.854 302.75 569.678 303.148 569.678 303.148L568.314 301.669Z" fill="#F3A393"/>
<path opacity="0.5" d="M525.924 262.702H512.417C510.874 262.702 509.623 263.954 509.623 265.499V271.094C509.623 272.639 510.874 273.891 512.417 273.891H525.924C527.467 273.891 528.718 272.639 528.718 271.094V265.499C528.718 263.954 527.467 262.702 525.924 262.702Z" fill="#95BEEF"/>
<path d="M514.512 273.892H513.658V275.706H514.512V273.892Z" fill="#95BEEF"/>
<path d="M571.297 273.892H570.443V275.706H571.297V273.892Z" fill="#95BEEF"/>
<path d="M524.254 273.892H523.4V275.706H524.254V273.892Z" fill="#95BEEF"/>
<path d="M626.432 310.945C626.004 311.184 625.534 311.316 625.033 311.316H418.068C418.024 311.316 417.979 311.316 417.935 311.312C416.957 311.264 416.108 310.692 415.508 309.826C416.611 309.472 419.239 308.756 422.751 308.662C427.447 308.535 616.986 308.662 616.986 308.662C616.986 308.662 625.129 308.979 626.432 310.945Z" fill="#FACD49"/>
<path d="M532.784 250.98H503.131C502.29 250.98 501.607 251.663 501.607 252.505V257.498C501.607 258.34 502.29 259.023 503.131 259.023H532.784C533.626 259.023 534.308 258.34 534.308 257.498V252.505C534.308 251.663 533.626 250.98 532.784 250.98Z" fill="#2C3A64"/>
<path d="M518.38 245.406H517.539V250.98H518.38V245.406Z" fill="#2C3A64"/>
<path d="M655.533 355.051H383.818V360.741H655.533V355.051Z" fill="#F9AF2F"/>
<path d="M520.752 414.21H513.449V428.67H520.752V414.21Z" fill="white"/>
<path d="M520.752 444.618H513.449V459.078H520.752V444.618Z" fill="white"/>
</g>
</g>
<defs>
<filter id="filter0_d_971_648" x="-69" y="-68" width="824" height="589" filterUnits="userSpaceOnUse" color-interpolation-filters="sRGB">
<feFlood flood-opacity="0" result="BackgroundImageFix"/>
<feColorMatrix in="SourceAlpha" type="matrix" values="0 0 0 0 0 0 0 0 0 0 0 0 0 0 0 0 0 0 127 0" result="hardAlpha"/>
<feOffset dy="2"/>
<feGaussianBlur stdDeviation="35"/>
<feComposite in2="hardAlpha" operator="out"/>
<feColorMatrix type="matrix" values="0 0 0 0 0 0 0 0 0 0 0 0 0 0 0 0 0 0 0.06 0"/>
<feBlend mode="normal" in2="BackgroundImageFix" result="effect1_dropShadow_971_648"/>
<feBlend mode="normal" in="SourceGraphic" in2="effect1_dropShadow_971_648" result="shape"/>
</filter>
<filter id="filter1_d_971_648" x="-69" y="-68" width="824" height="589" filterUnits="userSpaceOnUse" color-interpolation-filters="sRGB">
<feFlood flood-opacity="0" result="BackgroundImageFix"/>
<feColorMatrix in="SourceAlpha" type="matrix" values="0 0 0 0 0 0 0 0 0 0 0 0 0 0 0 0 0 0 127 0" result="hardAlpha"/>
<feOffset dy="2"/>
<feGaussianBlur stdDeviation="35"/>
<feComposite in2="hardAlpha" operator="out"/>
<feColorMatrix type="matrix" values="0 0 0 0 0 0 0 0 0 0 0 0 0 0 0 0 0 0 0.06 0"/>
<feBlend mode="normal" in2="BackgroundImageFix" result="effect1_dropShadow_971_648"/>
<feBlend mode="normal" in="SourceGraphic" in2="effect1_dropShadow_971_648" result="shape"/>
</filter>
<filter id="filter2_dddd_971_648" x="242" y="244" width="76.1406" height="91.1396" filterUnits="userSpaceOnUse" color-interpolation-filters="sRGB">
<feFlood flood-opacity="0" result="BackgroundImageFix"/>
<feColorMatrix in="SourceAlpha" type="matrix" values="0 0 0 0 0 0 0 0 0 0 0 0 0 0 0 0 0 0 127 0" result="hardAlpha"/>
<feOffset dy="1"/>
<feGaussianBlur stdDeviation="1.5"/>
<feColorMatrix type="matrix" values="0 0 0 0 0.54902 0 0 0 0 0.54902 0 0 0 0 0.54902 0 0 0 0.1 0"/>
<feBlend mode="normal" in2="BackgroundImageFix" result="effect1_dropShadow_971_648"/>
<feColorMatrix in="SourceAlpha" type="matrix" values="0 0 0 0 0 0 0 0 0 0 0 0 0 0 0 0 0 0 127 0" result="hardAlpha"/>
<feOffset dy="6"/>
<feGaussianBlur stdDeviation="3"/>
<feColorMatrix type="matrix" values="0 0 0 0 0.54902 0 0 0 0 0.54902 0 0 0 0 0.54902 0 0 0 0.09 0"/>
<feBlend mode="normal" in2="effect1_dropShadow_971_648" result="effect2_dropShadow_971_648"/>
<feColorMatrix in="SourceAlpha" type="matrix" values="0 0 0 0 0 0 0 0 0 0 0 0 0 0 0 0 0 0 127 0" result="hardAlpha"/>
<feOffset dy="13"/>
<feGaussianBlur stdDeviation="4"/>
<feColorMatrix type="matrix" values="0 0 0 0 0.54902 0 0 0 0 0.54902 0 0 0 0 0.54902 0 0 0 0.05 0"/>
<feBlend mode="normal" in2="effect2_dropShadow_971_648" result="effect3_dropShadow_971_648"/>
<feColorMatrix in="SourceAlpha" type="matrix" values="0 0 0 0 0 0 0 0 0 0 0 0 0 0 0 0 0 0 127 0" result="hardAlpha"/>
<feOffset dy="22"/>
<feGaussianBlur stdDeviation="4.5"/>
<feColorMatrix type="matrix" values="0 0 0 0 0.54902 0 0 0 0 0.54902 0 0 0 0 0.54902 0 0 0 0.01 0"/>
<feBlend mode="normal" in2="effect3_dropShadow_971_648" result="effect4_dropShadow_971_648"/>
<feBlend mode="normal" in="SourceGraphic" in2="effect4_dropShadow_971_648" result="shape"/>
</filter>
<clipPath id="clip0_971_648">
<rect width="686" height="449" rx="30" fill="white"/>
</clipPath>
<clipPath id="clip1_971_648">
<rect width="491" height="304" fill="white" transform="translate(274 167)"/>
</clipPath>
</defs>
</svg>
