<svg width="824" height="589" viewBox="0 0 824 589" fill="none" xmlns="http://www.w3.org/2000/svg">
<g filter="url(#filter0_d_1090_654)">
<rect x="70" y="68" width="684" height="449" rx="30" fill="white"/>
</g>
<path d="M143.6 179V150.44H166.2V179H160.16V155.48H149.64V179H143.6ZM192.765 168.04C192.765 169.853 192.511 171.467 192.005 172.88C191.525 174.293 190.818 175.493 189.885 176.48C188.978 177.44 187.871 178.173 186.565 178.68C185.258 179.16 183.778 179.4 182.125 179.4C180.605 179.4 179.191 179.16 177.885 178.68C176.605 178.173 175.498 177.44 174.565 176.48C173.631 175.493 172.898 174.293 172.365 172.88C171.858 171.467 171.605 169.853 171.605 168.04C171.605 165.613 172.031 163.573 172.885 161.92C173.738 160.24 174.965 158.96 176.565 158.08C178.165 157.2 180.058 156.76 182.245 156.76C184.298 156.76 186.111 157.2 187.685 158.08C189.258 158.96 190.498 160.24 191.405 161.92C192.311 163.573 192.765 165.613 192.765 168.04ZM177.685 168.04C177.685 169.48 177.831 170.693 178.125 171.68C178.445 172.64 178.938 173.373 179.605 173.88C180.271 174.36 181.138 174.6 182.205 174.6C183.271 174.6 184.125 174.36 184.765 173.88C185.431 173.373 185.911 172.64 186.205 171.68C186.525 170.693 186.685 169.48 186.685 168.04C186.685 166.6 186.525 165.4 186.205 164.44C185.911 163.48 185.431 162.76 184.765 162.28C184.098 161.8 183.231 161.56 182.165 161.56C180.591 161.56 179.445 162.107 178.725 163.2C178.031 164.267 177.685 165.88 177.685 168.04ZM206.69 156.76C208.717 156.76 210.45 157.147 211.89 157.92C213.357 158.693 214.49 159.813 215.29 161.28C216.09 162.747 216.49 164.547 216.49 166.68V169.56H202.41C202.464 171.24 202.957 172.56 203.89 173.52C204.85 174.48 206.17 174.96 207.85 174.96C209.264 174.96 210.544 174.827 211.69 174.56C212.837 174.267 214.024 173.827 215.25 173.24V177.84C214.184 178.373 213.05 178.76 211.85 179C210.677 179.267 209.25 179.4 207.57 179.4C205.384 179.4 203.45 179 201.77 178.2C200.09 177.373 198.77 176.133 197.81 174.48C196.85 172.827 196.37 170.747 196.37 168.24C196.37 165.68 196.797 163.56 197.65 161.88C198.53 160.173 199.744 158.893 201.29 158.04C202.837 157.187 204.637 156.76 206.69 156.76ZM206.73 161C205.584 161 204.624 161.373 203.85 162.12C203.104 162.867 202.664 164.027 202.53 165.6H210.89C210.89 164.72 210.73 163.933 210.41 163.24C210.117 162.547 209.664 162 209.05 161.6C208.437 161.2 207.664 161 206.73 161ZM229.283 156.76C230.856 156.76 232.323 156.973 233.683 157.4C235.07 157.8 236.176 158.427 237.003 159.28C237.856 160.133 238.283 161.227 238.283 162.56C238.283 163.867 237.883 164.907 237.083 165.68C236.31 166.453 235.256 167.013 233.923 167.36V167.56C234.856 167.773 235.696 168.08 236.443 168.48C237.19 168.853 237.776 169.373 238.203 170.04C238.656 170.68 238.883 171.547 238.883 172.64C238.883 173.84 238.496 174.96 237.723 176C236.976 177.013 235.803 177.84 234.203 178.48C232.63 179.093 230.603 179.4 228.123 179.4C226.95 179.4 225.843 179.347 224.803 179.24C223.763 179.133 222.816 178.987 221.963 178.8C221.11 178.587 220.363 178.333 219.723 178.04V173.12C220.63 173.547 221.736 173.933 223.043 174.28C224.376 174.627 225.79 174.8 227.283 174.8C228.376 174.8 229.35 174.72 230.203 174.56C231.083 174.4 231.776 174.133 232.283 173.76C232.816 173.387 233.083 172.893 233.083 172.28C233.083 171.693 232.856 171.213 232.403 170.84C231.95 170.44 231.27 170.147 230.363 169.96C229.456 169.773 228.296 169.68 226.883 169.68H224.563V165.56H226.763C228.736 165.56 230.256 165.4 231.323 165.08C232.416 164.76 232.963 164.16 232.963 163.28C232.963 162.587 232.616 162.067 231.923 161.72C231.23 161.347 230.096 161.16 228.523 161.16C227.483 161.16 226.35 161.28 225.123 161.52C223.896 161.76 222.736 162.107 221.643 162.56L219.883 158.4C221.136 157.92 222.51 157.533 224.003 157.24C225.496 156.92 227.256 156.76 229.283 156.76ZM263.151 157.16V174.64H266.351V186.84H260.991V179H246.311V186.84H240.951V174.64H242.791C243.751 173.173 244.564 171.507 245.231 169.64C245.897 167.747 246.431 165.733 246.831 163.6C247.231 161.467 247.524 159.32 247.711 157.16H263.151ZM252.711 161.64C252.497 163.24 252.231 164.8 251.911 166.32C251.591 167.813 251.191 169.253 250.711 170.64C250.257 172.027 249.697 173.36 249.031 174.64H257.191V161.64H252.711ZM284.393 157.16H290.953L282.313 167.64L291.713 179H284.953L276.033 167.92V179H270.073V157.16H276.033V167.76L284.393 157.16ZM303.799 156.72C306.732 156.72 308.972 157.36 310.519 158.64C312.092 159.893 312.879 161.827 312.879 164.44V179H308.719L307.559 176.04H307.399C306.785 176.813 306.145 177.453 305.479 177.96C304.839 178.467 304.092 178.827 303.239 179.04C302.412 179.28 301.385 179.4 300.159 179.4C298.879 179.4 297.719 179.16 296.679 178.68C295.665 178.173 294.865 177.413 294.279 176.4C293.692 175.36 293.399 174.053 293.399 172.48C293.399 170.16 294.212 168.453 295.839 167.36C297.465 166.24 299.905 165.627 303.159 165.52L306.959 165.4V164.44C306.959 163.293 306.652 162.453 306.039 161.92C305.452 161.387 304.625 161.12 303.559 161.12C302.492 161.12 301.452 161.28 300.439 161.6C299.425 161.893 298.412 162.267 297.399 162.72L295.439 158.68C296.612 158.067 297.905 157.587 299.319 157.24C300.759 156.893 302.252 156.72 303.799 156.72ZM304.639 168.96C302.719 169.013 301.385 169.36 300.639 170C299.892 170.64 299.519 171.48 299.519 172.52C299.519 173.427 299.785 174.08 300.319 174.48C300.852 174.853 301.545 175.04 302.399 175.04C303.679 175.04 304.759 174.667 305.639 173.92C306.519 173.147 306.959 172.067 306.959 170.68V168.88L304.639 168.96ZM162.96 218.04C162.96 219.853 162.707 221.467 162.2 222.88C161.72 224.293 161.013 225.493 160.08 226.48C159.173 227.44 158.067 228.173 156.76 228.68C155.453 229.16 153.973 229.4 152.32 229.4C150.8 229.4 149.387 229.16 148.08 228.68C146.8 228.173 145.693 227.44 144.76 226.48C143.827 225.493 143.093 224.293 142.56 222.88C142.053 221.467 141.8 219.853 141.8 218.04C141.8 215.613 142.227 213.573 143.08 211.92C143.933 210.24 145.16 208.96 146.76 208.08C148.36 207.2 150.253 206.76 152.44 206.76C154.493 206.76 156.307 207.2 157.88 208.08C159.453 208.96 160.693 210.24 161.6 211.92C162.507 213.573 162.96 215.613 162.96 218.04ZM147.88 218.04C147.88 219.48 148.027 220.693 148.32 221.68C148.64 222.64 149.133 223.373 149.8 223.88C150.467 224.36 151.333 224.6 152.4 224.6C153.467 224.6 154.32 224.36 154.96 223.88C155.627 223.373 156.107 222.64 156.4 221.68C156.72 220.693 156.88 219.48 156.88 218.04C156.88 216.6 156.72 215.4 156.4 214.44C156.107 213.48 155.627 212.76 154.96 212.28C154.293 211.8 153.427 211.56 152.36 211.56C150.787 211.56 149.64 212.107 148.92 213.2C148.227 214.267 147.88 215.88 147.88 218.04ZM187.726 207.16V229H181.766V211.64H173.846V229H167.886V207.16H187.726ZM190.859 207.16H197.379L201.499 219.44C201.633 219.84 201.739 220.24 201.819 220.64C201.926 221.04 202.006 221.453 202.059 221.88C202.139 222.307 202.193 222.76 202.219 223.24H202.339C202.419 222.547 202.526 221.893 202.659 221.28C202.819 220.64 202.993 220.027 203.179 219.44L207.219 207.16H213.619L204.379 231.8C203.819 233.293 203.086 234.547 202.179 235.56C201.299 236.573 200.273 237.333 199.099 237.84C197.926 238.347 196.646 238.6 195.259 238.6C194.593 238.6 194.006 238.56 193.499 238.48C193.019 238.427 192.593 238.36 192.219 238.28V233.56C192.513 233.613 192.859 233.667 193.259 233.72C193.686 233.773 194.126 233.8 194.579 233.8C195.406 233.8 196.113 233.627 196.699 233.28C197.313 232.933 197.819 232.453 198.219 231.84C198.619 231.253 198.939 230.613 199.179 229.92L199.539 228.84L190.859 207.16ZM215.433 215.92C215.433 212.693 215.833 209.96 216.633 207.72C217.433 205.453 218.699 203.653 220.433 202.32C222.166 200.96 224.433 200.04 227.233 199.56C228.646 199.32 230.073 199.12 231.513 198.96C232.979 198.773 234.486 198.587 236.033 198.4L236.713 203.6C236.046 203.68 235.313 203.773 234.513 203.88C233.713 203.96 232.899 204.053 232.073 204.16C231.273 204.24 230.499 204.333 229.753 204.44C229.006 204.547 228.326 204.64 227.713 204.72C226.726 204.88 225.859 205.107 225.113 205.4C224.366 205.667 223.739 206.053 223.233 206.56C222.726 207.067 222.326 207.76 222.033 208.64C221.766 209.493 221.593 210.6 221.513 211.96H221.793C222.113 211.453 222.553 210.947 223.113 210.44C223.699 209.933 224.419 209.507 225.273 209.16C226.126 208.813 227.099 208.64 228.193 208.64C229.926 208.64 231.433 209 232.713 209.72C233.993 210.44 234.979 211.507 235.673 212.92C236.366 214.333 236.713 216.093 236.713 218.2C236.713 220.68 236.259 222.747 235.353 224.4C234.446 226.053 233.193 227.307 231.593 228.16C229.993 228.987 228.139 229.4 226.033 229.4C224.433 229.4 222.979 229.107 221.673 228.52C220.366 227.933 219.246 227.067 218.313 225.92C217.379 224.773 216.659 223.36 216.153 221.68C215.673 220 215.433 218.08 215.433 215.92ZM226.393 224.56C227.246 224.56 227.979 224.373 228.593 224C229.233 223.627 229.726 223.013 230.073 222.16C230.446 221.307 230.633 220.16 230.633 218.72C230.633 216.987 230.339 215.613 229.753 214.6C229.193 213.56 228.206 213.04 226.793 213.04C225.939 213.04 225.139 213.253 224.393 213.68C223.673 214.08 223.059 214.547 222.553 215.08C222.046 215.587 221.699 216.027 221.513 216.4C221.513 217.44 221.593 218.453 221.753 219.44C221.913 220.4 222.179 221.267 222.553 222.04C222.926 222.813 223.419 223.427 224.033 223.88C224.673 224.333 225.459 224.56 226.393 224.56ZM261.196 229H255.236V211.64H249.756C249.489 214.84 249.156 217.573 248.756 219.84C248.382 222.08 247.902 223.907 247.316 225.32C246.756 226.733 246.036 227.773 245.156 228.44C244.276 229.08 243.196 229.4 241.916 229.4C241.222 229.4 240.596 229.347 240.036 229.24C239.476 229.133 238.969 228.973 238.516 228.76V224C238.809 224.107 239.116 224.2 239.436 224.28C239.756 224.36 240.089 224.4 240.436 224.4C240.809 224.4 241.156 224.253 241.476 223.96C241.822 223.667 242.142 223.147 242.436 222.4C242.756 221.653 243.049 220.627 243.316 219.32C243.582 218.013 243.822 216.373 244.036 214.4C244.276 212.4 244.489 209.987 244.676 207.16H261.196V229ZM273.177 215.8C273.177 216.253 273.15 216.813 273.097 217.48C273.07 218.147 273.03 218.827 272.977 219.52C272.95 220.213 272.91 220.827 272.857 221.36C272.804 221.893 272.764 222.267 272.737 222.48L282.817 207.16H289.977V229H284.217V220.28C284.217 219.56 284.244 218.773 284.297 217.92C284.35 217.04 284.404 216.227 284.457 215.48C284.537 214.707 284.59 214.12 284.617 213.72L274.577 229H267.417V207.16H273.177V215.8ZM310.526 207.16H317.086L308.446 217.64L317.846 229H311.086L302.166 217.92V229H296.206V207.16H302.166V217.76L310.526 207.16ZM340.03 218.04C340.03 219.853 339.777 221.467 339.27 222.88C338.79 224.293 338.084 225.493 337.15 226.48C336.244 227.44 335.137 228.173 333.83 228.68C332.524 229.16 331.044 229.4 329.39 229.4C327.87 229.4 326.457 229.16 325.15 228.68C323.87 228.173 322.764 227.44 321.83 226.48C320.897 225.493 320.164 224.293 319.63 222.88C319.124 221.467 318.87 219.853 318.87 218.04C318.87 215.613 319.297 213.573 320.15 211.92C321.004 210.24 322.23 208.96 323.83 208.08C325.43 207.2 327.324 206.76 329.51 206.76C331.564 206.76 333.377 207.2 334.95 208.08C336.524 208.96 337.764 210.24 338.67 211.92C339.577 213.573 340.03 215.613 340.03 218.04ZM324.95 218.04C324.95 219.48 325.097 220.693 325.39 221.68C325.71 222.64 326.204 223.373 326.87 223.88C327.537 224.36 328.404 224.6 329.47 224.6C330.537 224.6 331.39 224.36 332.03 223.88C332.697 223.373 333.177 222.64 333.47 221.68C333.79 220.693 333.95 219.48 333.95 218.04C333.95 216.6 333.79 215.4 333.47 214.44C333.177 213.48 332.697 212.76 332.03 212.28C331.364 211.8 330.497 211.56 329.43 211.56C327.857 211.56 326.71 212.107 325.99 213.2C325.297 214.267 324.95 215.88 324.95 218.04ZM364.316 212.88C364.316 214.053 363.943 215.053 363.196 215.88C362.476 216.707 361.396 217.24 359.956 217.48V217.64C361.476 217.827 362.689 218.347 363.596 219.2C364.529 220.053 364.996 221.147 364.996 222.48C364.996 223.413 364.809 224.28 364.436 225.08C364.089 225.88 363.529 226.573 362.756 227.16C361.983 227.747 360.983 228.2 359.756 228.52C358.556 228.84 357.089 229 355.356 229H344.956V207.16H355.356C357.063 207.16 358.583 207.347 359.916 207.72C361.276 208.067 362.343 208.653 363.116 209.48C363.916 210.307 364.316 211.44 364.316 212.88ZM358.836 222.16C358.836 221.307 358.503 220.693 357.836 220.32C357.169 219.92 356.169 219.72 354.836 219.72H350.916V224.88H354.956C356.076 224.88 356.996 224.68 357.716 224.28C358.463 223.853 358.836 223.147 358.836 222.16ZM358.276 213.36C358.276 212.667 358.009 212.16 357.476 211.84C356.943 211.52 356.156 211.36 355.116 211.36H350.916V215.68H354.436C355.689 215.68 356.636 215.507 357.276 215.16C357.943 214.787 358.276 214.187 358.276 213.36ZM379.072 206.72C382.006 206.72 384.246 207.36 385.792 208.64C387.366 209.893 388.152 211.827 388.152 214.44V229H383.992L382.832 226.04H382.672C382.059 226.813 381.419 227.453 380.752 227.96C380.112 228.467 379.366 228.827 378.512 229.04C377.686 229.28 376.659 229.4 375.432 229.4C374.152 229.4 372.992 229.16 371.952 228.68C370.939 228.173 370.139 227.413 369.552 226.4C368.966 225.36 368.672 224.053 368.672 222.48C368.672 220.16 369.486 218.453 371.112 217.36C372.739 216.24 375.179 215.627 378.432 215.52L382.232 215.4V214.44C382.232 213.293 381.926 212.453 381.312 211.92C380.726 211.387 379.899 211.12 378.832 211.12C377.766 211.12 376.726 211.28 375.712 211.6C374.699 211.893 373.686 212.267 372.672 212.72L370.712 208.68C371.886 208.067 373.179 207.587 374.592 207.24C376.032 206.893 377.526 206.72 379.072 206.72ZM379.912 218.96C377.992 219.013 376.659 219.36 375.912 220C375.166 220.64 374.792 221.48 374.792 222.52C374.792 223.427 375.059 224.08 375.592 224.48C376.126 224.853 376.819 225.04 377.672 225.04C378.952 225.04 380.032 224.667 380.912 223.92C381.792 223.147 382.232 222.067 382.232 220.68V218.88L379.912 218.96ZM400.213 207.16V215.56H408.533V207.16H414.493V229H408.533V220H400.213V229H394.253V207.16H400.213ZM429.697 206.72C432.631 206.72 434.871 207.36 436.417 208.64C437.991 209.893 438.777 211.827 438.777 214.44V229H434.617L433.457 226.04H433.297C432.684 226.813 432.044 227.453 431.377 227.96C430.737 228.467 429.991 228.827 429.137 229.04C428.311 229.28 427.284 229.4 426.057 229.4C424.777 229.4 423.617 229.16 422.577 228.68C421.564 228.173 420.764 227.413 420.177 226.4C419.591 225.36 419.297 224.053 419.297 222.48C419.297 220.16 420.111 218.453 421.737 217.36C423.364 216.24 425.804 215.627 429.057 215.52L432.857 215.4V214.44C432.857 213.293 432.551 212.453 431.937 211.92C431.351 211.387 430.524 211.12 429.457 211.12C428.391 211.12 427.351 211.28 426.337 211.6C425.324 211.893 424.311 212.267 423.297 212.72L421.337 208.68C422.511 208.067 423.804 207.587 425.217 207.24C426.657 206.893 428.151 206.72 429.697 206.72ZM430.537 218.96C428.617 219.013 427.284 219.36 426.537 220C425.791 220.64 425.417 221.48 425.417 222.52C425.417 223.427 425.684 224.08 426.217 224.48C426.751 224.853 427.444 225.04 428.297 225.04C429.577 225.04 430.657 224.667 431.537 223.92C432.417 223.147 432.857 222.067 432.857 220.68V218.88L430.537 218.96ZM446.878 219.96L446.518 199.2H451.838L451.478 219.96H446.878ZM446.518 229V223.4H451.838V229H446.518Z" fill="#1C1C1C"/>
<g filter="url(#filter1_dddd_1090_654)">
<rect x="537" y="312.193" width="50" height="50" rx="25" transform="rotate(-79.6911 537 312.193)" fill="#FACD49"/>
<path fill-rule="evenodd" clip-rule="evenodd" d="M554.635 286.374C554.109 286.337 553.303 286.568 553.053 286.933C552.003 288.466 554.667 288.25 555.416 288.284C554.931 288.696 553.08 290.638 552.97 291.098C552.843 291.613 552.845 295.718 552.834 296.6C552.816 297.876 552.519 300.885 553.633 301.294C553.953 301.411 555.735 301.423 556.121 301.338C557.04 301.135 556.843 300.296 556.884 299.301C560.116 299.076 572.032 299.076 575.25 299.301C575.289 300.228 575.105 301.06 575.907 301.312C576.295 301.434 578.155 301.42 578.5 301.294C579.881 300.788 579.164 295.759 579.192 294.044C579.242 291.047 579.148 290.201 576.718 288.284C577.512 288.248 579.901 288.534 579.139 287.027C578.909 286.571 577.448 286.002 576.908 286.632C575.813 287.91 575.932 286.535 574.933 285.096C573.773 282.77 573.482 282.809 569.836 282.847C568.635 282.793 567.337 282.747 566.138 282.744C564.894 282.74 560.093 282.889 559.057 283.13C558.044 283.151 556.714 285.772 556.243 286.7C555.504 288.153 555.639 286.447 554.635 286.373L554.635 286.374ZM556.236 288.036C559.303 288.089 562.79 287.661 565.996 287.659C569.317 287.654 572.636 288.01 575.898 288.036L574.137 284.62C573.812 284.092 573.803 283.887 573.107 283.772C570.541 283.354 561.815 283.409 559.16 283.756C558.189 283.884 558.196 284.266 557.435 285.62C556.976 286.436 556.569 287.197 556.236 288.036ZM561.055 294.975C561.055 295.876 561.792 296.612 562.691 296.612L569.449 296.612C570.347 296.612 571.084 295.876 571.084 294.975L571.084 293.847C571.084 292.948 570.347 292.21 569.449 292.21L562.691 292.21C561.792 292.21 561.055 292.948 561.055 293.847L561.055 294.975ZM558.974 294.98C559.349 294.803 559.73 294.371 559.867 294.012C558.859 293.417 555.11 293.152 553.96 293.38C553.441 296.431 557.917 295.484 558.974 294.98ZM572.271 294.012C572.409 294.371 572.79 294.803 573.164 294.98C574.221 295.483 578.698 296.431 578.179 293.38C577.028 293.153 573.279 293.417 572.271 294.012Z" fill="white"/>
</g>
<path d="M550 488.648L253 492C253 492 355.754 404.894 374.913 401.061C375.512 400.94 376.101 400.833 376.687 400.741C395.867 397.667 413.872 388.226 428.008 373.031C440.015 360.121 456.94 349.792 478.476 355.711C497.519 360.946 531.633 425.818 549.996 462.912V488.652L550 488.648Z" fill="#B8D6F9"/>
<path d="M142 484.242C142 484.242 211.231 424.701 300.499 421.044C330.476 419.816 453.218 444.44 556.579 463.786C560.924 464.599 669.251 484.411 684 485L142.002 484.244L142 484.242Z" fill="#96D9C9"/>
<path d="M316.461 339.016V337.866H312.552V339.016H316.461Z" fill="#FACD49"/>
<path d="M320.797 337.752V365.077C320.797 366.882 319.334 368.346 317.53 368.346H311.844C310.04 368.346 308.576 366.882 308.576 365.077V337.752C308.576 335.948 310.04 334.482 311.844 334.482H317.53C319.334 334.482 320.797 335.947 320.797 337.752Z" fill="#F47458"/>
<path d="M314.688 368.344H317.966C319.53 368.344 320.798 367.653 320.798 366.802V336.025C320.798 335.174 319.909 334.482 318.345 334.482H314.688V368.344Z" fill="#B75742"/>
<path d="M315.234 354.898V347.009H313.79V354.898H315.234Z" fill="#1A1A1A"/>
<path d="M332.438 345.147V365.029C332.438 366.859 330.953 368.346 329.123 368.346H323.532C321.703 368.346 320.217 366.861 320.217 365.029V345.147C320.217 343.317 321.701 341.83 323.532 341.83H329.123C330.951 341.83 332.438 343.315 332.438 345.147Z" fill="#355389"/>
<path d="M326.328 368.344H329.607C331.171 368.344 332.438 367.804 332.438 367.137V343.037C332.438 342.371 331.171 341.83 329.607 341.83H326.328V368.346V368.344Z" fill="#7B74F3"/>
<path d="M328.105 345.377V344.477H324.197V345.377H328.105Z" fill="#FACD49"/>
<path d="M326.871 357.817V351.64H325.427V357.817H326.871Z" fill="#1A1A1A"/>
<path d="M268.504 368.781H267.918V374.729H268.504V368.781Z" fill="#13375B"/>
<path d="M339.297 368.781H338.711V374.729H339.297V368.781Z" fill="#13375B"/>
<path d="M273.39 356.113H313.751C315.73 356.113 317.336 357.72 317.336 359.7V364.753C317.336 366.734 315.73 368.341 313.751 368.341H273.39C271.411 368.341 269.805 366.734 269.805 364.753V359.7C269.805 357.72 271.411 356.113 273.39 356.113Z" fill="#B75742"/>
<path d="M317.336 362.227V358.946C317.336 357.381 316.367 356.113 315.17 356.113H271.97C270.775 356.113 269.805 357.381 269.805 358.946V362.227H317.334H317.336Z" fill="#91342A"/>
<path d="M277.457 360.448H275.844V364.359H277.457V360.448Z" fill="#FACD49"/>
<path d="M311.297 360.448H309.684V364.359H311.297V360.448Z" fill="#FACD49"/>
<path d="M298.46 361.68H287.387V363.125H298.46V361.68Z" fill="#1A1A1A"/>
<path d="M306.646 343.885H280.5C278.375 343.885 276.652 345.608 276.652 347.735V352.263C276.652 354.389 278.375 356.113 280.5 356.113H306.646C308.771 356.113 310.494 354.389 310.494 352.263V347.735C310.494 345.608 308.771 343.885 306.646 343.885Z" fill="#4E9B87"/>
<path d="M310.494 349.999V346.718C310.494 345.153 309.803 343.885 308.953 343.885H278.194C277.343 343.885 276.652 345.153 276.652 346.718V349.999H310.494Z" fill="#3C8F7C"/>
<path d="M281.181 348.22H280.031V352.131H281.181V348.22Z" fill="#FACD49"/>
<path d="M336.71 368.329L308.713 368.312L308.262 355.831H336.71C340.159 355.831 342.956 358.628 342.956 362.08C342.956 365.53 340.16 368.329 336.71 368.329Z" fill="#FAE0B2"/>
<path d="M314.685 362.08C314.685 365.53 312.108 368.329 308.932 368.329C305.756 368.329 303.18 365.532 303.18 362.08C303.18 358.628 305.756 355.831 308.932 355.831C312.108 355.831 314.685 358.628 314.685 362.08Z" fill="#FACD49"/>
<path d="M320.615 368.914L320.609 368.91C320.35 368.71 320.301 368.343 320.489 368.076C322.385 365.397 322.912 362.545 322.057 359.591C321.582 357.948 320.78 356.695 320.329 356.077C320.147 355.825 320.187 355.477 320.419 355.269L320.425 355.263C320.691 355.025 321.104 355.071 321.315 355.359C321.823 356.054 322.683 357.407 323.212 359.203C323.897 361.53 324.124 365.039 321.483 368.781C321.283 369.064 320.889 369.127 320.615 368.914Z" fill="#F47458"/>
<path d="M330.849 368.914L330.844 368.91C330.585 368.71 330.535 368.343 330.724 368.076C332.619 365.397 333.146 362.545 332.292 359.591C331.816 357.948 331.015 356.695 330.564 356.077C330.381 355.825 330.421 355.477 330.653 355.269L330.659 355.263C330.925 355.025 331.338 355.071 331.55 355.359C332.058 356.054 332.918 357.407 333.447 359.203C334.132 361.53 334.358 365.039 331.717 368.781C331.517 369.064 331.123 369.127 330.849 368.914Z" fill="#F47458"/>
<g style="mix-blend-mode:multiply">
<path d="M313.694 360.964C313.387 358.995 312.323 358.003 311.486 357.518C310.24 356.796 308.638 356.693 307.201 357.246C305.835 357.771 304.742 358.967 304.35 360.368C304.002 361.615 304.261 362.882 305.077 363.938C306.449 365.711 308.554 365.431 309.581 364.988C310.514 364.584 311.212 363.63 311.363 362.556C311.484 361.686 311.092 360.848 310.337 360.364C309.578 359.879 308.647 359.875 307.905 360.355C307.364 360.703 306.828 361.393 307.336 362.695L307.749 362.535C307.423 361.701 307.555 361.109 308.147 360.728C308.74 360.343 309.49 360.347 310.101 360.738C310.708 361.124 311.024 361.798 310.927 362.493C310.797 363.419 310.202 364.237 309.408 364.58C308.499 364.974 306.636 365.226 305.429 363.668C304.495 362.461 304.56 361.273 304.778 360.488C305.129 359.237 306.141 358.127 307.361 357.659C308.676 357.154 310.135 357.244 311.267 357.901C312.348 358.527 313.037 359.61 313.26 361.033C313.547 362.885 313.201 364.363 312.228 365.424C310.402 367.415 306.533 367.387 305.869 367.366C306.11 367.531 306.364 367.678 306.626 367.804H306.66C307.838 367.804 310.826 367.606 312.554 365.724C313.623 364.559 314.008 362.958 313.697 360.964H313.694Z" fill="#F47458"/>
</g>
<path d="M306.196 348.22H305.047V352.131H306.196V348.22Z" fill="#FACD49"/>
<path d="M297.052 349.452H289.168V350.897H297.052V349.452Z" fill="#1A1A1A"/>
<path d="M286.654 343.363L273.344 368.612L273.724 368.813L287.034 343.564L286.654 343.363Z" fill="black"/>
<path d="M301.576 343.188L301.195 343.389L314.848 369.288L315.228 369.087L301.576 343.188Z" fill="black"/>
<path d="M329.691 341.479L329.293 341.641L340.355 368.805L340.753 368.643L329.691 341.479Z" fill="black"/>
<path d="M316.46 334.255L316.055 334.399L328.184 368.805L328.59 368.662L316.46 334.255Z" fill="black"/>
<path d="M342.023 368.312H265.312V369.119H342.023V368.312Z" fill="#13375B"/>
<path d="M211.4 454.23C211.4 454.23 269.934 463.95 270.637 463.527C271.339 463.107 278.918 430.379 278.918 430.379C278.918 430.379 230.513 421.672 229.729 421.672C228.945 421.672 218.418 430.099 218.278 430.661C218.137 431.223 211.398 454.23 211.398 454.23H211.4Z" fill="#183658"/>
<path d="M389.949 462.545C391.354 462.686 462.24 461.166 462.24 461.166L456.906 444.848C456.906 444.848 447.079 429.979 441.886 430.252C436.693 430.522 405.804 425.511 400.472 429.21C395.142 432.91 390.37 429.96 387.843 438.809C385.316 447.657 383.344 448.649 385.314 453.982C387.281 459.316 389.949 462.547 389.949 462.547V462.545Z" fill="#183658"/>
<path d="M240.955 484.206C254.28 484.206 265.083 473.393 265.083 460.056C265.083 446.719 254.28 435.907 240.955 435.907C227.63 435.907 216.828 446.719 216.828 460.056C216.828 473.393 227.63 484.206 240.955 484.206Z" fill="#1A1A1A"/>
<path d="M240.959 476.86C250.231 476.86 257.747 469.336 257.747 460.056C257.747 450.776 250.231 443.253 240.959 443.253C231.688 443.253 224.172 450.776 224.172 460.056C224.172 469.336 231.688 476.86 240.959 476.86Z" fill="#9E9DA2"/>
<path d="M240.954 471.294C247.154 471.294 252.181 466.263 252.181 460.056C252.181 453.85 247.154 448.818 240.954 448.818C234.753 448.818 229.727 453.85 229.727 460.056C229.727 466.263 234.753 471.294 240.954 471.294Z" fill="#D8D9DD"/>
<path d="M426.725 484.206C440.05 484.206 450.852 473.393 450.852 460.056C450.852 446.719 440.05 435.907 426.725 435.907C413.4 435.907 402.598 446.719 402.598 460.056C402.598 473.393 413.4 484.206 426.725 484.206Z" fill="#1A1A1A"/>
<path d="M426.729 476.86C436.001 476.86 443.517 469.336 443.517 460.056C443.517 450.776 436.001 443.253 426.729 443.253C417.457 443.253 409.941 450.776 409.941 460.056C409.941 469.336 417.457 476.86 426.729 476.86Z" fill="#9E9DA2"/>
<path d="M415.496 460.056C415.496 466.262 420.522 471.294 426.723 471.294C432.925 471.294 437.951 466.263 437.951 460.056C437.951 453.849 432.925 448.818 426.723 448.818C420.522 448.818 415.496 453.849 415.496 460.056Z" fill="#D8D9DD"/>
<path d="M482.114 437.072C480.074 423.614 473.48 420.786 453.975 416.883C432.451 412.576 405.125 398.53 405.125 398.53C405.125 398.53 358.523 375.683 347.105 373.061C335.688 370.439 307.614 371.189 284.033 371.376C260.45 371.562 246.6 378.118 234.621 387.482C222.642 396.847 201.868 403.962 201.868 403.962L198.095 404.636C194.213 405.329 191.387 408.707 191.387 412.652V446.05C191.387 449.831 193.933 453.139 197.586 454.104L211.227 457.708C212.338 457.901 213.371 457.111 213.493 455.989C214.987 442.325 226.791 431.942 240.867 431.96C255.835 431.977 268.109 444.285 268.099 459.26C268.099 460.963 267.941 462.627 267.641 464.243C267.331 465.911 268.611 467.448 270.307 467.448H395.833C398.273 467.448 400.168 465.304 399.845 462.884C399.689 461.72 399.607 460.532 399.603 459.327C399.557 444.534 411.513 432.27 426.295 431.965C441.618 431.649 454.137 443.984 454.137 459.243C454.137 460.254 454.082 461.25 453.975 462.233C453.671 465.012 455.821 467.448 458.617 467.448H476.668C479.95 467.448 482.611 464.786 482.611 461.501V444.007C482.611 441.686 482.462 439.366 482.114 437.072Z" fill="#FACD49"/>
<path d="M192.18 416.601H207.047C208.32 416.601 209.184 417.898 208.692 419.075L207.021 423.062C205.428 426.862 201.712 429.336 197.594 429.336H192.18C191.12 429.336 190.262 428.477 190.262 427.416V418.521C190.262 417.46 191.12 416.601 192.18 416.601Z" fill="#CF283C"/>
<path d="M458.462 422.782C466.648 424.037 476.077 431.794 476.077 431.794C478.33 434.218 476.469 438.152 473.168 437.942L457.204 436.933C453.889 436.724 451.061 434.454 450.137 431.261C448.584 425.897 449.904 421.47 458.462 422.78V422.782Z" fill="#EAFCFC"/>
<path d="M191.473 447.291C190.449 447.267 189.724 448.295 190.101 449.247C191.169 451.939 193.46 454.055 196.386 454.83L211.669 458.87C212.913 459.085 214.07 458.2 214.207 456.943C214.491 454.354 215.107 451.873 216.009 449.533C216.316 448.74 215.739 447.886 214.891 447.865L191.471 447.293L191.473 447.291Z" fill="#FEB546"/>
<path d="M454.265 453.586C453.104 453.558 452.208 454.576 452.356 455.73C452.522 457.012 452.607 458.316 452.607 459.643C452.607 460.765 452.546 461.871 452.426 462.96C452.09 466.045 454.476 468.746 457.576 468.746H477.604C481.246 468.746 484.198 465.793 484.198 462.149V456.962C484.198 455.492 483.025 454.289 481.556 454.253L454.263 453.586H454.265Z" fill="#FEB546"/>
<g style="mix-blend-mode:multiply" opacity="0.5">
<path d="M405.157 406.262C404.891 406.115 378.358 391.549 360.762 383.394C343.341 375.321 323.893 376.176 323.056 376.22C320.822 376.168 274.293 375.159 259.991 379.62C245.582 384.114 226.815 404.585 226.024 405.455L225.805 405.695L230.851 429.389L231.392 429.359C246.067 428.528 257.304 432.437 263.878 440.661C268.849 446.876 269.464 453.441 269.469 453.506L269.517 454.07L322.433 455.431V455.435L323.044 455.446L323.697 455.463V455.46L397.43 456.899L397.439 456.265C397.808 432.291 405.382 407.252 405.46 407.003L405.61 406.512L405.159 406.264L405.157 406.262ZM270.659 452.834C270.404 451.056 269.288 445.429 264.906 439.922C260.183 433.987 250.625 427.146 231.86 428.066L227.175 406.066C229.348 403.73 247.1 384.961 260.366 380.824C273.639 376.684 316.747 377.36 322.431 377.469V454.163L270.659 452.832V452.834ZM396.185 455.608L323.695 454.193V377.459C327.105 377.36 344.517 377.259 360.231 384.54C376.532 392.096 400.539 405.175 404.103 407.125C403.047 410.74 396.64 433.515 396.185 455.608Z" fill="#FEB546"/>
</g>
<g style="mix-blend-mode:multiply" opacity="0.5">
<path d="M190.1 449.249C191.167 451.941 193.458 454.056 196.385 454.831L211.667 458.872C212.912 459.087 214.069 458.202 214.206 456.945C214.314 455.945 214.476 454.963 214.682 453.997L190.098 449.251L190.1 449.249Z" fill="#FEB546"/>
</g>
<g style="mix-blend-mode:multiply" opacity="0.5">
<path d="M452.575 461.062C452.546 461.699 452.499 462.332 452.43 462.96C452.093 466.045 454.48 468.746 457.58 468.746H477.608C481.25 468.746 484.201 465.793 484.201 462.149V461.062H452.573H452.575Z" fill="#FEB546"/>
</g>
<path d="M400.784 461.061C400.78 459.694 400.877 458.348 401.07 457.031C401.3 455.448 400.12 454.013 398.524 453.975L267.962 450.785C266.538 450.751 265.511 452.11 265.899 453.481C266.577 455.875 266.94 458.394 266.938 460.993C266.938 462.716 266.778 464.401 266.478 466.037C266.162 467.745 267.45 469.327 269.185 469.327H396.948C399.454 469.327 401.349 467.109 401.022 464.622C400.87 463.457 400.788 462.267 400.784 461.061Z" fill="#F4B043"/>
<g style="mix-blend-mode:multiply" opacity="0.5">
<path d="M400.786 461.062C400.786 461.039 400.786 461.016 400.786 460.995H266.938C266.938 462.718 266.778 464.403 266.478 466.039C266.162 467.747 267.45 469.329 269.185 469.329H396.948C399.454 469.329 401.349 467.111 401.022 464.624C400.87 463.459 400.788 462.269 400.784 461.064L400.786 461.062Z" fill="#FEB546"/>
</g>
<path d="M241.463 408.503L313.619 409.185C313.619 409.185 318.035 409.067 318.637 404.909C319.238 400.75 319.187 382.941 319.187 382.941C319.187 382.941 318.663 379.365 315.24 379.32C313.16 379.291 295.727 378.046 278.772 380.112C264.942 381.797 252.146 388.118 242.445 397.827L237.323 402.953C237.323 402.953 233.869 408.431 241.463 408.503Z" fill="#EAFCFC"/>
<path d="M327.221 385.199V403.873C327.221 406.298 329.08 408.292 331.434 408.387L388.13 410.668C389.431 410.72 390.706 410.131 391.452 409.033C392.47 407.532 392.588 405.063 387.507 401.753C378.672 395.997 356.195 383.547 347.879 382.341C342.587 381.574 335.662 381.241 331.325 381.1C329.078 381.027 327.219 382.884 327.219 385.201L327.221 385.199Z" fill="#EAFCFC"/>
<path d="M252.154 399.792C252.154 399.792 299.17 394.434 300.176 395.363C301.185 396.293 307.718 411.59 308.903 415.773L253.528 415.25L249.629 409.366L252.154 399.792Z" fill="#B75742"/>
<path d="M351.836 403.996C351.836 403.996 356.163 409.12 357.391 414.65L356.028 416.864L353.297 413.968L351.836 403.998V403.996Z" fill="#263D60"/>
<path d="M356.455 390.558C355.628 385.15 350.741 381.26 345.63 383.884C344.48 384.474 342.924 385.672 342.13 386.692C339.984 389.451 339.436 392.858 337.219 395.535C338.033 396.154 339.017 396.801 340.191 397.426L341.573 395.582L341.097 397.882C344.528 399.526 349.373 400.883 356.001 400.845C356.834 397.089 356.899 393.442 356.457 390.558H356.455Z" fill="#1A1A1A"/>
<path d="M344.99 402.456C344.99 402.456 340.073 402.144 338.128 404.261C336.183 406.38 342.442 423.136 342.796 425.832C343.15 428.529 339.894 433.904 339.894 433.904C339.894 433.904 353.423 440.239 356.725 438.057C356.725 438.057 356.196 416.449 355.842 414.524C355.488 412.599 352.541 404.766 351.835 403.996C351.127 403.225 344.99 402.456 344.99 402.456Z" fill="#355389"/>
<path d="M346.624 395.893C346.624 395.893 346.599 396.037 346.553 396.283C346.335 397.464 345.49 401.382 344.919 402.46C344.23 403.762 347.278 407.913 350.213 407.407C351.086 407.256 349.474 403.593 349.552 403.204C349.701 402.462 349.903 401.449 350.108 400.409C350.224 399.823 350.342 399.229 350.452 398.671C350.766 397.083 351.021 395.784 351.021 395.784L346.626 395.895L346.624 395.893Z" fill="#F7A491"/>
<path d="M252.501 400.695C252.453 400.371 252.33 400.068 252.153 399.79L245.165 406.786C245.165 406.786 239.909 415.12 251.466 415.229L254.646 415.259L252.503 400.695H252.501Z" fill="#B75742"/>
<path opacity="0.3" d="M346.557 396.283C346.603 396.037 346.627 395.893 346.627 395.893L351.023 395.782C351.023 395.782 350.766 397.081 350.454 398.669C350.344 399.225 350.228 399.815 350.112 400.398C349.432 400.299 348.724 399.967 348.013 399.347C347.238 398.669 346.73 397.854 346.422 396.984C346.477 396.706 346.521 396.466 346.555 396.283H346.557Z" fill="#F47458"/>
<path d="M349.586 385.906C349.586 385.906 347.514 385.666 346.214 387.345C344.915 389.025 343.516 394.215 346.741 397.039C349.969 399.861 353.156 396.666 353.628 393.278C354.102 389.891 354.285 385.784 349.584 385.906H349.586Z" fill="#F7A491"/>
<path d="M354.585 393.229C354.201 393.977 353.554 394.39 353.141 394.154C352.728 393.916 352.707 393.118 353.091 392.37C353.476 391.622 354.123 391.207 354.536 391.445C354.949 391.681 354.969 392.48 354.585 393.229Z" fill="#F7A491"/>
<path d="M349.821 385.352C349.821 385.352 347.053 390.289 345.072 390.517C343.091 390.746 342.832 393.37 342.832 393.37C342.832 393.37 343.54 387.324 345.502 386.159C347.462 384.994 349.823 385.353 349.823 385.353L349.821 385.352Z" fill="#1A1A1A"/>
<path d="M345.591 391.757C345.753 392.633 345.428 393.438 344.868 393.553C344.307 393.669 343.723 393.05 343.561 392.174C343.399 391.298 343.725 390.493 344.284 390.378C344.846 390.264 345.43 390.881 345.591 391.757Z" fill="#F7A491"/>
<path d="M338.624 426.428C338.612 426.383 340.475 418.462 341.229 416.712C341.982 414.96 344.907 406.828 344.907 406.828L341.12 405.999C341.12 405.999 338.679 412.365 337.564 415.242C336.451 418.119 336.926 423.424 336.877 424.922C336.877 424.943 336.713 426.188 336.713 426.209C336.675 426.375 336.641 426.514 336.624 426.541C336.578 426.613 336.449 427.116 336.443 427.159C336.437 427.203 336.325 427.373 336.281 427.445C336.236 427.517 336.133 428.536 336.11 428.7C336.087 428.864 336.159 429.235 336.159 429.235L336.119 429.917C336.091 430.417 336.608 430.284 336.608 430.284C336.597 430.52 336.679 430.644 336.81 430.688C336.943 430.732 337.099 430.693 337.124 430.705C337.149 430.714 337.158 430.789 337.158 430.789C337.145 430.939 337.314 431.055 337.423 431.076C337.531 431.097 337.727 431.025 337.783 430.96C337.838 430.895 337.876 430.905 337.876 430.905C337.986 431 338.409 430.994 338.508 430.859C338.605 430.722 338.694 430.002 338.738 429.939C338.782 429.875 338.877 429.764 338.89 429.66C338.903 429.555 339.25 428.818 339.271 428.671C339.29 428.525 339.077 428.028 339.029 427.731C338.981 427.434 338.692 426.971 338.622 426.838C338.595 426.786 338.603 426.615 338.622 426.428H338.624Z" fill="#F48C7F"/>
<path d="M351.131 394.92L347.949 394.754C347.949 394.754 347.961 395.967 349.357 396.081C351.06 396.218 351.131 394.92 351.131 394.92Z" fill="white"/>
<path d="M333.714 397.351L332.562 404.969C332.562 404.969 336.766 414.04 339.276 413.254C341.383 412.593 340.087 404.567 340.087 404.567C340.087 404.567 338.939 400.257 339.284 398.099C339.628 395.942 333.714 397.351 333.714 397.351Z" fill="#F7A491"/>
<path d="M339.282 398.099C339.627 395.942 333.712 397.351 333.712 397.351L333.617 397.983C333.79 398.406 334.002 398.768 334.258 399.046C335.579 400.474 337.644 401.331 339.429 401.395C339.25 400.232 339.139 398.987 339.282 398.101V398.099Z" fill="#F47458"/>
<path d="M332.743 386.572C332.575 386.511 331.403 395.249 333.628 397.654C335.852 400.059 340.189 400.845 341.744 398.95C343.464 396.856 343.378 387.465 339.917 384.992C336.457 382.518 332.741 386.572 332.741 386.572H332.743Z" fill="#F7A491"/>
<path d="M338.599 380.317C335.925 380.866 334.192 382.505 333.556 383.206C332.342 383.35 330.692 384.023 328.987 386.856C326.892 390.338 328.439 394.198 330.879 396.093C333.318 397.985 333.284 400.173 333.284 400.173L333.67 399.042C333.956 398.185 334.072 397.277 333.976 396.378C333.919 395.839 333.805 395.255 333.583 394.777C332.996 393.512 334.842 392.673 335.36 391.62C335.76 390.811 335.779 388.956 336.407 387.617L337.156 386.595C337.156 386.595 338.888 385.243 340.582 385.624C342.275 386.005 342.032 379.617 338.601 380.319L338.599 380.317Z" fill="#13375B"/>
<path d="M335.245 393.174C335.262 394.24 334.78 395.112 334.166 395.123C333.553 395.133 333.041 394.278 333.024 393.212C333.007 392.145 333.488 391.273 334.103 391.262C334.716 391.251 335.227 392.107 335.245 393.174Z" fill="#F7A491"/>
<path d="M338.859 395.637L342.214 395.462C342.214 395.462 342.203 396.745 340.73 396.865C338.934 397.012 338.859 395.637 338.859 395.637Z" fill="white"/>
<path d="M331.613 404.665C331.921 404.089 332.494 403.703 333.145 403.646C335.963 403.393 343.708 403.389 347.662 410.238C348.286 411.317 348.734 412.49 349.055 413.694L349.887 417.125L329.505 416.462L329.539 414.196C329.331 410.889 330.051 407.587 331.613 404.665Z" fill="#3C8F7C"/>
<path d="M380.031 418.376L382.99 406.352C383.188 405.546 382.697 404.733 381.892 404.533C381.087 404.335 380.274 404.826 380.074 405.632L376.973 418.237L380.031 418.376Z" fill="#1A1A1A"/>
<path d="M372.385 418.029C373.222 417.506 373.901 417.075 374.36 416.797C374.394 416.777 376.528 415.752 376.562 415.733C376.862 415.623 377.117 415.535 377.176 415.535C377.338 415.531 378.265 415.219 378.339 415.185C378.413 415.15 378.796 415.15 378.958 415.147C379.119 415.143 380.832 414.259 381.114 414.124C381.397 413.991 381.907 413.492 381.907 413.492L383.024 412.852C383.844 412.384 383.102 411.698 383.102 411.698C383.488 411.476 383.599 411.217 383.532 410.961C383.466 410.706 383.243 410.497 383.233 410.447C383.224 410.398 383.33 410.306 383.33 410.306C383.582 410.173 383.589 409.787 383.511 409.592C383.433 409.396 383.117 409.164 382.958 409.143C382.798 409.124 382.773 409.052 382.773 409.052C382.807 408.779 382.366 408.115 382.05 408.1C381.734 408.086 380.507 408.686 380.36 408.682C380.213 408.678 379.941 408.644 379.762 408.728C379.584 408.812 378.063 409.023 377.81 409.143C377.557 409.263 376.996 410.112 376.575 410.495C376.155 410.876 375.723 411.811 375.586 412.058C375.532 412.155 375.256 412.317 374.94 412.481C374.891 412.532 365.597 415.891 360.098 417.534L372.387 418.029H372.385Z" fill="#F7A491"/>
<path d="M343.406 416.864C342.832 413.404 342.12 409.769 341.359 408.09C339.688 404.409 334.048 402.216 331.283 404.505C329.806 405.725 330.444 411.538 331.7 416.555L343.405 416.864H343.406Z" fill="#50BFA5"/>
<path d="M261.494 396.835C261.494 396.835 254.588 396.664 252.242 398.218C249.896 399.771 250.183 415.223 250.183 415.223L252.461 415.655C252.461 415.655 253.287 426.287 255.051 426.843C256.815 427.398 268.413 423.839 270.822 420.846C273.231 417.852 265.718 395.807 265.718 395.807L261.492 396.833L261.494 396.835Z" fill="#3C8F7C"/>
<path d="M273.768 384.581C274.369 382.713 274.773 377.075 274.904 375.159C274.811 375.022 274.308 374.198 274.361 372.595C274.4 371.46 273.608 369.582 274.333 369.71C275.06 369.837 275.098 371.806 275.534 371.467C275.969 371.128 276.169 367.008 276.828 367.122C277.486 367.237 277.039 371.119 277.429 370.814C277.819 370.512 277.836 366.932 278.767 367.096C279.697 367.257 278.356 371.306 278.856 371.391C279.357 371.479 280.135 368.906 280.885 369.038C281.634 369.169 279.654 372.501 279.882 372.322C280.112 372.143 281.707 370.782 281.973 371.087C282.274 371.431 278.578 375.327 278.567 376.351C278.875 378.949 279.488 383.653 278.651 386.611C277.627 390.228 275.001 398.267 275.001 398.267L269.406 396.936C269.406 396.936 273.054 386.795 273.768 384.581Z" fill="#F7A491"/>
<path d="M276.152 372.227C276.426 372.351 276.657 372.541 276.856 372.758C276.877 372.802 277.576 373.461 277.399 374.533C277.275 373.876 277.136 373.149 276.154 372.227H276.152Z" fill="#F48C7F"/>
<path d="M240.375 399.863C240.375 399.863 240.518 398.962 239.77 397.57C239.291 396.677 239.146 394.859 238.644 395.251C238.141 395.641 238.897 397.233 238.428 397.136C237.962 397.039 236.17 393.821 235.715 394.175C235.26 394.529 237.144 397.458 236.727 397.37C236.311 397.283 234.872 394.425 234.229 394.927C233.586 395.428 236.217 398.132 235.871 398.4C235.527 398.669 233.909 396.921 233.391 397.325C232.874 397.728 235.707 399.606 235.462 399.554C235.216 399.503 233.46 399.05 233.38 399.4C233.289 399.794 236.956 400.952 237.372 401.767C237.789 402.582 244.095 410.718 245.896 410.722C247.698 410.725 255.787 405.247 256.375 403.465C256.963 401.683 256.23 399.794 255.051 399.548C253.871 399.303 246.329 404.735 245.958 404.659C245.587 404.581 240.375 399.863 240.375 399.863Z" fill="#F7A491"/>
<path d="M238.505 397.89C238.328 398.134 238.221 398.412 238.157 398.699C238.159 398.749 237.879 399.667 238.562 400.51C238.345 399.878 238.107 399.177 238.505 397.888V397.89Z" fill="#F48C7F"/>
<path d="M257.418 411.093C257.418 411.093 264.682 416.872 265.485 418.05C266.086 418.932 264.09 428.871 264.09 428.871C264.09 428.871 261.218 428.961 259.904 427.94C259.904 427.94 260.689 421.07 260.343 420.802C259.999 420.533 252.027 416.986 252.027 416.986L252.532 412.911L257.418 411.091V411.093Z" fill="#B75742"/>
<path d="M271.358 390.298C271.358 390.298 272.614 390.533 276.91 395.226L271.915 405.392L267.297 396.94L271.356 390.297L271.358 390.298Z" fill="#9BC1F9"/>
<path d="M263.251 397.467C263.251 397.467 266.534 396.734 267.683 396.171C268.834 395.607 279.472 420.687 276.79 421.573C271.188 423.422 256.642 428.311 256.642 428.311C256.642 428.311 256.223 426.859 256.751 424.212C257.666 419.631 257.363 409.408 257.171 407.62C257.059 406.569 250.852 409.61 250.852 409.61L248.406 401.683C248.406 401.683 255.491 399.269 257.868 398.505C258.532 398.292 263.251 397.467 263.251 397.467Z" fill="#9BC1F9"/>
<path d="M275.391 412.995C274.063 408.857 265.266 396.959 265.188 396.847L266.624 395.866C266.946 396.336 274.114 406.424 275.518 410.8L275.389 412.995H275.391Z" fill="#3C8F7C"/>
<path d="M256.31 420.674L255.398 419.519C255.459 419.469 261.583 414.562 261.749 409.124C261.916 403.629 257.49 398.351 257.444 398.298L258.565 397.342C258.763 397.574 263.404 403.098 263.219 409.168C263.033 415.297 256.584 420.457 256.31 420.674Z" fill="#3C8F7C"/>
<path d="M261.679 380.696C261.679 380.696 264.276 378.765 266.737 381.9C268.701 384.4 268.44 383.613 269.411 384.855C270.381 386.098 271.844 386.205 272.067 388.272C272.29 390.34 271.359 390.765 271.359 390.765C271.359 390.765 272.404 392.279 271.618 394.036C270.832 395.794 268.581 397.477 266.545 397.463C266.545 397.463 263.702 399.446 260.587 398.99C257.474 398.534 258.528 398.419 257.289 398.554C256.05 398.688 252.515 397.349 252.8 394.809C252.8 394.809 250.497 392.602 252.265 390.405C254.033 388.21 254.99 386.679 255.852 383.891C256.714 381.104 260.233 380.203 261.679 380.698V380.696Z" fill="#1A1A1A"/>
<path d="M265.156 394.967C265.156 394.967 265.44 398.638 265.82 398.945C266.201 399.251 266.742 399.769 266.33 400.697C265.919 401.624 263.666 401.302 262.591 400.914C261.56 400.54 260.831 399.716 260.831 399.716L260.719 393.867L265.156 394.969V394.967Z" fill="#F7A491"/>
<path d="M263.86 396.639C263.13 396.468 261.849 396.125 260.734 394.684L260.719 393.865L265.156 394.967C265.156 394.967 265.225 395.862 265.341 396.807C264.74 396.847 264.211 396.723 263.862 396.641L263.86 396.639Z" fill="#F48C7F"/>
<path d="M258.935 390.656C258.935 390.656 258.6 388.516 257.325 389.076C256.05 389.636 257.405 392.774 258.488 392.549C259.571 392.324 258.935 390.656 258.935 390.656Z" fill="#F7A491"/>
<path d="M262.915 382.336C262.915 382.336 264.976 382.067 266.205 383.562C267.435 385.056 269.075 389.525 267.672 392.884C266.268 396.241 263.958 395.7 263.006 395.477C262.053 395.255 260.163 394.739 258.927 391.873C257.69 389.009 257.638 382.276 262.917 382.336H262.915Z" fill="#F7A491"/>
<path d="M305.036 416.548L308.832 434.694L302.282 434.058L299.129 417.462L305.036 416.548Z" fill="#F7A491"/>
<path d="M306.164 417.081L299.133 417.462C299.133 417.462 298.61 412.605 298.49 410.28C298.345 407.46 298.397 403.818 298.741 403.879C299.708 404.048 301.021 404.509 301.841 405.524C304.678 409.029 306.166 417.081 306.166 417.081H306.164Z" fill="#5184CE"/>
<path d="M301.54 409.644C301.709 410.497 306.162 434.21 306.162 434.21C295.618 439.995 287.57 435.06 287.57 435.06C287.57 435.06 287.972 419.117 287.431 416.906C287.073 415.442 285.778 405.807 286.72 405.482C287.93 405.065 289.759 404.452 291.285 404.214C292.588 404.01 297.673 403.667 298.6 403.926C298.6 403.926 300.826 406.055 301.536 409.642L301.54 409.644Z" fill="#EAFCFC"/>
<path d="M297.757 387.02C297.757 387.02 302.022 386.955 301.67 390.489C301.67 390.489 304.842 391.723 302.728 394.585C302.728 394.585 304.985 397.662 301.057 400.615C301.057 400.615 300.014 404.747 295.567 402.772C295.567 402.772 294.252 403.755 292.433 402.441C290.614 401.127 290.376 400.348 290.376 400.348C290.376 400.348 286.351 399.585 286.905 395.881C286.905 395.881 284.791 394.078 287.984 391.812C287.984 391.812 287.925 386.732 292.239 387.418C292.239 387.418 294.758 383.541 297.759 387.02H297.757Z" fill="#13375B"/>
<path d="M291.083 395.337C290.967 396.237 290.381 396.906 289.772 396.828C289.163 396.75 288.763 395.956 288.879 395.055C288.996 394.154 289.582 393.486 290.191 393.564C290.799 393.642 291.199 394.436 291.083 395.337Z" fill="#F7A491"/>
<path d="M301.09 398.09C300.716 398.918 299.96 399.385 299.401 399.132C298.841 398.878 298.691 398.002 299.066 397.174C299.441 396.346 300.196 395.879 300.755 396.133C301.315 396.386 301.465 397.262 301.09 398.09Z" fill="#F7A491"/>
<path d="M295.957 400.839C295.951 400.904 296.313 403.225 296.507 404.452C296.579 404.908 296.317 405.352 295.883 405.514C294.722 405.944 292.461 406.496 291.038 405C290.909 404.863 290.848 404.676 290.867 404.488L291.457 399.055L295.959 400.839H295.957Z" fill="#F7A491"/>
<path d="M296.306 403.178C295.073 403.688 291.511 403.246 291.242 401.001L291.453 399.055L295.956 400.839C295.954 400.87 296.197 402.469 296.306 403.178Z" fill="#F48C7F"/>
<path d="M297.106 389.775C297.106 389.775 295.23 389.368 293.437 390.481C291.645 391.595 288.735 395.975 291.167 399.783C293.599 403.589 297.732 401.725 299.186 398.711C300.64 395.695 301.26 391.207 297.106 389.775Z" fill="#F7A491"/>
<path d="M295.946 399.196L293.449 399.053C293.449 399.053 293.453 400.005 294.549 400.101C295.885 400.217 295.946 399.198 295.946 399.198V399.196Z" fill="white"/>
<path d="M300.305 391.91C300.305 391.91 298.486 390.935 297.133 391.062C295.778 391.19 291.365 394.402 290.722 393.863C290.081 393.326 290.908 390.485 291.42 390.074C291.932 389.663 293.978 388.423 294.153 388.4C294.328 388.377 296.183 388.412 296.501 388.494C296.819 388.575 299.114 389.672 299.114 389.672L300.303 391.91H300.305Z" fill="#13375B"/>
<path d="M273.89 436.364C273.928 436.255 274.023 436.25 274.118 436.244C275.049 436.187 275.979 436.114 276.899 435.947C277.053 435.918 277.203 435.88 277.342 435.817C277.595 435.707 277.85 435.701 278.111 435.764C278.251 435.798 278.396 435.802 278.541 435.796C279.009 435.779 280.331 435.282 281.015 435.141C281.171 435.109 281.29 434.987 281.325 434.831C281.917 432.137 283.176 426.095 283.302 424.117C283.464 421.588 284.845 410.164 284.845 410.164L289.542 411.316C289.542 411.316 287.89 419.768 287.486 423.854C287.176 427.009 284.248 433.776 283.323 435.724C282.887 437.167 281.81 437.24 281.561 437.278C281.418 437.299 281.289 437.375 281.197 437.487C281.034 437.691 280.845 437.87 280.626 438.017C280.465 438.125 280.341 438.266 280.238 438.428C280.05 438.723 279.882 439.03 279.717 439.338C279.606 439.542 279.488 439.61 279.313 439.568C279.127 439.523 279.036 439.389 279.032 439.165C279.026 438.832 279.123 438.527 279.281 438.237C279.429 437.967 279.412 437.813 279.222 437.573C279.114 437.436 279.001 437.303 278.86 437.196C278.718 437.087 278.567 437.006 278.379 437.038C278.048 437.131 277.711 437.211 277.369 437.259L277.089 437.325C277.079 437.325 276.937 437.364 276.937 437.364C276.914 437.371 276.419 437.44 276.25 437.445C276.113 437.449 275.894 437.466 275.705 437.482C275.536 437.495 275.174 437.417 275.161 437.417C274.996 437.417 274.847 437.364 274.722 437.257C274.67 437.213 274.619 437.164 274.644 437.086C274.664 437.013 274.72 436.983 274.792 436.967C274.902 436.945 275.479 436.855 275.471 436.83C275.3 436.836 274.762 436.84 274.59 436.842C274.358 436.842 274.156 436.766 273.991 436.6C273.926 436.535 273.85 436.471 273.89 436.36V436.364Z" fill="#F7A491"/>
<path d="M281.711 417.041L288.516 420.333C288.516 420.333 289.583 415.333 290.381 412.243C291.066 409.585 287.675 404.857 286.546 405.504C284.019 406.952 281.711 417.043 281.711 417.043V417.041Z" fill="#5184CE"/>
<path d="M327.703 408.231L388.21 410.807C388.21 410.807 382.934 428.475 382.804 429.357C382.675 430.238 362.818 441.08 357.828 440.951C352.839 440.821 341.202 436.642 338.698 435.905C336.194 435.168 329.69 430.092 330.08 426.967C330.47 423.843 327.703 408.231 327.703 408.231Z" fill="#FACD49"/>
<path d="M328.881 414.337H345.117C345.519 414.337 345.842 414.663 345.842 415.063V416.466C345.842 416.868 345.517 417.192 345.117 417.192H328.881C328.48 417.192 328.156 416.866 328.156 416.466V415.063C328.156 414.663 328.482 414.337 328.881 414.337Z" fill="#FEB546"/>
<path opacity="0.6" d="M391.224 405.068L327.219 399.587V403.873C327.219 406.299 329.078 408.292 331.432 408.387L388.128 410.668C389.429 410.72 390.704 410.131 391.45 409.033C392.091 408.086 392.373 406.755 391.224 405.07V405.068Z" fill="#C5DDF9"/>
<path opacity="0.7" d="M327.219 399.587V398.972L390.995 404.752L391.224 405.068L327.219 399.587Z" fill="#C5DDF9"/>
<path opacity="0.2" d="M341.957 408.808L347.789 409.044L352.579 401.759L346.91 401.273L341.957 408.808Z" fill="white"/>
<path opacity="0.2" d="M352.309 409.225L356.969 402.134L354.815 401.949L350.09 409.135L352.309 409.225Z" fill="white"/>
<path d="M240.509 408.461L313.617 409.185L314.272 432.369C314.272 432.369 305.731 444.799 304.7 444.669C303.671 444.54 281.834 441.025 279.874 441.154C277.914 441.284 260.798 432.879 259.991 433.047C259.184 433.214 253.85 430.351 253.85 430.351L245.157 424.206L236.539 415.331L240.51 408.461H240.509Z" fill="#FACD49"/>
<path d="M239.077 412.909H255.312C255.714 412.909 256.037 413.235 256.037 413.635V415.038C256.037 415.438 255.712 415.764 255.312 415.764H239.077C238.675 415.764 238.352 415.438 238.352 415.038V413.635C238.352 413.233 238.677 412.909 239.077 412.909Z" fill="#FEB546"/>
<path d="M266.125 391.647L263.594 392.134C263.594 392.134 263.837 393.084 264.956 392.903C266.321 392.681 266.125 391.649 266.125 391.649V391.647Z" fill="white"/>
<path d="M258.292 389.221C258.292 389.221 264.003 386.603 264.568 382.501C265.133 378.402 259.874 382.317 259.874 382.317L257.746 384.36L258.29 389.221H258.292Z" fill="#1A1A1A"/>
<path d="M329.295 407.713C329.295 407.713 330.357 408.446 331.702 408.397C331.702 408.397 329.913 408.943 329.862 408.9C329.809 408.856 328.909 408.132 328.922 408.117C328.937 408.102 329.295 407.713 329.295 407.713Z" fill="#FACD49"/>
<path d="M334.809 381.233L341.956 381.686C341.956 381.686 340.786 379.748 340.289 379.748H336.523L334.809 381.233Z" fill="#FACD49"/>
<path d="M681.949 492H142.049C140.918 492 140 490.208 140 488C140 485.792 140.918 484 142.049 484H681.951C683.084 484 684 485.792 684 488C684 490.208 683.082 492 681.951 492H681.949Z" fill="#183658"/>
<path d="M534.573 144.474C532.828 143.886 531.065 143.304 529.292 142.748C528.801 142.587 528.468 142.035 528.577 141.506C528.685 140.977 529.162 140.652 529.653 140.813C531.444 141.363 533.224 141.939 534.977 142.547C535.467 142.708 535.79 143.286 535.664 143.821C535.604 144.154 535.373 144.392 535.11 144.485C534.934 144.547 534.756 144.543 534.556 144.48L534.573 144.474ZM524.311 139.198C522.534 138.688 520.74 138.184 518.935 137.707C518.434 137.571 517.957 137.896 517.88 138.459C517.796 139.002 518.146 139.547 518.647 139.682C520.435 140.166 522.222 140.65 523.982 141.166C524.157 141.216 524.336 141.22 524.493 141.164C524.774 141.065 524.998 140.807 525.051 140.454C525.135 139.911 524.82 139.353 524.318 139.218L524.311 139.198ZM566.348 157.409C566.576 157.328 566.769 157.148 566.867 156.868C567.043 156.36 566.808 155.752 566.331 155.518C564.638 154.689 562.928 153.865 561.2 153.048C560.723 152.815 560.201 153.066 560.026 153.574C559.851 154.082 560.12 154.679 560.597 154.912C562.318 155.709 564.011 156.539 565.686 157.375C565.907 157.498 566.145 157.503 566.355 157.428L566.348 157.409ZM621.562 334.493C619.827 333.991 618.061 333.455 616.263 332.885C615.772 332.724 615.288 333.029 615.162 333.564C615.053 334.093 615.369 334.651 615.866 334.832C617.689 335.415 619.48 335.965 621.215 336.467C621.39 336.517 621.562 336.501 621.72 336.445C622 336.346 622.224 336.089 622.277 335.735C622.361 335.192 622.028 334.641 621.545 334.499L621.562 334.493ZM513.555 136.373C511.764 135.935 509.962 135.522 508.15 135.136C507.639 135.027 507.193 135.385 507.127 135.922C507.067 136.478 507.428 136.998 507.922 137.113C509.717 137.506 511.518 137.918 513.285 138.342C513.453 138.372 513.607 138.362 513.747 138.312C514.045 138.207 514.263 137.93 514.315 137.576C514.382 137.04 514.032 136.494 513.537 136.379L513.555 136.373ZM556.083 152.625C556.328 152.538 556.531 152.332 556.605 152.039C556.756 151.517 556.493 150.941 556.023 150.727C554.299 149.976 552.575 149.224 550.822 148.505C550.342 148.317 549.82 148.569 549.687 149.084C549.536 149.606 549.823 150.196 550.303 150.383C552.038 151.109 553.756 151.841 555.48 152.592C555.694 152.695 555.908 152.687 556.1 152.619L556.083 152.625ZM605.766 329.12C605.285 328.933 604.77 329.204 604.637 329.72C604.504 330.235 604.791 330.825 605.271 331.013C607.059 331.72 608.825 332.367 610.542 332.988C610.742 333.051 610.939 333.048 611.096 332.993C611.359 332.9 611.573 332.668 611.64 332.355C611.766 331.819 611.468 331.255 610.97 331.074C609.253 330.454 607.504 329.8 605.741 329.107L605.766 329.12ZM545.074 148.304C545.281 148.388 545.477 148.385 545.652 148.323C545.915 148.23 546.112 148.005 546.203 147.705C546.336 147.189 546.049 146.599 545.569 146.412C543.83 145.732 542.064 145.085 540.297 144.437C539.817 144.25 539.309 144.541 539.183 145.076C539.056 145.612 539.354 146.176 539.852 146.357C541.611 146.985 543.36 147.638 545.081 148.324L545.074 148.304ZM595.398 324.774C594.911 324.567 594.399 324.792 594.231 325.32C594.08 325.842 594.326 326.425 594.82 326.652C596.576 327.437 598.318 328.182 600.01 328.9C600.217 328.983 600.438 328.995 600.613 328.933C600.859 328.846 601.062 328.64 601.153 328.34C601.304 327.819 601.017 327.229 600.536 327.041C598.844 326.323 597.126 325.591 595.37 324.806L595.398 324.774ZM664.597 245.555C665.659 247.277 666.679 248.991 667.657 250.698C667.905 251.123 668.368 251.317 668.771 251.175C668.824 251.156 668.894 251.131 668.946 251.113C669.367 250.852 669.483 250.232 669.213 249.747C668.228 248.02 667.194 246.266 666.126 244.524C665.838 244.045 665.27 243.889 664.839 244.175C664.426 244.455 664.335 245.09 664.622 245.568L664.597 245.555ZM670.544 255.969C671.49 257.754 672.384 259.558 673.246 261.328C673.474 261.806 673.968 262.033 674.388 261.884C674.423 261.872 674.458 261.859 674.494 261.847C674.946 261.62 675.111 261.027 674.851 260.516C673.993 258.7 673.082 256.902 672.121 255.077C671.869 254.586 671.28 254.371 670.86 254.631C670.415 254.877 670.292 255.478 670.551 255.989L670.544 255.969ZM502.704 134.004C500.906 133.658 499.09 133.318 497.264 133.004C496.759 132.914 496.321 133.292 496.279 133.843C496.237 134.393 496.615 134.906 497.12 134.996C498.929 135.316 500.737 135.636 502.518 135.989C502.668 136.025 502.816 135.995 502.938 135.952C503.236 135.846 503.464 135.543 503.51 135.17C503.552 134.619 503.191 134.1 502.679 133.991L502.704 134.004ZM658.03 235.56C659.183 237.205 660.301 238.863 661.394 240.507C661.647 240.886 662.095 241.04 662.463 240.91C662.533 240.885 662.621 240.854 662.677 240.79C663.084 240.49 663.157 239.861 662.853 239.389C661.752 237.725 660.634 236.068 659.457 234.409C659.134 233.943 658.563 233.832 658.164 234.152C657.764 234.472 657.708 235.094 658.03 235.56ZM675.727 266.788C676.522 268.649 677.282 270.522 677.987 272.348C678.169 272.863 678.702 273.144 679.175 272.976L679.192 272.97C679.666 272.803 679.872 272.217 679.666 271.687C678.947 269.822 678.18 267.929 677.371 266.029C677.146 265.505 676.586 265.257 676.144 265.458C675.685 265.665 675.495 266.245 675.72 266.768L675.727 266.788ZM654.536 230.749C654.799 231.102 655.223 231.242 655.574 231.118C655.661 231.087 655.766 231.05 655.833 230.96C656.208 230.626 656.257 229.984 655.924 229.544C654.75 227.951 653.517 226.357 652.266 224.769C651.915 224.335 651.333 224.25 650.965 224.604C650.597 224.957 650.566 225.592 650.916 226.026C652.16 227.595 653.352 229.182 654.536 230.749ZM622.683 196C622.946 196.242 623.283 196.302 623.563 196.203C623.721 196.147 623.865 196.052 623.97 195.903C624.275 195.483 624.187 194.844 623.781 194.475C622.337 193.178 620.851 191.874 619.354 190.595C618.93 190.232 618.362 190.299 618.082 190.732C617.784 191.172 617.889 191.805 618.306 192.148C619.803 193.426 621.257 194.697 622.701 195.994L622.683 196ZM639.418 212.509C639.677 212.797 640.063 212.883 640.378 212.772C640.501 212.729 640.61 212.646 640.711 212.543C641.048 212.156 641.02 211.519 640.659 211.111C639.32 209.666 637.964 208.226 636.583 206.773C636.204 206.371 635.616 206.379 635.279 206.765C634.943 207.152 634.995 207.803 635.374 208.204C636.747 209.638 638.097 211.057 639.411 212.489L639.418 212.509ZM663.983 336.438C662.388 337.002 660.692 337.445 658.925 337.801C658.449 337.903 658.144 338.434 658.273 338.969C658.41 339.523 658.911 339.881 659.388 339.78C661.224 339.398 662.991 338.93 664.656 338.342C665.129 338.175 665.361 337.602 665.178 337.087C664.989 336.551 664.467 336.245 663.994 336.412L663.983 336.438ZM632.259 337.094C630.521 336.749 628.726 336.357 626.911 335.905C626.416 335.79 625.947 336.134 625.88 336.671C625.813 337.208 626.164 337.753 626.658 337.869C628.516 338.328 630.328 338.714 632.091 339.072C632.241 339.108 632.389 339.079 632.511 339.035C632.809 338.93 633.037 338.626 633.083 338.253C633.125 337.703 632.764 337.184 632.252 337.074L632.259 337.094ZM679.989 323.376C679.091 324.965 678.075 326.44 676.921 327.806C676.585 328.193 676.637 328.844 677.016 329.246C677.293 329.527 677.654 329.6 677.952 329.495C678.092 329.445 678.2 329.362 678.302 329.26C679.512 327.828 680.623 326.231 681.569 324.558C681.825 324.111 681.678 323.471 681.251 323.153C680.805 322.842 680.252 322.949 679.996 323.396L679.989 323.376ZM648.505 221.546C648.873 221.193 648.88 220.544 648.512 220.116C647.247 218.6 645.958 217.07 644.64 215.572C644.279 215.164 643.694 215.126 643.35 215.492C642.989 215.865 643.017 216.502 643.378 216.91C644.696 218.408 645.971 219.898 647.219 221.421C647.492 221.748 647.885 221.855 648.218 221.737C648.323 221.7 648.439 221.637 648.523 221.54L648.505 221.546ZM632.402 202.584C631.007 201.202 629.577 199.834 628.13 198.471C627.741 198.095 627.159 198.122 626.854 198.543C626.549 198.963 626.612 199.587 627.019 199.957C628.459 201.3 629.864 202.655 631.242 204.042C631.512 204.304 631.855 204.383 632.17 204.272C632.311 204.222 632.437 204.133 632.531 204.01C632.861 203.604 632.791 202.959 632.402 202.584ZM685.382 300.366C684.864 300.348 684.481 300.773 684.506 301.345C684.583 303.348 684.562 305.296 684.442 307.19C684.4 307.74 684.778 308.254 685.301 308.337C685.444 308.353 685.581 308.349 685.704 308.306C686.019 308.194 686.247 307.891 686.286 307.498C686.419 305.532 686.43 303.498 686.35 301.429C686.332 300.878 685.908 300.403 685.389 300.386L685.382 300.366ZM680.555 276.772C680.04 276.932 679.837 277.472 680.008 278.014C680.636 279.956 681.214 281.871 681.701 283.752C681.855 284.3 682.349 284.638 682.843 284.531C682.861 284.524 682.896 284.512 682.913 284.506C683.351 284.351 683.586 283.844 683.446 283.336C682.945 281.416 682.346 279.441 681.712 277.479C681.523 276.943 681.018 276.631 680.538 276.778L680.555 276.772ZM673.146 331.461C671.81 332.535 670.338 333.501 668.782 334.341C668.337 334.588 668.189 335.175 668.431 335.692C668.652 336.149 669.146 336.376 669.567 336.228C669.602 336.215 669.637 336.203 669.689 336.184C671.326 335.294 672.897 334.27 674.313 333.145C674.713 332.826 674.769 332.203 674.446 331.737C674.124 331.271 673.553 331.161 673.153 331.48L673.146 331.461ZM683.764 288.422C683.281 288.503 682.951 289.021 683.063 289.562C683.466 291.539 683.774 293.527 684.012 295.428C684.072 295.987 684.535 296.404 685.039 296.382C685.109 296.357 685.187 296.352 685.257 296.327C685.642 296.191 685.888 295.77 685.821 295.303C685.579 293.335 685.24 291.314 684.833 289.271C684.714 288.711 684.224 288.326 683.74 288.408L683.764 288.422ZM684.803 312.172C684.312 312.01 683.811 312.321 683.726 312.864C683.369 314.753 682.878 316.6 682.278 318.306C682.103 318.814 682.338 319.423 682.814 319.656C683.028 319.759 683.273 319.784 683.484 319.71C683.712 319.629 683.904 319.45 684.002 319.169C684.644 317.359 685.16 315.414 685.542 313.427C685.651 312.898 685.328 312.32 684.827 312.185L684.803 312.172ZM586.431 166.599C584.794 165.593 583.147 164.614 581.482 163.64C581.016 163.381 580.483 163.547 580.266 164.048C580.066 164.542 580.259 165.143 580.732 165.422C582.39 166.376 584.02 167.362 585.632 168.354C585.877 168.49 586.147 168.529 586.375 168.448C586.585 168.374 586.767 168.22 586.862 167.986C587.086 167.505 586.887 166.884 586.431 166.599ZM643.019 338.535C641.274 338.393 639.472 338.204 637.65 337.956C637.152 337.886 636.721 338.284 636.679 338.835C636.654 339.379 637.05 339.886 637.548 339.955C639.413 340.211 641.256 340.408 643.044 340.557C643.163 340.559 643.275 340.542 643.38 340.505C643.713 340.387 643.962 340.032 643.952 339.611C643.952 339.054 643.528 338.579 643.019 338.535ZM576.467 162.668C576.677 162.594 576.87 162.414 576.965 162.18C577.164 161.686 576.947 161.071 576.481 160.811C574.813 159.884 573.134 158.982 571.438 158.087C570.972 157.828 570.435 158.039 570.242 158.554C570.043 159.048 570.277 159.657 570.761 159.91C572.45 160.785 574.111 161.693 575.773 162.601C575.994 162.724 576.256 162.743 576.467 162.668ZM610.291 183.133C609.857 182.796 609.296 182.883 609.022 183.336C608.749 183.79 608.872 184.416 609.306 184.753C610.834 185.953 612.362 187.154 613.838 188.372C614.093 188.594 614.423 188.634 614.686 188.541C614.861 188.479 614.998 188.364 615.113 188.189C615.394 187.756 615.282 187.104 614.847 186.766C613.347 185.534 611.812 184.314 610.267 183.12L610.291 183.133ZM605.514 181.386C605.689 181.324 605.861 181.196 605.952 181.008C606.208 180.56 606.079 179.914 605.633 179.603C604.084 178.455 602.518 177.313 600.916 176.183C600.471 175.872 599.924 175.998 599.668 176.446C599.419 176.913 599.577 177.526 600.005 177.844C601.582 178.96 603.148 180.102 604.673 181.237C604.939 181.432 605.227 181.465 605.49 181.372L605.514 181.386ZM653.72 338.525C652.02 338.679 650.233 338.753 648.4 338.754C647.888 338.756 647.513 339.201 647.555 339.766C647.597 340.331 648.031 340.78 648.543 340.778C650.418 340.785 652.258 340.692 654.018 340.539C654.088 340.514 654.148 340.515 654.218 340.491C654.603 340.355 654.849 339.933 654.775 339.446C654.698 338.893 654.218 338.483 653.72 338.525ZM591.32 169.668C590.865 169.383 590.307 169.535 590.083 170.016C589.858 170.497 590.034 171.104 590.496 171.409C592.105 172.447 593.721 173.505 595.301 174.575C595.561 174.751 595.824 174.77 596.069 174.683C596.262 174.615 596.426 174.468 596.535 174.273C596.784 173.806 596.602 173.179 596.157 172.868C594.569 171.778 592.953 170.72 591.32 169.668Z" fill="#7879F1"/>
<defs>
<filter id="filter0_d_1090_654" x="0" y="0" width="824" height="589" filterUnits="userSpaceOnUse" color-interpolation-filters="sRGB">
<feFlood flood-opacity="0" result="BackgroundImageFix"/>
<feColorMatrix in="SourceAlpha" type="matrix" values="0 0 0 0 0 0 0 0 0 0 0 0 0 0 0 0 0 0 127 0" result="hardAlpha"/>
<feOffset dy="2"/>
<feGaussianBlur stdDeviation="35"/>
<feComposite in2="hardAlpha" operator="out"/>
<feColorMatrix type="matrix" values="0 0 0 0 0 0 0 0 0 0 0 0 0 0 0 0 0 0 0.06 0"/>
<feBlend mode="normal" in2="BackgroundImageFix" result="effect1_dropShadow_1090_654"/>
<feBlend mode="normal" in="SourceGraphic" in2="effect1_dropShadow_1090_654" result="shape"/>
</filter>
<filter id="filter1_dddd_1090_654" x="528" y="261" width="76.1406" height="91.1406" filterUnits="userSpaceOnUse" color-interpolation-filters="sRGB">
<feFlood flood-opacity="0" result="BackgroundImageFix"/>
<feColorMatrix in="SourceAlpha" type="matrix" values="0 0 0 0 0 0 0 0 0 0 0 0 0 0 0 0 0 0 127 0" result="hardAlpha"/>
<feOffset dy="1"/>
<feGaussianBlur stdDeviation="1.5"/>
<feColorMatrix type="matrix" values="0 0 0 0 0.54902 0 0 0 0 0.54902 0 0 0 0 0.54902 0 0 0 0.1 0"/>
<feBlend mode="normal" in2="BackgroundImageFix" result="effect1_dropShadow_1090_654"/>
<feColorMatrix in="SourceAlpha" type="matrix" values="0 0 0 0 0 0 0 0 0 0 0 0 0 0 0 0 0 0 127 0" result="hardAlpha"/>
<feOffset dy="6"/>
<feGaussianBlur stdDeviation="3"/>
<feColorMatrix type="matrix" values="0 0 0 0 0.54902 0 0 0 0 0.54902 0 0 0 0 0.54902 0 0 0 0.09 0"/>
<feBlend mode="normal" in2="effect1_dropShadow_1090_654" result="effect2_dropShadow_1090_654"/>
<feColorMatrix in="SourceAlpha" type="matrix" values="0 0 0 0 0 0 0 0 0 0 0 0 0 0 0 0 0 0 127 0" result="hardAlpha"/>
<feOffset dy="13"/>
<feGaussianBlur stdDeviation="4"/>
<feColorMatrix type="matrix" values="0 0 0 0 0.54902 0 0 0 0 0.54902 0 0 0 0 0.54902 0 0 0 0.05 0"/>
<feBlend mode="normal" in2="effect2_dropShadow_1090_654" result="effect3_dropShadow_1090_654"/>
<feColorMatrix in="SourceAlpha" type="matrix" values="0 0 0 0 0 0 0 0 0 0 0 0 0 0 0 0 0 0 127 0" result="hardAlpha"/>
<feOffset dy="22"/>
<feGaussianBlur stdDeviation="4.5"/>
<feColorMatrix type="matrix" values="0 0 0 0 0.54902 0 0 0 0 0.54902 0 0 0 0 0.54902 0 0 0 0.01 0"/>
<feBlend mode="normal" in2="effect3_dropShadow_1090_654" result="effect4_dropShadow_1090_654"/>
<feBlend mode="normal" in="SourceGraphic" in2="effect4_dropShadow_1090_654" result="shape"/>
</filter>
</defs>
</svg>
