<svg width="1301" height="537" viewBox="0 0 1301 537" fill="none" xmlns="http://www.w3.org/2000/svg">
<path d="M1300.38 431.61C1300.38 431.61 1021.96 271.92 894.326 253.716C766.704 235.513 614.791 278.567 518.349 298.785C421.899 319.002 48.3186 392.763 6.39905 418.089C-35.5205 443.414 136.562 545.518 287.787 535.949C439.012 526.38 1078.92 469.137 1094.22 475.654C1109.52 482.164 1300.39 431.617 1300.39 431.617L1300.38 431.61Z" fill="#96D9C9"/>
<path d="M167.886 376.187L965.585 385.191C965.585 385.191 689.602 151.199 638.145 140.902C636.534 140.579 634.952 140.29 633.38 140.044C581.866 131.787 533.505 106.424 495.539 65.6055C463.289 30.9268 417.83 3.17939 359.988 19.0812C308.842 33.1444 217.216 207.407 167.895 307.053V376.198L167.886 376.187Z" fill="#B8D6F9"/>
<path d="M88.283 118.086C78.9764 117.442 42.0177 117.952 40.5771 117.77C39.1364 117.587 29.7691 101.302 28.1644 103.023C26.5596 104.743 33.3859 111.101 31.2341 112.706C30.608 113.168 26.8331 111.661 23.7998 111.466L25.2161 128.329C29.4044 127.921 32.9726 126.11 39.957 128.116C43.8049 129.222 73.2381 133.161 98.1183 135.58C123.625 138.055 144.548 138.991 144.548 138.991L146.645 119.417C146.645 119.417 98.5743 118.803 88.2891 118.086H88.283Z" fill="#F7A491"/>
<path d="M141.69 419.135C141.69 419.135 142.408 431.991 142.408 432.022C142.669 433.657 143.702 437.687 143.702 439.17C143.702 444.744 119.351 434.435 124.804 431.967C125.296 431.742 127.886 430.052 128.05 428.156C128.299 425.232 128.937 419.317 128.937 419.317L141.684 419.135H141.69Z" fill="#F7A491"/>
<path d="M124.871 431.912C124.871 431.912 130.591 433.614 133.515 434.046C136.445 434.472 140.305 430.879 142.378 431.852C144.657 432.921 144.426 443.432 144.426 443.432C144.426 443.432 113.905 445.261 105.285 442.435C101.869 441.316 113.182 435.888 124.871 431.918V431.912Z" fill="#184655"/>
<path d="M195.347 420.369C195.347 420.369 196.058 433.225 196.064 433.256C196.326 434.891 197.359 438.921 197.359 440.404C197.359 445.979 173.008 435.669 178.466 433.201C178.959 432.976 182.314 430.022 182.478 428.125C182.728 425.201 182.594 420.551 182.594 420.551L195.341 420.369H195.347Z" fill="#F7A491"/>
<path d="M178.528 433.146C178.528 433.146 184.248 434.854 187.172 435.28C190.102 435.705 193.962 432.119 196.034 433.085C198.314 434.155 198.405 443.76 198.405 443.76C198.405 443.76 165.774 446.167 158.103 443.906C154.656 442.89 166.838 437.116 178.528 433.146Z" fill="#184655"/>
<path d="M156.753 234.755L146.456 239.277L124.797 344.628L125.673 423.609L143.034 424.022C143.034 424.022 151.112 354.937 151.112 349.582C151.112 344.227 188.515 255.885 188.515 255.885L156.747 234.755H156.753Z" fill="#355389"/>
<path d="M164.699 240.548C164.699 240.548 172.285 321.717 172.285 335.4C172.285 349.084 178.437 425.663 178.437 425.663L195.841 425.56C195.841 425.56 197.099 402.218 198.965 367.879C199.257 362.499 198.588 351.649 198.965 346.081C201.67 306.034 207.025 268.34 204.466 253.392C204.053 250.985 203.281 244.7 201.773 243.113C190.376 231.102 164.699 240.548 164.699 240.548Z" fill="#466EB6"/>
<path d="M157.757 119.964C153.428 118.226 123.643 117.709 123.643 117.709C123.643 117.709 120.737 139.155 124.488 144.024C124.488 144.024 159.878 143.258 159.246 145.537L157.757 119.964Z" fill="#B75742"/>
<path d="M221.771 114.372C229.333 116.396 230.591 145.538 230.591 145.538L254.554 142.79C254.554 142.79 250.183 112.402 237.527 99.704C224.871 87.0055 192.885 94.7681 180.727 102.676C168.57 110.585 173.84 120.657 173.84 120.657C173.84 120.657 214.209 112.36 221.765 114.378L221.771 114.372Z" fill="#13375B"/>
<path d="M245.855 138.632C247.107 166.309 254.864 168.764 255.022 169.147C255.186 169.178 261.38 173.943 268.237 167.64L265.957 165.33C264.979 166.333 263.483 167.232 262.055 167.634C258.869 168.466 256.809 166.874 256.553 166.801C256.383 166.667 254.754 165.682 253.946 164.339C249.964 159.02 248.068 145.191 247.527 138.577L245.855 138.632Z" fill="#355389"/>
<path d="M165.3 118.402C165.3 118.402 168.661 131.593 169.044 142.31C169.427 153.026 176.819 161.968 177.779 188.794C178.74 215.619 182.575 240.281 182.575 240.281C182.575 240.281 212.343 242.353 218.203 236.038C224.063 229.722 221.522 172.29 215.729 144.376C209.936 116.457 235.412 108.846 222.172 99.6978C208.933 90.5554 191.718 96.7496 184.429 99.2297C177.141 101.716 165.087 112.487 165.3 118.402Z" fill="#184655"/>
<path d="M214.452 140.596C214.452 140.596 217.966 162.017 215.322 183.712C212.677 205.407 216.884 248.207 216.884 248.207C216.884 248.207 239.059 263.69 245.575 251.399C246.797 249.089 249.727 221.674 249.989 210.209C250.268 198.033 248.59 155.507 248.031 141.726C247.91 138.839 247.059 136.03 245.551 133.563C240.706 125.648 229.582 108.129 225.716 107.527C220.671 106.737 211.802 117.654 214.452 140.596Z" fill="#FACD49"/>
<path d="M248.615 156.516C245.497 159.555 225.674 178.618 215.729 179.998C215.844 178.782 215.948 177.579 216.033 176.375C223.814 175.129 241.339 158.978 248.445 152.084C248.499 153.495 248.554 154.978 248.615 156.516Z" fill="#13375B"/>
<path d="M214.507 207.747C214.482 206.556 214.47 205.37 214.458 204.191C220.47 206.769 241.624 205.121 250.007 204.191C250.019 205.431 250.025 206.574 250.019 207.601C242.329 208.458 221.673 210.72 214.501 207.747H214.507Z" fill="#13375B"/>
<path d="M248.013 235.442C247.892 236.567 247.764 237.661 247.642 238.724C239.284 240.396 223.188 233.26 215.455 229.91C215.376 228.646 215.297 227.339 215.218 225.996C222.403 229.114 240.664 236.828 248.013 235.442Z" fill="#13375B"/>
<path d="M248.5 230.798C244.786 232.354 221.669 242.274 216.392 242.609C216.313 241.63 216.222 240.542 216.131 239.363C219.851 239.016 237.449 231.661 248.877 226.895C248.755 228.196 248.634 229.503 248.506 230.798H248.5Z" fill="#13375B"/>
<path d="M222.185 240.481C217.462 240.481 213.632 236.652 213.632 231.929V195.839C213.632 191.116 217.462 187.286 222.185 187.286C226.908 187.286 230.738 191.116 230.738 195.839V231.929C230.738 236.652 226.908 240.481 222.185 240.481Z" fill="#50BFA5"/>
<path d="M230.738 203.115H213.626V206.696H230.738V203.115Z" fill="#13375B"/>
<path d="M176.09 118.299C176.09 118.299 185.123 117.472 188.734 126.031C192.345 134.596 200.046 169.853 198.405 189.614C196.764 209.37 205.785 265.118 205.785 265.118C174.303 281.415 140.918 251.028 140.918 251.028C140.918 251.028 137.429 165.676 140.487 151.714C146.888 122.53 159.185 117.825 159.185 117.825L176.09 118.293V118.299Z" fill="#F47458"/>
<path d="M201.104 254.462C204.514 248.9 205.28 249.69 205.7 248.967C206.192 248.11 205.645 234.877 205.645 234.877C205.645 234.877 204.277 195.863 204.131 193.76L186.667 157.744L201.761 143.604C201.761 143.604 219.735 183.317 220.319 185.566C220.902 187.815 216.745 240.84 216.526 245.514C216.526 245.514 218.276 251.174 219.261 254.76C220.246 258.353 219.614 262.219 219.735 263.276C219.754 263.434 219.966 266.978 219.097 271.422C218.343 275.258 217.346 271.288 217.346 271.288C217.346 271.288 217.492 263.945 216.927 264.036C216.489 264.109 216.641 268.121 215.851 272.37C215.65 273.464 215.444 274.54 215.249 275.531C214.739 278.127 213.037 278.564 213.152 275.762C213.195 274.771 213.298 273.136 213.535 271.975C213.79 270.723 213.632 269.489 213.693 268.407C213.808 266.255 213.918 264.681 213.827 264.729C213.711 264.79 213.438 264.346 213.189 265.501C212.885 266.887 212.885 269.975 212.289 271.981C211.949 273.118 211.383 275.537 211.383 275.537C211.383 275.537 209.863 279.039 209.632 279.02C208.392 278.911 208.775 276.23 209.432 274.741C209.377 273.58 210.04 271.051 210.04 271.051C210.04 271.051 210.271 265.641 209.517 265.605C209.201 265.586 208.672 268.893 207.657 272.06C206.715 274.996 205.298 277.811 204.703 277.713C203.694 277.549 204.399 274.176 204.399 274.176C204.399 274.176 205.019 271.841 205.165 271.051C205.341 270.121 205.645 267.307 205.645 267.307C205.645 267.307 206.277 257.459 205.572 257.483C204.861 257.508 203.055 258.328 202.812 258.924C202.563 259.52 202.678 260.857 202.429 261.453C202.18 262.048 201.365 262.62 200.624 262.377C199.888 262.134 199.998 258.784 199.998 258.784C199.998 258.784 200.107 256.067 201.092 254.462H201.104Z" fill="#F8A492"/>
<path d="M209.195 154.145L189.402 169.494C189.402 169.494 180.661 161.16 176.278 151.945C171.835 142.614 177.245 118.031 181.974 119.302C192.551 122.135 209.195 154.145 209.195 154.145Z" fill="#B75742"/>
<path d="M172.309 100.014L175.269 119.533C175.269 119.533 164.455 142.772 158 140.753C152.584 139.064 155.915 118.499 155.915 118.499C155.915 118.499 158.869 107.454 157.982 101.929C157.094 96.4031 172.309 100.008 172.309 100.008V100.014Z" fill="#F7A491"/>
<path d="M157.987 101.935C157.1 96.4092 172.315 100.014 172.315 100.014L172.558 101.631C172.114 102.713 171.567 103.643 170.911 104.348C167.513 108.007 162.2 110.202 157.61 110.366C158.072 107.387 158.352 104.196 157.987 101.929V101.935Z" fill="#F47458"/>
<path d="M174.807 72.4042C175.239 72.2462 178.254 94.6342 172.528 100.792C166.802 106.95 155.653 108.968 151.654 104.117C147.228 98.7494 147.453 74.6899 156.353 68.3558C165.252 62.0218 174.807 72.4042 174.807 72.4042Z" fill="#F7A491"/>
<path d="M159.738 56.3808C166.613 57.785 171.069 61.9854 172.71 63.7786C175.835 64.1494 180.078 65.8758 184.461 73.1338C189.852 82.0573 185.871 91.9474 179.598 96.7982C173.324 101.649 173.409 107.254 173.409 107.254L172.419 104.354C171.689 102.16 171.385 99.8315 171.634 97.5277C171.78 96.1478 172.078 94.6524 172.65 93.4245C174.157 90.1846 169.41 88.0327 168.078 85.3398C167.051 83.267 167.002 78.5195 165.385 75.085L163.458 72.4651C163.458 72.4651 159.003 69.0002 154.65 69.9789C150.298 70.9575 150.924 54.5875 159.744 56.3868L159.738 56.3808Z" fill="#184655"/>
<path d="M168.364 89.3155C168.322 92.0448 169.562 94.2818 171.136 94.3061C172.711 94.3365 174.03 92.1421 174.072 89.4128C174.115 86.6834 172.875 84.4464 171.3 84.4221C169.726 84.3978 168.407 86.5861 168.364 89.3155Z" fill="#F7A491"/>
<path d="M164.796 159.677C164.382 142.668 165.44 119.302 181.658 112.67C187.451 110.238 194.533 112.974 199.9 114.968C193.311 114.05 187.105 116.584 183.895 118.384C170.546 125.131 170.65 144.474 171.13 159.531C172.346 197.395 201.365 193.383 201.365 193.383L202.04 195.906C202.04 195.906 191.141 199.486 177.233 192.623C166.145 187.152 164.796 159.683 164.796 159.683V159.677Z" fill="#184655"/>
<path d="M30.4193 125.198C30.4983 126.651 29.471 127.934 28.0364 128.177C25.3375 128.633 20.7906 128.864 19.7329 125.563C18.2072 120.797 22.1036 110.597 23.7996 111.478C25.4955 112.36 32.0667 120.56 30.8996 122.232C30.2248 123.198 30.3646 124.147 30.4193 125.204V125.198Z" fill="#E59588"/>
<path d="M344.604 352.208C344.106 344.13 340.167 330.604 340.167 330.604L354.172 237.247L318.131 223.935L307.749 223.844C307.749 223.844 302.333 245.527 304.235 273.932C305.257 289.111 322.624 421.585 322.624 421.585C322.38 425.445 321.797 430.897 320.447 432.496C319.153 434.034 317.645 435.566 316.144 436.544C315.554 436.927 313.913 438.04 313.463 438.271C306.551 441.827 304.807 442.945 302.643 444.641C301.324 445.675 300.236 446.799 301.877 446.769L331.973 446.252C331.973 446.252 333.298 445.675 334.459 443.365C335.62 441.055 333.091 436.003 332.635 433.554C332.325 431.888 332.27 428.952 332.319 425.901C332.343 425.785 345.103 360.275 344.604 352.202V352.208Z" fill="#F79C8D"/>
<path d="M316.15 436.539C324.107 438.715 329.991 437.232 333.286 435.821C334.137 438.38 335.261 441.59 334.665 443.444C333.936 445.711 332.896 446.222 331.979 446.252C324.708 446.453 305.348 446.733 299.804 446.812C299.032 446.824 298.6 445.857 299.099 445.225C300.472 443.48 315.56 436.928 316.156 436.539H316.15Z" fill="#184655"/>
<path d="M420.94 355.059C424.788 353.515 432.934 352.512 433.238 353.284C433.608 354.202 444.113 387.197 440.52 392.249C438.356 395.288 435.56 390.705 431.195 384.158C432.466 374.943 423.5 355.284 420.94 355.059Z" fill="#184655"/>
<path d="M313.712 210.3L355.807 205.875L355.886 210.616C357.29 213.37 375.332 219.072 373.745 247.368C372.821 263.896 356.573 319.76 360.457 322.027C360.457 322.027 388.018 328.173 415.166 352.53C418.041 353.953 420.077 354.852 420.557 355.017C421.068 355.187 423.785 354.828 424.314 354.992C432.545 363.97 432.472 374.949 431.201 384.164C427.779 378.809 423.591 371.253 422.266 370.706C421.305 370.305 416.4 368.116 411.026 365.855C395.367 359.952 346.057 343.151 337.297 338.002C333.212 335.601 319.523 252.578 318.52 247.697C317.93 244.827 316.55 234.178 314.581 227.461C312.952 221.892 312.654 216.02 313.706 210.312L313.712 210.3Z" fill="#F79C8D"/>
<path d="M322.624 421.585L332.885 422.971C335.353 410.139 345.036 359.26 344.604 352.208C344.106 344.13 340.167 330.604 340.167 330.604L354.172 237.247L318.132 223.935L307.749 223.844C307.749 223.844 302.333 245.527 304.236 273.932C305.257 289.111 322.624 421.585 322.624 421.585Z" fill="#B75742"/>
<path d="M381.423 213.048C373.618 207.516 366.08 212.598 356.859 215.395C350.665 217.273 342.902 209.176 340.13 201.134C333.115 180.758 335.365 176.564 320.909 175.269C286.084 172.163 308.314 124.615 310.904 116.761C313.493 108.907 313.287 92.5435 326.137 85.9116C366.348 65.1527 374.615 100.707 381.204 107.643C387.788 114.579 395.678 113.947 405.738 130.529C434.636 178.168 402.152 216.325 387.897 215.267C385.247 215.072 383.125 214.252 381.423 213.042V213.048Z" fill="#184655"/>
<path d="M411.415 366.013L414.381 351.837C387.495 328.057 360.463 322.027 360.463 322.027C356.579 319.76 372.827 263.896 373.751 247.368C375.332 219.072 357.296 213.37 355.892 210.616L355.813 205.875L313.718 210.3C312.666 216.008 312.964 221.88 314.593 227.448C316.557 234.165 317.943 244.815 318.532 247.684C319.535 252.566 333.224 335.589 337.309 337.99C346.069 343.145 395.379 359.946 411.038 365.843C411.166 365.897 411.293 365.952 411.421 366.007L411.415 366.013Z" fill="#F47458"/>
<path d="M270.504 22.863C269.617 20.7536 268.517 18.7416 267.222 16.8572L265.799 14.7783C265.623 14.4135 265.489 14.1035 265.416 13.8908C264.796 12.055 265.271 6.14038 265.271 6.14038L277.726 9.15544L280.461 16.3465C283.233 15.0639 287.968 5.42309 289.701 7.73909C291.743 10.4745 284.048 22.328 283.44 25.5376C282.832 28.7471 291.981 75.5351 294.066 85.4252C296.151 95.3214 308.326 124.451 308.326 124.451L292.455 136.14C292.455 136.14 274.759 100.233 273.404 87.3764C273.258 86.027 273.1 84.0028 272.924 81.4923L270.498 22.869L270.504 22.863Z" fill="#F7A491"/>
<path d="M364.931 137.635C364.931 137.635 406.942 138.681 416.169 139.441C425.391 140.194 458.86 137.41 460.155 137.264C461.45 137.112 470.027 122.596 471.449 124.153C472.871 125.709 466.677 131.35 468.592 132.815C470.507 134.28 491.096 131.003 490.822 132.523C490.311 135.368 478.3 135.009 478.312 136.383C478.324 137.757 490.883 135.611 491.734 137.897C492.585 140.176 479.655 138.827 479.139 139.848C478.622 140.863 491.132 142.729 489.849 144.851C489.156 146.006 478.768 142.924 478.816 144.498C478.865 146.066 486.445 149.647 485.515 150.893C484.585 152.145 479.564 147.051 475.169 146.99C470.774 146.93 467.626 144.632 460.605 146.559C453.584 148.486 429.518 155.251 414.68 157.422C399.507 159.64 364.257 161.275 364.257 161.275L364.925 137.641L364.931 137.635Z" fill="#F7A491"/>
<path d="M298.504 184.666C296.395 162.327 301.306 157.987 301.622 155.689C299.525 148.492 291.878 137.824 290.273 134.803C290.273 134.803 300.65 123.053 308.339 123.15C308.339 123.15 316.521 133.484 322.594 136.651C322.685 136.626 324.746 137.568 325.646 137.562C331.511 137.52 352.003 136.9 355.826 138.043L360.428 169.895C359.328 171.713 357.99 208.118 355.723 211.115C353.456 214.112 313.701 227.564 308.236 224.044C308.017 223.905 299.817 198.66 298.498 184.666H298.504Z" fill="#F7A491"/>
<path d="M345.157 138.778C348.938 136.973 376.548 137.033 376.548 137.033C376.548 137.033 380.207 158.595 377.119 163.172C377.119 163.172 357.242 170.545 357.941 172.551L345.157 138.778Z" fill="#355389"/>
<path d="M304.437 211.869C302.023 203.419 299.227 192.35 298.504 184.666C296.395 162.327 301.306 157.987 301.622 155.689C299.525 148.492 291.878 137.824 290.273 134.803C290.273 134.803 300.65 123.053 308.339 123.15C308.339 123.15 316.521 133.484 322.594 136.651C322.685 136.626 324.746 137.568 325.646 137.562C331.511 137.52 352.003 136.9 355.826 138.043L360.428 169.895C359.668 171.141 358.805 188.703 357.601 200.55C351.237 203.535 333.408 210.568 304.437 211.863V211.869Z" fill="#355389"/>
<path d="M339.018 125.903C339.018 125.903 336.896 136.888 337.322 141.222C337.747 145.556 335.705 159.519 326.532 159.567C317.359 159.616 324.787 141.811 325.657 137.568C326.52 133.319 326.726 120.177 326.726 120.177L339.024 125.903H339.018Z" fill="#F7A491"/>
<path opacity="0.5" d="M326.526 126.773C326.672 123.18 326.714 120.177 326.714 120.177L339.012 125.903C339.012 125.903 338.58 128.153 338.142 131.01C332.757 132.092 328.86 130.098 326.526 126.767V126.773Z" fill="#F47458"/>
<path d="M343.51 95.5887C343.51 95.5887 348.251 98.2208 349.984 103.917C351.716 109.612 349.747 124.317 337.504 127.867C325.262 131.417 319.961 119.77 322.478 110.67C325 101.564 330.483 90.0388 343.51 95.5887Z" fill="#F7A491"/>
<path d="M320.946 107.138C321.183 109.582 322.533 111.454 323.961 111.314C325.384 111.175 326.344 109.078 326.107 106.634C325.87 104.19 324.52 102.318 323.092 102.458C321.669 102.598 320.709 104.695 320.946 107.138Z" fill="#F7A491"/>
<path d="M342.076 94.8472C342.076 94.8472 344.294 111.248 349.601 114.208C354.902 117.168 352.683 124.445 352.683 124.445C352.683 124.445 357.491 107.546 353.297 102.123C349.103 96.6951 342.076 94.8472 342.076 94.8472Z" fill="#184655"/>
<path d="M346.459 116.566C345.018 118.706 345.024 121.223 346.471 122.195C347.917 123.168 350.252 122.226 351.692 120.086C353.133 117.946 353.127 115.43 351.68 114.457C350.233 113.485 347.899 114.433 346.459 116.566Z" fill="#F7A491"/>
<path d="M337.462 119.016L327.681 115.685C327.681 115.685 326.617 119.545 330.878 121.138C336.07 123.077 337.462 119.016 337.462 119.016Z" fill="white"/>
<path d="M293.944 0.0434452C293.014 0.280515 292.224 1.41114 291.732 2.11627C290.358 4.10402 289.434 7.84851 289.142 7.6236C289.142 7.6236 280.079 14.7783 274.717 17.7082C274.602 18.2735 274.426 18.9118 274.188 19.5865L284.048 23.562C284.291 23.0453 284.498 22.6016 284.65 22.2733C285.738 19.9512 287.136 18.1884 288.358 16.7599C289.58 15.3375 291.677 12.8756 292.024 11.4714C292.242 10.59 292.911 8.22538 293.27 6.961C293.628 5.69663 294.102 4.23166 294.212 3.54476C294.279 3.12533 294.771 2.3108 295.148 1.7394C295.707 0.888375 294.929 -0.217946 293.938 0.0373605L293.944 0.0434452Z" fill="#F7A491"/>
<path d="M635.101 394.978H468.343C463.225 394.978 459.073 399.13 459.073 404.248V433.353C459.073 438.471 463.225 442.623 468.343 442.623H635.101C640.219 442.623 644.371 438.471 644.371 433.353V404.248C644.371 399.13 640.219 394.978 635.101 394.978Z" fill="#F3AF44"/>
<path d="M644.365 418.794V406.011C644.365 399.914 640.584 394.972 635.922 394.972H467.511C462.848 394.972 459.067 399.914 459.067 406.011V418.794H644.359H644.365Z" fill="#FACD49"/>
<path d="M488.901 411.871H482.61V427.104H488.901V411.871Z" fill="#EAFCFC"/>
<path d="M620.828 411.871H614.537V427.104H620.828V411.871Z" fill="#EAFCFC"/>
<path d="M570.788 416.673H527.617V422.302H570.788V416.673Z" fill="#1A1A1A"/>
<path d="M617.686 371.156V358.372C617.686 352.275 614.993 347.333 611.674 347.333H491.765C488.446 347.333 485.753 352.275 485.753 358.372V371.156H617.686Z" fill="#F47458"/>
<path d="M485.752 371.156V384.833C485.752 390.431 490.293 394.972 495.892 394.972H607.54C613.138 394.972 617.679 390.431 617.679 384.833V371.156H485.746H485.752Z" fill="#B75742"/>
<path d="M503.411 364.232H498.931V379.465H503.411V364.232Z" fill="#E1F3F4"/>
<path d="M600.927 364.232H596.447V379.465H600.927V364.232Z" fill="#E1F3F4"/>
<path d="M565.293 369.034H534.559V374.663H565.293V369.034Z" fill="#1A1A1A"/>
<path d="M500.262 347.382L609.411 347.315L611.168 298.691H500.262C486.816 298.691 475.917 309.59 475.917 323.036C475.917 336.483 486.816 347.382 500.262 347.382Z" fill="#355389"/>
<path d="M586.118 323.036C586.118 336.483 596.16 347.382 608.549 347.382C620.937 347.382 630.979 336.483 630.979 323.036C630.979 309.59 620.937 298.691 608.549 298.691C596.16 298.691 586.118 309.59 586.118 323.036Z" fill="#86B1F2"/>
<path d="M562.994 349.661L563.012 349.643C564.021 348.865 564.216 347.436 563.48 346.397C556.095 335.96 554.034 324.848 557.371 313.341C559.225 306.94 562.35 302.059 564.107 299.646C564.818 298.667 564.666 297.305 563.76 296.503L563.736 296.478C562.696 295.554 561.085 295.725 560.265 296.849C558.283 299.56 554.934 304.831 552.873 311.827C550.204 320.897 549.317 334.568 559.614 349.138C560.392 350.239 561.93 350.488 562.994 349.661Z" fill="#13375B"/>
<path d="M523.094 349.661L523.112 349.643C524.121 348.865 524.315 347.436 523.58 346.397C516.194 335.96 514.134 324.848 517.471 313.341C519.325 306.94 522.449 302.059 524.206 299.646C524.917 298.667 524.765 297.305 523.86 296.503L523.835 296.478C522.796 295.554 521.185 295.725 520.364 296.849C518.383 299.56 515.033 304.831 512.973 311.827C510.304 320.897 509.417 334.568 519.714 349.138C520.492 350.239 522.03 350.488 523.094 349.661Z" fill="#13375B"/>
<path d="M589.99 318.69C591.182 311.019 595.327 307.153 598.592 305.262C603.448 302.448 609.697 302.053 615.302 304.205C620.627 306.247 624.888 310.909 626.414 316.374C627.769 321.231 626.766 326.173 623.581 330.282C618.232 337.188 610.026 336.1 606.026 334.367C602.397 332.799 599.667 329.079 599.084 324.891C598.61 321.505 600.142 318.234 603.084 316.356C606.038 314.465 609.673 314.453 612.567 316.319C614.67 317.675 616.761 320.362 614.785 325.438L613.181 324.812C614.445 321.559 613.94 319.256 611.63 317.766C609.314 316.271 606.397 316.283 604.014 317.809C601.649 319.316 600.415 321.942 600.798 324.647C601.303 328.252 603.625 331.443 606.719 332.781C610.269 334.313 617.527 335.291 622.226 329.225C625.867 324.52 625.618 319.894 624.761 316.836C623.399 311.967 619.448 307.639 614.694 305.815C609.57 303.852 603.88 304.199 599.467 306.758C595.248 309.201 592.567 313.42 591.704 318.958C590.58 326.179 591.935 331.93 595.722 336.063C602.841 343.826 617.922 343.71 620.511 343.631C619.569 344.276 618.584 344.847 617.557 345.339H617.423C612.834 345.339 601.181 344.573 594.452 337.236C590.288 332.696 588.786 326.459 589.996 318.696L589.99 318.69Z" fill="#13375B"/>
</svg>
