<svg width="214" height="159" viewBox="0 0 214 159" fill="none" xmlns="http://www.w3.org/2000/svg">
<path d="M214.424 36.0497C215.306 34.433 216.186 32.7981 217.041 31.1483C217.286 30.6931 217.887 30.4612 218.389 30.6602C218.891 30.8593 219.128 31.3852 218.884 31.8404C218.031 33.5086 217.155 35.1618 216.252 36.7819C216.007 37.2371 215.382 37.4541 214.877 37.2367C214.559 37.12 214.365 36.8508 214.319 36.5758C214.289 36.3924 214.324 36.217 214.421 36.0313L214.424 36.0497ZM221.403 26.8611C222.215 25.1999 223.023 23.5203 223.807 21.8258C224.027 21.3558 223.79 20.8299 223.25 20.6561C222.73 20.4788 222.132 20.729 221.911 21.1991C221.124 22.8752 220.337 24.5514 219.523 26.1943C219.443 26.3582 219.408 26.5336 219.436 26.6986C219.485 26.992 219.699 27.2578 220.038 27.371C220.558 27.5483 221.162 27.3347 221.383 26.8646L221.403 26.8611ZM196.161 65.0917C196.201 65.3301 196.345 65.5512 196.603 65.6966C197.073 65.9576 197.713 65.8322 198.026 65.4034C199.137 63.8806 200.246 62.3395 201.351 60.78C201.663 60.3512 201.507 59.7931 201.037 59.5321C200.567 59.2711 199.933 59.4331 199.62 59.862C198.536 61.418 197.424 62.9408 196.31 64.4452C196.151 64.6413 196.104 64.8752 196.141 65.0952L196.161 65.0917ZM12.1743 88.6757C12.9708 87.0546 13.8057 85.4082 14.6791 83.7366C14.9233 83.2814 14.7072 82.752 14.2019 82.5346C13.6996 82.3355 13.0954 82.5491 12.8306 83.0077C11.9395 84.7011 11.0868 86.3693 10.2904 87.9905C10.211 88.1544 10.197 88.3263 10.2244 88.4913C10.2732 88.7847 10.488 89.0504 10.8267 89.1637C11.3467 89.341 11.9479 89.109 12.1712 88.6573L12.1743 88.6757ZM226.056 16.7597C226.799 15.0721 227.518 13.3696 228.213 11.6523C228.41 11.1674 228.134 10.6668 227.617 10.5078C227.08 10.3523 226.505 10.6174 226.306 11.084C225.608 12.783 224.889 14.4854 224.164 16.1512C224.105 16.3117 224.088 16.4653 224.112 16.612C224.164 16.9237 224.4 17.186 224.738 17.2992C225.255 17.4582 225.853 17.2079 226.053 16.7413L226.056 16.7597ZM202.657 55.8142C202.7 56.0709 202.867 56.3069 203.144 56.4305C203.631 56.6697 204.245 56.5111 204.536 56.0857C205.576 54.5183 206.616 52.9508 207.629 51.3502C207.897 50.9099 207.741 50.3518 207.256 50.131C206.768 49.8918 206.137 50.0722 205.869 50.5125C204.853 52.0948 203.834 53.6587 202.794 55.2261C202.655 55.4188 202.627 55.6308 202.66 55.8325L202.657 55.8142ZM20.2118 74.0539C20.4797 73.6136 20.3022 73.0591 19.8176 72.8382C19.333 72.6173 18.702 72.7977 18.4341 73.238C17.427 74.8753 16.4822 76.5023 15.5728 78.0857C15.4758 78.2714 15.444 78.4651 15.4715 78.6301C15.5172 78.9052 15.7083 79.156 16.0055 79.2762C16.5108 79.4936 17.118 79.2983 17.3829 78.8397C18.2923 77.2563 19.2401 75.6477 20.2295 74.0322L20.2118 74.0539ZM208.826 45.7243C208.708 45.9135 208.676 46.1072 208.707 46.2905C208.753 46.5656 208.94 46.7981 209.22 46.94C209.705 47.1609 210.336 46.9805 210.604 46.5403C211.575 44.9465 212.52 43.3195 213.465 41.6926C213.733 41.2523 213.534 40.7012 213.029 40.4838C212.524 40.2663 211.917 40.4616 211.652 40.9202C210.728 42.5437 209.78 44.1524 208.805 45.7278L208.826 45.7243ZM26.2943 64.6002C26.583 64.1564 26.45 63.6133 25.9593 63.3557C25.4717 63.1165 24.8553 63.2568 24.5459 63.704C23.4674 65.2966 22.4305 66.8824 21.4289 68.4246C21.3111 68.6138 21.2617 68.8293 21.2922 69.0126C21.3349 69.2693 21.5021 69.5053 21.7816 69.6473C22.2693 69.8865 22.9003 69.7061 23.1682 69.2658C24.1698 67.7236 25.189 66.1596 26.2675 64.5669L26.2943 64.6002ZM92.2758 146.519C90.3954 147.265 88.5297 147.971 86.6787 148.637C86.2167 148.808 85.9457 149.23 86.0159 149.652C86.025 149.707 86.0372 149.78 86.0464 149.835C86.2295 150.295 86.8208 150.517 87.3451 150.335C89.2169 149.666 91.1241 148.953 93.0251 148.203C93.5463 148.003 93.799 147.471 93.5921 146.997C93.3883 146.541 92.7793 146.341 92.2581 146.541L92.2758 146.519ZM80.9858 150.564C79.0634 151.185 77.1318 151.752 75.2387 152.293C74.7291 152.434 74.4196 152.881 74.4928 153.322C74.499 153.358 74.5051 153.395 74.5112 153.432C74.6558 153.916 75.2117 154.182 75.7598 154.015C77.6975 153.486 79.626 152.901 81.59 152.273C82.1173 152.109 82.4322 151.567 82.2491 151.108C82.0838 150.626 81.5131 150.401 80.9651 150.568L80.9858 150.564ZM230.275 6.48541C230.928 4.77498 231.579 3.04624 232.206 1.30259C232.382 0.821105 232.086 0.323909 231.551 0.186742C231.017 0.0495738 230.445 0.333053 230.27 0.814536C229.64 2.53985 229.01 4.26516 228.353 5.95726C228.291 6.09942 228.295 6.24955 228.316 6.3779C228.368 6.68961 228.628 6.96678 228.987 7.07656C229.522 7.21372 230.096 6.9486 230.292 6.46366L230.275 6.48541ZM103.26 141.789C101.439 142.639 99.6128 143.451 97.8039 144.242C97.3864 144.425 97.1569 144.84 97.221 145.225C97.2332 145.298 97.2485 145.39 97.3022 145.456C97.5267 145.909 98.1328 146.091 98.6509 145.873C100.481 145.078 102.307 144.266 104.145 143.394C104.661 143.158 104.869 142.615 104.623 142.165C104.378 141.716 103.775 141.553 103.26 141.789ZM69.4311 153.787C67.4604 154.247 65.4837 154.67 63.5631 155.046C63.0236 155.136 62.6549 155.611 62.7373 156.107L62.7404 156.125C62.8227 156.62 63.3641 156.926 63.9213 156.814C65.8834 156.431 67.8808 156.004 69.893 155.538C70.4471 155.408 70.7889 154.899 70.6681 154.429C70.5442 153.941 70.006 153.653 69.4518 153.783L69.4311 153.787ZM108.606 139.185C108.212 139.383 108 139.776 108.061 140.143C108.076 140.234 108.095 140.344 108.172 140.426C108.435 140.853 109.059 141.013 109.55 140.762C111.323 139.882 113.108 138.945 114.889 137.989C115.377 137.719 115.562 137.161 115.278 136.737C114.994 136.313 114.374 136.172 113.885 136.441C112.125 137.394 110.355 138.291 108.606 139.185ZM148.363 113.859C148.079 114.076 147.962 114.397 148.011 114.69C148.038 114.855 148.107 115.013 148.235 115.143C148.596 115.516 149.24 115.541 149.674 115.205C151.202 114.008 152.745 112.772 154.264 111.52C154.696 111.166 154.729 110.595 154.351 110.243C153.969 109.874 153.328 109.867 152.918 110.218C151.398 111.47 149.894 112.681 148.366 113.877L148.363 113.859ZM129.196 127.468C128.868 127.674 128.715 128.038 128.77 128.368C128.791 128.497 128.854 128.618 128.938 128.736C129.26 129.135 129.892 129.218 130.357 128.933C132.013 127.866 133.666 126.781 135.338 125.674C135.799 125.371 135.894 124.79 135.572 124.391C135.25 123.993 134.6 123.931 134.138 124.234C132.488 125.338 130.855 126.42 129.217 127.465L129.196 127.468ZM2.88341 130.112C2.60579 128.444 2.46428 126.696 2.42041 124.895C2.40335 124.408 1.93283 124.015 1.38417 124.05C0.814777 124.088 0.374759 124.519 0.391824 125.006C0.447894 126.881 0.601598 128.702 0.891418 130.444C0.973788 130.939 1.4974 131.266 2.03691 131.177C2.59715 131.083 2.98961 130.622 2.90724 130.127L2.88341 130.112ZM7.75296 98.7575C8.39504 97.1055 9.09329 95.4065 9.85378 93.6972C10.0534 93.2306 9.79583 92.7081 9.27892 92.5492C8.76201 92.3902 8.1639 92.6405 7.96433 93.1071C7.18919 94.8565 6.49401 96.5739 5.83422 98.2477C5.77258 98.3898 5.77623 98.54 5.79758 98.6683C5.84944 98.98 6.10881 99.2572 6.46827 99.367C7.00288 99.5041 7.57717 99.239 7.7737 98.7541L7.75296 98.7575ZM12.9635 148.145C11.555 146.985 10.2795 145.728 9.13408 144.354C8.81186 143.956 8.1619 143.894 7.7005 144.197C7.37521 144.421 7.24033 144.764 7.29219 145.075C7.3166 145.222 7.37946 145.343 7.46306 145.461C8.66224 146.901 10.0421 148.273 11.525 149.496C11.9211 149.826 12.5765 149.792 12.9635 149.427C13.3473 149.042 13.3388 148.479 12.9428 148.149L12.9635 148.145ZM118.716 134.846C119 135.27 119.639 135.39 120.124 135.102C121.837 134.119 123.568 133.115 125.272 132.078C125.736 131.794 125.876 131.224 125.574 130.822C125.27 130.402 124.638 130.318 124.173 130.603C122.469 131.64 120.78 132.637 119.064 133.601C118.694 133.813 118.521 134.181 118.579 134.53C118.597 134.64 118.639 134.765 118.72 134.864L118.716 134.846ZM140.19 122.285C141.793 121.151 143.389 119.981 144.983 118.793C145.42 118.475 145.495 117.897 145.134 117.524C144.774 117.151 144.147 117.104 143.713 117.44C142.14 118.625 140.561 119.774 138.956 120.889C138.651 121.109 138.513 121.433 138.568 121.763C138.592 121.91 138.658 122.05 138.763 122.164C139.106 122.56 139.752 122.603 140.19 122.285ZM34.6858 157.457C34.7933 156.95 34.4412 156.499 33.8742 156.424C31.8883 156.152 29.9733 155.792 28.129 155.345C27.5944 155.208 27.0231 155.491 26.8504 155.991C26.8095 156.13 26.7893 156.265 26.8107 156.393C26.8656 156.724 27.125 157.001 27.5052 157.107C29.4178 157.58 31.419 157.945 33.4701 158.225C34.0163 158.304 34.5577 157.969 34.6651 157.461L34.6858 157.457ZM58.7594 156.806C58.6917 156.271 58.1949 155.977 57.6316 156.052C55.6097 156.331 53.6232 156.568 51.6868 156.72C51.1204 156.777 50.7011 157.205 50.7212 157.71C50.7243 157.728 50.7304 157.765 50.7334 157.783C50.8097 158.242 51.268 158.561 51.7929 158.512C53.7708 158.352 55.8196 158.105 57.8622 157.822C58.4225 157.729 58.818 157.286 58.7564 156.788L58.7594 156.806ZM6.19206 140.001C5.3664 138.499 4.67069 136.881 4.11418 135.203C3.94881 134.721 3.39589 134.474 2.84479 134.622C2.35594 134.76 2.04652 135.208 2.11974 135.648C2.12584 135.684 2.13194 135.721 2.14109 135.776C2.73361 137.543 3.46834 139.267 4.33001 140.857C4.57534 141.306 5.1783 141.47 5.69339 141.234C6.20849 140.997 6.4166 140.454 6.17128 140.005L6.19206 140.001ZM46.7293 157.941C46.733 157.45 46.2802 157.036 45.7285 157.052C43.7114 157.105 41.6999 157.063 39.7861 156.967C39.2252 156.928 38.7345 157.311 38.6686 157.812C38.6808 157.886 38.6723 157.962 38.6845 158.036C38.7516 158.439 39.1238 158.754 39.5956 158.77C41.5748 158.874 43.6247 158.891 45.707 158.846C46.2795 158.826 46.7433 158.41 46.747 157.919L46.7293 157.941ZM23.1606 154.834C23.4047 154.379 23.1857 153.831 22.6657 153.654C20.8678 152.973 19.1346 152.168 17.5583 151.281C17.0884 151.02 16.4481 151.146 16.1357 151.575C15.9971 151.767 15.93 152.004 15.9666 152.225C16.0062 152.463 16.1497 152.684 16.4084 152.829C18.08 153.776 19.9053 154.622 21.7953 155.344C22.2976 155.543 22.9226 155.326 23.1429 154.856L23.1606 154.834ZM183.619 83.2706C184.894 81.8337 186.145 80.3819 187.394 78.9117C187.73 78.4978 187.659 77.9442 187.204 77.6431C186.752 77.3603 186.126 77.4456 185.769 77.863C184.542 79.3297 183.287 80.7632 182.03 82.1783C181.853 82.3962 181.768 82.6553 181.808 82.8937C181.845 83.1137 181.964 83.3199 182.178 83.4538C182.613 83.7584 183.259 83.6697 183.619 83.2706ZM4.46308 109.103C4.90621 107.409 5.4055 105.668 5.96704 103.916C6.12207 103.438 5.80536 102.944 5.27074 102.807C4.73918 102.688 4.17098 102.99 4.01595 103.468C3.43977 105.26 2.92583 107.041 2.46804 108.776C2.44485 108.893 2.4424 109.006 2.4607 109.116C2.51866 109.465 2.82562 109.772 3.24123 109.834C3.79048 109.931 4.33184 109.596 4.46308 109.103ZM189.223 74.1415C189.259 74.3615 189.403 74.5826 189.617 74.7166C190.069 74.9994 190.712 74.8923 191.049 74.4784C192.252 72.9968 193.432 71.5003 194.609 69.9855C194.945 69.5716 194.83 69.0066 194.357 68.7273C193.905 68.4445 193.264 68.5698 192.931 69.0022C191.775 70.5135 190.592 71.9916 189.41 73.4698C189.25 73.6659 189.186 73.9215 189.223 74.1415ZM163.188 103.893C163.596 103.523 163.608 102.956 163.209 102.608C162.81 102.26 162.172 102.272 161.765 102.641C160.317 103.937 158.869 105.233 157.412 106.474C157.149 106.688 157.053 107.005 157.099 107.28C157.129 107.463 157.219 107.618 157.371 107.762C157.749 108.114 158.411 108.117 158.819 107.748C160.293 106.485 161.761 105.185 163.206 103.871L163.188 103.893ZM165.74 99.4921C165.771 99.6755 165.867 99.8668 166.036 99.9894C166.432 100.319 167.091 100.304 167.475 99.9196C168.875 98.5938 170.272 97.2496 171.663 95.8687C172.046 95.4845 172.017 94.9241 171.621 94.5943C171.204 94.2679 170.573 94.3165 170.186 94.6823C168.813 96.0414 167.416 97.3856 166.033 98.6897C165.794 98.9179 165.712 99.1954 165.758 99.4704L165.74 99.4921ZM2.61287 119.643C2.75635 117.942 2.99445 116.169 3.31247 114.364C3.39916 113.859 3.02627 113.413 2.46236 113.356C1.89845 113.299 1.38092 113.649 1.29423 114.153C0.961549 115.998 0.732639 117.827 0.577555 119.586C0.589758 119.659 0.578165 119.718 0.590367 119.791C0.657483 120.194 1.02973 120.509 1.52223 120.522C2.08004 120.542 2.56769 120.14 2.61287 119.643ZM179.747 87.5516C180.107 87.1526 180.054 86.5772 179.619 86.2727C179.185 85.9681 178.556 86.035 178.175 86.4376C176.874 87.8413 175.551 89.2485 174.222 90.619C174.004 90.8438 173.94 91.0994 173.982 91.3561C174.016 91.5578 174.133 91.7456 174.305 91.8865C174.722 92.2128 175.371 92.1425 175.755 91.7583C177.105 90.3843 178.427 88.9771 179.747 87.5516Z" fill="#7879F1"/>
</svg>
