<svg width="21" height="23" viewBox="0 0 21 23" fill="none" xmlns="http://www.w3.org/2000/svg">
<path d="M6.30004 11.5C5.72015 11.5 5.25004 12.0149 5.25004 12.65C5.25004 13.2852 5.72015 13.8 6.30004 13.8H14.7C15.28 13.8 15.75 13.2852 15.75 12.65C15.75 12.0149 15.28 11.5 14.7 11.5H6.30004Z" fill="#777679" fill-opacity="0.6"/>
<path d="M5.25004 17.2501C5.25004 16.6149 5.72015 16.1001 6.30004 16.1001H10.5C11.08 16.1001 11.55 16.6149 11.55 17.2501C11.55 17.8852 11.08 18.4001 10.5 18.4001H6.30004C5.72015 18.4001 5.25004 17.8852 5.25004 17.2501Z" fill="#777679" fill-opacity="0.6"/>
<path fill-rule="evenodd" clip-rule="evenodd" d="M6.3 1.15C6.3 0.514878 5.82989 0 5.25 0C4.67011 0 4.2 0.514878 4.2 1.15V2.41502C1.80365 2.94778 0 5.2682 0 8.05V17.25C0 20.4256 2.35051 23 5.25 23H15.75C18.6495 23 21 20.4256 21 17.25V8.05C21 5.2682 19.1963 2.94778 16.8 2.41502V1.15C16.8 0.514878 16.3299 0 15.75 0C15.1701 0 14.7 0.514878 14.7 1.15V2.3H6.3V1.15ZM2.1 9.2H18.9V17.25C18.9 19.1554 17.4897 20.7 15.75 20.7H5.25C3.51031 20.7 2.1 19.1554 2.1 17.25V9.2Z" fill="#777679" fill-opacity="0.6"/>
</svg>
