<svg width="28" height="20" viewBox="0 0 28 20" fill="none" xmlns="http://www.w3.org/2000/svg">
<path fill-rule="evenodd" clip-rule="evenodd" d="M2.6362 4.37405C2.11018 4.33746 1.30383 4.56747 1.05356 4.93275C0.00413444 6.46572 2.66822 6.25009 3.41706 6.28406C2.93221 6.69573 1.08101 8.63776 0.970576 9.09779C0.844461 9.6127 0.846422 13.7183 0.835313 14.6004C0.817017 15.8759 0.520354 18.885 1.63447 19.2941C1.95401 19.4111 3.73594 19.4228 4.12213 19.3379C5.04087 19.1353 4.84353 18.2963 4.88469 17.3011C8.11662 17.0757 20.0334 17.0757 23.251 17.3011C23.2902 18.2277 23.1059 19.0595 23.9077 19.3124C24.2958 19.4339 26.1562 19.4202 26.5012 19.2941C27.8819 18.7883 27.1651 13.7588 27.1926 12.0442C27.2429 9.04682 27.1488 8.20061 24.7186 6.28406C25.5132 6.24747 27.9022 6.53433 27.1396 5.02684C26.9096 4.57139 25.4492 4.00159 24.9094 4.63151C23.8136 5.90964 23.9332 4.5348 22.9341 3.09592C21.7742 0.769666 21.4828 0.808872 17.8372 0.847425C16.6362 0.792536 15.3378 0.746795 14.1394 0.744181C12.8946 0.739607 8.09375 0.889246 7.05804 1.13037C6.04521 1.15128 4.71545 3.77158 4.24432 4.70012C3.50462 6.15272 3.63989 4.44724 2.6362 4.3734L2.6362 4.37405ZM4.23713 6.03576C7.30374 6.08869 10.7905 5.66133 13.9969 5.65872C17.3184 5.65415 20.6372 6.01027 23.8992 6.03576L22.1375 2.62021C21.8134 2.09158 21.8043 1.88705 21.1084 1.77205C18.5423 1.35384 9.81622 1.40873 7.16129 1.75571C6.18962 1.88444 6.19681 2.26605 5.4362 3.61998C4.97683 4.43613 4.57039 5.19674 4.23713 6.03576ZM9.05627 12.9753C9.05627 13.8764 9.79335 14.6115 10.6918 14.6115L17.4497 14.6115C18.3476 14.6115 19.0853 13.8764 19.0853 12.9753L19.0853 11.8468C19.0853 10.9483 18.3482 10.2099 17.4497 10.2099L10.6918 10.2099C9.79335 10.2099 9.05627 10.9477 9.05627 11.8468L9.05627 12.9753ZM6.97506 12.9799C7.34948 12.8028 7.73109 12.3709 7.86831 12.0121C6.86005 11.4169 3.11125 11.1522 1.96054 11.3803C1.44171 14.4305 5.91844 13.4837 6.97506 12.9799ZM20.2719 12.0121C20.4098 12.3709 20.7908 12.8028 21.1652 12.9799C22.2218 13.483 26.6986 14.4305 26.1797 11.3803C25.029 11.1529 21.2802 11.4169 20.2719 12.0121Z" fill="white"/>
</svg>
