<svg width="780" height="483" viewBox="0 0 780 483" fill="none" xmlns="http://www.w3.org/2000/svg">
<g clip-path="url(#clip0_96_16830)">
<path d="M654.718 353.908L205.022 352.522L18.9378 351.949C18.9378 351.949 13.6216 343.144 8.0025 328.709C2.29566 309.449 -1.03616 285.905 0.288638 261.321C0.718916 253.367 1.63326 245.304 3.11658 237.242C9.48866 240.713 15.9485 242.38 20.3985 238.917C27.515 233.376 47.8966 217.186 63.33 204.916L63.3356 204.91C73.951 196.468 82.2254 189.876 82.2254 189.876C82.2254 189.876 90.8989 181.522 96.5718 183.863C99.1959 184.945 101.752 187.527 104 189.896C104.014 189.91 104.02 189.916 104.02 189.916C106.624 192.653 108.818 195.085 110.247 194.549C111.544 194.062 121.061 184.322 132.126 173.499C143.897 161.988 157.411 149.25 164.629 145.118C164.629 145.118 171.347 138.226 178.639 146.121C182.375 150.162 188.119 160.494 194.542 172.915C209.35 201.569 227.747 241.36 233.332 240.827C241.34 240.067 253.799 222.253 261.36 220.471C268.921 218.688 303.357 281.009 318.04 283.684C332.723 286.353 360.751 263.64 383.44 270.319C406.134 277.001 442.838 314.414 476.875 307.732C504.115 302.385 590.621 333.883 630.094 324.342C660.482 339.701 665.724 299.12 654.716 353.908H654.718Z" fill="#B8D6F9"/>
<path d="M194.545 172.913C191.023 174.049 186.123 174.656 185.515 169.923C184.626 163.02 164.827 176.381 154.597 179.275C144.366 182.168 150.15 170.368 149.926 167.027C149.79 164.983 139.843 169.6 132.132 173.496C143.899 161.985 157.413 149.244 164.635 145.115C164.635 145.115 171.352 138.223 178.647 146.118C182.381 150.159 188.127 160.489 194.548 172.913H194.545Z" fill="#F8FBFF"/>
<path d="M104.003 189.896C103.779 189.695 101.871 188.134 98.395 189.916C94.6895 191.82 89.7951 192.86 87.5701 192.192C85.3451 191.523 63.333 204.916 63.333 204.916L63.3387 204.91C73.9541 196.465 82.2284 189.874 82.2284 189.874C82.2284 189.874 90.9019 181.522 96.572 183.86C99.1961 184.943 101.752 187.527 104 189.893L104.003 189.896Z" fill="#F8FBFF"/>
<path d="M558.738 48.2158C558.738 42.8428 563.089 38.4871 568.456 38.4871C573.823 38.4871 578.174 42.8428 578.174 48.2158C578.174 53.5889 573.823 57.9446 568.456 57.9446C563.089 57.9446 558.738 53.5889 558.738 48.2158Z" fill="#F8FBFF"/>
<path d="M361.566 69.0109C361.566 69.0109 370.52 56.3406 391.929 57.749C391.929 57.749 423.011 36.6308 456.16 54.9321C456.16 54.9321 491.394 50.3979 517.485 58.8599C534.883 64.5022 540.63 70.4193 540.63 70.4193L361.566 69.0109Z" fill="#F8FCFF"/>
<path d="M522.872 104.537C522.872 104.537 529.502 92.9715 545.36 94.2553C545.36 94.2553 568.383 74.9791 592.931 91.6849C592.931 91.6849 619.028 87.5446 638.354 95.2698C651.24 100.419 655.494 105.82 655.494 105.82L522.87 104.537H522.872Z" fill="#F8FCFF"/>
<path d="M769.94 353.185C756.437 397.493 729.29 432.064 688.289 445.295C683.859 446.723 679.196 448.135 674.316 449.523C608.223 468.32 501.933 483.003 393.229 483.003C284.524 483.003 180.909 469.295 105.438 432.35C65.6657 412.881 34.7281 386.959 17.6133 353.188H769.942L769.94 353.185Z" fill="#B3DDAA"/>
<path d="M566.824 353.064H219.106L105.442 432.226C180.916 469.174 288.202 482.879 393.233 482.879C498.263 482.879 608.23 468.196 674.32 449.399L566.821 353.061L566.824 353.064Z" fill="#96D9C9"/>
<path d="M205.758 353.908H17.9782C17.8565 353.667 17.732 353.426 17.6102 353.185C16.6053 351.201 15.6485 349.195 14.7398 347.155C12.2714 341.617 9.99546 335.422 8.00543 328.709C2.29859 309.45 -1.03323 285.906 0.291568 261.322C7.7818 264.623 14.8729 269.172 20.1947 275.106C36.1575 292.906 53.4507 255.974 105.435 269.583C157.419 283.188 152.55 327.218 174.5 330.653C192.923 333.541 202.44 347.965 205.024 352.522C205.52 353.395 205.76 353.908 205.76 353.908H205.758Z" fill="#9BCC8F"/>
<path d="M176.244 369.166C175.174 370.616 58.8348 371.305 28.7324 371.467C26.3347 368.125 24.0871 364.688 21.9923 361.163C20.5826 358.788 19.2408 356.368 17.9782 353.908C17.8565 353.667 17.732 353.426 17.6102 353.185C16.6053 351.201 15.6485 349.195 14.7398 347.155C12.2714 341.617 9.99546 335.422 8.00543 328.709C7.97146 328.601 7.94315 328.494 7.90918 328.383C19.4644 325.453 42.3823 322.429 59.016 338.095C82.1462 359.868 119.396 339.021 137.799 344.95C156.199 350.878 150.487 360.176 162.444 362.174C174.404 364.172 177.47 367.502 176.244 369.166Z" fill="#8EBF83"/>
<path d="M769.939 353.185H581.877C581.877 353.185 588.86 327.459 630.096 324.342C671.332 321.225 679.315 285.486 725.208 289.706C746.86 291.698 765.11 283.965 779.952 276.047C780.444 303.348 777.115 329.644 769.939 353.188V353.185Z" fill="#9BCC8F"/>
<path d="M621.77 227.534H583.885V208.411C583.885 204.999 586.654 202.227 590.062 202.227H616.36C622.961 202.227 628.323 207.595 628.323 214.203V220.973C628.323 224.592 625.387 227.534 621.77 227.534Z" fill="#F4B043"/>
<path d="M583.882 216.638H566.586V227.534H583.882V216.638Z" fill="#F4B043"/>
<path d="M203.684 208.139V227.531H166.097C162.312 227.531 159.244 224.723 159.244 221.263V213.676C159.244 207.354 164.846 202.227 171.756 202.227H197.221C200.791 202.227 203.684 204.871 203.684 208.139Z" fill="#F4B043"/>
<path d="M220.98 216.635V227.531H166.1C162.315 227.531 159.247 224.723 159.247 221.263V216.635H220.983H220.98Z" fill="#F4B043"/>
<path d="M201.708 237.475L212.219 221.262H574.643L578.541 237.475L474.753 298.784H279.229L201.708 237.475Z" fill="#FACD49"/>
<path d="M265.794 122.51C300.177 119.492 412.558 111.336 520.168 122.516C526.092 123.131 531.573 126.982 535.357 133.16C545.843 150.288 566.932 187.066 574.646 217.499C576.027 222.949 573.049 228.619 568.778 228.619H217.722C213.459 228.619 210.571 222.767 212.222 217.468C217.555 200.346 229.43 166.294 247.867 135.158C252.263 127.733 258.763 123.128 265.794 122.513V122.51Z" fill="#F4B043"/>
<path d="M560.016 228.616C559.968 228.648 559.92 228.676 559.872 228.701C559.193 229.081 558.445 229.291 557.65 229.291H228.867C228.796 229.291 228.725 229.291 228.654 229.285C227.1 229.209 225.753 228.299 224.799 226.925C224.436 226.406 224.134 225.822 223.893 225.19C223.177 223.314 223.032 221.03 223.715 218.848C228.708 202.811 239.83 170.918 257.095 141.758C261.214 134.806 267.3 130.493 273.887 129.915C306.09 127.089 411.341 119.452 512.122 129.921C517.674 130.496 522.806 134.103 526.35 139.89C536.17 155.933 555.92 190.376 563.141 218.876C564.16 222.889 562.652 227.032 560.016 228.616Z" fill="#C2D9FF"/>
<path d="M260.699 136.875C264.427 132.808 269.021 130.343 273.887 129.915C306.087 127.089 411.341 119.452 512.125 129.918C517.674 130.496 521.068 132.814 523.613 136.189C524.034 136.747 260.702 136.872 260.702 136.872L260.699 136.875Z" fill="#FAE4A4"/>
<path d="M174.459 298.784C174.459 298.784 167.64 261.728 201.711 237.475C201.711 237.475 294.535 228.594 318.237 298.784H174.462H174.459Z" fill="#FACD49"/>
<path d="M605.79 298.784C605.79 298.784 612.609 261.728 578.538 237.475C578.538 237.475 485.711 228.594 462.012 298.784H605.787H605.79Z" fill="#FACD49"/>
<path d="M201.587 349.096H240.377C246.307 349.096 251.122 353.917 251.122 359.854V411.567C251.122 417.504 246.307 422.324 240.377 422.324H201.589C195.659 422.324 190.844 417.504 190.844 411.567V359.854C190.844 353.917 195.659 349.096 201.589 349.096H201.587Z" fill="#233862"/>
<path d="M546.802 349.096H585.592C591.523 349.096 596.338 353.917 596.338 359.854V411.567C596.338 417.504 591.523 422.324 585.592 422.324H546.802C540.872 422.324 536.057 417.504 536.057 411.567V359.854C536.057 353.917 540.872 349.096 546.802 349.096Z" fill="#233862"/>
<path d="M606.347 298.784V383.489C606.347 392.279 598.563 399.407 588.952 399.407H489.199C485.646 399.407 482.385 398.273 479.82 396.383C478.204 395.193 476.868 393.702 475.902 392.004C473.74 388.187 469.53 385.708 464.831 385.708H313.71C307.485 385.708 302.939 388.598 299.545 393.373C297.247 396.607 294.874 399.594 289.332 399.407H190.821C181.785 399.407 174.456 392.702 174.456 384.429V298.781H606.347V298.784Z" fill="#F5B444"/>
<path d="M593.728 261.079V286.958C593.728 290.494 590.597 293.36 586.733 293.36H492.59C489.386 293.36 487.464 290.101 489.224 287.649L498.722 274.426C505.671 264.751 517.277 258.721 529.917 258.222L587.86 255.935C591.061 255.808 593.731 258.148 593.731 261.082L593.728 261.079Z" fill="#F9AF2F"/>
<path d="M297.756 293.359H203.613C199.749 293.359 196.618 290.494 196.618 286.958V261.079C196.618 258.148 199.288 255.808 202.486 255.932L207.335 256.125L239.994 257.412L245.661 257.638L260.429 258.219C269.819 258.59 278.637 262.011 285.397 267.713C287.741 269.685 289.838 271.932 291.625 274.426L301.119 287.649C302.88 290.1 300.96 293.362 297.756 293.362V293.359Z" fill="#F9AF2F"/>
<path d="M241.41 359.219H194.337C192.403 359.219 190.838 360.65 190.838 362.422V375.361C190.838 376.826 192.174 377.997 193.773 377.934L196.197 377.838L212.524 377.195L215.358 377.081L222.741 376.789C227.434 376.605 231.844 374.893 235.224 372.043C236.396 371.056 237.444 369.931 238.338 368.687L243.085 362.076C243.966 360.849 243.006 359.219 241.404 359.219H241.41Z" fill="#F3962C"/>
<path d="M541.922 359.219H588.995C590.928 359.219 592.494 360.65 592.494 362.422V375.361C592.494 376.826 591.158 377.997 589.558 377.934L587.135 377.838L570.807 377.195L567.974 377.081L560.591 376.789C555.898 376.605 551.487 374.893 548.107 372.043C546.935 371.056 545.888 369.931 544.993 368.687L540.246 362.076C539.366 360.849 540.325 359.219 541.928 359.219H541.922Z" fill="#F3962C"/>
<path d="M313.334 266.245H467.028C469.426 266.245 471.014 268.674 469.997 270.793L462.363 286.745C460.432 290.781 456.277 293.36 451.711 293.36H330.002C325.84 293.36 322.007 291.16 319.986 287.612L310.495 270.949C309.292 268.838 310.857 266.245 313.334 266.245Z" fill="#FACD49"/>
<path d="M328.764 327.4H459.283C461.825 327.4 463.889 329.466 463.889 332.011V348.997C463.889 351.542 461.825 353.608 459.283 353.608H328.764C326.222 353.608 324.159 351.542 324.159 348.997V332.011C324.159 329.466 326.222 327.4 328.764 327.4Z" fill="#F3962C"/>
<path d="M285.462 269.272C285.462 280.352 275.645 289.338 263.535 289.338C251.425 289.338 241.608 280.352 241.608 269.272C241.608 264.936 243.108 260.923 245.664 257.638L260.433 258.219C269.822 258.591 278.64 262.011 285.4 267.713C285.44 268.229 285.462 268.747 285.462 269.272Z" fill="#EAFCFC"/>
<path d="M240.317 260.418C240.317 268.92 232.784 275.815 223.497 275.815C214.209 275.815 206.673 268.923 206.673 260.418C206.673 258.928 206.903 257.488 207.339 256.125L239.997 257.412C240.207 258.384 240.32 259.387 240.32 260.418H240.317Z" fill="#EAFCFC"/>
<path d="M504.969 269.272C504.969 280.352 514.786 289.338 526.896 289.338C539.006 289.338 548.823 280.352 548.823 269.272C548.823 264.936 547.323 260.923 544.767 257.638L529.998 258.219C520.612 258.591 504.969 268.747 504.969 269.272Z" fill="#EAFCFC"/>
<path d="M550.111 260.418C550.111 268.92 557.644 275.815 566.932 275.815C576.22 275.815 583.758 268.923 583.758 260.418C583.758 258.928 583.529 257.488 583.093 256.125L550.434 257.412C550.225 258.384 550.111 259.387 550.111 260.418Z" fill="#EAFCFC"/>
<path d="M479.82 396.383C478.204 395.193 476.868 393.702 475.903 392.005C473.74 388.187 469.531 385.708 464.832 385.708H313.711C307.486 385.708 302.94 388.598 299.545 393.373C299.545 393.373 302.925 368.636 320.207 368.58C337.489 368.523 462.012 368.58 462.012 368.58C462.012 368.58 477.762 369.056 479.818 396.383H479.82Z" fill="#233862"/>
<path opacity="0.5" d="M489.79 152.053H468.33C465.879 152.053 463.892 154.043 463.892 156.497V165.387C463.892 167.841 465.879 169.83 468.33 169.83H489.79C492.242 169.83 494.229 167.841 494.229 165.387V156.497C494.229 154.043 492.242 152.053 489.79 152.053Z" fill="#95BEEF"/>
<path opacity="0.5" d="M312.522 152.053H291.062C288.61 152.053 286.623 154.043 286.623 156.497V165.387C286.623 167.841 288.61 169.83 291.062 169.83H312.522C314.973 169.83 316.96 167.841 316.96 165.387V156.497C316.96 154.043 314.973 152.053 312.522 152.053Z" fill="#95BEEF"/>
<path opacity="0.5" d="M342.42 186.213V223.609C342.42 225.122 342.168 226.582 341.704 227.945C341.546 228.407 341.365 228.855 341.158 229.291H247.332C246.522 227.562 246.069 225.635 246.069 223.609V186.213C246.069 186.145 246.069 186.077 246.069 186.009C246.18 178.678 252.204 172.709 259.555 172.709H328.929C331.581 172.709 334.064 173.486 336.156 174.826C338.721 176.467 340.702 178.95 341.701 181.877C342.132 183.144 342.381 184.493 342.412 185.893C342.418 185.998 342.418 186.105 342.418 186.213H342.42Z" fill="#95BEEF"/>
<path opacity="0.5" d="M437.342 186.213V223.609C437.342 225.635 436.889 227.562 436.079 229.291H342.25C342.044 228.855 341.862 228.407 341.704 227.945C341.24 226.582 340.988 225.122 340.988 223.609V186.213C340.988 185.658 341.022 185.111 341.087 184.572C341.2 183.643 341.41 182.741 341.704 181.877C342.406 179.828 343.586 177.998 345.112 176.518C346.712 174.968 348.69 173.809 350.893 173.2C352.033 172.88 353.237 172.709 354.476 172.709H423.853C425.416 172.709 426.919 172.979 428.317 173.475C429.416 173.863 430.452 174.393 431.397 175.039C431.728 175.263 432.048 175.504 432.354 175.756C433.347 176.566 434.219 177.51 434.95 178.567C436.453 180.746 437.336 183.382 437.336 186.213H437.342Z" fill="#95BEEF"/>
<path opacity="0.5" d="M534.183 186.213V223.609C534.183 223.694 534.183 223.776 534.183 223.858C534.157 225.221 533.928 226.536 533.526 227.772C533.356 228.296 533.155 228.801 532.923 229.291H439.097C438.287 227.562 437.834 225.635 437.834 223.609V186.213C437.834 181.999 439.791 178.219 442.836 175.739C445.158 173.846 448.113 172.709 451.323 172.709H520.697C526.217 172.709 530.99 176.076 533.07 180.857C533.789 182.501 534.186 184.314 534.186 186.213H534.183Z" fill="#95BEEF"/>
<path d="M323.499 198.492V227.092C323.499 227.299 323.499 227.506 323.488 227.71C323.474 228.242 323.434 228.769 323.378 229.291H241.73C241.65 228.568 241.608 227.834 241.608 227.092V198.492C241.608 193.768 243.284 189.418 246.072 186.009C249.441 181.883 254.434 179.134 260.05 178.763C260.484 178.731 260.919 178.717 261.361 178.717H303.749C306.028 178.717 308.219 179.108 310.26 179.828C317.948 182.537 323.499 189.897 323.499 198.492Z" fill="#73A3DD"/>
<path d="M543.906 198.492V227.092C543.906 227.834 543.864 228.568 543.784 229.291H462.136C462.057 228.568 462.015 227.834 462.015 227.092V198.492C462.015 187.616 470.903 178.717 481.768 178.717H524.156C527.357 178.717 530.386 179.491 533.067 180.857C539.484 184.133 543.906 190.821 543.906 198.492Z" fill="#73A3DD"/>
<path d="M487.758 149.707H514.033C518.854 149.707 522.766 153.623 522.766 158.449V165.902C522.766 170.726 518.854 174.645 514.033 174.645H487.758C482.94 174.645 479.025 170.729 479.025 165.902V158.449C479.025 153.626 482.937 149.707 487.758 149.707Z" fill="#73A3DD"/>
<path d="M295.704 149.707H269.432C264.609 149.707 260.699 153.621 260.699 158.449V165.902C260.699 170.731 264.609 174.645 269.432 174.645H295.704C300.527 174.645 304.437 170.731 304.437 165.902V158.449C304.437 153.621 300.527 149.707 295.704 149.707Z" fill="#73A3DD"/>
<path d="M389.618 229.291H375.093C374.53 227.815 374.204 226.911 374.204 226.911L374.796 202.777C374.796 202.777 381.049 206.515 383.149 211.301C383.588 212.299 384.086 213.56 384.627 215C386.122 218.993 387.931 224.363 389.618 229.291Z" fill="#F3A393"/>
<path d="M344.272 213.5C344.272 213.5 343.558 214.28 342.42 215.535C341.996 216.003 341.515 216.535 340.988 217.119C339.742 218.499 338.251 220.166 336.708 221.909C334.506 224.402 332.198 227.061 330.353 229.291H319.236C320.176 227.304 321.187 225.335 322.223 223.416C322.645 222.631 323.069 221.86 323.499 221.101C325.13 218.199 326.786 215.47 328.306 213.058C329.937 210.471 331.412 208.252 332.535 206.583C333.393 205.313 339.898 201.283 339.898 201.283L340.988 204.327L342.42 208.328L344.272 213.5Z" fill="#F3A393"/>
<path d="M385.4 212.871C385.4 212.871 385.162 213.772 384.627 215C383.767 216.972 382.139 219.786 379.495 221.081L379.342 229.291H337.073C337.082 227.979 337.056 226.667 336.999 225.352L336.982 224.972L336.855 221.965C336.804 221.945 336.756 221.928 336.708 221.909C330.803 219.607 328.903 215.26 328.306 213.058C328.08 212.234 328.04 211.709 328.04 211.709C330.809 207.045 336.583 201.306 339.74 199.586C340.108 199.385 340.527 199.203 340.988 199.036C341.427 198.878 341.905 198.736 342.42 198.608C344.744 198.027 347.785 197.744 351.119 197.665C355.385 197.565 360.138 197.801 364.503 198.175H364.506C366.006 198.305 367.459 198.452 368.831 198.605C376.101 199.422 379.948 203.845 379.948 203.845C379.948 203.845 382.34 205.69 385.4 212.871Z" fill="#B23F36"/>
<path d="M362.935 202.587C360.198 203.913 354.596 204.874 350.947 201.513C350.409 201.017 350.573 200.099 350.752 199.388C351.108 197.971 351.649 195.199 351.618 191.56C351.598 189.293 351.36 186.683 350.709 183.855L362.496 187.763C362.496 187.763 362.389 188.814 362.446 190.333C362.465 190.764 362.494 191.235 362.542 191.73C362.641 192.714 362.814 193.796 363.111 194.87C363.232 195.301 363.374 195.732 363.535 196.154C363.728 196.647 363.951 197.123 364.209 197.582C365.305 199.504 364.922 201.626 362.93 202.593L362.935 202.587Z" fill="#F3A393"/>
<path d="M363.113 194.865C353.834 195.097 351.618 191.558 351.618 191.558L362.544 191.725C362.644 192.708 362.816 193.791 363.113 194.865Z" fill="#F28C80"/>
<path d="M366.018 192.221C366.018 192.221 354.14 197.412 348.343 188.216C342.087 178.289 345.948 169.754 350.072 168.58C358.298 166.237 363.666 168.685 365.661 171.839C367.657 174.996 372.582 189.415 366.018 192.221Z" fill="#F3A393"/>
<path d="M360.249 187.431C360.249 187.431 360.965 188.63 364.121 187.406C364.121 187.406 366.771 186.38 366.236 184.98C366.236 184.98 363.292 184.802 360.249 187.431Z" fill="white"/>
<path d="M351.086 191.322C351.086 191.322 348.974 187.281 348.795 184.974C348.795 184.974 344.926 181.35 346.65 180.038C348.376 178.726 349.769 181.01 350.126 180.463C350.483 179.916 349.902 171.706 352.229 171.607C354.556 171.508 363.422 172.823 366.635 169.045C369.848 165.268 358.915 154.15 344.413 161.346C329.911 168.541 335.649 185.031 351.083 191.32L351.086 191.322Z" fill="#2C3A64"/>
<path d="M337.922 169.17C337.922 169.17 336.912 167.215 337.427 165.628C337.427 165.628 337.778 167.651 338.712 168.43C339.649 169.21 337.922 169.17 337.922 169.17Z" fill="#2C3A64"/>
<path d="M338.019 167.679C338.019 167.679 336.099 167.759 335.434 169.348C335.434 169.348 336.623 168.243 338.115 168.988L338.019 167.679Z" fill="#2C3A64"/>
<path d="M407.452 210.233L404.663 229.291H395.857C396.335 226.202 397.403 219.268 398.099 214.671C398.487 212.138 398.758 210.315 398.758 210.233H407.452Z" fill="#F3A393"/>
<path d="M417.691 169.014C417.691 169.014 414.475 167.47 410.866 169.014C407.257 170.559 404.627 177.139 406.246 183.286C407.862 189.432 402.405 189.534 404.932 194.462C405.83 196.211 417.694 197.699 418.098 190.892C418.35 186.675 414.534 186.465 415.647 181.883C416.759 177.3 417.694 169.014 417.694 169.014H417.691Z" fill="#2C3A64"/>
<path d="M409.96 170.882C410.059 170.717 414.164 164.222 421.835 162.924C428.049 161.873 433.866 166.268 434.823 172.505C435.782 178.774 434.803 186.893 424.589 189.821L409.96 170.882Z" fill="#2C3A64"/>
<path d="M411.836 198.81L423.394 205.682L426.316 197.537C426.316 197.537 424.977 194.57 424.586 189.821C424.425 187.825 424.428 185.513 424.773 182.974L414.721 187.344C414.721 187.344 414.897 188.259 414.967 189.599C415.041 191.048 414.993 192.989 414.469 194.803C414.016 196.361 413.215 197.823 411.836 198.807V198.81Z" fill="#F3A393"/>
<path d="M414.472 194.805C420.018 195.009 424.589 189.823 424.589 189.823L414.97 189.602C415.044 191.05 414.996 192.992 414.472 194.805Z" fill="#F28C80"/>
<path d="M411.984 191.546C411.984 191.546 422.84 195.168 427.208 186.621C431.921 177.397 427.85 170.199 424.13 169.493C416.714 168.087 412.187 170.663 410.684 173.596C409.178 176.53 405.994 189.599 411.986 191.544L411.984 191.546Z" fill="#F3A393"/>
<path d="M416.674 186.876C416.674 186.876 416.139 187.987 413.269 187.162C413.269 187.162 410.857 186.471 411.217 185.198C411.217 185.198 413.79 184.807 416.674 186.876Z" fill="white"/>
<path d="M440.51 229.291H402.031C401.686 224.686 401.422 220.067 401.292 215.963C401.227 213.9 401.193 211.967 401.196 210.233C401.21 205.823 401.479 202.681 402.096 201.899C402.153 201.839 402.181 201.808 402.181 201.808C406.991 197.611 412.61 197.186 413.368 197.112C413.363 197.155 413.36 197.197 413.357 197.24C413.238 198.912 413.869 200.456 416.782 201.026C420.624 201.779 424.258 199.464 426.245 197.73H426.248C426.319 197.668 426.384 197.608 426.452 197.548C429.323 198.146 434.228 200.102 437.342 202.893C437.509 203.041 437.673 203.194 437.832 203.349C437.92 203.437 438.007 203.525 438.092 203.616C439.661 205.265 440.32 216.02 440.51 229.291Z" fill="#FAE4A4"/>
<path d="M419.59 170.51C419.59 170.51 418.563 180.704 428.221 184.317C432.062 185.754 434.061 170.182 426.036 167.073C418.008 163.964 410.093 167.657 409.147 173.092C408.202 178.527 408.921 179.661 408.921 179.661C408.921 179.661 412.677 169.32 419.59 170.51Z" fill="#2C3A64"/>
<path d="M431.581 169.099C431.581 169.099 434.797 167.359 438.406 169.099C442.015 170.839 444.645 178.25 443.026 185.167C441.41 192.088 446.867 192.204 444.34 197.753C443.442 199.722 431.578 201.394 431.174 193.731C430.922 188.982 434.738 188.747 433.625 183.586C432.513 178.425 431.578 169.096 431.578 169.096L431.581 169.099Z" fill="#2C3A64"/>
<path d="M402.178 201.808C402.178 201.808 397.369 206.9 396.907 213.843C396.907 213.843 400.146 216.53 403.104 215.972C406.065 215.416 402.178 201.805 402.178 201.805V201.808Z" fill="#FAE4A4"/>
<path d="M436.617 217.825C436.617 217.825 435.14 223.535 433.175 229.291H421.512C423.182 223.093 425.15 213.566 425.15 213.566C429.959 218.38 436.617 217.825 436.617 217.825Z" fill="#F3A393"/>
<path d="M543.906 201.714C541.693 199.444 539.773 197.684 538.432 196.619C537.172 195.619 535.728 194.712 534.183 193.896C525.557 189.342 513.688 187.556 511.941 187.312C511.8 187.29 511.723 187.281 511.723 187.281C511.723 190.716 504.411 193.686 498.45 193.295C493.431 192.966 490.17 189.146 490.17 187.074L490.164 187.066C490.164 187.066 490.158 187.069 490.155 187.069C490.136 187.069 490.073 187.083 489.966 187.106C488.14 187.457 473.833 190.452 463.518 198.07C463.079 198.396 462.572 198.821 462.015 199.342C456.727 204.262 446.641 217.423 441.574 229.291H557.65C557.842 229.291 558.032 229.28 558.219 229.251C558.858 229.172 559.461 228.954 560.016 228.619C560.823 228.132 561.525 227.404 562.08 226.514C557.401 216.98 549.664 207.623 543.906 201.714Z" fill="#B23F36"/>
<path d="M497.615 194.768C489.38 193.791 489.963 187.097 489.963 187.097C489.963 187.097 490.829 185.091 491.381 181.761C491.735 179.593 491.959 176.861 491.718 173.761L494.311 173.336L510.183 173.653C510.209 173.667 510.234 173.687 510.254 173.704C510.364 173.8 510.418 173.883 510.407 173.948C509.535 179.641 510.999 184.765 511.941 187.304C512.162 192.467 505.849 195.743 497.617 194.766L497.615 194.768Z" fill="#F3A393"/>
<path d="M510.263 173.656C510.26 173.676 510.254 173.69 510.251 173.707C509.94 175.26 505.9 180.829 497.549 181.803C496.335 181.948 493.717 181.945 491.378 181.764C491.732 179.596 491.956 176.864 491.715 173.764L494.308 173.339L510.18 173.656H510.263Z" fill="#F28C80"/>
<path d="M511.763 170.363C509.912 180.335 497.06 180.007 491.506 179.38C489.943 179.208 488.958 179.006 488.958 179.006C487.195 178.536 486.212 175.756 485.757 172.114C484.851 164.911 485.994 154.335 487.212 151.631C489.04 147.562 492.488 143.158 505.431 146.334C518.376 149.514 514.138 157.585 511.763 170.363Z" fill="#F3A393"/>
<path d="M487.279 171.491C487.279 171.491 487.642 173.528 489.289 173.792C493.181 174.413 494.124 172.358 494.124 172.358C494.124 172.358 489.731 170.799 487.282 171.491H487.279Z" fill="white"/>
<path d="M512.046 141.168C512.08 141.143 512.108 141.112 512.128 141.078C512.309 140.749 512.822 140.822 512.822 140.822C512.091 140.494 510.953 140.701 510.953 140.701C510.979 140.684 510.934 140.63 510.832 140.553C510.684 139.559 509.682 138.847 509.682 138.847C510.022 139.34 510.166 139.833 510.226 140.193C507.992 139.014 503.729 134.979 495.656 138.774C491.987 140.499 488.426 141.565 485.655 142.217C482.06 143.058 480.423 147.284 482.538 150.31C483.611 151.846 484.967 153.294 486.464 154.326C491.268 155.834 497.79 153.164 500.935 155.712C504.08 158.259 501.085 162.456 504.678 163.956L504.695 163.964C505.609 164.344 506.665 164.007 507.177 163.159C508.055 161.711 509.266 160.365 510.54 161.184C513.181 162.884 511.876 168.138 511.239 169.227C510.263 170.893 510.401 173.948 510.401 173.948C510.401 173.948 517.204 170.046 519.165 165.458C524.003 154.145 520.55 145.283 512.04 141.165L512.046 141.168Z" fill="#233862"/>
<path d="M464.367 229.291H469.895C470.218 227.157 470.459 225.216 470.62 223.776C470.634 223.646 470.648 223.521 470.663 223.402C470.801 222.13 470.872 221.331 470.878 221.265V221.26C470.912 221.16 471.475 219.35 469.839 218.29C469.08 217.797 467.846 217.465 465.862 217.544C465.862 217.544 465.015 217.907 463.617 218.565C463.144 218.786 462.606 219.044 462.015 219.33C457.783 221.393 450.878 225.051 445.607 229.291H464.367Z" fill="#C65447"/>
<path d="M543.906 218.284C541.381 216.7 539.666 215.753 539.666 215.753H539.657C537.568 215.671 535.997 216.235 534.825 217.031C534.596 217.187 534.381 217.352 534.183 217.522C533.58 218.037 533.11 218.607 532.747 219.143C531.98 220.279 531.711 221.262 531.711 221.262C531.711 221.262 531.819 222.526 532.051 224.476C532.068 224.638 532.088 224.808 532.108 224.98C532.261 226.225 532.453 227.704 532.694 229.291H557.65C557.842 229.291 558.032 229.279 558.219 229.251C553.772 224.805 547.852 220.764 543.906 218.284Z" fill="#C65447"/>
<path d="M323.499 205.699C322.605 202.856 320.708 199.606 317.535 195.896C312.499 190.013 310.775 184.739 310.26 179.828C309.999 177.374 310.042 175.011 310.124 172.709C310.152 171.89 310.183 171.083 310.212 170.278C310.217 170.133 310.22 169.986 310.22 169.83C310.237 165.738 308.757 158.163 304.802 152.053C301.054 146.255 295.078 141.775 286.048 142.835C286.048 142.835 281.165 140.953 274.92 144.028C271.821 145.552 269.505 147.556 267.747 149.871C263.476 155.499 262.505 162.952 261.607 169.776C261.48 170.771 261.35 171.752 261.214 172.709C260.905 174.863 260.554 176.909 260.05 178.763C259.142 182.101 257.732 184.819 255.167 186.417C250.734 189.177 247.782 192.561 246.069 196.103C243.451 201.524 243.734 207.325 246.069 211.854C246.474 212.642 246.944 213.393 247.468 214.096C250.848 218.604 256.597 221.172 263.535 219.506C263.277 219.007 264.393 217.941 266.304 216.813C273.211 212.735 290.507 207.816 290.846 225.652C290.846 225.652 299.248 225.445 307.61 223.297C312.366 222.076 317.107 220.228 320.284 217.431C321.73 216.159 322.851 214.688 323.499 212.99C324.298 210.919 324.385 208.507 323.499 205.699Z" fill="#163560"/>
<path d="M308.272 229.291H265.876C266.018 224.989 266.165 220.724 266.303 216.813C266.66 206.66 266.96 198.866 266.96 198.866C267.744 198.623 269.318 198.404 270.179 198.215C272.893 197.611 275.138 195.701 276.075 193.08C277.199 189.923 278.096 185.264 278.074 179.42L278.923 179.585L293.176 182.41C293.176 182.41 293.17 182.498 293.159 182.662C293.156 182.699 293.153 182.739 293.15 182.784V182.801C293.15 182.827 293.145 182.855 293.145 182.883C293.134 183.022 293.125 183.189 293.114 183.385C293.108 183.447 293.105 183.512 293.1 183.58C293.097 183.634 293.094 183.691 293.091 183.75C293.091 183.807 293.083 183.867 293.08 183.929C293.066 184.175 293.051 184.445 293.034 184.737C293.034 184.796 293.029 184.853 293.026 184.915C293.012 185.201 292.995 185.507 292.981 185.828C292.975 185.938 292.969 186.049 292.966 186.165C292.964 186.204 292.964 186.244 292.961 186.284C292.955 186.397 292.952 186.513 292.947 186.63C292.941 186.777 292.935 186.927 292.93 187.08C292.918 187.386 292.907 187.701 292.896 188.018C292.89 188.219 292.884 188.423 292.879 188.627C292.867 189.038 292.859 189.455 292.853 189.872C292.853 189.937 292.853 190.002 292.853 190.064C292.848 190.418 292.845 190.776 292.845 191.13V191.235C292.828 194.91 295.234 198.152 298.761 199.17C300.51 199.677 302.042 200.11 302.124 200.136C302.124 200.136 305.841 210.757 307.61 223.297C307.885 225.258 308.114 227.268 308.272 229.291Z" fill="#F3A393"/>
<path d="M293.173 182.41C293.173 182.41 292.848 186.899 292.839 191.13C284.865 190.906 280.647 183.62 278.92 179.584L293.173 182.41Z" fill="#F28C80"/>
<path d="M295.837 186.414C295.837 186.414 276.967 186.726 276.953 174.96C276.939 163.193 274.496 155.306 286.544 154.612C298.592 153.915 300.938 158.404 301.895 162.329C302.855 166.257 300.743 186.032 295.837 186.414Z" fill="#F3A393"/>
<path d="M295.141 154.323C295.141 154.323 289.975 168.127 282.046 170.17C274.117 172.211 270.677 170.085 270.677 170.085C270.677 170.085 276.758 165.248 278.02 156.806C278.02 156.806 291.243 147.754 295.141 154.326V154.323Z" fill="#163560"/>
<path d="M293.858 155.443C293.858 155.443 297.688 156.877 299.265 159.674C300.808 162.408 302.121 166.033 301.816 170.476C301.816 170.476 305.708 161.093 301.334 155.786C296.695 150.157 293.858 155.443 293.858 155.443Z" fill="#163560"/>
<path d="M291.732 179.114C291.732 179.114 293.035 180.829 295.639 180.707C297.736 180.608 298.546 178.785 298.546 178.785C298.546 178.785 294.691 177.859 291.732 179.114Z" fill="#EBF3FA"/>
<path d="M292.151 179.429C292.151 179.429 292.477 180.814 295.925 180.602C295.925 180.602 298.818 180.423 298.73 178.899C298.73 178.899 295.925 177.813 292.154 179.429H292.151Z" fill="white"/>
<path d="M323.488 227.71C323.644 228.245 323.794 228.772 323.941 229.291H244.778C245.18 226.358 245.605 223.479 246.069 220.809C246.497 218.352 246.958 216.074 247.468 214.096C247.991 212.064 248.566 210.352 249.206 209.088C254.816 198.019 266.932 198.869 266.957 198.866C286.677 214.966 301.858 200.388 302.118 200.136C302.118 200.136 311.749 202.168 315.112 206.495C316.969 208.884 318.707 212.937 320.278 217.431C320.954 219.375 321.603 221.401 322.217 223.414C322.659 224.867 323.08 226.313 323.482 227.71H323.488Z" fill="#FAE4A4"/>
<path d="M534.916 217.15C534.916 217.15 534.884 217.108 534.825 217.034C534.74 216.915 534.59 216.72 534.392 216.476C534.372 216.448 534.349 216.422 534.327 216.394C534.281 216.337 534.233 216.275 534.182 216.215C534.018 216.014 533.831 215.793 533.628 215.558C530.601 211.945 526.941 208.87 522.828 206.501C516.923 203.106 510.084 201.162 502.798 201.162C491.075 201.162 480.505 206.195 473.134 214.215C472.817 214.56 472.503 214.914 472.2 215.272C472.038 215.459 471.883 215.646 471.727 215.833C471.07 216.626 470.445 217.445 469.847 218.29C468.506 220.194 467.322 222.217 466.32 224.343C465.567 225.938 464.916 227.59 464.375 229.291H471.438C472.12 227.537 472.947 225.856 473.904 224.261C474.79 222.779 475.786 221.373 476.882 220.049C483.061 212.588 492.389 207.827 502.803 207.827C513.218 207.827 522.432 212.531 528.609 219.916C529.817 221.359 530.907 222.906 531.861 224.538C531.952 224.686 532.037 224.833 532.116 224.98C532.631 225.887 533.104 226.817 533.531 227.772C533.755 228.273 533.967 228.778 534.165 229.291H541.231C539.824 224.864 537.67 220.769 534.924 217.15H534.916Z" fill="#142644"/>
<path d="M534.918 223.668C534.918 223.668 534.655 223.731 534.18 223.858C533.681 223.991 532.951 224.198 532.051 224.476C531.986 224.496 531.921 224.516 531.853 224.538C529.045 225.417 524.708 226.978 520.589 229.291H485.997C482.861 227.043 478.9 225.218 473.895 224.261C472.851 224.059 471.758 223.898 470.62 223.776C470.402 223.753 470.181 223.733 469.961 223.714H469.958C469.785 223.697 469.613 223.682 469.437 223.668L470.878 221.265V221.259L472.211 219.041C472.358 219.041 473.12 219.233 474.43 219.531C475.101 219.681 475.919 219.857 476.873 220.049C485.374 221.767 504.697 224.635 528.6 219.916C529.95 219.65 531.318 219.358 532.699 219.041L532.747 219.143L534.182 222.132L534.918 223.668Z" fill="#142644"/>
<path d="M539.666 215.753C539.666 215.753 538.183 213.829 536.045 211.661C533.362 208.944 529.648 205.846 526.534 205.69C524.739 205.602 519.265 207.317 519.876 209.269C520.57 211.491 525.795 212.418 529.787 212.65C531.703 212.761 534.916 217.151 534.916 217.151C534.916 217.151 536.832 215.751 539.666 215.753Z" fill="#F3A393"/>
<path d="M466.66 213.872C467.611 213.671 470.609 214.988 471.283 215.501C473.805 217.42 476.888 219.749 471.286 223.068C468.432 224.757 465.032 224.618 463.979 223.592C462.974 222.614 463.082 214.626 466.66 213.869V213.872Z" fill="#F3A393"/>
<path d="M467.546 213.965C467.546 213.965 471.302 213.767 472.689 213.52C474.077 213.277 472.712 214.929 472.146 215.306C471.58 215.683 469.711 216.314 469.711 216.314L467.546 213.965Z" fill="#F3A393"/>
<path opacity="0.5" d="M400.205 152.053H378.748C376.296 152.053 374.309 154.043 374.309 156.497V165.387C374.309 167.841 376.296 169.83 378.748 169.83H400.205C402.656 169.83 404.644 167.841 404.644 165.387V156.497C404.644 154.043 402.656 152.053 400.205 152.053Z" fill="#95BEEF"/>
<path d="M382.077 169.83H380.721V172.712H382.077V169.83Z" fill="#95BEEF"/>
<path d="M472.285 169.83H470.929V172.712H472.285V169.83Z" fill="#95BEEF"/>
<path d="M397.552 169.83H396.196V172.712H397.552V169.83Z" fill="#95BEEF"/>
<path d="M559.872 228.701C559.193 229.081 558.445 229.291 557.65 229.291H228.867C228.796 229.291 228.725 229.291 228.654 229.285C227.1 229.209 225.753 228.299 224.799 226.925C226.551 226.361 230.726 225.224 236.306 225.074C243.765 224.873 544.866 225.074 544.866 225.074C544.866 225.074 557.803 225.578 559.872 228.701Z" fill="#FACD49"/>
<path d="M411.103 133.429H363.996C362.66 133.429 361.576 134.514 361.576 135.852V143.784C361.576 145.122 362.66 146.207 363.996 146.207H411.103C412.44 146.207 413.524 145.122 413.524 143.784V135.852C413.524 134.514 412.44 133.429 411.103 133.429Z" fill="#2C3A64"/>
<path d="M388.219 124.573H386.883V133.429H388.219V124.573Z" fill="#2C3A64"/>
<path d="M606.101 298.778H174.456V307.818H606.101V298.778Z" fill="#F9AF2F"/>
<path d="M391.989 392.772H380.388V415.746H391.989V392.772Z" fill="white"/>
<path d="M391.989 441.084H380.388V464.058H391.989V441.084Z" fill="white"/>
<path d="M776.546 324.702C759.177 322.412 730.059 316.509 723.849 302.314C714.867 281.785 739.811 271.898 739.313 248.121C738.815 224.345 709.879 216.96 720.857 183.449C727.568 162.954 739.879 150.803 748.428 144.455C768.612 186.167 779.162 232.399 779.952 276.049C780.255 292.784 779.119 309.132 776.546 324.705V324.702Z" fill="#82B378"/>
<path d="M773.554 339.741C772.484 344.312 771.278 348.796 769.939 353.185C767.672 360.624 765.02 367.788 761.982 374.621C739.562 377.667 671.027 378.551 680.94 371.161C680.94 371.161 692.968 358.4 711.422 356.634C727.735 355.075 750.285 334.218 773.557 339.738L773.554 339.741Z" fill="#82B378"/>
<path d="M112.976 382.816C110.502 383.808 62.4015 383.324 37.9181 383.009C34.6514 379.288 31.5885 375.442 28.7408 371.472C26.3403 368.125 24.0898 364.691 21.9922 361.162C30.6996 360.876 43.2485 361.789 55.4916 367.357C77.4414 377.344 94.4034 363.809 102.882 367.357C111.363 370.905 116.302 381.484 112.979 382.813L112.976 382.816Z" fill="#82B378"/>
</g>
<defs>
<clipPath id="clip0_96_16830">
<rect width="780" height="483" fill="white"/>
</clipPath>
</defs>
</svg>
