<svg width="20" height="20" viewBox="0 0 20 20" fill="none" xmlns="http://www.w3.org/2000/svg">
  <path d="M5.0319 12.1377L3.66522 18.0557C3.6229 18.2349 3.63561 18.4227 3.70168 18.5945C3.76775 18.7664 3.88411 18.9143 4.03557 19.0191C4.18703 19.1238 4.36655 19.1804 4.55068 19.1814C4.7348 19.1825 4.91498 19.1281 5.06767 19.0252L10.062 15.6956L15.0564 19.0252C15.2126 19.1289 15.3968 19.1823 15.5843 19.1782C15.7718 19.1741 15.9536 19.1127 16.1051 19.0022C16.2567 18.8917 16.3707 18.7375 16.432 18.5602C16.4933 18.383 16.4988 18.1912 16.4478 18.0107L14.7702 12.1404L18.9308 8.39628C19.064 8.27629 19.1592 8.11988 19.2045 7.94638C19.2498 7.77289 19.2432 7.58992 19.1856 7.4201C19.1281 7.25029 19.022 7.10107 18.8805 6.99091C18.739 6.88075 18.5683 6.81448 18.3896 6.80029L13.1604 6.38386L10.8976 1.37485C10.8255 1.21356 10.7082 1.0766 10.5599 0.980493C10.4116 0.88439 10.2387 0.833252 10.062 0.833252C9.88532 0.833252 9.7124 0.88439 9.56413 0.980493C9.41586 1.0766 9.29857 1.21356 9.22641 1.37485L6.9636 6.38386L1.73445 6.79937C1.55875 6.81329 1.39079 6.87753 1.25065 6.98441C1.11052 7.09128 1.00414 7.23627 0.944242 7.40202C0.884346 7.56777 0.873472 7.74727 0.91292 7.91904C0.952367 8.09081 1.04047 8.24758 1.16668 8.37059L5.0319 12.1377ZM7.64877 8.16972C7.81249 8.15682 7.96973 8.10012 8.104 8.00555C8.23827 7.91098 8.34462 7.78203 8.41191 7.63222L10.062 3.98071L11.7121 7.63222C11.7794 7.78203 11.8858 7.91098 12.02 8.00555C12.1543 8.10012 12.3115 8.15682 12.4753 8.16972L16.1185 8.45865L13.1182 11.159C12.8577 11.3938 12.7541 11.7552 12.8495 12.0927L13.9988 16.1148L10.572 13.83C10.4216 13.729 10.2445 13.6751 10.0634 13.6751C9.88224 13.6751 9.70519 13.729 9.55478 13.83L5.9739 16.2175L6.937 12.0478C6.97231 11.8944 6.96757 11.7346 6.92323 11.5836C6.8789 11.4326 6.79646 11.2955 6.68384 11.1856L3.89728 8.46874L7.64877 8.16972Z" fill="#D1D1D3"/>
</svg>
