<svg width="18" height="22" viewBox="0 0 18 22" fill="none" xmlns="http://www.w3.org/2000/svg">
<path fill-rule="evenodd" clip-rule="evenodd" d="M9 20.4497L9.7965 21.191C9.69198 21.2889 9.56776 21.3667 9.43098 21.4197C9.2942 21.4727 9.14755 21.5 8.99944 21.5C8.85133 21.5 8.70467 21.4727 8.56789 21.4197C8.43111 21.3667 8.3069 21.2889 8.20238 21.191L8.19563 21.1837L8.1765 21.1658L8.10675 21.0997C7.71018 20.7184 7.32013 20.3312 6.93675 19.9384C5.9742 18.954 5.05252 17.9354 4.17375 16.885C3.17025 15.6775 2.14425 14.3126 1.36462 12.9644C0.601875 11.6424 0 10.2103 0 8.89988C0 4.134 4.041 0.5 9 0.5C13.959 0.5 18 4.134 18 8.89988C18 10.2103 17.3981 11.6424 16.6354 12.9633C15.8558 14.3136 14.8309 15.6775 13.8263 16.885C12.5971 18.3546 11.2842 19.7615 9.89325 21.0997L9.8235 21.1658L9.80437 21.1837L9.79762 21.19L9 20.4497ZM9 12.0498C9.89511 12.0498 10.7536 11.718 11.3865 11.1272C12.0194 10.5365 12.375 9.7353 12.375 8.89988C12.375 8.06446 12.0194 7.26326 11.3865 6.67252C10.7536 6.08179 9.89511 5.74992 9 5.74992C8.10489 5.74992 7.24645 6.08179 6.61351 6.67252C5.98058 7.26326 5.625 8.06446 5.625 8.89988C5.625 9.7353 5.98058 10.5365 6.61351 11.1272C7.24645 11.718 8.10489 12.0498 9 12.0498Z" fill="white"/>
</svg>
