<svg width="1103" height="476" viewBox="0 0 1103 476" fill="none" xmlns="http://www.w3.org/2000/svg">
<path d="M341.024 303.623C341.024 303.623 447.011 169.28 510.046 169.711C573.08 170.142 641.748 258.2 731.451 333.407C831.977 417.686 700.713 421.224 693.137 421.918C685.562 422.613 424.189 413.373 419.831 408.826C415.474 404.276 345.685 346.006 345.685 346.006L341.024 303.627V303.623Z" fill="#B8D6F9"/>
<path d="M884.854 307.662H889.332V257.985H884.854V307.662Z" fill="#355389"/>
<path d="M887.089 161.616L901.711 279.841H872.471L887.089 161.616Z" fill="#3C8F7C"/>
<path d="M896.407 236.962L875.561 254.849L876.36 248.369L895.76 231.724L896.407 236.962Z" fill="#50BFA5"/>
<path d="M893.204 211.048L880.438 215.412L881.037 210.562L892.652 206.586L893.204 211.048Z" fill="#50BFA5"/>
<path d="M274.877 220.196L287.932 325.747H261.826L274.877 220.196Z" fill="#3C8F7C"/>
<path d="M297.872 235.697L307.814 316.083H287.933L297.872 235.697Z" fill="#3C8F7C"/>
<path d="M317.753 259.637L327.696 340.023H307.814L317.753 259.637Z" fill="#3C8F7C"/>
<path d="M250.459 243.767L263.51 349.317H237.404L250.459 243.767Z" fill="#3C8F7C"/>
<path d="M299.811 276.595C413.034 295.447 582.924 464.852 712.321 464.852C841.718 464.852 869.581 424.334 918.107 432.901C966.63 441.468 1031.77 464.852 1031.77 464.852L70.2021 467.696C70.2021 467.696 186.584 257.743 299.807 276.595H299.811Z" fill="#7B74F3"/>
<path d="M709.655 227.221L722.709 332.771H696.604L709.655 227.221Z" fill="#3C8F7C"/>
<path d="M662.414 301.204L672.353 381.594H652.472L662.414 301.204Z" fill="#3C8F7C"/>
<path d="M685.236 250.792L698.287 356.342H672.182L685.236 250.792Z" fill="#3C8F7C"/>
<path d="M1050.38 349.16L1050.55 339.869C1050.55 332.98 1045.3 327.391 1038.81 327.391C1022.48 327.391 1009.23 341.47 1009.23 358.834V371.532C1009.23 377.094 1006.28 381.923 1001.95 384.346C998.025 386.546 995.621 390.943 995.621 395.669V402.361C995.621 409.608 998.821 416.37 1004.14 420.906C1007.25 423.559 1009.24 427.631 1009.24 432.199V441.677C1009.24 452.155 1017.23 460.646 1027.09 460.646H1032.71C1042.57 460.646 1050.56 452.152 1050.56 441.677C1048.94 428.442 1052.86 420.803 1057.38 416.44C1064.04 410.021 1067.93 400.994 1067.93 391.444V390.106C1067.93 380.026 1063.55 370.589 1056.24 364.174C1053.01 361.342 1050.38 356.715 1050.38 349.164L1050.38 349.16Z" fill="#4E9B87"/>
<path d="M813.012 276.595C699.789 295.447 529.898 464.852 400.502 464.852C271.105 464.852 243.242 424.334 194.716 432.901C146.19 441.468 81.0474 464.852 81.0474 464.852L1042.62 467.696C1042.62 467.696 926.235 257.743 813.012 276.595Z" fill="#86B1F2"/>
<path d="M70.2061 467.696C70.2061 467.696 194.343 359.799 354.408 353.173C408.158 350.947 628.244 395.57 813.578 430.628C821.369 432.101 1015.61 468.003 1042.05 469.07L70.2097 467.7L70.2061 467.696Z" fill="#96D9C9"/>
<path opacity="0.5" d="M500.589 44.4903C498.704 36.2814 491.362 30.1558 482.585 30.1558C480.974 30.1558 479.411 30.3641 477.921 30.7515C473.588 21.4827 464.186 15.0574 453.283 15.0574C450.463 15.0574 447.746 15.485 445.189 16.2818C439.319 6.55604 428.657 0.0539551 416.475 0.0539551C401.981 0.0539551 389.638 9.25702 384.959 22.1406C381.65 20.2948 377.837 19.2386 373.778 19.2386C361.074 19.2386 350.777 29.5418 350.777 42.2535C350.777 43.0065 350.817 43.752 350.887 44.4867H500.586L500.589 44.4903Z" fill="white"/>
<path opacity="0.5" d="M704.669 188.077C705.578 184.122 709.114 181.173 713.34 181.173C714.115 181.173 714.867 181.272 715.587 181.458C717.673 176.995 722.202 173.9 727.451 173.9C728.81 173.9 730.117 174.108 731.348 174.492C734.175 169.81 739.307 166.678 745.174 166.678C752.154 166.678 758.097 171.111 760.351 177.313C761.943 176.425 763.781 175.914 765.735 175.914C771.853 175.914 776.81 180.877 776.81 186.995C776.81 187.357 776.791 187.715 776.759 188.07H704.669V188.077Z" fill="white"/>
<path opacity="0.5" d="M578.1 136.649C576.986 131.792 572.639 128.166 567.445 128.166C566.491 128.166 565.567 128.29 564.683 128.517C562.119 123.031 556.556 119.23 550.105 119.23C548.436 119.23 546.829 119.482 545.317 119.957C541.843 114.2 535.535 110.355 528.324 110.355C519.748 110.355 512.442 115.801 509.674 123.429C507.716 122.336 505.459 121.711 503.055 121.711C495.538 121.711 489.441 127.808 489.441 135.333C489.441 135.779 489.463 136.221 489.507 136.656H578.1V136.649Z" fill="white"/>
<path opacity="0.5" d="M750.679 79.5774C749.174 73.0169 743.304 68.1193 736.287 68.1193C734.998 68.1193 733.749 68.2838 732.558 68.5944C729.095 61.1859 721.581 56.0545 712.87 56.0545C710.616 56.0545 708.446 56.398 706.401 57.034C701.711 49.2636 693.189 44.0663 683.451 44.0663C671.868 44.0663 662.002 51.4237 658.266 61.7196C655.621 60.243 652.575 59.3987 649.327 59.3987C639.177 59.3987 630.943 67.6332 630.943 77.7938C630.943 78.3969 630.976 78.9927 631.031 79.5774H750.672H750.679Z" fill="white"/>
<path opacity="0.5" d="M268.029 159.719C268.782 156.448 271.708 154.006 275.203 154.006C275.846 154.006 276.467 154.09 277.062 154.244C278.79 150.552 282.534 147.99 286.877 147.99C287.999 147.99 289.083 148.162 290.103 148.48C292.44 144.606 296.688 142.014 301.543 142.014C307.318 142.014 312.234 145.68 314.097 150.815C315.416 150.081 316.935 149.66 318.553 149.66C323.616 149.66 327.718 153.765 327.718 158.831C327.718 159.13 327.703 159.426 327.674 159.719H268.033H268.029Z" fill="white"/>
<path d="M293.086 190.201V187.993H285.583V190.201H293.086Z" fill="#FACD49"/>
<path d="M301.407 187.774V240.225C301.407 243.69 298.598 246.501 295.136 246.501H284.221C280.759 246.501 277.95 243.69 277.95 240.225V187.774C277.95 184.313 280.759 181.498 284.221 181.498H295.136C298.598 181.498 301.407 184.309 301.407 187.774Z" fill="#F47458"/>
<path d="M289.678 246.497H295.971C298.974 246.497 301.407 245.17 301.407 243.537V184.459C301.407 182.825 299.701 181.498 296.698 181.498H289.678V246.497Z" fill="#B75742"/>
<path d="M290.727 220.686V205.544H287.954V220.686H290.727Z" fill="#1A1A1A"/>
<path d="M323.747 201.969V240.134C323.747 243.646 320.898 246.501 317.384 246.501H306.652C303.142 246.501 300.289 243.65 300.289 240.134V201.969C300.289 198.457 303.139 195.603 306.652 195.603H317.384C320.894 195.603 323.747 198.453 323.747 201.969Z" fill="#355389"/>
<path d="M312.021 246.497H318.315C321.318 246.497 323.75 245.459 323.75 244.18V197.92C323.75 196.641 321.318 195.603 318.315 195.603H312.021V246.501V246.497Z" fill="#7B74F3"/>
<path d="M315.434 202.412V200.683H307.931V202.412H315.434Z" fill="#FACD49"/>
<path d="M313.066 226.289V214.433H310.294V226.289H313.066Z" fill="#1A1A1A"/>
<path d="M201.027 247.334H199.902V258.752H201.027V247.334Z" fill="#13375B"/>
<path d="M336.918 247.334H335.793V258.752H336.918V247.334Z" fill="#13375B"/>
<path d="M210.407 223.018H287.881C291.68 223.018 294.763 226.103 294.763 229.904V239.604C294.763 243.405 291.68 246.49 287.881 246.49H210.407C206.608 246.49 203.525 243.405 203.525 239.604V229.904C203.525 226.103 206.608 223.018 210.407 223.018Z" fill="#B75742"/>
<path d="M294.759 234.754V228.457C294.759 225.452 292.899 223.018 290.602 223.018H207.678C205.384 223.018 203.521 225.452 203.521 228.457V234.754H294.755H294.759Z" fill="#91342A"/>
<path d="M218.213 231.34H215.115V238.847H218.213V231.34Z" fill="#FACD49"/>
<path d="M283.173 231.34H280.075V238.847H283.173V231.34Z" fill="#FACD49"/>
<path d="M258.531 233.705H237.276V236.479H258.531V233.705Z" fill="#1A1A1A"/>
<path d="M274.238 199.546H224.05C219.971 199.546 216.664 202.855 216.664 206.936V215.628C216.664 219.709 219.971 223.018 224.05 223.018H274.238C278.317 223.018 281.624 219.709 281.624 215.628V206.936C281.624 202.855 278.317 199.546 274.238 199.546Z" fill="#4E9B87"/>
<path d="M281.624 211.282V204.985C281.624 201.98 280.298 199.546 278.665 199.546H219.623C217.99 199.546 216.664 201.98 216.664 204.985V211.282H281.624Z" fill="#3C8F7C"/>
<path d="M225.358 207.868H223.151V215.376H225.358V207.868Z" fill="#FACD49"/>
<path d="M331.955 246.468L278.212 246.435L277.347 222.477H331.955C338.573 222.477 343.943 227.846 343.943 234.472C343.943 241.095 338.577 246.468 331.955 246.468Z" fill="#FAE0B2"/>
<path d="M289.678 234.472C289.678 241.095 284.732 246.468 278.636 246.468C272.54 246.468 267.594 241.099 267.594 234.472C267.594 227.846 272.54 222.477 278.636 222.477C284.732 222.477 289.678 227.846 289.678 234.472Z" fill="#FACD49"/>
<path d="M301.064 247.59L301.053 247.583C300.556 247.199 300.461 246.493 300.823 245.982C304.461 240.839 305.473 235.364 303.833 229.696C302.919 226.541 301.382 224.136 300.516 222.949C300.165 222.466 300.242 221.797 300.688 221.399L300.699 221.388C301.21 220.931 302.003 221.019 302.408 221.571C303.383 222.905 305.034 225.503 306.05 228.95C307.365 233.416 307.799 240.152 302.729 247.334C302.346 247.879 301.59 247.999 301.064 247.59Z" fill="#F47458"/>
<path d="M320.707 247.59L320.696 247.583C320.2 247.199 320.105 246.493 320.466 245.982C324.104 240.839 325.116 235.364 323.476 229.696C322.563 226.541 321.025 224.136 320.159 222.949C319.809 222.466 319.885 221.797 320.331 221.399L320.342 221.388C320.853 220.931 321.646 221.019 322.052 221.571C323.027 222.905 324.678 225.503 325.693 228.95C327.008 233.416 327.443 240.152 322.373 247.334C321.989 247.879 321.233 247.999 320.707 247.59Z" fill="#F47458"/>
<g style="mix-blend-mode:multiply">
<path d="M287.772 232.331C287.183 228.552 285.142 226.647 283.534 225.715C281.142 224.33 278.066 224.133 275.308 225.193C272.686 226.201 270.589 228.497 269.837 231.187C269.168 233.581 269.665 236.011 271.232 238.04C273.866 241.442 277.906 240.905 279.878 240.054C281.668 239.279 283.008 237.448 283.297 235.386C283.531 233.716 282.778 232.108 281.328 231.179C279.871 230.247 278.085 230.24 276.66 231.161C275.623 231.83 274.593 233.153 275.568 235.653L276.36 235.346C275.736 233.745 275.988 232.608 277.124 231.877C278.264 231.139 279.703 231.147 280.875 231.896C282.04 232.638 282.647 233.932 282.46 235.266C282.212 237.042 281.069 238.613 279.546 239.271C277.8 240.028 274.224 240.51 271.908 237.521C270.114 235.203 270.239 232.923 270.659 231.417C271.331 229.016 273.274 226.885 275.615 225.986C278.139 225.017 280.941 225.189 283.114 226.45C285.189 227.652 286.511 229.732 286.939 232.462C287.49 236.018 286.825 238.855 284.959 240.89C281.452 244.714 274.026 244.659 272.752 244.619C273.215 244.936 273.701 245.218 274.205 245.459H274.271C276.532 245.459 282.267 245.079 285.584 241.468C287.636 239.231 288.374 236.157 287.779 232.331H287.772Z" fill="#F47458"/>
</g>
<path d="M273.372 207.868H271.166V215.376H273.372V207.868Z" fill="#FACD49"/>
<path d="M255.828 210.233H240.695V213.007H255.828V210.233Z" fill="#1A1A1A"/>
<path d="M235.874 198.546L210.325 247.011L211.055 247.397L236.604 198.931L235.874 198.546Z" fill="black"/>
<path d="M264.516 198.209L263.786 198.595L289.992 248.308L290.722 247.923L264.516 198.209Z" fill="black"/>
<path d="M318.473 194.928L317.709 195.24L338.943 247.381L339.707 247.07L318.473 194.928Z" fill="black"/>
<path d="M293.081 181.063L292.303 181.337L315.585 247.381L316.364 247.106L293.081 181.063Z" fill="black"/>
<path d="M342.149 246.435H194.901V247.985H342.149V246.435Z" fill="#13375B"/>
<path d="M91.4133 411.356C91.4133 411.356 203.77 430.014 205.118 429.202C206.466 428.395 221.015 365.574 221.015 365.574C221.015 365.574 128.101 348.86 126.596 348.86C125.091 348.86 104.884 365.037 104.614 366.115C104.344 367.193 91.4097 411.356 91.4097 411.356H91.4133Z" fill="#183658"/>
<path d="M434.15 427.316C436.846 427.587 572.913 424.67 572.913 424.67L562.674 393.348C562.674 393.348 543.812 364.807 533.843 365.329C523.875 365.848 464.585 356.228 454.35 363.33C444.119 370.431 434.958 364.77 430.107 381.754C425.256 398.739 421.472 400.643 425.252 410.88C429.029 421.118 434.15 427.32 434.15 427.32V427.316Z" fill="#183658"/>
<path d="M148.15 468.895C173.728 468.895 194.463 448.141 194.463 422.54C194.463 396.938 173.728 376.184 148.15 376.184C122.573 376.184 101.838 396.938 101.838 422.54C101.838 448.141 122.573 468.895 148.15 468.895Z" fill="#1A1A1A"/>
<path d="M148.151 454.794C165.948 454.794 180.375 440.353 180.375 422.539C180.375 404.726 165.948 390.285 148.151 390.285C130.354 390.285 115.927 404.726 115.927 422.539C115.927 440.353 130.354 454.794 148.151 454.794Z" fill="#9E9DA2"/>
<path d="M148.151 444.111C160.053 444.111 169.701 434.453 169.701 422.54C169.701 410.626 160.053 400.968 148.151 400.968C136.248 400.968 126.6 410.626 126.6 422.54C126.6 434.453 136.248 444.111 148.151 444.111Z" fill="#D8D9DD"/>
<path d="M504.728 468.895C530.305 468.895 551.04 448.141 551.04 422.54C551.04 396.938 530.305 376.184 504.728 376.184C479.15 376.184 458.415 396.938 458.415 422.54C458.415 448.141 479.15 468.895 504.728 468.895Z" fill="#1A1A1A"/>
<path d="M504.728 454.794C522.525 454.794 536.952 440.353 536.952 422.539C536.952 404.726 522.525 390.285 504.728 390.285C486.931 390.285 472.504 404.726 472.504 422.539C472.504 440.353 486.931 454.794 504.728 454.794Z" fill="#9E9DA2"/>
<path d="M483.177 422.54C483.177 434.451 492.824 444.111 504.728 444.111C516.632 444.111 526.279 434.455 526.279 422.54C526.279 410.625 516.632 400.968 504.728 400.968C492.824 400.968 483.177 410.625 483.177 422.54Z" fill="#D8D9DD"/>
<path d="M611.054 378.421C607.138 352.588 594.482 347.161 557.041 339.668C515.726 331.401 463.273 304.438 463.273 304.438C463.273 304.438 373.818 260.583 351.902 255.55C329.986 250.518 276.098 251.958 230.833 252.316C185.566 252.674 158.981 265.258 135.987 283.233C112.994 301.207 73.1171 314.866 73.1171 314.866L65.8738 316.16C58.4223 317.49 52.998 323.974 52.998 331.547V395.654C52.998 402.913 57.8854 409.261 64.8985 411.114L91.0811 418.033C93.2143 418.402 95.1977 416.885 95.4315 414.733C98.2988 388.505 120.957 368.575 147.976 368.608C176.708 368.641 200.268 392.266 200.249 421.012C200.249 424.279 199.946 427.474 199.369 430.577C198.774 433.778 201.232 436.728 204.486 436.728H445.437C450.12 436.728 453.758 432.612 453.137 427.967C452.837 425.734 452.68 423.453 452.673 421.14C452.585 392.745 475.535 369.203 503.909 368.619C533.321 368.012 557.352 391.688 557.352 420.979C557.352 422.92 557.246 424.831 557.041 426.717C556.457 432.053 560.585 436.728 565.95 436.728H600.6C606.901 436.728 612.007 431.618 612.007 425.314V391.732C612.007 387.277 611.722 382.825 611.054 378.421Z" fill="#FACD49"/>
<path d="M54.5247 339.127H83.0632C85.5069 339.127 87.1652 341.616 86.2192 343.875L83.0121 351.528C79.9548 358.823 72.8211 363.571 64.9166 363.571H54.5247C52.4901 363.571 50.8428 361.923 50.8428 359.887V342.811C50.8428 340.776 52.4901 339.127 54.5247 339.127Z" fill="#CF283C"/>
<path d="M565.662 350.991C581.375 353.4 599.475 368.29 599.475 368.29C603.799 372.942 600.227 380.493 593.89 380.091L563.247 378.154C556.884 377.752 551.456 373.396 549.681 367.266C546.7 356.97 549.235 348.473 565.662 350.987V350.991Z" fill="#EAFCFC"/>
<path d="M53.166 398.037C51.2008 397.989 49.8092 399.963 50.5324 401.791C52.5816 406.959 56.9794 411.019 62.5973 412.507L91.9321 420.262C94.321 420.676 96.5418 418.976 96.8048 416.564C97.3491 411.593 98.5325 406.831 100.264 402.339C100.852 400.818 99.7452 399.177 98.1161 399.137L53.1623 398.041L53.166 398.037Z" fill="#FEB546"/>
<path d="M557.6 410.12C555.372 410.065 553.651 412.021 553.936 414.236C554.254 416.695 554.418 419.199 554.418 421.746C554.418 423.899 554.301 426.023 554.071 428.113C553.425 434.034 558.005 439.221 563.956 439.221H602.4C609.391 439.221 615.057 433.552 615.057 426.556V416.6C615.057 413.779 612.807 411.469 609.987 411.399L557.596 410.12H557.6Z" fill="#FEB546"/>
<g style="mix-blend-mode:multiply" opacity="0.5">
<path d="M463.339 319.281C462.828 319 411.898 291.04 378.121 275.386C344.681 259.889 307.35 261.53 305.743 261.614C301.455 261.515 212.143 259.578 184.689 268.142C157.031 276.767 121.008 316.061 119.488 317.731L119.068 318.192L128.755 363.674L129.793 363.615C157.962 362.022 179.532 369.525 192.152 385.311C201.692 397.24 202.872 409.842 202.883 409.967L202.975 411.048L304.549 413.662V413.669L305.721 413.691L306.974 413.724V413.717L448.505 416.48L448.524 415.263C449.232 369.244 463.77 321.182 463.92 320.703L464.208 319.76L463.343 319.285L463.339 319.281ZM205.166 408.676C204.677 405.263 202.536 394.463 194.124 383.893C185.058 372.5 166.711 359.368 130.691 361.133L121.698 318.905C125.87 314.42 159.946 278.394 185.409 270.451C210.886 262.506 293.635 263.803 304.545 264.011V411.228L205.166 408.673V408.676ZM446.117 414.002L306.971 411.286V263.993C313.516 263.803 346.938 263.609 377.102 277.586C408.391 292.089 454.474 317.194 461.315 320.937C459.288 327.877 446.99 371.594 446.117 414.002Z" fill="#FEB546"/>
</g>
<g style="mix-blend-mode:multiply" opacity="0.5">
<path d="M50.5325 401.794C52.5816 406.962 56.9795 411.023 62.5973 412.51L91.9322 420.266C94.321 420.679 96.5419 418.98 96.8049 416.567C97.0131 414.649 97.3236 412.763 97.718 410.91L50.5288 401.798L50.5325 401.794Z" fill="#FEB546"/>
</g>
<g style="mix-blend-mode:multiply" opacity="0.5">
<path d="M554.349 424.469C554.294 425.694 554.203 426.907 554.072 428.113C553.425 434.034 558.006 439.22 563.956 439.22H602.401C609.392 439.22 615.057 433.552 615.057 426.556V424.469H554.346H554.349Z" fill="#FEB546"/>
</g>
<path d="M454.948 424.469C454.941 421.845 455.127 419.261 455.496 416.732C455.938 413.695 453.673 410.939 450.609 410.866L199.993 404.744C197.261 404.678 195.289 407.288 196.034 409.919C197.334 414.513 198.032 419.349 198.028 424.338C198.028 427.645 197.721 430.88 197.144 434.02C196.538 437.298 199.011 440.335 202.342 440.335H447.584C452.395 440.335 456.033 436.077 455.405 431.304C455.112 429.067 454.955 426.783 454.948 424.469Z" fill="#F4B043"/>
<g style="mix-blend-mode:multiply" opacity="0.5">
<path d="M454.948 424.469C454.948 424.425 454.948 424.382 454.948 424.341H198.025C198.025 427.649 197.718 430.884 197.141 434.023C196.534 437.302 199.007 440.339 202.338 440.339H447.581C452.391 440.339 456.029 436.081 455.401 431.308C455.109 429.071 454.952 426.787 454.945 424.473L454.948 424.469Z" fill="#FEB546"/>
</g>
<path d="M149.126 323.583L287.629 324.891C287.629 324.891 296.107 324.665 297.261 316.682C298.416 308.7 298.317 274.516 298.317 274.516C298.317 274.516 297.313 267.652 290.741 267.564C286.749 267.509 253.287 265.119 220.741 269.084C194.193 272.319 169.632 284.453 151.011 303.09L141.178 312.929C141.178 312.929 134.548 323.444 149.126 323.583Z" fill="#EAFCFC"/>
<path d="M313.731 278.85V314.694C313.731 319.35 317.3 323.177 321.818 323.36L430.647 327.738C433.145 327.837 435.593 326.708 437.024 324.599C438.979 321.719 439.205 316.978 429.452 310.626C412.493 299.577 369.347 275.678 353.385 273.364C343.227 271.891 329.935 271.252 321.61 270.981C317.296 270.842 313.728 274.406 313.728 278.854L313.731 278.85Z" fill="#EAFCFC"/>
<path d="M169.647 306.862C169.647 306.862 259.894 296.577 261.826 298.36C263.762 300.144 276.302 329.507 278.578 337.537L172.284 336.532L164.8 325.238L169.647 306.862Z" fill="#B75742"/>
<path d="M360.99 314.932C360.99 314.932 369.296 324.767 371.652 335.381L369.037 339.632L363.796 334.072L360.99 314.935V314.932Z" fill="#263D60"/>
<path d="M369.855 289.135C368.266 278.755 358.886 271.288 349.075 276.325C346.868 277.458 343.88 279.757 342.357 281.716C338.237 287.012 337.185 293.55 332.93 298.689C334.493 299.877 336.381 301.12 338.635 302.319L341.287 298.781L340.374 303.196C346.96 306.35 356.259 308.956 368.982 308.883C370.582 301.672 370.706 294.672 369.858 289.135H369.855Z" fill="#1A1A1A"/>
<path d="M347.847 311.975C347.847 311.975 338.409 311.375 334.676 315.44C330.943 319.508 342.956 351.671 343.636 356.846C344.315 362.022 338.065 372.339 338.065 372.339C338.065 372.339 364.036 384.499 370.373 380.311C370.373 380.311 369.358 338.835 368.679 335.14C367.999 331.445 362.341 316.408 360.986 314.932C359.627 313.451 347.847 311.975 347.847 311.975Z" fill="#355389"/>
<path d="M350.989 299.376C350.989 299.376 350.942 299.654 350.854 300.126C350.434 302.392 348.812 309.913 347.716 311.982C346.394 314.482 352.246 322.45 357.878 321.478C359.555 321.189 356.461 314.157 356.611 313.411C356.896 311.986 357.283 310.041 357.677 308.046C357.9 306.92 358.127 305.78 358.338 304.709C358.941 301.661 359.431 299.168 359.431 299.168L350.993 299.38L350.989 299.376Z" fill="#F7A491"/>
<path d="M170.316 308.594C170.224 307.973 169.987 307.392 169.647 306.858L156.234 320.286C156.234 320.286 146.146 336.284 168.328 336.492L174.432 336.55L170.319 308.594H170.316Z" fill="#B75742"/>
<path opacity="0.3" d="M350.854 300.126C350.942 299.654 350.989 299.376 350.989 299.376L359.427 299.164C359.427 299.164 358.934 301.657 358.335 304.705C358.123 305.772 357.9 306.905 357.677 308.024C356.373 307.834 355.014 307.198 353.648 306.006C352.162 304.705 351.186 303.141 350.595 301.471C350.701 300.937 350.785 300.476 350.85 300.126H350.854Z" fill="#F47458"/>
<path d="M356.669 280.206C356.669 280.206 352.691 279.746 350.197 282.969C347.702 286.193 345.017 296.156 351.208 301.577C357.403 306.993 363.522 300.86 364.428 294.358C365.337 287.856 365.688 279.972 356.666 280.206H356.669Z" fill="#F7A491"/>
<path d="M366.264 294.263C365.526 295.7 364.284 296.493 363.492 296.039C362.699 295.583 362.659 294.051 363.397 292.615C364.135 291.178 365.376 290.382 366.169 290.839C366.962 291.292 367.002 292.827 366.264 294.263Z" fill="#F7A491"/>
<path d="M357.115 279.143C357.115 279.143 351.8 288.62 347.997 289.059C344.195 289.497 343.698 294.534 343.698 294.534C343.698 294.534 345.057 282.929 348.823 280.693C352.585 278.456 357.118 279.146 357.118 279.146L357.115 279.143Z" fill="#1A1A1A"/>
<path d="M348.995 291.438C349.305 293.119 348.681 294.665 347.607 294.884C346.529 295.107 345.408 293.92 345.097 292.238C344.787 290.557 345.411 289.011 346.485 288.792C347.563 288.572 348.684 289.757 348.995 291.438Z" fill="#F7A491"/>
<path d="M335.626 357.99C335.604 357.902 339.18 342.698 340.626 339.339C342.073 335.977 347.687 320.367 347.687 320.367L340.418 318.777C340.418 318.777 335.732 330.995 333.591 336.518C331.454 342.04 332.368 352.223 332.273 355.099C332.273 355.139 331.958 357.53 331.958 357.57C331.885 357.888 331.82 358.155 331.787 358.206C331.699 358.345 331.451 359.31 331.44 359.394C331.429 359.478 331.213 359.803 331.129 359.942C331.042 360.081 330.844 362.036 330.801 362.35C330.757 362.665 330.896 363.377 330.896 363.377L330.819 364.686C330.764 365.647 331.758 365.391 331.758 365.391C331.736 365.845 331.893 366.082 332.145 366.166C332.4 366.25 332.7 366.177 332.747 366.199C332.795 366.217 332.813 366.36 332.813 366.36C332.788 366.649 333.113 366.872 333.321 366.912C333.529 366.952 333.905 366.813 334.011 366.689C334.117 366.565 334.19 366.583 334.19 366.583C334.402 366.766 335.213 366.755 335.403 366.495C335.589 366.232 335.761 364.85 335.845 364.73C335.929 364.606 336.112 364.394 336.137 364.193C336.163 363.992 336.828 362.577 336.868 362.296C336.904 362.014 336.495 361.06 336.404 360.49C336.313 359.92 335.757 359.032 335.622 358.776C335.571 358.677 335.586 358.348 335.622 357.99H335.626Z" fill="#F48C7F"/>
<path d="M359.635 297.509L353.527 297.191C353.527 297.191 353.549 299.519 356.23 299.738C359.499 300.001 359.635 297.509 359.635 297.509Z" fill="white"/>
<path d="M326.202 302.176L323.992 316.799C323.992 316.799 332.061 334.211 336.879 332.702C340.922 331.434 338.435 316.028 338.435 316.028C338.435 316.028 336.232 307.753 336.894 303.612C337.555 299.471 326.202 302.176 326.202 302.176Z" fill="#F7A491"/>
<path d="M336.894 303.612C337.555 299.471 326.202 302.176 326.202 302.176L326.02 303.389C326.352 304.201 326.757 304.895 327.25 305.429C329.785 308.17 333.749 309.815 337.175 309.939C336.832 307.706 336.62 305.316 336.894 303.616V303.612Z" fill="#F47458"/>
<path d="M324.339 281.486C324.018 281.369 321.768 298.141 326.038 302.757C330.308 307.373 338.632 308.883 341.617 305.246C344.919 301.226 344.754 283.2 338.11 278.452C331.47 273.704 324.336 281.486 324.336 281.486H324.339Z" fill="#F7A491"/>
<path d="M335.586 269.479C330.454 270.532 327.126 273.679 325.906 275.024C323.576 275.301 320.409 276.592 317.136 282.03C313.114 288.715 316.084 296.124 320.767 299.76C325.45 303.393 325.384 307.593 325.384 307.593L326.125 305.422C326.673 303.777 326.896 302.034 326.714 300.308C326.604 299.274 326.385 298.152 325.957 297.235C324.832 294.808 328.375 293.196 329.369 291.175C330.136 289.621 330.173 286.062 331.378 283.492L332.817 281.529C332.817 281.529 336.141 278.934 339.392 279.665C342.643 280.396 342.175 268.134 335.59 269.483L335.586 269.479Z" fill="#13375B"/>
<path d="M329.15 294.157C329.183 296.204 328.259 297.878 327.079 297.9C325.903 297.918 324.92 296.277 324.888 294.23C324.855 292.184 325.779 290.51 326.959 290.488C328.135 290.466 329.117 292.11 329.15 294.157Z" fill="#F7A491"/>
<path d="M336.086 298.887L342.526 298.55C342.526 298.55 342.504 301.014 339.677 301.244C336.228 301.525 336.086 298.887 336.086 298.887Z" fill="white"/>
<path d="M322.17 316.215C322.761 315.111 323.861 314.369 325.11 314.259C330.52 313.773 345.386 313.766 352.976 326.912C354.175 328.985 355.033 331.236 355.65 333.546L357.246 340.132L318.122 338.86L318.188 334.511C317.79 328.162 319.171 321.825 322.17 316.215Z" fill="#3C8F7C"/>
<path d="M415.101 342.534L420.781 319.453C421.161 317.907 420.219 316.346 418.674 315.962C417.129 315.582 415.569 316.525 415.185 318.071L409.231 342.267L415.101 342.534Z" fill="#1A1A1A"/>
<path d="M400.424 341.868C402.032 340.863 403.336 340.037 404.216 339.504C404.282 339.463 408.376 337.497 408.442 337.461C409.019 337.249 409.509 337.08 409.622 337.08C409.932 337.073 411.711 336.474 411.854 336.408C411.996 336.342 412.73 336.342 413.041 336.335C413.351 336.328 416.639 334.632 417.179 334.372C417.724 334.116 418.702 333.159 418.702 333.159L420.847 331.931C422.421 331.032 420.996 329.716 420.996 329.716C421.738 329.288 421.95 328.791 421.822 328.301C421.694 327.812 421.267 327.41 421.248 327.315C421.23 327.219 421.435 327.044 421.435 327.044C421.917 326.788 421.931 326.046 421.782 325.673C421.632 325.297 421.026 324.851 420.719 324.811C420.412 324.774 420.364 324.635 420.364 324.635C420.43 324.113 419.583 322.837 418.976 322.808C418.37 322.782 416.014 323.934 415.733 323.926C415.452 323.919 414.929 323.853 414.586 324.014C414.243 324.175 411.324 324.581 410.838 324.811C410.352 325.041 409.275 326.671 408.468 327.406C407.66 328.137 406.831 329.931 406.568 330.407C406.466 330.593 405.936 330.904 405.33 331.218C405.235 331.317 387.395 337.764 376.839 340.918L400.428 341.868H400.424Z" fill="#F7A491"/>
<path d="M344.809 339.632C343.705 332.991 342.339 326.013 340.878 322.79C337.671 315.725 326.845 311.514 321.537 315.907C318.703 318.25 319.926 329.409 322.337 339.039L344.805 339.632H344.809Z" fill="#50BFA5"/>
<path d="M187.575 301.186C187.575 301.186 174.319 300.857 169.815 303.839C165.312 306.821 165.863 336.481 165.863 336.481L170.235 337.311C170.235 337.311 171.821 357.72 175.207 358.787C178.593 359.851 200.856 353.019 205.48 347.274C210.105 341.528 195.684 299.212 195.684 299.212L187.571 301.182L187.575 301.186Z" fill="#3C8F7C"/>
<path d="M211.142 277.663C212.296 274.077 213.07 263.255 213.322 259.578C213.143 259.315 212.179 257.732 212.281 254.655C212.354 252.477 210.835 248.873 212.226 249.118C213.622 249.363 213.695 253.142 214.531 252.491C215.368 251.841 215.751 243.931 217.015 244.151C218.279 244.37 217.421 251.822 218.169 251.238C218.918 250.656 218.951 243.785 220.737 244.1C222.523 244.41 219.948 252.181 220.909 252.345C221.869 252.513 223.363 247.575 224.803 247.828C226.242 248.08 222.439 254.476 222.878 254.132C223.32 253.789 226.381 251.175 226.892 251.76C227.469 252.422 220.376 259.9 220.354 261.866C220.945 266.851 222.122 275.883 220.514 281.559C218.549 288.503 213.508 303.934 213.508 303.934L202.77 301.379C202.77 301.379 209.772 281.913 211.142 277.663Z" fill="#F7A491"/>
<path d="M215.715 253.949C216.241 254.187 216.683 254.553 217.066 254.969C217.107 255.053 218.447 256.318 218.107 258.376C217.87 257.115 217.603 255.718 215.719 253.949H215.715Z" fill="#F48C7F"/>
<path d="M147.033 306.997C147.033 306.997 147.307 305.268 145.871 302.596C144.951 300.882 144.673 297.392 143.709 298.145C142.745 298.894 144.195 301.949 143.296 301.763C142.401 301.577 138.96 295.4 138.087 296.08C137.214 296.759 140.831 302.381 140.031 302.213C139.231 302.044 136.469 296.558 135.235 297.523C134 298.485 139.052 303.675 138.387 304.19C137.726 304.705 134.621 301.35 133.627 302.125C132.634 302.9 138.073 306.503 137.602 306.405C137.13 306.306 133.759 305.436 133.605 306.109C133.43 306.865 140.469 309.087 141.269 310.652C142.069 312.216 154.174 327.833 157.629 327.841C161.088 327.848 176.616 317.333 177.745 313.912C178.873 310.491 177.467 306.865 175.202 306.394C172.938 305.922 158.462 316.35 157.75 316.204C157.038 316.054 147.033 306.997 147.033 306.997Z" fill="#F7A491"/>
<path d="M143.439 303.21C143.1 303.678 142.895 304.212 142.771 304.764C142.774 304.859 142.238 306.62 143.549 308.24C143.132 307.026 142.676 305.681 143.439 303.207V303.21Z" fill="#F48C7F"/>
<path d="M179.75 328.553C179.75 328.553 193.693 339.646 195.234 341.909C196.389 343.601 192.557 362.679 192.557 362.679C192.557 362.679 187.045 362.851 184.521 360.892C184.521 360.892 186.029 347.705 185.365 347.19C184.704 346.674 169.402 339.865 169.402 339.865L170.37 332.044L179.75 328.55V328.553Z" fill="#B75742"/>
<path d="M206.499 288.638C206.499 288.638 208.91 289.088 217.158 298.097L207.569 317.611L198.704 301.387L206.495 288.635L206.499 288.638Z" fill="#9BC1F9"/>
<path d="M190.946 302.399C190.946 302.399 197.247 300.992 199.453 299.91C201.663 298.828 222.081 346.971 216.935 348.67C206.181 352.219 178.26 361.605 178.26 361.605C178.26 361.605 177.456 358.816 178.468 353.736C180.225 344.942 179.644 325.319 179.276 321.887C179.06 319.869 167.145 325.706 167.145 325.706L162.451 310.491C162.451 310.491 176.05 305.856 180.612 304.391C181.887 303.982 190.946 302.399 190.946 302.399Z" fill="#9BC1F9"/>
<path d="M214.246 332.205C211.696 324.263 194.81 301.423 194.66 301.207L197.418 299.325C198.035 300.228 211.795 319.592 214.491 327.991L214.242 332.205H214.246Z" fill="#3C8F7C"/>
<path d="M177.621 346.945L175.871 344.726C175.988 344.631 187.742 335.213 188.06 324.774C188.382 314.226 179.885 304.095 179.798 303.992L181.949 302.158C182.329 302.604 191.238 313.207 190.884 324.858C190.526 336.624 178.147 346.528 177.621 346.945Z" fill="#3C8F7C"/>
<path d="M187.928 270.207C187.928 270.207 192.914 266.5 197.637 272.516C201.407 277.315 200.907 275.806 202.769 278.189C204.632 280.575 207.441 280.78 207.869 284.749C208.296 288.719 206.51 289.534 206.51 289.534C206.51 289.534 208.515 292.439 207.007 295.813C205.498 299.186 201.177 302.417 197.268 302.392C197.268 302.392 191.811 306.196 185.832 305.323C179.856 304.446 181.88 304.226 179.502 304.486C177.124 304.742 170.337 302.172 170.885 297.297C170.885 297.297 166.465 293.061 169.859 288.843C173.252 284.629 175.089 281.69 176.744 276.339C178.399 270.989 185.152 269.26 187.928 270.21V270.207Z" fill="#1A1A1A"/>
<path d="M194.602 297.6C194.602 297.6 195.146 304.647 195.877 305.235C196.607 305.824 197.645 306.818 196.856 308.598C196.067 310.378 191.742 309.76 189.678 309.014C187.698 308.298 186.299 306.715 186.299 306.715L186.084 295.488L194.602 297.604V297.6Z" fill="#F7A491"/>
<path d="M192.115 300.809C190.712 300.48 188.254 299.822 186.113 297.056L186.084 295.484L194.602 297.6C194.602 297.6 194.734 299.318 194.956 301.131C193.802 301.208 192.787 300.97 192.118 300.813L192.115 300.809Z" fill="#F48C7F"/>
<path d="M182.662 289.325C182.662 289.325 182.019 285.217 179.572 286.292C177.124 287.366 179.725 293.39 181.803 292.958C183.882 292.527 182.662 289.325 182.662 289.325Z" fill="#F7A491"/>
<path d="M190.299 273.353C190.299 273.353 194.255 272.838 196.615 275.707C198.975 278.576 202.123 287.154 199.431 293.602C196.736 300.045 192.301 299.007 190.475 298.58C188.645 298.152 185.018 297.161 182.643 291.661C180.269 286.164 180.171 273.24 190.303 273.353H190.299Z" fill="#F7A491"/>
<path d="M271.163 339.025L278.45 373.856L265.878 372.635L259.825 340.779L271.163 339.025Z" fill="#F7A491"/>
<path d="M273.322 340.048L259.825 340.779C259.825 340.779 258.821 331.456 258.591 326.993C258.313 321.58 258.412 314.588 259.073 314.705C260.928 315.03 263.449 315.915 265.023 317.863C270.469 324.592 273.326 340.048 273.326 340.048H273.322Z" fill="#5184CE"/>
<path d="M264.449 325.772C264.774 327.409 273.321 372.928 273.321 372.928C253.082 384.031 237.635 374.558 237.635 374.558C237.635 374.558 238.405 343.955 237.368 339.712C236.681 336.901 234.194 318.407 236.002 317.782C238.325 316.982 241.835 315.805 244.765 315.348C247.267 314.957 257.027 314.299 258.806 314.796C258.806 314.796 263.079 318.883 264.442 325.768L264.449 325.772Z" fill="#EAFCFC"/>
<path d="M257.196 282.344C257.196 282.344 265.381 282.22 264.705 289.004C264.705 289.004 270.795 291.372 266.736 296.865C266.736 296.865 271.068 302.772 263.529 308.441C263.529 308.441 261.528 316.372 252.991 312.582C252.991 312.582 250.467 314.467 246.975 311.946C243.483 309.424 243.027 307.929 243.027 307.929C243.027 307.929 235.301 306.463 236.364 299.354C236.364 299.354 232.306 295.893 238.435 291.544C238.435 291.544 238.322 281.793 246.603 283.108C246.603 283.108 251.439 275.667 257.199 282.344H257.196Z" fill="#13375B"/>
<path d="M244.374 298.309C244.151 300.038 243.026 301.321 241.857 301.171C240.688 301.021 239.921 299.497 240.144 297.768C240.367 296.039 241.492 294.757 242.661 294.906C243.83 295.056 244.597 296.58 244.374 298.309Z" fill="#F7A491"/>
<path d="M263.591 303.594C262.871 305.184 261.421 306.079 260.347 305.593C259.274 305.107 258.985 303.426 259.705 301.836C260.424 300.246 261.874 299.351 262.948 299.837C264.022 300.323 264.311 302.004 263.591 303.594Z" fill="#F7A491"/>
<path d="M253.729 308.872C253.718 308.996 254.412 313.451 254.784 315.805C254.923 316.682 254.419 317.534 253.586 317.845C251.358 318.671 247.019 319.731 244.286 316.858C244.038 316.595 243.921 316.236 243.958 315.875L245.09 305.447L253.732 308.872H253.729Z" fill="#F7A491"/>
<path d="M254.4 313.36C252.034 314.34 245.196 313.492 244.681 309.182L245.086 305.447L253.728 308.872C253.725 308.93 254.192 312 254.4 313.36Z" fill="#F48C7F"/>
<path d="M255.939 287.633C255.939 287.633 252.337 286.851 248.897 288.989C245.456 291.127 239.871 299.534 244.539 306.843C249.207 314.149 257.141 310.571 259.931 304.786C262.722 298.996 263.913 290.382 255.939 287.633Z" fill="#F7A491"/>
<path d="M253.71 305.718L248.918 305.443C248.918 305.443 248.925 307.271 251.029 307.454C253.593 307.677 253.71 305.721 253.71 305.721V305.718Z" fill="white"/>
<path d="M262.087 291.73C262.087 291.73 258.595 289.859 255.998 290.104C253.397 290.349 244.926 296.515 243.692 295.48C242.461 294.449 244.05 288.996 245.032 288.207C246.015 287.417 249.941 285.038 250.277 284.994C250.614 284.95 254.175 285.016 254.785 285.173C255.395 285.331 259.8 287.436 259.8 287.436L262.083 291.73H262.087Z" fill="#13375B"/>
<path d="M211.376 377.061C211.449 376.853 211.631 376.842 211.814 376.831C213.6 376.722 215.386 376.583 217.151 376.261C217.447 376.206 217.735 376.133 218.002 376.013C218.488 375.801 218.977 375.79 219.477 375.91C219.748 375.976 220.025 375.983 220.303 375.972C221.202 375.939 223.74 374.985 225.051 374.715C225.351 374.653 225.581 374.419 225.647 374.119C226.783 368.948 229.201 357.351 229.442 353.553C229.753 348.699 232.404 326.77 232.404 326.77L241.419 328.981C241.419 328.981 238.249 345.205 237.474 353.049C236.879 359.105 231.257 372.094 229.482 375.833C228.646 378.604 226.578 378.743 226.1 378.816C225.826 378.856 225.577 379.002 225.402 379.218C225.088 379.609 224.726 379.952 224.306 380.234C223.996 380.442 223.758 380.713 223.561 381.023C223.2 381.59 222.878 382.178 222.56 382.77C222.348 383.162 222.122 383.293 221.786 383.213C221.428 383.125 221.253 382.869 221.245 382.438C221.234 381.798 221.421 381.213 221.724 380.658C222.009 380.139 221.976 379.843 221.611 379.382C221.402 379.119 221.187 378.863 220.917 378.659C220.643 378.45 220.354 378.293 219.992 378.355C219.357 378.534 218.71 378.688 218.053 378.779L217.516 378.907C217.498 378.907 217.224 378.98 217.224 378.98C217.18 378.995 216.23 379.126 215.905 379.137C215.642 379.145 215.222 379.178 214.86 379.207C214.535 379.232 213.841 379.083 213.816 379.083C213.498 379.083 213.213 378.98 212.972 378.776C212.873 378.692 212.775 378.597 212.822 378.447C212.862 378.308 212.968 378.249 213.107 378.22C213.319 378.176 214.426 378.004 214.411 377.957C214.082 377.968 213.049 377.975 212.72 377.979C212.274 377.979 211.887 377.833 211.569 377.515C211.445 377.39 211.299 377.266 211.376 377.054V377.061Z" fill="#F7A491"/>
<path d="M226.389 339.971L239.451 346.291C239.451 346.291 241.5 336.693 243.03 330.761C244.345 325.659 237.836 316.584 235.67 317.826C230.819 320.604 226.389 339.975 226.389 339.975V339.971Z" fill="#5184CE"/>
<path d="M314.659 323.06L430.804 328.005C430.804 328.005 420.675 361.919 420.427 363.611C420.178 365.304 382.062 386.115 372.485 385.866C362.908 385.618 340.571 377.595 335.764 376.181C330.958 374.766 318.473 365.022 319.221 359.024C319.97 353.027 314.659 323.06 314.659 323.06Z" fill="#FACD49"/>
<path d="M316.92 334.781H348.085C348.856 334.781 349.476 335.407 349.476 336.174V338.868C349.476 339.639 348.852 340.26 348.085 340.26H316.92C316.149 340.26 315.528 339.635 315.528 338.868V336.174C315.528 335.407 316.153 334.781 316.92 334.781Z" fill="#FEB546"/>
<path opacity="0.6" d="M436.59 316.989L313.731 306.467V314.694C313.731 319.35 317.3 323.177 321.819 323.36L430.647 327.738C433.146 327.837 435.593 326.708 437.025 324.599C438.256 322.782 438.796 320.228 436.59 316.993V316.989Z" fill="#C5DDF9"/>
<path opacity="0.7" d="M313.731 306.467V305.286L436.152 316.383L436.59 316.989L313.731 306.467Z" fill="#C5DDF9"/>
<path opacity="0.2" d="M342.021 324.168L353.217 324.621L362.411 310.637L351.529 309.705L342.021 324.168Z" fill="white"/>
<path opacity="0.2" d="M361.889 324.968L370.834 311.357L366.7 311.003L357.63 324.796L361.889 324.968Z" fill="white"/>
<path d="M147.296 323.502L287.629 324.891L288.886 369.393C288.886 369.393 272.493 393.253 270.513 393.004C268.537 392.756 226.622 386.009 222.86 386.257C219.097 386.506 186.241 370.373 184.693 370.695C183.144 371.016 172.905 365.519 172.905 365.519L156.22 353.725L139.677 336.689L147.3 323.502H147.296Z" fill="#FACD49"/>
<path d="M144.542 332.04H175.707C176.478 332.04 177.099 332.665 177.099 333.433V336.126C177.099 336.894 176.474 337.519 175.707 337.519H144.542C143.771 337.519 143.15 336.894 143.15 336.126V333.433C143.15 332.662 143.775 332.04 144.542 332.04Z" fill="#FEB546"/>
<path d="M196.466 291.226L191.607 292.162C191.607 292.162 192.075 293.985 194.223 293.638C196.842 293.211 196.466 291.23 196.466 291.23V291.226Z" fill="white"/>
<path d="M181.423 286.57C181.423 286.57 192.385 281.544 193.47 273.671C194.555 265.802 184.459 273.317 184.459 273.317L180.375 277.239L181.42 286.57H181.423Z" fill="#1A1A1A"/>
<path d="M317.72 322.066C317.72 322.066 319.758 323.473 322.341 323.378C322.341 323.378 318.907 324.427 318.809 324.343C318.706 324.259 316.979 322.87 317.004 322.841C317.033 322.812 317.72 322.066 317.72 322.066Z" fill="#FACD49"/>
<path d="M328.302 271.237L342.021 272.107C342.021 272.107 339.775 268.386 338.822 268.386H331.593L328.302 271.237Z" fill="#FACD49"/>
<path d="M1098.21 476H4.95415C2.66391 476 0.804688 474.14 0.804688 471.848C0.804688 469.556 2.66391 467.696 4.95415 467.696H1098.22C1100.51 467.696 1102.37 469.556 1102.37 471.848C1102.37 474.14 1100.51 476 1098.22 476H1098.21Z" fill="#183658"/>
<path d="M794.821 231.315C800.483 232.831 801.426 254.662 801.426 254.662L819.368 252.604C819.368 252.604 816.098 229.838 806.62 220.324C797.145 210.811 773.194 216.626 764.091 222.55C754.985 228.475 758.937 236.019 758.937 236.019C758.937 236.019 789.16 229.802 794.821 231.315Z" fill="#13375B"/>
<path d="M812.855 249.491C813.794 270.225 819.602 272.063 819.719 272.352C819.839 272.374 824.478 275.945 829.614 271.223L827.908 269.49C827.174 270.239 826.056 270.916 824.986 271.215C822.601 271.837 821.056 270.649 820.869 270.59C820.745 270.488 819.525 269.753 818.915 268.745C815.935 264.757 814.514 254.395 814.112 249.447L812.859 249.491H812.855Z" fill="#355389"/>
<path d="M752.538 234.334C752.538 234.334 755.055 244.213 755.343 252.246C755.632 260.276 761.162 266.976 761.882 287.074C762.601 307.172 765.472 325.648 765.472 325.648C765.472 325.648 787.761 327.201 792.148 322.468C796.535 317.735 794.635 274.713 790.296 253.796C785.957 232.879 805.035 227.177 795.121 220.324C785.212 213.471 772.321 218.117 766.864 219.977C761.407 221.838 752.381 229.908 752.542 234.337L752.538 234.334Z" fill="#184655"/>
<path d="M789.343 250.96C789.343 250.96 791.973 267.009 789.997 283.258C788.017 299.512 791.169 331.576 791.169 331.576C791.169 331.576 807.771 343.173 812.651 333.966C813.568 332.238 815.759 311.697 815.957 303.108C816.165 293.985 814.912 262.129 814.488 251.804C814.401 249.64 813.758 247.535 812.629 245.689C809.002 239.761 800.674 226.636 797.777 226.183C793.997 225.591 787.36 233.767 789.347 250.956L789.343 250.96Z" fill="#FACD49"/>
<path d="M814.919 262.889C812.585 265.166 797.744 279.45 790.296 280.48C790.384 279.57 790.46 278.668 790.522 277.769C796.348 276.833 809.473 264.731 814.791 259.571C814.831 260.627 814.875 261.738 814.919 262.889Z" fill="#13375B"/>
<path d="M789.383 301.27C789.368 300.378 789.353 299.49 789.35 298.605C793.85 300.535 809.688 299.303 815.967 298.605C815.974 299.534 815.978 300.389 815.974 301.16C810.218 301.8 794.748 303.496 789.383 301.27Z" fill="#13375B"/>
<path d="M814.47 322.019C814.378 322.859 814.283 323.682 814.192 324.475C807.935 325.728 795.881 320.381 790.095 317.87C790.033 316.92 789.975 315.944 789.92 314.939C795.3 317.278 808.972 323.053 814.473 322.015L814.47 322.019Z" fill="#13375B"/>
<path d="M814.835 318.539C812.055 319.705 794.745 327.135 790.793 327.388C790.731 326.657 790.665 325.842 790.596 324.953C793.383 324.694 806.558 319.182 815.113 315.612C815.025 316.587 814.93 317.563 814.831 318.535L814.835 318.539Z" fill="#13375B"/>
<path d="M792.353 285.934H797.908C799.91 285.934 801.536 287.56 801.536 289.563V322.157C801.536 324.16 799.91 325.787 797.908 325.787H792.353C790.351 325.787 788.726 324.16 788.726 322.157V289.563C788.726 287.56 790.351 285.934 792.353 285.934Z" fill="#50BFA5"/>
<path d="M801.536 297.801H788.726V300.484H801.536V297.801Z" fill="#13375B"/>
<path d="M798.978 437.992C798.978 437.992 804.91 443.442 804.925 443.453C805.758 444.067 807.986 445.416 808.633 446.081C811.065 448.581 795.483 454.82 796.889 451.274C797.017 450.953 797.254 448.131 796.502 447.206C795.34 445.785 793.251 443.756 793.251 443.756L798.975 437.989L798.978 437.992Z" fill="#F7A491"/>
<path d="M796.896 451.231C796.896 451.231 800.242 449.447 801.761 448.332C803.281 447.217 803.471 443.884 804.837 443.394C806.342 442.857 812.657 449.319 812.657 449.319C812.657 449.319 800.311 462.743 793.85 467.221C792.458 468.186 790.77 467.879 790.175 467.89C787.892 467.93 793.305 458.226 796.896 451.231Z" fill="#184655"/>
<path d="M724.259 448.562C724.259 448.562 722.418 457.488 722.414 457.506C722.301 458.672 722.283 461.621 722.012 462.637C720.997 466.45 705.981 454.874 710.214 454.198C710.598 454.136 712.504 453.372 713.158 452.195C714.298 450.149 715.379 446.318 715.379 446.318L724.255 448.566L724.259 448.562Z" fill="#F7A491"/>
<path d="M710.269 454.173C710.269 454.173 713.926 456.402 715.88 457.239C717.834 458.076 721.406 455.755 722.67 456.804C724.058 457.959 721.797 468.178 721.797 468.178C721.797 468.178 696.104 461.362 690.64 457.824C688.473 456.424 701.441 454.714 710.269 454.173Z" fill="#184655"/>
<path d="M738.084 326.123L722.162 389.802L712.095 451.472L724.627 453.164C724.627 453.164 742.281 406.005 742.774 400.577C743.267 395.15 752.128 369.777 752.128 369.777L738.08 326.127L738.084 326.123Z" fill="#355389"/>
<path d="M775.243 318.751C775.243 318.751 774.052 379.81 775.035 385.482C776.017 391.158 802.693 439.568 802.693 439.568L793.715 449.334C793.715 449.334 755.551 405.058 753.867 401.151C751.23 395.029 738.212 325.995 738.212 325.995L775.247 318.747L775.243 318.751Z" fill="#13375B"/>
<path d="M672.694 220.631C673.979 223.208 674.144 224.469 674.472 224.944C674.86 225.507 683.246 229.078 683.246 229.078C683.246 229.078 707.898 239.768 709.246 240.302L736.795 240.097L741.12 253.668C741.12 253.668 711.124 253.098 709.553 252.795C707.982 252.491 676.259 234.22 673.417 232.7C673.417 232.7 669.384 232.115 666.86 231.665C664.336 231.216 662.535 230.397 661.98 229.918C660.899 228.986 661.673 227.85 661.783 227.47C661.005 225.836 662.236 225.31 662.269 225.247C662.342 225.112 661.958 224.765 662.101 223.961C662.221 223.267 662.831 223.146 663.043 222.78C662.572 221.03 663.971 220.909 664.46 220.997C664.95 221.085 668.997 221.998 669.476 222.108C670.107 222.254 670.232 222.159 670.334 221.728C670.615 220.555 669.998 218.607 670.06 217.784C670.14 216.673 671.017 216.103 671.324 216.245C671.598 216.373 671.645 218.522 672.694 220.624V220.631Z" fill="#F8A492"/>
<path d="M731.096 254.662C729.245 247.926 727.681 241.673 727.992 238.562C727.992 238.562 736.21 237.192 746.01 235.712C753.042 234.648 764.256 245.989 762.071 248.555C757.184 254.297 731.096 254.662 731.096 254.662Z" fill="#B75742"/>
<path d="M760.618 234.257C760.618 234.257 767.379 233.635 770.082 240.05C772.785 246.464 775.488 277.304 774.261 292.107C773.034 306.909 778.217 327.395 778.217 327.395C754.646 339.602 737.891 326.397 737.891 326.397C737.891 326.397 731.667 269.753 733.961 259.293C738.753 237.429 747.961 233.902 747.961 233.902L760.622 234.253L760.618 234.257Z" fill="#F47458"/>
<path d="M779.345 336.265C781.899 332.099 782.472 332.691 782.786 332.15C783.155 331.507 782.746 321.595 782.746 321.595C782.746 321.595 781.723 292.366 781.614 290.791L768.537 263.807L779.839 253.215C779.839 253.215 793.295 282.966 793.733 284.651C794.172 286.336 791.056 326.057 790.895 329.562C790.895 329.562 792.207 333.802 792.944 336.492C793.682 339.182 793.207 342.084 793.302 342.873C793.317 342.99 793.478 345.644 792.824 348.977C792.261 351.85 791.513 348.875 791.513 348.875C791.513 348.875 791.622 343.37 791.198 343.444C790.87 343.498 790.983 346.503 790.395 349.69C790.241 350.509 790.092 351.316 789.946 352.058C789.562 354.003 788.291 354.328 788.375 352.234C788.404 351.492 788.485 350.264 788.66 349.394C788.85 348.454 788.733 347.533 788.777 346.718C788.864 345.103 788.945 343.926 788.879 343.963C788.791 344.006 788.587 343.674 788.401 344.54C788.174 345.578 788.174 347.888 787.725 349.394C787.473 350.245 787.049 352.058 787.049 352.058C787.049 352.058 785.909 354.682 785.738 354.664C784.81 354.584 785.095 352.574 785.588 351.459C785.548 350.589 786.044 348.696 786.044 348.696C786.044 348.696 786.216 344.642 785.654 344.613C785.416 344.602 785.022 347.077 784.262 349.449C783.557 351.649 782.494 353.758 782.052 353.685C781.3 353.564 781.826 351.035 781.826 351.035C781.826 351.035 782.29 349.284 782.399 348.692C782.527 347.998 782.761 345.889 782.761 345.889C782.761 345.889 783.236 338.509 782.706 338.531C782.173 338.553 780.821 339.164 780.639 339.61C780.456 340.059 780.536 341.057 780.354 341.506C780.171 341.956 779.554 342.384 779.002 342.201C778.451 342.018 778.531 339.511 778.531 339.511C778.531 339.511 778.611 337.471 779.349 336.273L779.345 336.265Z" fill="#F8A492"/>
<path d="M785.405 261.109L770.59 272.608C770.59 272.608 764.048 266.365 760.76 259.461C757.433 252.473 761.484 234.056 765.027 235.002C772.946 237.122 785.409 261.106 785.409 261.106L785.405 261.109Z" fill="#B75742"/>
<path d="M757.79 220.558L760.007 235.182C760.007 235.182 751.909 252.59 747.077 251.08C743.022 249.812 745.517 234.41 745.517 234.41C745.517 234.41 747.727 226.139 747.066 221.998C746.401 217.857 757.79 220.562 757.79 220.562V220.558Z" fill="#F7A491"/>
<path d="M747.062 221.998C746.397 217.857 757.787 220.562 757.787 220.562L757.969 221.775C757.637 222.587 757.228 223.281 756.735 223.815C754.192 226.556 750.215 228.201 746.777 228.325C747.121 226.092 747.333 223.701 747.062 222.002V221.998Z" fill="#F47458"/>
<path d="M759.657 199.875C759.978 199.758 762.236 216.527 757.951 221.143C753.666 225.759 745.316 227.269 742.321 223.632C739.008 219.612 739.176 201.589 745.839 196.842C752.501 192.094 759.657 199.875 759.657 199.875Z" fill="#F7A491"/>
<path d="M748.374 187.869C753.524 188.918 756.859 192.068 758.086 193.41C760.424 193.687 763.602 194.978 766.886 200.416C770.922 207.101 767.941 214.509 763.244 218.142C758.546 221.775 758.612 225.975 758.612 225.975L757.871 223.804C757.323 222.159 757.1 220.416 757.283 218.691C757.392 217.656 757.615 216.534 758.042 215.617C759.171 213.19 755.617 211.578 754.62 209.557C753.853 208.004 753.816 204.444 752.604 201.874L751.157 199.912C751.157 199.912 747.822 197.317 744.56 198.048C741.298 198.779 741.77 186.516 748.377 187.865L748.374 187.869Z" fill="#184655"/>
<path d="M754.835 212.543C754.802 214.59 755.73 216.264 756.91 216.286C758.089 216.308 759.076 214.663 759.108 212.616C759.141 210.569 758.214 208.895 757.034 208.874C755.854 208.852 754.868 210.496 754.835 212.543Z" fill="#F7A491"/>
<path d="M752.161 265.258C751.851 252.517 752.643 235.006 764.785 230.039C769.124 228.219 774.424 230.266 778.442 231.761C773.511 231.07 768.861 232.974 766.458 234.319C756.464 239.377 756.541 253.862 756.902 265.144C757.812 293.514 779.538 290.506 779.538 290.506L780.046 292.395C780.046 292.395 771.886 295.075 761.472 289.936C753.169 285.835 752.161 265.254 752.161 265.254V265.258Z" fill="#184655"/>
<path d="M907.802 274.907L904 291.727C896.329 288.715 884.188 286.877 879.68 284.932C874.402 281.877 870.928 281.76 869.285 281.866C868.401 281.924 864.711 282.363 864.711 282.363L865.139 283.573C865.139 283.573 867.557 283.485 867.911 283.518C868.791 283.605 868.339 283.817 868.339 283.817C867.582 283.854 864.302 284.545 864.302 284.545C864.302 284.545 864.993 285.623 865.931 285.488C867.582 285.247 868.623 285.586 868.043 285.751C867.619 285.868 867.009 285.638 866.019 285.78C863.608 286.127 863.462 287.447 865.716 287.323C866.702 287.268 868.481 287.889 869.606 288.273C869.237 288.54 868.799 288.722 868.583 288.799C868.185 288.945 865.179 289.022 865.373 289.742C865.563 290.466 872.309 290.597 872.309 290.597L875.775 290.119L875.962 290.17C875.962 290.17 905.118 304.073 909.716 302.611C915.005 299.453 917.42 275.053 917.153 274.366L907.795 274.903L907.802 274.907Z" fill="#F0937F"/>
<path d="M917.928 258.719C917.928 258.719 909.552 252.206 905.125 284.596L920.255 288.817L926.026 276.647L917.924 258.719H917.928Z" fill="#B75742"/>
<path d="M908.362 230.916C910.079 219.725 920.193 211.68 930.775 217.112C933.156 218.332 936.378 220.81 938.022 222.923C942.54 228.727 943.636 235.924 948.428 241.505C952.56 246.318 963.587 245.408 968.734 249.11C973.884 252.813 977.493 259.45 977.493 267.389C977.493 276.266 975.491 285.692 968.613 291.303C961.739 296.917 951.968 298.313 943.42 295.937C934.873 293.558 927.539 287.732 922.257 280.594C916.979 273.459 913.245 265.634 910.616 257.155C907.679 247.692 907.251 238.149 908.362 230.92V230.916Z" fill="#184655"/>
<path d="M912.197 263.24C917.713 250.942 936.13 249.556 947.84 256.23C951.321 258.215 951.939 258.069 954.123 260.254C959.847 265.982 965.366 323.817 950.744 328.316C933.682 333.568 918.436 330.326 912.679 321.277C908.822 315.217 903.708 282.169 912.197 263.24Z" fill="#FACD49"/>
<path d="M911.258 445.569C911.258 445.569 910.367 455.291 910.955 458.46C911.032 458.884 911.207 459.421 911.408 460.013C912.011 461.79 910.359 467.217 910.359 467.217L888.22 467.298C887.015 467.301 887.822 466.537 888.801 465.836C890.408 464.688 891.701 463.931 896.815 461.537C897.148 461.38 898.364 460.631 898.802 460.371C899.913 459.714 901.034 458.665 902.002 457.616C903.613 455.869 903.858 447.302 903.858 447.302L911.258 445.565V445.569Z" fill="#F7A491"/>
<path d="M898.803 460.372C904.64 461.943 908.979 460.978 911.412 460.032C912.014 461.804 913.147 467.806 912.471 467.806C906.919 467.806 902.221 468.858 886.31 468.606C885.74 468.599 885.81 466.64 886.182 466.208C887.209 465.013 898.364 460.631 898.803 460.368V460.372Z" fill="#355389"/>
<path d="M939.026 330.162C939.026 330.162 938.712 344.039 934.738 352.924C930.866 361.579 912.339 382.928 907.415 395.387C908.939 402.416 913.121 412.291 912.818 420.083C912.474 428.91 912.989 452.269 912.989 452.269L903.047 452.583L890.003 392.31L909.658 327.278L918.578 311.485L939.029 330.162H939.026Z" fill="#184655"/>
<path d="M981.504 431.746C981.504 431.746 987.611 440.134 990.303 442.254C991.746 443.391 995.658 444.915 996.07 446.794C996.483 448.672 978.348 465.284 978.348 465.284C977.387 466.135 977.497 464.958 977.785 463.708C978.26 461.662 978.764 460.152 981.171 454.648C981.328 454.29 981.774 452.835 981.942 452.32C982.366 451.011 982.53 449.389 982.566 447.872C982.629 445.346 976.813 438.329 976.813 438.329L981.507 431.746H981.504Z" fill="#F7A491"/>
<path d="M981.941 452.316C987.705 449.472 990.492 445.653 991.774 443.19C993.498 444.184 998.141 446.304 997.736 446.896C994.529 451.552 991.197 457.345 978.318 468.317C977.858 468.708 975.966 466.446 975.962 465.839C975.944 464.165 981.777 452.831 981.945 452.312L981.941 452.316Z" fill="#355389"/>
<path d="M938.324 321.277C938.324 321.277 946.013 332.83 947.843 342.395C949.626 351.707 946.663 379.825 949.761 392.862C955.032 397.748 964.116 403.446 968.328 410.003C973.102 417.434 986.894 436.286 986.894 436.286L978.924 442.243L933.726 400.318L915.426 344.383L909.146 328.027L938.324 321.277Z" fill="#13375B"/>
<path d="M932.101 255.532C932.101 255.532 942.281 254.885 946.306 259.267C950.331 263.65 937.375 298.32 936.641 303.898C935.91 309.475 942.649 320.597 942.649 320.597C942.649 320.597 914.637 333.703 907.803 329.186C907.803 329.186 908.899 284.483 909.629 280.499C910.36 276.515 916.463 260.309 917.928 258.716C919.393 257.122 932.101 255.528 932.101 255.528V255.532Z" fill="#F47458"/>
<path d="M928.711 241.95C928.711 241.95 928.762 242.25 928.857 242.758C929.31 245.203 931.06 253.31 932.239 255.536C933.668 258.229 927.356 266.818 921.281 265.77C919.473 265.459 922.808 257.879 922.651 257.074C922.344 255.536 921.928 253.442 921.5 251.292C921.259 250.079 921.018 248.851 920.788 247.692C920.138 244.407 919.608 241.72 919.608 241.72L928.711 241.947V241.95Z" fill="#F7A491"/>
<path d="M928.861 242.762C928.766 242.254 928.715 241.954 928.715 241.954L919.612 241.728C919.612 241.728 920.142 244.414 920.792 247.7C921.019 248.847 921.26 250.072 921.501 251.278C922.907 251.069 924.375 250.39 925.847 249.103C927.451 247.7 928.503 246.015 929.138 244.213C929.025 243.639 928.934 243.142 928.861 242.766V242.762Z" fill="#F47458"/>
<path d="M921.8 222.342C921.8 222.342 926.092 221.848 928.78 225.321C931.469 228.793 934.369 239.535 927.688 245.375C921.008 251.216 914.407 244.604 913.428 237.597C912.449 230.587 912.069 222.09 921.8 222.346V222.342Z" fill="#F7A491"/>
<path d="M921.321 221.194C921.321 221.194 927.052 231.41 931.154 231.881C935.256 232.353 935.793 237.78 935.793 237.78C935.793 237.78 934.329 225.273 930.267 222.861C926.209 220.449 921.321 221.194 921.321 221.194Z" fill="#184655"/>
<path d="M930.076 234.447C929.744 236.26 930.413 237.923 931.574 238.164C932.736 238.402 933.945 237.126 934.281 235.309C934.613 233.497 933.945 231.834 932.783 231.592C931.622 231.355 930.413 232.63 930.076 234.447Z" fill="#F7A491"/>
<path d="M933.93 252.86C927.593 261.343 924.7 274.808 928.977 287.787C930.738 292.915 932.729 297.885 936.52 303.013C941.298 309.384 945.049 311.054 944.721 310.864L946.127 308.126C946.105 308.108 944.249 307.125 941.952 304.789C941.82 304.621 936.67 299.862 933.152 290.429C924.905 269.461 936.473 256.142 936.666 255.645C936.747 255.536 936.823 255.174 936.878 255.112L933.93 252.864V252.86Z" fill="#FACD49"/>
<path d="M908.493 304.654C910.397 279.267 920.927 257.524 921.044 257.385L918.177 257.151C918.045 257.308 914.962 258.997 912.029 266.025C909.611 271.829 906.883 280.948 906.839 292.593C906.832 295.005 908.493 304.65 908.493 304.65V304.654Z" fill="#FACD49"/>
<path d="M899.376 312.234L861.994 303.649V273.218L899.376 281.8V312.234Z" fill="white"/>
<path d="M864.12 286.157C867.546 286.661 866.118 285.371 863.875 284.139C865.344 284.629 865.607 284.311 865.567 283.894C865.519 283.39 862.728 281.537 861.987 281.632C861.304 281.72 861.344 284.084 861.556 284.775C861.589 285.184 861.64 285.649 861.629 286.149C861.596 287.56 861.607 287.841 861.713 288.393C861.877 289.241 862.71 289.234 863.864 289.49C865.468 289.673 865.797 288.711 863.587 287.863C863.817 287.896 865.903 288.273 866.133 287.765C866.352 287.279 865.629 286.906 864.116 286.157H864.12Z" fill="#F8A492"/>
<path d="M931.779 277.275L930.785 295.831C923.115 292.819 910.816 289.095 906.309 287.154C901.031 284.099 897.557 283.982 895.913 284.088C895.029 284.146 891.34 284.585 891.34 284.585C891.34 284.585 887.534 286.99 887.768 287.191C888.454 287.768 891.767 285.795 891.767 285.795C891.767 285.795 894.185 285.707 894.54 285.74C895.42 285.828 894.967 286.04 894.967 286.04C892.564 286.292 890.931 286.767 890.931 286.767C890.931 286.767 886.423 288.463 886.599 288.73C886.851 289.11 887.274 289.077 888.962 288.704C889.996 288.477 891.745 287.922 892.684 287.783C894.335 287.542 895.438 287.98 894.876 288.01C894.437 288.035 893.375 288.116 892.381 288.258C889.97 288.605 887.205 289.355 887.53 289.684C887.965 290.126 891.289 289.596 892.483 289.501C893.47 289.446 896.257 290.309 896.227 290.491C896.18 290.63 894.722 290.681 894.386 290.674C893.963 290.667 891.683 290.502 891.683 290.977C891.683 291.511 898.799 292.439 898.799 292.439L902.397 292.337L902.583 292.388C902.583 292.388 930.04 309.073 936.319 306.624C941.608 303.466 944.045 277.275 943.774 276.584L931.764 277.275H931.779Z" fill="#F8A492"/>
<path d="M946.645 258.295C949.206 264.425 946.035 281.694 946.035 281.694C946.035 281.694 932.363 279.739 929.518 277.962C929.518 277.962 933.353 261.501 933.623 260.488C934.854 255.905 938.127 254.914 940.333 254.49C943.803 253.822 946.641 258.295 946.641 258.295H946.645Z" fill="#B75742"/>
</svg>
