<svg width="1282" height="518" viewBox="0 0 1282 518" fill="none" xmlns="http://www.w3.org/2000/svg">
<path d="M414.024 345.623C414.024 345.623 520.011 211.28 583.046 211.711C646.08 212.142 714.748 300.2 804.451 375.407C904.977 459.686 773.713 463.224 766.137 463.918C758.562 464.613 497.189 455.373 492.831 450.826C488.474 446.276 418.685 388.006 418.685 388.006L414.024 345.627V345.623Z" fill="#B8D6F9"/>
<path d="M957.854 349.662H962.332V299.985H957.854V349.662Z" fill="#355389"/>
<path d="M960.089 203.616L974.711 321.841H945.471L960.089 203.616Z" fill="#3C8F7C"/>
<path d="M969.407 278.962L948.561 296.849L949.36 290.369L968.76 273.724L969.407 278.962Z" fill="#50BFA5"/>
<path d="M966.204 253.048L953.438 257.412L954.037 252.562L965.652 248.586L966.204 253.048Z" fill="#50BFA5"/>
<path d="M347.877 262.196L360.932 367.747H334.826L347.877 262.196Z" fill="#3C8F7C"/>
<path d="M370.872 277.697L380.814 358.083H360.933L370.872 277.697Z" fill="#3C8F7C"/>
<path d="M390.753 301.637L400.696 382.023H380.814L390.753 301.637Z" fill="#3C8F7C"/>
<path d="M323.459 285.767L336.51 391.317H310.404L323.459 285.767Z" fill="#3C8F7C"/>
<path d="M372.811 318.595C486.034 337.447 655.924 506.852 785.321 506.852C914.718 506.852 942.581 466.334 991.107 474.901C1039.63 483.468 1104.77 506.852 1104.77 506.852L143.202 509.696C143.202 509.696 259.584 299.743 372.807 318.595H372.811Z" fill="#7B74F3"/>
<path d="M782.655 269.221L795.709 374.771H769.604L782.655 269.221Z" fill="#3C8F7C"/>
<path d="M735.414 343.204L745.353 423.594H725.472L735.414 343.204Z" fill="#3C8F7C"/>
<path d="M758.236 292.792L771.287 398.342H745.182L758.236 292.792Z" fill="#3C8F7C"/>
<path d="M1123.38 391.16L1123.55 381.869C1123.55 374.98 1118.3 369.391 1111.81 369.391C1095.48 369.391 1082.23 383.47 1082.23 400.834V413.532C1082.23 419.094 1079.28 423.923 1074.95 426.346C1071.02 428.546 1068.62 432.943 1068.62 437.669V444.361C1068.62 451.608 1071.82 458.37 1077.14 462.906C1080.25 465.559 1082.24 469.631 1082.24 474.199V483.677C1082.24 494.155 1090.23 502.646 1100.09 502.646H1105.71C1115.57 502.646 1123.56 494.152 1123.56 483.677C1121.94 470.442 1125.86 462.803 1130.38 458.44C1137.04 452.021 1140.93 442.994 1140.93 433.444V432.106C1140.93 422.026 1136.55 412.589 1129.24 406.174C1126.01 403.342 1123.38 398.715 1123.38 391.164L1123.38 391.16Z" fill="#4E9B87"/>
<path d="M886.012 318.595C772.789 337.447 602.898 506.852 473.502 506.852C344.105 506.852 316.242 466.334 267.716 474.901C219.19 483.468 154.047 506.852 154.047 506.852L1115.62 509.696C1115.62 509.696 999.235 299.743 886.012 318.595Z" fill="#86B1F2"/>
<path d="M143.206 509.696C143.206 509.696 267.343 401.799 427.408 395.173C481.158 392.947 701.244 437.57 886.578 472.628C894.369 474.101 1088.61 510.003 1115.05 511.07L143.21 509.7L143.206 509.696Z" fill="#96D9C9"/>
<path opacity="0.5" d="M573.589 86.4903C571.704 78.2814 564.362 72.1558 555.585 72.1558C553.974 72.1558 552.411 72.3641 550.921 72.7515C546.588 63.4827 537.186 57.0574 526.283 57.0574C523.463 57.0574 520.746 57.485 518.189 58.2818C512.319 48.556 501.657 42.054 489.475 42.054C474.981 42.054 462.638 51.257 457.959 64.1406C454.65 62.2948 450.837 61.2386 446.778 61.2386C434.074 61.2386 423.777 71.5418 423.777 84.2535C423.777 85.0065 423.817 85.752 423.887 86.4867H573.586L573.589 86.4903Z" fill="white"/>
<path opacity="0.5" d="M777.669 230.077C778.578 226.122 782.114 223.173 786.34 223.173C787.115 223.173 787.867 223.272 788.587 223.458C790.673 218.995 795.202 215.9 800.451 215.9C801.81 215.9 803.117 216.108 804.348 216.492C807.175 211.81 812.307 208.678 818.174 208.678C825.154 208.678 831.097 213.111 833.351 219.313C834.943 218.425 836.781 217.914 838.735 217.914C844.853 217.914 849.81 222.877 849.81 228.995C849.81 229.357 849.791 229.715 849.759 230.07H777.669V230.077Z" fill="white"/>
<path opacity="0.5" d="M651.1 178.649C649.986 173.792 645.639 170.166 640.445 170.166C639.491 170.166 638.567 170.29 637.683 170.517C635.119 165.031 629.556 161.23 623.105 161.23C621.436 161.23 619.829 161.482 618.317 161.957C614.843 156.2 608.535 152.355 601.324 152.355C592.748 152.355 585.442 157.801 582.674 165.429C580.716 164.336 578.459 163.711 576.055 163.711C568.538 163.711 562.441 169.808 562.441 177.333C562.441 177.779 562.463 178.221 562.507 178.656H651.1V178.649Z" fill="white"/>
<path opacity="0.5" d="M823.679 121.577C822.174 115.017 816.304 110.119 809.287 110.119C807.998 110.119 806.749 110.284 805.558 110.594C802.095 103.186 794.581 98.0545 785.87 98.0545C783.616 98.0545 781.446 98.398 779.401 99.034C774.711 91.2636 766.189 86.0663 756.451 86.0663C744.868 86.0663 735.002 93.4237 731.266 103.72C728.621 102.243 725.575 101.399 722.327 101.399C712.177 101.399 703.943 109.633 703.943 119.794C703.943 120.397 703.976 120.993 704.031 121.577H823.672H823.679Z" fill="white"/>
<path opacity="0.5" d="M341.029 201.719C341.782 198.448 344.708 196.006 348.203 196.006C348.846 196.006 349.467 196.09 350.062 196.244C351.79 192.552 355.534 189.99 359.877 189.99C360.999 189.99 362.083 190.162 363.103 190.48C365.44 186.606 369.688 184.014 374.543 184.014C380.318 184.014 385.234 187.68 387.097 192.815C388.416 192.081 389.935 191.66 391.553 191.66C396.616 191.66 400.718 195.765 400.718 200.831C400.718 201.13 400.703 201.426 400.674 201.719H341.033H341.029Z" fill="white"/>
<path d="M366.086 232.201V229.993H358.583V232.201H366.086Z" fill="#FACD49"/>
<path d="M374.407 229.774V282.225C374.407 285.69 371.598 288.501 368.136 288.501H357.221C353.759 288.501 350.95 285.69 350.95 282.225V229.774C350.95 226.313 353.759 223.498 357.221 223.498H368.136C371.598 223.498 374.407 226.309 374.407 229.774Z" fill="#F47458"/>
<path d="M362.678 288.497H368.971C371.974 288.497 374.407 287.17 374.407 285.537V226.459C374.407 224.825 372.701 223.498 369.698 223.498H362.678V288.497Z" fill="#B75742"/>
<path d="M363.727 262.686V247.544H360.954V262.686H363.727Z" fill="#1A1A1A"/>
<path d="M396.747 243.969V282.134C396.747 285.646 393.898 288.501 390.384 288.501H379.652C376.142 288.501 373.289 285.65 373.289 282.134V243.969C373.289 240.457 376.139 237.603 379.652 237.603H390.384C393.894 237.603 396.747 240.453 396.747 243.969Z" fill="#355389"/>
<path d="M385.021 288.497H391.315C394.318 288.497 396.75 287.459 396.75 286.18V239.92C396.75 238.641 394.318 237.603 391.315 237.603H385.021V288.501V288.497Z" fill="#7B74F3"/>
<path d="M388.434 244.412V242.683H380.931V244.412H388.434Z" fill="#FACD49"/>
<path d="M386.066 268.289V256.433H383.294V268.289H386.066Z" fill="#1A1A1A"/>
<path d="M274.027 289.334H272.902V300.752H274.027V289.334Z" fill="#13375B"/>
<path d="M409.918 289.334H408.793V300.752H409.918V289.334Z" fill="#13375B"/>
<path d="M283.407 265.018H360.881C364.68 265.018 367.763 268.103 367.763 271.904V281.604C367.763 285.405 364.68 288.49 360.881 288.49H283.407C279.608 288.49 276.525 285.405 276.525 281.604V271.904C276.525 268.103 279.608 265.018 283.407 265.018Z" fill="#B75742"/>
<path d="M367.759 276.754V270.457C367.759 267.452 365.899 265.018 363.602 265.018H280.678C278.384 265.018 276.521 267.452 276.521 270.457V276.754H367.755H367.759Z" fill="#91342A"/>
<path d="M291.213 273.34H288.115V280.847H291.213V273.34Z" fill="#FACD49"/>
<path d="M356.173 273.34H353.075V280.847H356.173V273.34Z" fill="#FACD49"/>
<path d="M331.531 275.705H310.276V278.479H331.531V275.705Z" fill="#1A1A1A"/>
<path d="M347.238 241.546H297.05C292.971 241.546 289.664 244.855 289.664 248.936V257.628C289.664 261.709 292.971 265.018 297.05 265.018H347.238C351.317 265.018 354.624 261.709 354.624 257.628V248.936C354.624 244.855 351.317 241.546 347.238 241.546Z" fill="#4E9B87"/>
<path d="M354.624 253.282V246.985C354.624 243.98 353.298 241.546 351.665 241.546H292.623C290.99 241.546 289.664 243.98 289.664 246.985V253.282H354.624Z" fill="#3C8F7C"/>
<path d="M298.358 249.868H296.151V257.376H298.358V249.868Z" fill="#FACD49"/>
<path d="M404.955 288.468L351.212 288.435L350.347 264.477H404.955C411.573 264.477 416.943 269.846 416.943 276.472C416.943 283.095 411.577 288.468 404.955 288.468Z" fill="#FAE0B2"/>
<path d="M362.678 276.472C362.678 283.095 357.732 288.468 351.636 288.468C345.54 288.468 340.594 283.099 340.594 276.472C340.594 269.846 345.54 264.477 351.636 264.477C357.732 264.477 362.678 269.846 362.678 276.472Z" fill="#FACD49"/>
<path d="M374.064 289.59L374.053 289.583C373.556 289.199 373.461 288.493 373.823 287.982C377.461 282.839 378.473 277.364 376.833 271.696C375.919 268.541 374.382 266.136 373.516 264.949C373.165 264.466 373.242 263.797 373.688 263.399L373.699 263.388C374.21 262.931 375.003 263.019 375.408 263.571C376.383 264.905 378.034 267.503 379.05 270.95C380.365 275.416 380.799 282.152 375.729 289.334C375.346 289.879 374.59 289.999 374.064 289.59Z" fill="#F47458"/>
<path d="M393.707 289.59L393.696 289.583C393.2 289.199 393.105 288.493 393.466 287.982C397.104 282.839 398.116 277.364 396.476 271.696C395.563 268.541 394.025 266.136 393.159 264.949C392.809 264.466 392.885 263.797 393.331 263.399L393.342 263.388C393.853 262.931 394.646 263.019 395.052 263.571C396.027 264.905 397.678 267.503 398.693 270.95C400.008 275.416 400.443 282.152 395.373 289.334C394.989 289.879 394.233 289.999 393.707 289.59Z" fill="#F47458"/>
<g style="mix-blend-mode:multiply">
<path d="M360.772 274.331C360.183 270.552 358.142 268.647 356.534 267.715C354.142 266.33 351.066 266.133 348.308 267.193C345.686 268.201 343.589 270.497 342.837 273.187C342.168 275.581 342.665 278.011 344.232 280.04C346.866 283.442 350.906 282.905 352.878 282.054C354.668 281.279 356.008 279.448 356.297 277.386C356.531 275.716 355.778 274.108 354.328 273.179C352.871 272.247 351.085 272.24 349.66 273.161C348.623 273.83 347.593 275.153 348.568 277.653L349.36 277.346C348.736 275.745 348.988 274.608 350.124 273.877C351.264 273.139 352.703 273.147 353.875 273.896C355.04 274.638 355.647 275.932 355.46 277.266C355.212 279.042 354.069 280.613 352.546 281.271C350.8 282.028 347.224 282.51 344.908 279.521C343.114 277.203 343.239 274.923 343.659 273.417C344.331 271.016 346.274 268.885 348.615 267.986C351.139 267.017 353.941 267.189 356.114 268.45C358.189 269.652 359.511 271.732 359.939 274.462C360.49 278.018 359.825 280.855 357.959 282.89C354.452 286.714 347.026 286.659 345.752 286.619C346.215 286.936 346.701 287.218 347.205 287.459H347.271C349.532 287.459 355.267 287.079 358.584 283.468C360.636 281.231 361.374 278.157 360.779 274.331H360.772Z" fill="#F47458"/>
</g>
<path d="M346.372 249.868H344.166V257.376H346.372V249.868Z" fill="#FACD49"/>
<path d="M328.828 252.233H313.695V255.007H328.828V252.233Z" fill="#1A1A1A"/>
<path d="M308.874 240.546L283.325 289.011L284.055 289.397L309.604 240.931L308.874 240.546Z" fill="black"/>
<path d="M337.516 240.209L336.786 240.595L362.992 290.308L363.722 289.923L337.516 240.209Z" fill="black"/>
<path d="M391.473 236.928L390.709 237.24L411.943 289.381L412.707 289.07L391.473 236.928Z" fill="black"/>
<path d="M366.081 223.063L365.303 223.337L388.585 289.381L389.364 289.106L366.081 223.063Z" fill="black"/>
<path d="M415.149 288.435H267.901V289.985H415.149V288.435Z" fill="#13375B"/>
<path d="M164.413 453.356C164.413 453.356 276.77 472.014 278.118 471.202C279.466 470.395 294.015 407.574 294.015 407.574C294.015 407.574 201.101 390.86 199.596 390.86C198.091 390.86 177.884 407.037 177.614 408.115C177.344 409.193 164.41 453.356 164.41 453.356H164.413Z" fill="#183658"/>
<path d="M507.15 469.316C509.846 469.587 645.913 466.67 645.913 466.67L635.674 435.348C635.674 435.348 616.812 406.807 606.843 407.329C596.875 407.848 537.585 398.228 527.35 405.33C517.119 412.431 507.958 406.77 503.107 423.754C498.256 440.739 494.472 442.643 498.252 452.88C502.029 463.118 507.15 469.32 507.15 469.32V469.316Z" fill="#183658"/>
<path d="M221.15 510.895C246.728 510.895 267.463 490.141 267.463 464.54C267.463 438.938 246.728 418.184 221.15 418.184C195.573 418.184 174.838 438.938 174.838 464.54C174.838 490.141 195.573 510.895 221.15 510.895Z" fill="#1A1A1A"/>
<path d="M221.151 496.794C238.948 496.794 253.375 482.353 253.375 464.539C253.375 446.726 238.948 432.285 221.151 432.285C203.354 432.285 188.927 446.726 188.927 464.539C188.927 482.353 203.354 496.794 221.151 496.794Z" fill="#9E9DA2"/>
<path d="M221.151 486.111C233.053 486.111 242.701 476.453 242.701 464.54C242.701 452.626 233.053 442.968 221.151 442.968C209.248 442.968 199.6 452.626 199.6 464.54C199.6 476.453 209.248 486.111 221.151 486.111Z" fill="#D8D9DD"/>
<path d="M577.728 510.895C603.305 510.895 624.04 490.141 624.04 464.54C624.04 438.938 603.305 418.184 577.728 418.184C552.15 418.184 531.415 438.938 531.415 464.54C531.415 490.141 552.15 510.895 577.728 510.895Z" fill="#1A1A1A"/>
<path d="M577.728 496.794C595.525 496.794 609.952 482.353 609.952 464.539C609.952 446.726 595.525 432.285 577.728 432.285C559.931 432.285 545.504 446.726 545.504 464.539C545.504 482.353 559.931 496.794 577.728 496.794Z" fill="#9E9DA2"/>
<path d="M556.177 464.54C556.177 476.451 565.824 486.111 577.728 486.111C589.632 486.111 599.279 476.455 599.279 464.54C599.279 452.625 589.632 442.968 577.728 442.968C565.824 442.968 556.177 452.625 556.177 464.54Z" fill="#D8D9DD"/>
<path d="M684.054 420.421C680.138 394.588 667.482 389.161 630.041 381.668C588.726 373.401 536.273 346.438 536.273 346.438C536.273 346.438 446.818 302.583 424.902 297.55C402.986 292.518 349.098 293.958 303.833 294.316C258.566 294.674 231.981 307.258 208.987 325.233C185.994 343.207 146.117 356.866 146.117 356.866L138.874 358.16C131.422 359.49 125.998 365.974 125.998 373.547V437.654C125.998 444.913 130.885 451.261 137.899 453.114L164.081 460.033C166.214 460.402 168.198 458.885 168.431 456.733C171.299 430.505 193.957 410.575 220.976 410.608C249.708 410.641 273.268 434.266 273.249 463.012C273.249 466.279 272.946 469.474 272.369 472.577C271.774 475.778 274.232 478.728 277.486 478.728H518.437C523.12 478.728 526.758 474.612 526.137 469.967C525.837 467.734 525.68 465.453 525.673 463.14C525.585 434.745 548.535 411.203 576.909 410.619C606.321 410.012 630.352 433.688 630.352 462.979C630.352 464.92 630.246 466.831 630.041 468.717C629.457 474.053 633.585 478.728 638.95 478.728H673.6C679.901 478.728 685.007 473.618 685.007 467.314V433.732C685.007 429.277 684.722 424.825 684.054 420.421Z" fill="#FACD49"/>
<path d="M127.525 381.127H156.063C158.507 381.127 160.165 383.616 159.219 385.875L156.012 393.528C152.955 400.823 145.821 405.571 137.917 405.571H127.525C125.49 405.571 123.843 403.923 123.843 401.887V384.811C123.843 382.776 125.49 381.127 127.525 381.127Z" fill="#CF283C"/>
<path d="M638.662 392.991C654.375 395.4 672.475 410.29 672.475 410.29C676.799 414.942 673.227 422.493 666.89 422.091L636.247 420.154C629.884 419.752 624.456 415.396 622.681 409.266C619.7 398.97 622.235 390.473 638.662 392.987V392.991Z" fill="#EAFCFC"/>
<path d="M126.166 440.037C124.201 439.989 122.809 441.963 123.532 443.791C125.582 448.959 129.979 453.019 135.597 454.507L164.932 462.262C167.321 462.676 169.542 460.976 169.805 458.564C170.349 453.593 171.533 448.831 173.264 444.339C173.852 442.818 172.745 441.177 171.116 441.137L126.162 440.041L126.166 440.037Z" fill="#FEB546"/>
<path d="M630.6 452.12C628.372 452.065 626.651 454.021 626.936 456.236C627.254 458.695 627.418 461.199 627.418 463.746C627.418 465.899 627.301 468.023 627.071 470.113C626.425 476.034 631.005 481.221 636.956 481.221H675.4C682.391 481.221 688.057 475.552 688.057 468.556V458.6C688.057 455.779 685.807 453.469 682.987 453.399L630.596 452.12H630.6Z" fill="#FEB546"/>
<g style="mix-blend-mode:multiply" opacity="0.5">
<path d="M536.339 361.281C535.828 361 484.898 333.04 451.121 317.386C417.681 301.889 380.35 303.53 378.743 303.614C374.455 303.515 285.143 301.578 257.689 310.142C230.031 318.767 194.008 358.061 192.488 359.731L192.068 360.192L201.755 405.674L202.793 405.615C230.962 404.022 252.532 411.525 265.152 427.311C274.692 439.24 275.872 451.842 275.883 451.967L275.975 453.048L377.549 455.662V455.669L378.721 455.691L379.974 455.724V455.717L521.505 458.48L521.524 457.263C522.232 411.244 536.77 363.182 536.92 362.703L537.208 361.76L536.343 361.285L536.339 361.281ZM278.166 450.676C277.677 447.263 275.536 436.463 267.124 425.893C258.058 414.5 239.711 401.368 203.691 403.133L194.698 360.905C198.87 356.42 232.946 320.394 258.409 312.451C283.886 304.506 366.635 305.803 377.545 306.011V453.228L278.166 450.673V450.676ZM519.117 456.002L379.971 453.286V305.993C386.516 305.803 419.938 305.609 450.102 319.586C481.391 334.089 527.474 359.194 534.315 362.937C532.288 369.877 519.99 413.594 519.117 456.002Z" fill="#FEB546"/>
</g>
<g style="mix-blend-mode:multiply" opacity="0.5">
<path d="M123.532 443.794C125.582 448.962 129.979 453.023 135.597 454.51L164.932 462.266C167.321 462.679 169.542 460.98 169.805 458.567C170.013 456.649 170.324 454.763 170.718 452.91L123.529 443.798L123.532 443.794Z" fill="#FEB546"/>
</g>
<g style="mix-blend-mode:multiply" opacity="0.5">
<path d="M627.349 466.469C627.294 467.694 627.203 468.907 627.072 470.113C626.425 476.034 631.006 481.22 636.956 481.22H675.401C682.392 481.22 688.057 475.552 688.057 468.556V466.469H627.346H627.349Z" fill="#FEB546"/>
</g>
<path d="M527.948 466.469C527.941 463.845 528.127 461.261 528.496 458.732C528.938 455.695 526.673 452.939 523.609 452.866L272.993 446.744C270.261 446.678 268.289 449.288 269.034 451.919C270.334 456.513 271.032 461.349 271.028 466.338C271.028 469.645 270.721 472.88 270.144 476.02C269.538 479.298 272.011 482.335 275.342 482.335H520.584C525.395 482.335 529.033 478.077 528.405 473.304C528.112 471.067 527.955 468.783 527.948 466.469Z" fill="#F4B043"/>
<g style="mix-blend-mode:multiply" opacity="0.5">
<path d="M527.948 466.469C527.948 466.425 527.948 466.382 527.948 466.341H271.025C271.025 469.649 270.718 472.884 270.141 476.023C269.534 479.302 272.007 482.339 275.338 482.339H520.581C525.391 482.339 529.029 478.081 528.401 473.308C528.109 471.071 527.952 468.787 527.945 466.473L527.948 466.469Z" fill="#FEB546"/>
</g>
<path d="M222.126 365.583L360.629 366.891C360.629 366.891 369.107 366.665 370.261 358.682C371.416 350.7 371.317 316.516 371.317 316.516C371.317 316.516 370.313 309.652 363.741 309.564C359.749 309.509 326.287 307.119 293.741 311.084C267.193 314.319 242.632 326.453 224.011 345.09L214.178 354.929C214.178 354.929 207.548 365.444 222.126 365.583Z" fill="#EAFCFC"/>
<path d="M386.731 320.85V356.694C386.731 361.35 390.3 365.177 394.818 365.36L503.647 369.738C506.145 369.837 508.593 368.708 510.024 366.599C511.979 363.719 512.205 358.978 502.452 352.626C485.493 341.577 442.347 317.678 426.385 315.364C416.227 313.891 402.935 313.252 394.61 312.981C390.296 312.842 386.728 316.406 386.728 320.854L386.731 320.85Z" fill="#EAFCFC"/>
<path d="M242.647 348.862C242.647 348.862 332.894 338.577 334.826 340.36C336.762 342.144 349.302 371.507 351.578 379.537L245.284 378.532L237.8 367.238L242.647 348.862Z" fill="#B75742"/>
<path d="M433.99 356.932C433.99 356.932 442.296 366.767 444.652 377.381L442.037 381.632L436.796 376.072L433.99 356.935V356.932Z" fill="#263D60"/>
<path d="M442.855 331.135C441.266 320.755 431.886 313.288 422.075 318.325C419.868 319.458 416.88 321.757 415.357 323.716C411.237 329.012 410.185 335.55 405.93 340.689C407.493 341.877 409.381 343.12 411.635 344.319L414.287 340.781L413.374 345.196C419.96 348.35 429.259 350.956 441.982 350.883C443.582 343.672 443.706 336.672 442.858 331.135H442.855Z" fill="#1A1A1A"/>
<path d="M420.847 353.975C420.847 353.975 411.409 353.375 407.676 357.44C403.943 361.508 415.956 393.671 416.636 398.846C417.315 404.022 411.065 414.339 411.065 414.339C411.065 414.339 437.036 426.499 443.373 422.311C443.373 422.311 442.358 380.835 441.679 377.14C440.999 373.445 435.341 358.408 433.986 356.932C432.627 355.451 420.847 353.975 420.847 353.975Z" fill="#355389"/>
<path d="M423.989 341.376C423.989 341.376 423.942 341.654 423.854 342.126C423.434 344.392 421.812 351.913 420.716 353.982C419.394 356.482 425.246 364.45 430.878 363.478C432.555 363.189 429.461 356.157 429.611 355.411C429.896 353.986 430.283 352.041 430.677 350.046C430.9 348.92 431.127 347.78 431.338 346.709C431.941 343.661 432.431 341.168 432.431 341.168L423.993 341.38L423.989 341.376Z" fill="#F7A491"/>
<path d="M243.316 350.594C243.224 349.973 242.987 349.392 242.647 348.858L229.234 362.286C229.234 362.286 219.146 378.284 241.328 378.492L247.432 378.55L243.319 350.594H243.316Z" fill="#B75742"/>
<path opacity="0.3" d="M423.854 342.126C423.942 341.654 423.989 341.376 423.989 341.376L432.427 341.164C432.427 341.164 431.934 343.657 431.335 346.705C431.123 347.772 430.9 348.905 430.677 350.024C429.373 349.834 428.014 349.198 426.648 348.006C425.162 346.705 424.186 345.141 423.595 343.471C423.701 342.937 423.785 342.476 423.85 342.126H423.854Z" fill="#F47458"/>
<path d="M429.669 322.206C429.669 322.206 425.691 321.746 423.197 324.969C420.702 328.193 418.017 338.156 424.208 343.577C430.403 348.993 436.522 342.86 437.428 336.358C438.337 329.856 438.688 321.972 429.666 322.206H429.669Z" fill="#F7A491"/>
<path d="M439.264 336.263C438.526 337.7 437.284 338.493 436.492 338.039C435.699 337.583 435.659 336.051 436.397 334.615C437.135 333.178 438.376 332.382 439.169 332.839C439.962 333.292 440.002 334.827 439.264 336.263Z" fill="#F7A491"/>
<path d="M430.115 321.143C430.115 321.143 424.8 330.62 420.997 331.059C417.195 331.497 416.698 336.534 416.698 336.534C416.698 336.534 418.057 324.929 421.823 322.693C425.585 320.456 430.118 321.146 430.118 321.146L430.115 321.143Z" fill="#1A1A1A"/>
<path d="M421.995 333.438C422.305 335.119 421.681 336.665 420.607 336.884C419.529 337.107 418.408 335.92 418.097 334.238C417.787 332.557 418.411 331.011 419.485 330.792C420.563 330.572 421.684 331.757 421.995 333.438Z" fill="#F7A491"/>
<path d="M408.626 399.99C408.604 399.902 412.18 384.698 413.626 381.339C415.073 377.977 420.687 362.367 420.687 362.367L413.418 360.777C413.418 360.777 408.732 372.995 406.591 378.518C404.454 384.04 405.368 394.223 405.273 397.099C405.273 397.139 404.958 399.53 404.958 399.57C404.885 399.888 404.82 400.155 404.787 400.206C404.699 400.345 404.451 401.31 404.44 401.394C404.429 401.478 404.213 401.803 404.129 401.942C404.042 402.081 403.844 404.036 403.801 404.35C403.757 404.665 403.896 405.377 403.896 405.377L403.819 406.686C403.764 407.647 404.758 407.391 404.758 407.391C404.736 407.845 404.893 408.082 405.145 408.166C405.4 408.25 405.7 408.177 405.747 408.199C405.795 408.217 405.813 408.36 405.813 408.36C405.788 408.649 406.113 408.872 406.321 408.912C406.529 408.952 406.905 408.813 407.011 408.689C407.117 408.565 407.19 408.583 407.19 408.583C407.402 408.766 408.213 408.755 408.403 408.495C408.589 408.232 408.761 406.85 408.845 406.73C408.929 406.606 409.112 406.394 409.137 406.193C409.163 405.992 409.828 404.577 409.868 404.296C409.904 404.014 409.495 403.06 409.404 402.49C409.313 401.92 408.757 401.032 408.622 400.776C408.571 400.677 408.586 400.348 408.622 399.99H408.626Z" fill="#F48C7F"/>
<path d="M432.635 339.509L426.527 339.191C426.527 339.191 426.549 341.519 429.23 341.738C432.499 342.001 432.635 339.509 432.635 339.509Z" fill="white"/>
<path d="M399.202 344.176L396.992 358.799C396.992 358.799 405.061 376.211 409.879 374.702C413.922 373.434 411.435 358.028 411.435 358.028C411.435 358.028 409.232 349.753 409.894 345.612C410.555 341.471 399.202 344.176 399.202 344.176Z" fill="#F7A491"/>
<path d="M409.894 345.612C410.555 341.471 399.202 344.176 399.202 344.176L399.02 345.389C399.352 346.201 399.757 346.895 400.25 347.429C402.785 350.17 406.749 351.815 410.175 351.939C409.832 349.706 409.62 347.316 409.894 345.616V345.612Z" fill="#F47458"/>
<path d="M397.339 323.486C397.018 323.369 394.768 340.141 399.038 344.757C403.308 349.373 411.632 350.883 414.617 347.246C417.919 343.226 417.754 325.2 411.11 320.452C404.47 315.704 397.336 323.486 397.336 323.486H397.339Z" fill="#F7A491"/>
<path d="M408.586 311.479C403.454 312.532 400.126 315.679 398.906 317.024C396.576 317.301 393.409 318.592 390.136 324.03C386.114 330.715 389.084 338.124 393.767 341.76C398.45 345.393 398.384 349.593 398.384 349.593L399.125 347.422C399.673 345.777 399.896 344.034 399.714 342.308C399.604 341.274 399.385 340.152 398.957 339.235C397.832 336.808 401.375 335.196 402.369 333.175C403.136 331.621 403.173 328.062 404.378 325.492L405.817 323.529C405.817 323.529 409.141 320.934 412.392 321.665C415.643 322.396 415.175 310.134 408.59 311.483L408.586 311.479Z" fill="#13375B"/>
<path d="M402.15 336.157C402.183 338.204 401.259 339.878 400.079 339.9C398.903 339.918 397.92 338.277 397.888 336.23C397.855 334.184 398.779 332.51 399.959 332.488C401.135 332.466 402.117 334.11 402.15 336.157Z" fill="#F7A491"/>
<path d="M409.086 340.887L415.526 340.55C415.526 340.55 415.504 343.014 412.677 343.244C409.228 343.525 409.086 340.887 409.086 340.887Z" fill="white"/>
<path d="M395.17 358.215C395.761 357.111 396.861 356.369 398.11 356.259C403.52 355.773 418.386 355.766 425.976 368.912C427.175 370.985 428.033 373.236 428.65 375.546L430.246 382.132L391.122 380.86L391.188 376.511C390.79 370.162 392.171 363.825 395.17 358.215Z" fill="#3C8F7C"/>
<path d="M488.101 384.534L493.781 361.453C494.161 359.907 493.219 358.346 491.674 357.962C490.129 357.582 488.569 358.525 488.185 360.071L482.231 384.267L488.101 384.534Z" fill="#1A1A1A"/>
<path d="M473.424 383.868C475.032 382.863 476.336 382.037 477.216 381.504C477.282 381.463 481.376 379.497 481.442 379.461C482.019 379.249 482.509 379.08 482.622 379.08C482.932 379.073 484.711 378.474 484.854 378.408C484.996 378.342 485.73 378.342 486.041 378.335C486.351 378.328 489.639 376.632 490.179 376.372C490.724 376.116 491.702 375.159 491.702 375.159L493.847 373.931C495.421 373.032 493.996 371.716 493.996 371.716C494.738 371.288 494.95 370.791 494.822 370.301C494.694 369.812 494.267 369.41 494.248 369.315C494.23 369.219 494.435 369.044 494.435 369.044C494.917 368.788 494.931 368.046 494.782 367.673C494.632 367.297 494.026 366.851 493.719 366.811C493.412 366.774 493.364 366.635 493.364 366.635C493.43 366.113 492.583 364.837 491.976 364.808C491.37 364.782 489.014 365.934 488.733 365.926C488.452 365.919 487.929 365.853 487.586 366.014C487.243 366.175 484.324 366.581 483.838 366.811C483.352 367.041 482.275 368.671 481.468 369.406C480.66 370.137 479.831 371.931 479.568 372.407C479.466 372.593 478.936 372.904 478.33 373.218C478.235 373.317 460.395 379.764 449.839 382.918L473.428 383.868H473.424Z" fill="#F7A491"/>
<path d="M417.809 381.632C416.705 374.991 415.339 368.013 413.878 364.79C410.671 357.725 399.845 353.514 394.537 357.907C391.703 360.25 392.926 371.409 395.337 381.039L417.805 381.632H417.809Z" fill="#50BFA5"/>
<path d="M260.575 343.186C260.575 343.186 247.319 342.857 242.815 345.839C238.312 348.821 238.863 378.481 238.863 378.481L243.235 379.311C243.235 379.311 244.821 399.72 248.207 400.787C251.593 401.851 273.856 395.019 278.48 389.274C283.105 383.528 268.684 341.212 268.684 341.212L260.571 343.182L260.575 343.186Z" fill="#3C8F7C"/>
<path d="M284.142 319.663C285.296 316.077 286.07 305.255 286.322 301.578C286.143 301.315 285.179 299.732 285.281 296.655C285.354 294.477 283.835 290.873 285.226 291.118C286.622 291.363 286.695 295.142 287.531 294.491C288.368 293.841 288.751 285.931 290.015 286.151C291.279 286.37 290.421 293.822 291.169 293.238C291.918 292.656 291.951 285.785 293.737 286.1C295.523 286.41 292.948 294.181 293.909 294.345C294.869 294.513 296.363 289.575 297.803 289.828C299.242 290.08 295.439 296.476 295.878 296.132C296.32 295.789 299.381 293.175 299.892 293.76C300.469 294.422 293.376 301.9 293.354 303.866C293.945 308.851 295.122 317.883 293.514 323.559C291.549 330.503 286.508 345.934 286.508 345.934L275.77 343.379C275.77 343.379 282.772 323.913 284.142 319.663Z" fill="#F7A491"/>
<path d="M288.715 295.949C289.241 296.187 289.683 296.553 290.066 296.969C290.107 297.053 291.447 298.318 291.107 300.376C290.87 299.115 290.603 297.718 288.719 295.949H288.715Z" fill="#F48C7F"/>
<path d="M220.033 348.997C220.033 348.997 220.307 347.268 218.871 344.596C217.951 342.882 217.673 339.392 216.709 340.145C215.745 340.894 217.195 343.949 216.296 343.763C215.401 343.577 211.96 337.4 211.087 338.08C210.214 338.759 213.831 344.381 213.031 344.213C212.231 344.044 209.469 338.558 208.235 339.523C207 340.485 212.052 345.675 211.387 346.19C210.726 346.705 207.621 343.35 206.627 344.125C205.634 344.9 211.073 348.503 210.602 348.405C210.13 348.306 206.759 347.436 206.605 348.109C206.43 348.865 213.469 351.087 214.269 352.652C215.069 354.216 227.174 369.833 230.629 369.841C234.088 369.848 249.616 359.333 250.745 355.912C251.873 352.491 250.467 348.865 248.202 348.394C245.938 347.922 231.462 358.35 230.75 358.204C230.038 358.054 220.033 348.997 220.033 348.997Z" fill="#F7A491"/>
<path d="M216.439 345.21C216.1 345.678 215.895 346.212 215.771 346.764C215.774 346.859 215.238 348.62 216.549 350.24C216.132 349.026 215.676 347.681 216.439 345.207V345.21Z" fill="#F48C7F"/>
<path d="M252.75 370.553C252.75 370.553 266.693 381.646 268.234 383.909C269.389 385.601 265.557 404.679 265.557 404.679C265.557 404.679 260.045 404.851 257.521 402.892C257.521 402.892 259.029 389.705 258.365 389.19C257.704 388.674 242.402 381.865 242.402 381.865L243.37 374.044L252.75 370.55V370.553Z" fill="#B75742"/>
<path d="M279.499 330.638C279.499 330.638 281.91 331.088 290.158 340.097L280.569 359.611L271.704 343.387L279.495 330.635L279.499 330.638Z" fill="#9BC1F9"/>
<path d="M263.946 344.399C263.946 344.399 270.247 342.992 272.453 341.91C274.663 340.828 295.081 388.971 289.935 390.67C279.181 394.219 251.26 403.605 251.26 403.605C251.26 403.605 250.456 400.816 251.468 395.736C253.225 386.942 252.644 367.319 252.276 363.887C252.06 361.869 240.145 367.706 240.145 367.706L235.451 352.491C235.451 352.491 249.05 347.856 253.612 346.391C254.887 345.982 263.946 344.399 263.946 344.399Z" fill="#9BC1F9"/>
<path d="M287.246 374.205C284.696 366.263 267.81 343.423 267.66 343.207L270.418 341.325C271.035 342.228 284.795 361.592 287.491 369.991L287.242 374.205H287.246Z" fill="#3C8F7C"/>
<path d="M250.621 388.945L248.871 386.726C248.988 386.631 260.742 377.213 261.06 366.774C261.382 356.226 252.885 346.095 252.798 345.992L254.949 344.158C255.329 344.604 264.238 355.207 263.884 366.858C263.526 378.624 251.147 388.528 250.621 388.945Z" fill="#3C8F7C"/>
<path d="M260.928 312.207C260.928 312.207 265.914 308.5 270.637 314.516C274.407 319.315 273.907 317.806 275.769 320.189C277.632 322.575 280.441 322.78 280.869 326.749C281.296 330.719 279.51 331.534 279.51 331.534C279.51 331.534 281.515 334.439 280.007 337.813C278.498 341.186 274.177 344.417 270.268 344.392C270.268 344.392 264.811 348.196 258.832 347.323C252.856 346.446 254.88 346.226 252.502 346.486C250.124 346.742 243.337 344.172 243.885 339.297C243.885 339.297 239.465 335.061 242.859 330.843C246.252 326.629 248.089 323.69 249.744 318.339C251.399 312.989 258.152 311.26 260.928 312.21V312.207Z" fill="#1A1A1A"/>
<path d="M267.602 339.6C267.602 339.6 268.146 346.647 268.877 347.235C269.607 347.824 270.645 348.818 269.856 350.598C269.067 352.378 264.742 351.76 262.678 351.014C260.698 350.298 259.299 348.715 259.299 348.715L259.084 337.488L267.602 339.604V339.6Z" fill="#F7A491"/>
<path d="M265.115 342.809C263.712 342.48 261.254 341.822 259.113 339.056L259.084 337.484L267.602 339.6C267.602 339.6 267.734 341.318 267.956 343.131C266.802 343.208 265.787 342.97 265.118 342.813L265.115 342.809Z" fill="#F48C7F"/>
<path d="M255.662 331.325C255.662 331.325 255.019 327.217 252.572 328.292C250.124 329.366 252.725 335.39 254.803 334.958C256.882 334.527 255.662 331.325 255.662 331.325Z" fill="#F7A491"/>
<path d="M263.299 315.353C263.299 315.353 267.255 314.838 269.615 317.707C271.975 320.576 275.123 329.154 272.431 335.602C269.736 342.045 265.301 341.007 263.475 340.58C261.645 340.152 258.018 339.161 255.643 333.661C253.269 328.164 253.171 315.24 263.303 315.353H263.299Z" fill="#F7A491"/>
<path d="M344.163 381.025L351.45 415.856L338.878 414.635L332.825 382.779L344.163 381.025Z" fill="#F7A491"/>
<path d="M346.322 382.048L332.825 382.779C332.825 382.779 331.821 373.456 331.591 368.993C331.313 363.58 331.412 356.588 332.073 356.705C333.928 357.03 336.449 357.915 338.023 359.863C343.469 366.592 346.326 382.048 346.326 382.048H346.322Z" fill="#5184CE"/>
<path d="M337.449 367.772C337.774 369.409 346.321 414.928 346.321 414.928C326.082 426.031 310.635 416.558 310.635 416.558C310.635 416.558 311.405 385.955 310.368 381.712C309.681 378.901 307.194 360.407 309.002 359.782C311.325 358.982 314.835 357.805 317.765 357.348C320.267 356.957 330.027 356.299 331.806 356.796C331.806 356.796 336.079 360.883 337.442 367.768L337.449 367.772Z" fill="#EAFCFC"/>
<path d="M330.196 324.344C330.196 324.344 338.381 324.22 337.705 331.004C337.705 331.004 343.795 333.372 339.736 338.865C339.736 338.865 344.068 344.772 336.529 350.441C336.529 350.441 334.528 358.372 325.991 354.582C325.991 354.582 323.467 356.467 319.975 353.946C316.483 351.424 316.027 349.929 316.027 349.929C316.027 349.929 308.301 348.463 309.364 341.354C309.364 341.354 305.306 337.893 311.435 333.544C311.435 333.544 311.322 323.793 319.603 325.108C319.603 325.108 324.439 317.667 330.199 324.344H330.196Z" fill="#13375B"/>
<path d="M317.374 340.309C317.151 342.038 316.026 343.321 314.857 343.171C313.688 343.021 312.921 341.497 313.144 339.768C313.367 338.039 314.492 336.757 315.661 336.906C316.83 337.056 317.597 338.58 317.374 340.309Z" fill="#F7A491"/>
<path d="M336.591 345.594C335.871 347.184 334.421 348.079 333.347 347.593C332.274 347.107 331.985 345.426 332.705 343.836C333.424 342.246 334.874 341.351 335.948 341.837C337.022 342.323 337.311 344.004 336.591 345.594Z" fill="#F7A491"/>
<path d="M326.729 350.872C326.718 350.996 327.412 355.451 327.784 357.805C327.923 358.682 327.419 359.534 326.586 359.845C324.358 360.671 320.019 361.731 317.286 358.858C317.038 358.595 316.921 358.236 316.958 357.875L318.09 347.447L326.732 350.872H326.729Z" fill="#F7A491"/>
<path d="M327.4 355.36C325.034 356.34 318.196 355.492 317.681 351.182L318.086 347.447L326.728 350.872C326.725 350.93 327.192 354 327.4 355.36Z" fill="#F48C7F"/>
<path d="M328.939 329.633C328.939 329.633 325.337 328.851 321.897 330.989C318.456 333.127 312.871 341.534 317.539 348.843C322.207 356.149 330.141 352.571 332.931 346.786C335.722 340.996 336.913 332.382 328.939 329.633Z" fill="#F7A491"/>
<path d="M326.71 347.718L321.918 347.443C321.918 347.443 321.925 349.271 324.029 349.454C326.593 349.677 326.71 347.721 326.71 347.721V347.718Z" fill="white"/>
<path d="M335.087 333.73C335.087 333.73 331.595 331.859 328.998 332.104C326.397 332.349 317.926 338.515 316.692 337.48C315.461 336.449 317.05 330.996 318.032 330.207C319.015 329.417 322.941 327.038 323.277 326.994C323.614 326.95 327.175 327.016 327.785 327.173C328.395 327.331 332.8 329.436 332.8 329.436L335.083 333.73H335.087Z" fill="#13375B"/>
<path d="M284.376 419.061C284.449 418.853 284.631 418.842 284.814 418.831C286.6 418.722 288.386 418.583 290.151 418.261C290.447 418.206 290.735 418.133 291.002 418.013C291.488 417.801 291.977 417.79 292.477 417.91C292.748 417.976 293.025 417.983 293.303 417.972C294.202 417.939 296.74 416.985 298.051 416.715C298.351 416.653 298.581 416.419 298.647 416.119C299.783 410.948 302.201 399.351 302.442 395.553C302.753 390.699 305.404 368.77 305.404 368.77L314.419 370.981C314.419 370.981 311.249 387.205 310.474 395.049C309.879 401.105 304.257 414.094 302.482 417.833C301.646 420.604 299.578 420.743 299.1 420.816C298.826 420.856 298.577 421.002 298.402 421.218C298.088 421.609 297.726 421.952 297.306 422.234C296.996 422.442 296.758 422.713 296.561 423.023C296.2 423.59 295.878 424.178 295.56 424.77C295.348 425.162 295.122 425.293 294.786 425.213C294.428 425.125 294.253 424.869 294.245 424.438C294.234 423.798 294.421 423.213 294.724 422.658C295.009 422.139 294.976 421.843 294.611 421.382C294.402 421.119 294.187 420.863 293.917 420.659C293.643 420.45 293.354 420.293 292.992 420.355C292.357 420.534 291.71 420.688 291.053 420.779L290.516 420.907C290.498 420.907 290.224 420.98 290.224 420.98C290.18 420.995 289.23 421.126 288.905 421.137C288.642 421.145 288.222 421.178 287.86 421.207C287.535 421.232 286.841 421.083 286.816 421.083C286.498 421.083 286.213 420.98 285.972 420.776C285.873 420.692 285.775 420.597 285.822 420.447C285.862 420.308 285.968 420.249 286.107 420.22C286.319 420.176 287.426 420.004 287.411 419.957C287.082 419.968 286.049 419.975 285.72 419.979C285.274 419.979 284.887 419.833 284.569 419.515C284.445 419.39 284.299 419.266 284.376 419.054V419.061Z" fill="#F7A491"/>
<path d="M299.389 381.971L312.451 388.291C312.451 388.291 314.5 378.693 316.03 372.761C317.345 367.659 310.836 358.584 308.67 359.826C303.819 362.604 299.389 381.975 299.389 381.975V381.971Z" fill="#5184CE"/>
<path d="M387.659 365.06L503.804 370.005C503.804 370.005 493.675 403.919 493.427 405.611C493.178 407.304 455.062 428.115 445.485 427.866C435.908 427.618 413.571 419.595 408.764 418.181C403.958 416.766 391.473 407.022 392.221 401.024C392.97 395.027 387.659 365.06 387.659 365.06Z" fill="#FACD49"/>
<path d="M389.92 376.781H421.085C421.856 376.781 422.476 377.407 422.476 378.174V380.868C422.476 381.639 421.852 382.26 421.085 382.26H389.92C389.149 382.26 388.528 381.635 388.528 380.868V378.174C388.528 377.407 389.153 376.781 389.92 376.781Z" fill="#FEB546"/>
<path opacity="0.6" d="M509.59 358.989L386.731 348.467V356.694C386.731 361.35 390.3 365.177 394.819 365.36L503.647 369.738C506.146 369.837 508.593 368.708 510.025 366.599C511.256 364.782 511.796 362.228 509.59 358.993V358.989Z" fill="#C5DDF9"/>
<path opacity="0.7" d="M386.731 348.467V347.286L509.152 358.383L509.59 358.989L386.731 348.467Z" fill="#C5DDF9"/>
<path opacity="0.2" d="M415.021 366.168L426.217 366.621L435.411 352.637L424.529 351.705L415.021 366.168Z" fill="white"/>
<path opacity="0.2" d="M434.889 366.968L443.834 353.357L439.7 353.003L430.63 366.796L434.889 366.968Z" fill="white"/>
<path d="M220.296 365.502L360.629 366.891L361.886 411.393C361.886 411.393 345.493 435.253 343.513 435.004C341.537 434.756 299.622 428.009 295.86 428.257C292.097 428.506 259.241 412.373 257.693 412.695C256.144 413.016 245.905 407.519 245.905 407.519L229.22 395.725L212.677 378.689L220.3 365.502H220.296Z" fill="#FACD49"/>
<path d="M217.542 374.04H248.707C249.478 374.04 250.099 374.665 250.099 375.433V378.126C250.099 378.894 249.474 379.519 248.707 379.519H217.542C216.771 379.519 216.15 378.894 216.15 378.126V375.433C216.15 374.662 216.775 374.04 217.542 374.04Z" fill="#FEB546"/>
<path d="M269.466 333.226L264.607 334.162C264.607 334.162 265.075 335.985 267.223 335.638C269.842 335.211 269.466 333.23 269.466 333.23V333.226Z" fill="white"/>
<path d="M254.423 328.57C254.423 328.57 265.385 323.544 266.47 315.671C267.555 307.802 257.459 315.317 257.459 315.317L253.375 319.239L254.42 328.57H254.423Z" fill="#1A1A1A"/>
<path d="M390.72 364.066C390.72 364.066 392.758 365.473 395.341 365.378C395.341 365.378 391.907 366.427 391.809 366.343C391.706 366.259 389.979 364.87 390.004 364.841C390.033 364.812 390.72 364.066 390.72 364.066Z" fill="#FACD49"/>
<path d="M401.302 313.237L415.021 314.107C415.021 314.107 412.775 310.386 411.822 310.386H404.593L401.302 313.237Z" fill="#FACD49"/>
<path d="M1171.21 518H77.9542C75.6639 518 73.8047 516.14 73.8047 513.848C73.8047 511.556 75.6639 509.696 77.9542 509.696H1171.22C1173.51 509.696 1175.37 511.556 1175.37 513.848C1175.37 516.14 1173.51 518 1171.22 518H1171.21Z" fill="#183658"/>
<path d="M867.821 273.315C873.483 274.831 874.426 296.662 874.426 296.662L892.368 294.604C892.368 294.604 889.098 271.838 879.62 262.324C870.145 252.811 846.194 258.626 837.091 264.55C827.985 270.475 831.937 278.019 831.937 278.019C831.937 278.019 862.16 271.802 867.821 273.315Z" fill="#13375B"/>
<path d="M885.855 291.491C886.794 312.225 892.602 314.063 892.719 314.352C892.839 314.374 897.478 317.945 902.614 313.223L900.908 311.49C900.174 312.239 899.056 312.916 897.986 313.215C895.601 313.837 894.056 312.649 893.869 312.59C893.745 312.488 892.525 311.753 891.915 310.745C888.935 306.757 887.514 296.395 887.112 291.447L885.859 291.491H885.855Z" fill="#355389"/>
<path d="M825.538 276.334C825.538 276.334 828.055 286.213 828.343 294.246C828.632 302.276 834.162 308.976 834.882 329.074C835.601 349.172 838.472 367.648 838.472 367.648C838.472 367.648 860.761 369.201 865.148 364.468C869.535 359.735 867.635 316.713 863.296 295.796C858.957 274.879 878.035 269.177 868.121 262.324C858.212 255.471 845.321 260.117 839.864 261.977C834.407 263.838 825.381 271.908 825.542 276.337L825.538 276.334Z" fill="#184655"/>
<path d="M862.343 292.96C862.343 292.96 864.973 309.009 862.997 325.258C861.017 341.512 864.169 373.576 864.169 373.576C864.169 373.576 880.771 385.173 885.651 375.966C886.568 374.238 888.759 353.697 888.957 345.108C889.165 335.985 887.912 304.129 887.488 293.804C887.401 291.64 886.758 289.535 885.629 287.689C882.002 281.761 873.674 268.636 870.777 268.183C866.997 267.591 860.36 275.767 862.347 292.956L862.343 292.96Z" fill="#FACD49"/>
<path d="M887.919 304.889C885.585 307.166 870.744 321.45 863.296 322.48C863.384 321.57 863.46 320.668 863.522 319.769C869.348 318.833 882.473 306.731 887.791 301.571C887.831 302.627 887.875 303.738 887.919 304.889Z" fill="#13375B"/>
<path d="M862.383 343.27C862.368 342.378 862.353 341.49 862.35 340.605C866.85 342.535 882.688 341.303 888.967 340.605C888.974 341.534 888.978 342.389 888.974 343.16C883.218 343.8 867.748 345.496 862.383 343.27Z" fill="#13375B"/>
<path d="M887.47 364.019C887.378 364.859 887.283 365.682 887.192 366.475C880.935 367.728 868.881 362.381 863.095 359.87C863.033 358.92 862.975 357.944 862.92 356.939C868.3 359.278 881.972 365.053 887.473 364.015L887.47 364.019Z" fill="#13375B"/>
<path d="M887.835 360.539C885.055 361.705 867.745 369.135 863.793 369.388C863.731 368.657 863.665 367.842 863.596 366.953C866.383 366.694 879.558 361.182 888.113 357.612C888.025 358.587 887.93 359.563 887.831 360.535L887.835 360.539Z" fill="#13375B"/>
<path d="M865.353 327.934H870.908C872.91 327.934 874.536 329.56 874.536 331.563V364.157C874.536 366.16 872.91 367.787 870.908 367.787H865.353C863.351 367.787 861.726 366.16 861.726 364.157V331.563C861.726 329.56 863.351 327.934 865.353 327.934Z" fill="#50BFA5"/>
<path d="M874.536 339.801H861.726V342.484H874.536V339.801Z" fill="#13375B"/>
<path d="M871.978 479.992C871.978 479.992 877.91 485.442 877.925 485.453C878.758 486.067 880.986 487.416 881.633 488.081C884.065 490.581 868.483 496.82 869.889 493.274C870.017 492.953 870.254 490.131 869.502 489.206C868.34 487.785 866.251 485.756 866.251 485.756L871.975 479.989L871.978 479.992Z" fill="#F7A491"/>
<path d="M869.896 493.231C869.896 493.231 873.242 491.447 874.761 490.332C876.281 489.217 876.471 485.884 877.837 485.394C879.342 484.857 885.657 491.319 885.657 491.319C885.657 491.319 873.311 504.743 866.85 509.221C865.458 510.186 863.77 509.879 863.175 509.89C860.892 509.93 866.305 500.226 869.896 493.231Z" fill="#184655"/>
<path d="M797.259 490.562C797.259 490.562 795.418 499.488 795.414 499.506C795.301 500.672 795.283 503.621 795.012 504.637C793.997 508.45 778.981 496.874 783.214 496.198C783.598 496.136 785.504 495.372 786.158 494.195C787.298 492.149 788.379 488.318 788.379 488.318L797.255 490.566L797.259 490.562Z" fill="#F7A491"/>
<path d="M783.269 496.173C783.269 496.173 786.926 498.402 788.88 499.239C790.834 500.076 794.406 497.755 795.67 498.804C797.058 499.959 794.797 510.178 794.797 510.178C794.797 510.178 769.104 503.362 763.64 499.824C761.473 498.424 774.441 496.714 783.269 496.173Z" fill="#184655"/>
<path d="M811.084 368.123L795.162 431.802L785.095 493.472L797.627 495.164C797.627 495.164 815.281 448.005 815.774 442.577C816.267 437.15 825.128 411.777 825.128 411.777L811.08 368.127L811.084 368.123Z" fill="#355389"/>
<path d="M848.243 360.751C848.243 360.751 847.052 421.81 848.035 427.482C849.017 433.158 875.693 481.568 875.693 481.568L866.715 491.334C866.715 491.334 828.551 447.058 826.867 443.151C824.23 437.029 811.212 367.995 811.212 367.995L848.247 360.747L848.243 360.751Z" fill="#13375B"/>
<path d="M745.694 262.631C746.979 265.208 747.144 266.469 747.472 266.944C747.86 267.507 756.246 271.078 756.246 271.078C756.246 271.078 780.898 281.768 782.246 282.302L809.795 282.097L814.12 295.668C814.12 295.668 784.124 295.098 782.553 294.795C780.982 294.491 749.259 276.22 746.417 274.7C746.417 274.7 742.384 274.115 739.86 273.665C737.336 273.216 735.535 272.397 734.98 271.918C733.899 270.986 734.673 269.85 734.783 269.47C734.005 267.836 735.236 267.31 735.269 267.247C735.342 267.112 734.958 266.765 735.101 265.961C735.221 265.267 735.831 265.146 736.043 264.78C735.572 263.03 736.971 262.909 737.46 262.997C737.95 263.085 741.997 263.998 742.476 264.108C743.107 264.254 743.232 264.159 743.334 263.728C743.615 262.555 742.998 260.607 743.06 259.784C743.14 258.673 744.017 258.103 744.324 258.245C744.598 258.373 744.645 260.522 745.694 262.624V262.631Z" fill="#F8A492"/>
<path d="M804.096 296.662C802.245 289.926 800.681 283.673 800.992 280.562C800.992 280.562 809.21 279.192 819.01 277.712C826.042 276.648 837.256 287.989 835.071 290.555C830.184 296.297 804.096 296.662 804.096 296.662Z" fill="#B75742"/>
<path d="M833.618 276.257C833.618 276.257 840.379 275.635 843.082 282.05C845.785 288.464 848.488 319.304 847.261 334.107C846.034 348.909 851.217 369.395 851.217 369.395C827.646 381.602 810.891 368.397 810.891 368.397C810.891 368.397 804.667 311.753 806.961 301.293C811.753 279.429 820.961 275.902 820.961 275.902L833.622 276.253L833.618 276.257Z" fill="#F47458"/>
<path d="M852.345 378.265C854.899 374.099 855.472 374.691 855.786 374.15C856.155 373.507 855.746 363.595 855.746 363.595C855.746 363.595 854.723 334.366 854.614 332.791L841.537 305.807L852.839 295.215C852.839 295.215 866.295 324.966 866.733 326.651C867.172 328.336 864.056 368.057 863.895 371.562C863.895 371.562 865.207 375.802 865.944 378.492C866.682 381.182 866.207 384.084 866.302 384.873C866.317 384.99 866.478 387.644 865.824 390.977C865.261 393.85 864.513 390.875 864.513 390.875C864.513 390.875 864.622 385.37 864.198 385.444C863.87 385.498 863.983 388.503 863.395 391.69C863.241 392.509 863.092 393.316 862.946 394.058C862.562 396.003 861.291 396.328 861.375 394.234C861.404 393.492 861.485 392.264 861.66 391.394C861.85 390.454 861.733 389.533 861.777 388.718C861.864 387.103 861.945 385.926 861.879 385.963C861.791 386.006 861.587 385.674 861.401 386.54C861.174 387.578 861.174 389.888 860.725 391.394C860.473 392.245 860.049 394.058 860.049 394.058C860.049 394.058 858.909 396.682 858.738 396.664C857.81 396.584 858.095 394.574 858.588 393.459C858.548 392.589 859.044 390.696 859.044 390.696C859.044 390.696 859.216 386.642 858.654 386.613C858.416 386.602 858.022 389.077 857.262 391.449C856.557 393.649 855.494 395.758 855.052 395.685C854.3 395.564 854.826 393.035 854.826 393.035C854.826 393.035 855.29 391.284 855.399 390.692C855.527 389.998 855.761 387.889 855.761 387.889C855.761 387.889 856.236 380.509 855.706 380.531C855.173 380.553 853.821 381.164 853.639 381.61C853.456 382.059 853.536 383.057 853.354 383.506C853.171 383.956 852.554 384.384 852.002 384.201C851.451 384.018 851.531 381.511 851.531 381.511C851.531 381.511 851.611 379.471 852.349 378.273L852.345 378.265Z" fill="#F8A492"/>
<path d="M858.405 303.109L843.59 314.608C843.59 314.608 837.048 308.365 833.76 301.461C830.433 294.473 834.484 276.056 838.027 277.002C845.946 279.122 858.409 303.106 858.409 303.106L858.405 303.109Z" fill="#B75742"/>
<path d="M830.79 262.558L833.007 277.182C833.007 277.182 824.909 294.59 820.077 293.08C816.022 291.812 818.517 276.41 818.517 276.41C818.517 276.41 820.727 268.139 820.066 263.998C819.401 259.857 830.79 262.562 830.79 262.562V262.558Z" fill="#F7A491"/>
<path d="M820.062 263.998C819.397 259.857 830.787 262.562 830.787 262.562L830.969 263.775C830.637 264.587 830.228 265.281 829.735 265.815C827.192 268.556 823.215 270.201 819.777 270.325C820.121 268.092 820.333 265.701 820.062 264.002V263.998Z" fill="#F47458"/>
<path d="M832.657 241.875C832.978 241.758 835.236 258.527 830.951 263.143C826.666 267.759 818.316 269.269 815.321 265.632C812.008 261.612 812.176 243.589 818.839 238.842C825.501 234.094 832.657 241.875 832.657 241.875Z" fill="#F7A491"/>
<path d="M821.374 229.869C826.524 230.918 829.859 234.068 831.086 235.41C833.424 235.687 836.602 236.978 839.886 242.416C843.922 249.101 840.941 256.509 836.244 260.142C831.546 263.775 831.612 267.975 831.612 267.975L830.871 265.804C830.323 264.159 830.1 262.416 830.283 260.691C830.392 259.656 830.615 258.534 831.042 257.617C832.171 255.19 828.617 253.578 827.62 251.557C826.853 250.004 826.816 246.444 825.604 243.874L824.157 241.912C824.157 241.912 820.822 239.317 817.56 240.048C814.298 240.779 814.77 228.516 821.377 229.865L821.374 229.869Z" fill="#184655"/>
<path d="M827.835 254.543C827.802 256.59 828.73 258.264 829.91 258.286C831.089 258.308 832.076 256.663 832.108 254.616C832.141 252.569 831.214 250.895 830.034 250.874C828.854 250.852 827.868 252.496 827.835 254.543Z" fill="#F7A491"/>
<path d="M825.161 307.258C824.851 294.517 825.643 277.006 837.785 272.039C842.124 270.219 847.424 272.266 851.442 273.761C846.511 273.07 841.861 274.974 839.458 276.319C829.464 281.377 829.541 295.862 829.902 307.144C830.812 335.514 852.538 332.506 852.538 332.506L853.046 334.395C853.046 334.395 844.886 337.075 834.472 331.936C826.169 327.835 825.161 307.254 825.161 307.254V307.258Z" fill="#184655"/>
<path d="M980.802 316.907L977 333.727C969.329 330.715 957.188 328.877 952.68 326.932C947.402 323.877 943.928 323.76 942.285 323.866C941.401 323.924 937.711 324.363 937.711 324.363L938.139 325.573C938.139 325.573 940.557 325.485 940.911 325.518C941.791 325.605 941.339 325.817 941.339 325.817C940.582 325.854 937.302 326.545 937.302 326.545C937.302 326.545 937.993 327.623 938.931 327.488C940.582 327.247 941.623 327.586 941.043 327.751C940.619 327.868 940.009 327.638 939.019 327.78C936.608 328.127 936.462 329.447 938.716 329.323C939.702 329.268 941.481 329.889 942.606 330.273C942.237 330.54 941.799 330.722 941.583 330.799C941.185 330.945 938.179 331.022 938.373 331.742C938.563 332.466 945.309 332.597 945.309 332.597L948.775 332.119L948.962 332.17C948.962 332.17 978.118 346.073 982.716 344.611C988.005 341.453 990.42 317.053 990.153 316.366L980.795 316.903L980.802 316.907Z" fill="#F0937F"/>
<path d="M990.928 300.719C990.928 300.719 982.552 294.206 978.125 326.596L993.255 330.817L999.026 318.647L990.924 300.719H990.928Z" fill="#B75742"/>
<path d="M981.362 272.916C983.079 261.725 993.193 253.68 1003.77 259.112C1006.16 260.332 1009.38 262.81 1011.02 264.923C1015.54 270.727 1016.64 277.924 1021.43 283.505C1025.56 288.318 1036.59 287.408 1041.73 291.11C1046.88 294.813 1050.49 301.45 1050.49 309.389C1050.49 318.266 1048.49 327.692 1041.61 333.303C1034.74 338.917 1024.97 340.313 1016.42 337.937C1007.87 335.558 1000.54 329.732 995.257 322.594C989.979 315.459 986.245 307.634 983.616 299.155C980.679 289.692 980.251 280.149 981.362 272.92V272.916Z" fill="#184655"/>
<path d="M985.197 305.24C990.713 292.942 1009.13 291.556 1020.84 298.23C1024.32 300.215 1024.94 300.069 1027.12 302.254C1032.85 307.982 1038.37 365.817 1023.74 370.316C1006.68 375.568 991.436 372.326 985.679 363.277C981.822 357.217 976.708 324.169 985.197 305.24Z" fill="#FACD49"/>
<path d="M984.258 487.569C984.258 487.569 983.367 497.291 983.955 500.46C984.032 500.884 984.207 501.421 984.408 502.013C985.011 503.79 983.359 509.217 983.359 509.217L961.22 509.298C960.015 509.301 960.822 508.537 961.801 507.836C963.408 506.688 964.701 505.931 969.815 503.537C970.148 503.38 971.364 502.631 971.802 502.371C972.913 501.714 974.034 500.665 975.002 499.616C976.613 497.869 976.858 489.302 976.858 489.302L984.258 487.565V487.569Z" fill="#F7A491"/>
<path d="M971.803 502.372C977.64 503.943 981.979 502.978 984.412 502.032C985.014 503.804 986.147 509.806 985.471 509.806C979.919 509.806 975.221 510.858 959.31 510.606C958.74 510.599 958.81 508.64 959.182 508.208C960.209 507.013 971.364 502.631 971.803 502.368V502.372Z" fill="#355389"/>
<path d="M1012.03 372.162C1012.03 372.162 1011.71 386.039 1007.74 394.924C1003.87 403.579 985.339 424.928 980.415 437.387C981.939 444.416 986.121 454.291 985.818 462.083C985.474 470.91 985.989 494.269 985.989 494.269L976.047 494.583L963.003 434.31L982.658 369.278L991.578 353.485L1012.03 372.162H1012.03Z" fill="#184655"/>
<path d="M1054.5 473.746C1054.5 473.746 1060.61 482.134 1063.3 484.254C1064.75 485.391 1068.66 486.915 1069.07 488.794C1069.48 490.672 1051.35 507.284 1051.35 507.284C1050.39 508.135 1050.5 506.958 1050.79 505.708C1051.26 503.662 1051.76 502.152 1054.17 496.648C1054.33 496.29 1054.77 494.835 1054.94 494.32C1055.37 493.011 1055.53 491.389 1055.57 489.872C1055.63 487.346 1049.81 480.329 1049.81 480.329L1054.51 473.746H1054.5Z" fill="#F7A491"/>
<path d="M1054.94 494.316C1060.71 491.472 1063.49 487.653 1064.77 485.19C1066.5 486.184 1071.14 488.304 1070.74 488.896C1067.53 493.552 1064.2 499.345 1051.32 510.317C1050.86 510.708 1048.97 508.446 1048.96 507.839C1048.94 506.165 1054.78 494.831 1054.95 494.312L1054.94 494.316Z" fill="#355389"/>
<path d="M1011.32 363.277C1011.32 363.277 1019.01 374.83 1020.84 384.395C1022.63 393.707 1019.66 421.825 1022.76 434.862C1028.03 439.748 1037.12 445.446 1041.33 452.003C1046.1 459.434 1059.89 478.286 1059.89 478.286L1051.92 484.243L1006.73 442.318L988.426 386.383L982.146 370.027L1011.32 363.277Z" fill="#13375B"/>
<path d="M1005.1 297.532C1005.1 297.532 1015.28 296.885 1019.31 301.267C1023.33 305.65 1010.37 340.32 1009.64 345.898C1008.91 351.475 1015.65 362.597 1015.65 362.597C1015.65 362.597 987.637 375.703 980.803 371.186C980.803 371.186 981.899 326.483 982.629 322.499C983.36 318.515 989.463 302.309 990.928 300.716C992.393 299.122 1005.1 297.528 1005.1 297.528V297.532Z" fill="#F47458"/>
<path d="M1001.71 283.95C1001.71 283.95 1001.76 284.25 1001.86 284.758C1002.31 287.203 1004.06 295.31 1005.24 297.536C1006.67 300.229 1000.36 308.818 994.281 307.77C992.473 307.459 995.808 299.879 995.651 299.074C995.344 297.536 994.928 295.442 994.5 293.292C994.259 292.079 994.018 290.851 993.788 289.692C993.138 286.407 992.608 283.72 992.608 283.72L1001.71 283.947V283.95Z" fill="#F7A491"/>
<path d="M1001.86 284.762C1001.77 284.254 1001.71 283.954 1001.71 283.954L992.612 283.728C992.612 283.728 993.142 286.414 993.792 289.7C994.019 290.847 994.26 292.072 994.501 293.278C995.907 293.069 997.375 292.39 998.847 291.103C1000.45 289.7 1001.5 288.015 1002.14 286.213C1002.03 285.639 1001.93 285.142 1001.86 284.766V284.762Z" fill="#F47458"/>
<path d="M994.8 264.342C994.8 264.342 999.092 263.848 1001.78 267.321C1004.47 270.793 1007.37 281.535 1000.69 287.375C994.008 293.216 987.407 286.604 986.428 279.597C985.449 272.587 985.069 264.09 994.8 264.346V264.342Z" fill="#F7A491"/>
<path d="M994.321 263.194C994.321 263.194 1000.05 273.41 1004.15 273.881C1008.26 274.353 1008.79 279.78 1008.79 279.78C1008.79 279.78 1007.33 267.273 1003.27 264.861C999.209 262.449 994.321 263.194 994.321 263.194Z" fill="#184655"/>
<path d="M1003.08 276.447C1002.74 278.26 1003.41 279.923 1004.57 280.164C1005.74 280.402 1006.94 279.126 1007.28 277.309C1007.61 275.497 1006.94 273.834 1005.78 273.592C1004.62 273.355 1003.41 274.63 1003.08 276.447Z" fill="#F7A491"/>
<path d="M1006.93 294.86C1000.59 303.343 997.7 316.808 1001.98 329.787C1003.74 334.915 1005.73 339.885 1009.52 345.013C1014.3 351.384 1018.05 353.054 1017.72 352.864L1019.13 350.126C1019.1 350.108 1017.25 349.125 1014.95 346.789C1014.82 346.621 1009.67 341.862 1006.15 332.429C997.905 311.461 1009.47 298.142 1009.67 297.645C1009.75 297.536 1009.82 297.174 1009.88 297.112L1006.93 294.864V294.86Z" fill="#FACD49"/>
<path d="M981.493 346.654C983.397 321.267 993.927 299.524 994.044 299.385L991.177 299.151C991.045 299.308 987.962 300.997 985.029 308.025C982.611 313.829 979.883 322.948 979.839 334.593C979.832 337.005 981.493 346.65 981.493 346.65V346.654Z" fill="#FACD49"/>
<path d="M972.376 354.234L934.994 345.649V315.218L972.376 323.8V354.234Z" fill="white"/>
<path d="M937.12 328.157C940.546 328.661 939.118 327.371 936.875 326.139C938.344 326.629 938.607 326.311 938.567 325.894C938.519 325.39 935.728 323.537 934.987 323.632C934.304 323.72 934.344 326.084 934.556 326.775C934.589 327.184 934.64 327.649 934.629 328.149C934.596 329.56 934.607 329.841 934.713 330.393C934.877 331.241 935.71 331.234 936.864 331.49C938.468 331.673 938.797 330.711 936.587 329.863C936.817 329.896 938.903 330.273 939.133 329.765C939.352 329.279 938.629 328.906 937.116 328.157H937.12Z" fill="#F8A492"/>
<path d="M1004.78 319.275L1003.79 337.831C996.115 334.819 983.816 331.095 979.309 329.154C974.031 326.099 970.557 325.982 968.913 326.088C968.029 326.146 964.34 326.585 964.34 326.585C964.34 326.585 960.534 328.99 960.768 329.191C961.454 329.768 964.767 327.795 964.767 327.795C964.767 327.795 967.185 327.707 967.54 327.74C968.42 327.828 967.967 328.04 967.967 328.04C965.564 328.292 963.931 328.767 963.931 328.767C963.931 328.767 959.423 330.463 959.599 330.73C959.851 331.11 960.274 331.077 961.962 330.704C962.996 330.477 964.745 329.922 965.684 329.783C967.335 329.542 968.438 329.98 967.876 330.01C967.437 330.035 966.375 330.116 965.381 330.258C962.97 330.605 960.205 331.355 960.53 331.684C960.965 332.126 964.289 331.596 965.483 331.501C966.47 331.446 969.257 332.309 969.227 332.491C969.18 332.63 967.722 332.681 967.386 332.674C966.963 332.667 964.683 332.502 964.683 332.977C964.683 333.511 971.799 334.439 971.799 334.439L975.397 334.337L975.583 334.388C975.583 334.388 1003.04 351.073 1009.32 348.624C1014.61 345.466 1017.04 319.275 1016.77 318.584L1004.76 319.275H1004.78Z" fill="#F8A492"/>
<path d="M1019.65 300.295C1022.21 306.425 1019.04 323.694 1019.04 323.694C1019.04 323.694 1005.36 321.739 1002.52 319.962C1002.52 319.962 1006.35 303.501 1006.62 302.488C1007.85 297.905 1011.13 296.914 1013.33 296.49C1016.8 295.822 1019.64 300.295 1019.64 300.295H1019.65Z" fill="#B75742"/>
<path d="M1189.51 146.463C1188.78 144.857 1188.03 143.243 1187.26 141.634C1187.05 141.185 1187.23 140.64 1187.68 140.432C1188.12 140.224 1188.67 140.398 1188.88 140.847C1189.67 142.465 1190.43 144.089 1191.15 145.71C1191.36 146.159 1191.16 146.711 1190.69 146.91C1190.41 147.047 1190.09 147.007 1189.85 146.864C1189.69 146.768 1189.58 146.635 1189.49 146.453L1189.51 146.463ZM1186.51 136.035C1185.71 134.449 1184.88 132.854 1184.04 131.265C1183.8 130.822 1183.26 130.648 1182.8 130.897C1182.36 131.131 1182.2 131.686 1182.44 132.128C1183.27 133.708 1184.1 135.287 1184.89 136.864C1184.97 137.02 1185.09 137.153 1185.23 137.239C1185.49 137.392 1185.82 137.417 1186.1 137.263C1186.55 137.029 1186.74 136.494 1186.5 136.051L1186.51 136.035ZM1201.21 176.899C1201.41 177.023 1201.67 177.067 1201.93 176.987C1202.41 176.839 1202.69 176.335 1202.54 175.857C1202.02 174.159 1201.48 172.451 1200.93 170.734C1200.78 170.256 1200.25 170.009 1199.78 170.156C1199.3 170.304 1199.05 170.827 1199.2 171.305C1199.76 173.006 1200.29 174.704 1200.79 176.393C1200.85 176.622 1201 176.8 1201.2 176.915L1201.21 176.899ZM1111.26 313.961C1110.47 312.41 1109.69 310.817 1108.91 309.184C1108.71 308.735 1108.17 308.544 1107.71 308.743C1107.26 308.951 1107.07 309.487 1107.27 309.952C1108.05 311.611 1108.84 313.229 1109.62 314.78C1109.7 314.936 1109.83 315.054 1109.97 315.14C1110.22 315.292 1110.56 315.317 1110.84 315.163C1111.29 314.93 1111.46 314.384 1111.24 313.951L1111.26 313.961ZM1181.44 126.577C1180.58 125.02 1179.69 123.469 1178.77 121.925C1178.51 121.489 1177.96 121.356 1177.53 121.599C1177.1 121.858 1176.96 122.407 1177.21 122.834C1178.11 124.368 1179 125.919 1179.86 127.451C1179.95 127.591 1180.06 127.699 1180.19 127.775C1180.46 127.937 1180.8 127.946 1181.09 127.793C1181.51 127.549 1181.67 126.994 1181.43 126.568L1181.44 126.577ZM1197.86 166.736C1198.08 166.87 1198.36 166.907 1198.62 166.802C1199.09 166.629 1199.33 166.121 1199.17 165.659C1198.57 163.981 1197.97 162.302 1197.33 160.62C1197.15 160.165 1196.63 159.917 1196.17 160.1C1195.7 160.273 1195.47 160.805 1195.65 161.261C1196.28 162.933 1196.88 164.596 1197.48 166.275C1197.55 166.488 1197.7 166.641 1197.87 166.746L1197.86 166.736ZM1104.69 299.406C1104.51 298.95 1103.97 298.718 1103.52 298.901C1103.06 299.084 1102.83 299.616 1103.01 300.072C1103.69 301.773 1104.39 303.426 1105.07 305.028C1105.16 305.21 1105.29 305.353 1105.44 305.439C1105.68 305.581 1105.98 305.613 1106.25 305.491C1106.71 305.293 1106.92 304.766 1106.72 304.301C1106.03 302.699 1105.35 301.056 1104.68 299.38L1104.69 299.406ZM1193.69 156.279C1193.77 156.477 1193.9 156.62 1194.06 156.715C1194.3 156.858 1194.59 156.88 1194.86 156.784C1195.32 156.601 1195.55 156.068 1195.37 155.613C1194.71 153.963 1194 152.31 1193.3 150.657C1193.12 150.201 1192.58 149.985 1192.11 150.184C1191.65 150.383 1191.44 150.909 1191.64 151.374C1192.35 153.011 1193.04 154.655 1193.68 156.295L1193.69 156.279ZM1100.96 289.407C1100.79 288.935 1100.29 288.681 1099.8 288.845C1099.33 289.018 1099.08 289.515 1099.24 290.003C1099.84 291.723 1100.45 293.411 1101.05 295.049C1101.13 295.246 1101.27 295.415 1101.43 295.51C1101.65 295.644 1101.93 295.681 1102.21 295.585C1102.68 295.412 1102.91 294.879 1102.73 294.424C1102.12 292.786 1101.52 291.124 1100.92 289.403L1100.96 289.407ZM1203.03 297.223C1202.5 298.943 1201.95 300.627 1201.38 302.276C1201.24 302.691 1201.41 303.137 1201.77 303.356C1201.82 303.385 1201.88 303.423 1201.93 303.451C1202.39 303.619 1202.91 303.366 1203.08 302.904C1203.66 301.239 1204.24 299.523 1204.77 297.787C1204.93 297.315 1204.66 296.812 1204.18 296.651C1203.7 296.498 1203.19 296.777 1203.04 297.249L1203.03 297.223ZM1199.52 307.272C1198.87 308.94 1198.17 310.58 1197.48 312.179C1197.29 312.606 1197.45 313.093 1197.83 313.322C1197.86 313.341 1197.9 313.36 1197.93 313.379C1198.39 313.589 1198.92 313.387 1199.11 312.918C1199.84 311.297 1200.53 309.648 1201.19 307.947C1201.38 307.494 1201.15 306.943 1200.68 306.775C1200.21 306.582 1199.7 306.819 1199.51 307.288L1199.52 307.272ZM1175.99 117.299C1175.05 115.786 1174.1 114.265 1173.12 112.749C1172.85 112.329 1172.29 112.212 1171.87 112.481C1171.45 112.749 1171.34 113.307 1171.6 113.728C1172.57 115.234 1173.53 116.739 1174.45 118.242C1174.52 118.373 1174.64 118.465 1174.75 118.532C1175.02 118.694 1175.39 118.696 1175.69 118.527C1176.11 118.258 1176.24 117.71 1175.98 117.273L1175.99 117.299ZM1205.84 286.947C1205.42 288.691 1204.98 290.417 1204.52 292.117C1204.42 292.509 1204.6 292.923 1204.94 293.123C1205 293.162 1205.08 293.209 1205.17 293.215C1205.65 293.352 1206.14 293.064 1206.28 292.582C1206.74 290.866 1207.19 289.141 1207.6 287.371C1207.72 286.88 1207.42 286.399 1206.93 286.279C1206.44 286.158 1205.96 286.456 1205.84 286.947ZM1195.22 316.977C1194.41 318.576 1193.58 320.156 1192.74 321.668C1192.49 322.083 1192.64 322.628 1193.07 322.885L1193.09 322.895C1193.52 323.152 1194.07 322.985 1194.32 322.545C1195.17 321 1196.02 319.405 1196.84 317.774C1197.07 317.324 1196.87 316.776 1196.44 316.561C1195.99 316.335 1195.45 316.511 1195.23 316.961L1195.22 316.977ZM1206.97 281.755C1206.89 282.141 1207.07 282.529 1207.39 282.72C1207.47 282.768 1207.56 282.825 1207.67 282.825C1208.16 282.919 1208.65 282.606 1208.74 282.121C1209.1 280.39 1209.43 278.613 1209.74 276.828C1209.82 276.333 1209.49 275.859 1209 275.78C1208.5 275.702 1208.03 276.025 1207.95 276.519C1207.65 278.289 1207.31 280.03 1206.97 281.755ZM1210.78 239.385C1210.78 239.711 1210.96 239.991 1211.21 240.143C1211.36 240.229 1211.52 240.283 1211.69 240.279C1212.19 240.275 1212.59 239.863 1212.59 239.363C1212.56 237.594 1212.51 235.789 1212.44 233.992C1212.42 233.482 1212 233.1 1211.5 233.13C1210.99 233.15 1210.61 233.571 1210.64 234.065C1210.72 235.863 1210.77 237.626 1210.79 239.395L1210.78 239.385ZM1210.02 260.694C1209.99 261.041 1210.18 261.373 1210.47 261.544C1210.58 261.611 1210.71 261.646 1210.85 261.665C1211.35 261.702 1211.78 261.334 1211.84 260.847C1211.99 259.074 1212.12 257.292 1212.25 255.484C1212.28 254.987 1211.89 254.557 1211.39 254.52C1210.9 254.482 1210.47 254.875 1210.43 255.373C1210.31 257.165 1210.19 258.931 1210.03 260.678L1210.02 260.694ZM1137.8 346.252C1136.35 345.384 1134.92 344.377 1133.5 343.27C1133.12 342.974 1132.54 343.039 1132.24 343.425C1131.93 343.828 1132.01 344.392 1132.4 344.687C1133.88 345.832 1135.37 346.878 1136.89 347.784C1137.32 348.041 1137.88 347.9 1138.13 347.485C1138.39 347.054 1138.26 346.503 1137.83 346.245L1137.8 346.252ZM1116.45 323.252C1115.55 321.785 1114.65 320.25 1113.77 318.667C1113.53 318.241 1112.97 318.082 1112.55 318.325C1112.12 318.569 1111.96 319.123 1112.21 319.55C1113.1 321.168 1114.02 322.712 1114.92 324.205C1115 324.336 1115.12 324.428 1115.23 324.495C1115.5 324.657 1115.87 324.659 1116.16 324.49C1116.58 324.221 1116.71 323.673 1116.46 323.236L1116.45 323.252ZM1157.66 350.924C1155.94 351.128 1154.22 351.183 1152.48 351.078C1151.98 351.041 1151.55 351.433 1151.52 351.931C1151.5 352.288 1151.68 352.594 1151.96 352.756C1152.08 352.832 1152.21 352.867 1152.35 352.885C1154.17 352.997 1156.04 352.945 1157.86 352.731C1158.35 352.676 1158.71 352.22 1158.65 351.732C1158.58 351.235 1158.14 350.885 1157.65 350.94L1157.66 350.924ZM1209.56 272.305C1210.05 272.383 1210.52 272.035 1210.58 271.531C1210.83 269.774 1211.07 267.992 1211.28 266.206C1211.33 265.718 1210.97 265.267 1210.48 265.213C1209.98 265.151 1209.54 265.518 1209.49 266.006C1209.29 267.791 1209.07 269.542 1208.8 271.289C1208.75 271.669 1208.93 272.016 1209.23 272.197C1209.33 272.254 1209.45 272.305 1209.58 272.314L1209.56 272.305ZM1212.48 250.125C1212.55 248.346 1212.58 246.548 1212.6 244.741C1212.61 244.25 1212.21 243.836 1211.71 243.84C1211.21 243.844 1210.81 244.231 1210.81 244.731C1210.8 246.523 1210.76 248.295 1210.68 250.065C1210.67 250.406 1210.84 250.702 1211.12 250.873C1211.25 250.95 1211.4 250.994 1211.55 250.997C1212.06 251.018 1212.47 250.616 1212.48 250.125ZM1177.63 342.367C1177.3 341.976 1176.74 341.926 1176.35 342.255C1174.97 343.402 1173.57 344.447 1172.14 345.391C1171.72 345.659 1171.6 346.217 1171.89 346.647C1171.97 346.762 1172.06 346.86 1172.17 346.927C1172.46 347.098 1172.83 347.101 1173.13 346.915C1174.62 345.943 1176.08 344.844 1177.5 343.659C1177.89 343.345 1177.94 342.775 1177.62 342.383L1177.63 342.367ZM1191.27 325.968C1190.82 325.676 1190.3 325.82 1190.03 326.242C1189.06 327.761 1188.07 329.229 1187.05 330.611C1186.76 331.023 1186.85 331.571 1187.25 331.877C1187.26 331.886 1187.3 331.905 1187.31 331.915C1187.71 332.153 1188.23 332.05 1188.5 331.67C1189.54 330.256 1190.55 328.74 1191.53 327.205C1191.79 326.774 1191.68 326.232 1191.26 325.959L1191.27 325.968ZM1147.39 350.288C1145.74 349.889 1144.08 349.331 1142.46 348.643C1141.99 348.449 1141.48 348.661 1141.27 349.12C1141.09 349.532 1141.25 350.019 1141.63 350.248C1141.66 350.267 1141.7 350.286 1141.74 350.315C1143.46 351.035 1145.22 351.634 1146.96 352.064C1147.45 352.184 1147.93 351.887 1148.05 351.396C1148.17 350.905 1147.87 350.424 1147.38 350.304L1147.39 350.288ZM1185.08 334.673C1184.7 334.362 1184.12 334.401 1183.8 334.778C1182.66 336.151 1181.44 337.46 1180.24 338.671C1179.89 339.019 1179.89 339.586 1180.24 339.946C1180.3 339.984 1180.36 340.038 1180.42 340.076C1180.77 340.286 1181.24 340.237 1181.53 339.934C1182.77 338.685 1183.99 337.334 1185.18 335.923C1185.5 335.53 1185.45 334.96 1185.07 334.648L1185.08 334.673ZM1168.82 348.368C1168.61 347.919 1168.06 347.719 1167.62 347.953C1166.04 348.718 1164.4 349.362 1162.78 349.849C1162.31 349.997 1162.03 350.501 1162.17 350.979C1162.24 351.193 1162.39 351.387 1162.58 351.501C1162.79 351.625 1163.04 351.669 1163.3 351.589C1165.02 351.075 1166.75 350.396 1168.41 349.596C1168.86 349.388 1169.06 348.836 1168.83 348.393L1168.82 348.368ZM1207.87 196.688C1207.51 194.935 1207.13 193.189 1206.73 191.434C1206.6 190.949 1206.14 190.647 1205.63 190.76C1205.15 190.882 1204.85 191.351 1204.96 191.851C1205.37 193.591 1205.74 195.328 1206.1 197.055C1206.16 197.31 1206.31 197.529 1206.52 197.653C1206.71 197.768 1206.94 197.818 1207.17 197.76C1207.66 197.664 1207.97 197.179 1207.87 196.688ZM1122.5 331.959C1121.46 330.597 1120.4 329.168 1119.38 327.69C1119.1 327.286 1118.54 327.185 1118.12 327.454C1117.71 327.732 1117.61 328.3 1117.89 328.704C1118.93 330.216 1120.01 331.68 1121.08 333.078C1121.16 333.167 1121.24 333.24 1121.34 333.297C1121.64 333.478 1122.06 333.468 1122.35 333.231C1122.75 332.928 1122.81 332.357 1122.5 331.959ZM1204.12 187.212C1204.31 187.326 1204.56 187.37 1204.79 187.312C1205.28 187.19 1205.57 186.696 1205.45 186.211C1205.01 184.478 1204.55 182.751 1204.07 181.015C1203.95 180.531 1203.45 180.251 1202.95 180.389C1202.47 180.511 1202.19 181.015 1202.33 181.509C1202.81 183.23 1203.26 184.947 1203.71 186.664C1203.77 186.894 1203.93 187.097 1204.12 187.212ZM1211.79 223.257C1211.75 222.753 1211.32 222.387 1210.81 222.433C1210.31 222.479 1209.94 222.91 1209.99 223.413C1210.14 225.192 1210.29 226.97 1210.39 228.72C1210.4 229.029 1210.59 229.293 1210.83 229.436C1210.99 229.532 1211.16 229.57 1211.36 229.56C1211.86 229.53 1212.25 229.093 1212.2 228.589C1212.09 226.814 1211.95 225.019 1211.79 223.231L1211.79 223.257ZM1209.89 218.788C1210.05 218.883 1210.26 218.94 1210.45 218.905C1210.94 218.85 1211.32 218.403 1211.24 217.905C1211.04 216.14 1210.83 214.365 1210.58 212.57C1210.51 212.073 1210.06 211.739 1209.57 211.795C1209.07 211.866 1208.74 212.316 1208.79 212.803C1209.04 214.572 1209.25 216.347 1209.45 218.087C1209.48 218.39 1209.65 218.619 1209.89 218.762L1209.89 218.788ZM1129.56 339.832C1128.33 338.664 1127.1 337.388 1125.89 336.039C1125.55 335.664 1124.99 335.63 1124.61 335.968C1124.24 336.307 1124.2 336.871 1124.54 337.247C1125.77 338.631 1127.05 339.935 1128.32 341.148C1128.38 341.186 1128.42 341.23 1128.48 341.268C1128.83 341.478 1129.3 341.429 1129.6 341.11C1129.94 340.752 1129.92 340.175 1129.56 339.832ZM1208.91 201.958C1208.81 201.468 1208.33 201.14 1207.84 201.237C1207.35 201.334 1207.03 201.793 1207.12 202.3C1207.44 204.049 1207.75 205.815 1208.03 207.561C1208.07 207.848 1208.23 208.052 1208.46 208.185C1208.63 208.29 1208.84 208.331 1209.05 208.305C1209.55 208.234 1209.88 207.758 1209.81 207.261C1209.54 205.499 1209.23 203.733 1208.91 201.958Z" fill="#F411CF"/>
<path d="M41.2291 232.834C40.8992 233.113 40.497 233.144 40.2062 232.978C40.0931 232.914 39.9912 232.83 39.9277 232.716C38.9468 231.095 38.0204 229.453 37.1487 227.79C36.9059 227.315 37.0837 226.664 37.5611 226.314C38.0386 225.963 38.6074 226.054 38.8503 226.529C39.6847 228.145 40.5948 229.777 41.5546 231.36C41.8197 231.796 41.6742 232.465 41.2291 232.834ZM122.732 83.2123C123.241 82.9573 123.521 82.3134 123.36 81.807C123.211 81.281 122.665 81.0744 122.173 81.3386C120.34 82.2663 118.54 83.2123 116.772 84.1768C116.28 84.441 115.999 85.0849 116.16 85.5913C116.227 85.8111 116.355 85.9618 116.517 86.0537C116.759 86.1916 117.064 86.1832 117.359 86.0401C119.116 85.0952 120.916 84.1492 122.721 83.2319L122.732 83.2123ZM36.4697 221.467C35.7294 219.724 35.0549 217.94 34.4562 216.173C34.2791 215.658 33.7387 215.48 33.2462 215.744C32.7426 216.028 32.489 216.661 32.65 217.168C33.2587 218.992 33.9544 220.814 34.7158 222.595C34.7893 222.766 34.9124 222.888 35.0578 222.971C35.3163 223.118 35.6639 223.108 35.9765 222.897C36.459 222.576 36.6964 221.933 36.4808 221.447L36.4697 221.467ZM102.022 93.75C101.834 93.254 101.255 93.1061 100.784 93.4083C98.9974 94.5178 97.2546 95.6261 95.5442 96.7529C95.0617 97.0746 94.8405 97.7265 95.056 98.2121C95.1295 98.3836 95.2526 98.5055 95.398 98.5882C95.6565 98.7353 96.0042 98.7257 96.3167 98.5147C98.016 97.4075 99.7426 96.29 101.502 95.1909C101.989 94.8979 102.238 94.2357 102.022 93.75ZM31.7035 204.962C31.6083 204.416 31.1186 204.111 30.5888 204.328C30.0701 204.526 29.7085 205.123 29.8198 205.679C30.1333 207.647 30.5337 209.612 31.016 211.545C31.0722 211.785 31.2215 211.973 31.3992 212.074C31.6254 212.203 31.9023 212.205 32.1864 212.082C32.7001 211.855 32.9971 211.221 32.8746 210.684C32.4023 208.808 32.0231 206.881 31.7197 204.972L31.7035 204.962ZM144.106 71.0563C142.237 71.8597 140.412 72.6618 138.587 73.464C138.073 73.6902 137.76 74.3157 137.883 74.8521C137.939 75.0915 138.088 75.2802 138.266 75.3813C138.476 75.5008 138.769 75.512 139.026 75.3989C140.835 74.5875 142.66 73.7853 144.501 72.9924C145.015 72.7661 145.344 72.1498 145.222 71.6134C145.099 71.0771 144.587 70.8117 144.074 71.0379L144.106 71.0563ZM55.128 248.21C53.8323 246.954 52.5862 245.649 51.3835 244.342C51.0526 243.946 50.427 244.031 50.0353 244.456C49.6325 244.901 49.5901 245.577 49.9432 245.934C51.1509 247.269 52.4405 248.573 53.7412 249.858C53.7897 249.885 53.8432 249.942 53.8916 249.969C54.2471 250.172 54.7646 250.051 55.0906 249.666C55.4772 249.212 55.4923 248.547 55.1392 248.19L55.128 248.21ZM134.259 76.5232C134.125 76.0064 133.602 75.7606 133.088 75.9868C131.246 76.8569 129.419 77.7362 127.62 78.6051C127.112 78.8601 126.826 79.4753 126.948 80.0116C127.016 80.2315 127.149 80.4109 127.327 80.512C127.553 80.6407 127.846 80.6519 128.141 80.5088C129.924 79.6307 131.739 78.771 133.582 77.9009C134.079 77.6655 134.392 77.04 134.27 76.5036L134.259 76.5232ZM167.431 62.9139C167.336 62.3671 166.846 62.0626 166.327 62.26C164.438 62.9483 162.593 63.6353 160.748 64.3224C160.229 64.5198 159.884 65.1269 159.979 65.6737C160.013 65.9523 160.179 66.1501 160.372 66.2604C160.566 66.3708 160.832 66.3923 161.078 66.2988C162.907 65.6026 164.752 64.9155 166.629 64.2468C167.148 64.0494 167.51 63.4515 167.415 62.9047L167.431 62.9139ZM47.8647 240.266C46.7127 238.832 45.6153 237.378 44.5776 235.932C44.2851 235.507 43.6879 235.504 43.2477 235.902C42.8076 236.299 42.7056 236.967 42.998 237.393C44.0408 238.868 45.1593 240.36 46.3436 241.811C46.4021 241.896 46.4829 241.942 46.5636 241.988C46.9029 242.181 47.3547 242.102 47.6857 241.745C48.1047 241.31 48.1794 240.652 47.8647 240.266ZM150.04 70.6998C151.859 69.946 153.695 69.2013 155.562 68.4751C156.081 68.2777 156.41 67.6614 156.331 67.1238C156.236 66.577 155.724 66.3116 155.216 66.4895C153.338 67.2353 151.486 67.9707 149.667 68.7245C149.154 68.9507 148.819 69.5383 148.931 70.0942C148.976 70.3532 149.125 70.5419 149.319 70.6522C149.529 70.7717 149.795 70.7933 150.052 70.6802L150.04 70.6998ZM41.7015 151.8C42.1377 152.048 42.711 151.83 43.028 151.31C44.0756 149.469 45.215 147.655 46.3868 145.859C46.72 145.348 46.6532 144.714 46.2393 144.427C45.8304 144.168 45.2309 144.319 44.8977 144.83C43.6875 146.656 42.5308 148.538 41.4448 150.409C41.1439 150.938 41.238 151.562 41.6742 151.81L41.7015 151.8ZM37.3344 162.744C38.1335 160.814 39.0306 158.862 39.9923 156.946C40.2609 156.399 40.1122 155.796 39.6538 155.587C39.1953 155.377 38.6158 155.644 38.3473 156.191C37.3632 158.146 36.4488 160.167 35.6163 162.156C35.4135 162.663 35.536 163.199 35.9237 163.42C35.956 163.438 36.0045 163.466 36.0368 163.484C36.5176 163.654 37.087 163.33 37.3121 162.784L37.3344 162.744ZM48.7121 140.908C48.7121 140.908 48.7929 140.954 48.8252 140.972C49.2129 141.193 49.7528 141.033 50.0687 140.591C51.304 138.908 52.6211 137.195 53.9756 135.529C54.3462 135.065 54.3613 134.4 53.9969 134.063C53.6326 133.726 53.0231 133.82 52.6526 134.283C51.2758 135.989 49.9314 137.713 48.6738 139.434C48.3083 139.926 48.3478 140.571 48.7232 140.888L48.7121 140.908ZM56.7533 130.835C56.7533 130.835 56.8602 130.948 56.9248 130.985C57.2803 131.187 57.7544 131.068 58.0853 130.712C59.4599 129.161 60.9325 127.587 62.4151 126.072C62.8341 125.636 62.9088 124.979 62.5779 124.583C62.247 124.187 61.6548 124.213 61.2358 124.649C59.7309 126.204 58.2472 127.796 56.8342 129.378C56.4314 129.822 56.3889 130.498 56.7421 130.855L56.7533 130.835ZM105.875 92.0534C106.117 92.1913 106.453 92.2012 106.755 92.0098C108.485 90.9982 110.243 89.9762 112.044 88.953C112.548 88.6692 112.801 88.0357 112.624 87.5201C112.447 87.0045 111.907 86.8267 111.403 87.1105C109.586 88.1245 107.828 89.1465 106.075 90.1972C105.588 90.4902 105.334 91.1237 105.511 91.6393C105.574 91.8303 105.702 91.981 105.863 92.0729L105.875 92.0534ZM30.8283 193.083C30.8312 192.514 30.4134 192.121 29.8746 192.203C29.3521 192.295 28.9208 192.827 28.9068 193.415C28.8877 195.479 28.9604 197.568 29.1101 199.598C29.1379 199.925 29.2973 200.171 29.5234 200.3C29.7011 200.401 29.9234 200.424 30.1468 200.369C30.6755 200.229 31.0695 199.65 31.0177 199.102C30.8619 197.121 30.7992 195.089 30.8172 193.103L30.8283 193.083ZM75.0209 113.126C75.1006 113.249 75.1864 113.324 75.2995 113.389C75.6064 113.563 76.0036 113.504 76.3223 113.245C77.8996 111.939 79.5204 110.631 81.1846 109.323C81.6459 108.963 81.8075 108.303 81.5535 107.847C81.2995 107.392 80.7196 107.321 80.2583 107.681C78.5668 109 76.9187 110.317 75.3303 111.643C74.8851 112.012 74.7396 112.681 75.0048 113.117L75.0209 113.126ZM35.0976 168.705C35.2904 168.141 35.0598 167.569 34.5617 167.467C34.0748 167.345 33.5266 167.707 33.3338 168.272C32.6305 170.335 32.008 172.443 31.4786 174.501C31.3688 174.957 31.5309 175.387 31.854 175.57C31.9347 175.616 32.0155 175.662 32.1186 175.669C32.6116 175.742 33.1498 175.323 33.2992 174.759C33.8225 172.75 34.4277 170.709 35.0976 168.705ZM71.8429 115.855C71.5505 115.429 70.9644 115.407 70.5354 115.785C68.9235 117.227 67.3551 118.668 65.8302 120.108C65.4062 120.515 65.3042 121.182 65.6077 121.589C65.6662 121.674 65.752 121.748 65.849 121.804C66.1721 121.987 66.6127 121.927 66.9487 121.6C68.4464 120.17 69.9875 118.74 71.5882 117.317C72.0283 116.92 72.1465 116.261 71.8702 115.845L71.8429 115.855ZM31.9615 180.869C32.0624 180.278 31.7327 179.805 31.2062 179.791C30.6797 179.776 30.19 180.224 30.0891 180.814C29.7273 182.916 29.4413 185.035 29.2422 187.151C29.2093 187.547 29.3675 187.87 29.6583 188.036C29.7876 188.109 29.9391 188.144 30.0968 188.13C30.6294 188.096 31.0818 187.601 31.1392 187.012C31.3372 184.973 31.6059 182.922 31.9504 180.888L31.9615 180.869ZM91.6725 100.513C91.4569 100.027 90.8831 99.908 90.3895 100.249C88.6506 101.464 86.9552 102.677 85.2871 103.879C84.8096 104.23 84.6319 104.88 84.8747 105.356C84.9432 105.498 85.0502 105.611 85.1794 105.685C85.4541 105.841 85.829 105.821 86.1527 105.59C87.8046 104.378 89.4889 103.185 91.2005 101.981C91.6829 101.659 91.888 100.998 91.6452 100.523L91.6725 100.513ZM187.17 284.923C185.289 285.071 183.431 285.18 181.572 285.289C181.04 285.323 180.571 285.809 180.514 286.398C180.481 286.794 180.644 287.146 180.919 287.303C181.048 287.376 181.199 287.41 181.357 287.396C183.215 287.287 185.101 287.168 186.998 287.029C187.515 286.986 187.994 286.481 188.041 285.911C188.087 285.341 187.703 284.889 187.186 284.932L187.17 284.923ZM164.843 285.674C162.976 285.648 161.136 285.612 159.307 285.557C158.78 285.542 158.291 285.99 158.19 286.58C158.118 287.006 158.286 287.387 158.593 287.562C158.69 287.617 158.815 287.662 158.945 287.658C160.79 287.723 162.658 287.749 164.525 287.774C165.035 287.779 165.536 287.313 165.626 286.741C165.716 286.17 165.37 285.688 164.859 285.683L164.843 285.674ZM175.982 285.53C174.102 285.601 172.244 285.633 170.414 285.655C169.893 285.669 169.408 286.145 169.318 286.717C169.258 287.123 169.438 287.484 169.728 287.65C169.841 287.714 169.977 287.739 170.123 287.745C171.981 287.713 173.838 287.681 175.734 287.619C176.255 287.605 176.724 287.12 176.798 286.539C176.871 285.959 176.514 285.496 175.982 285.53ZM132.016 283.042C130.206 282.765 128.419 282.448 126.659 282.12C126.161 282.018 125.618 282.409 125.458 282.992C125.32 283.458 125.488 283.916 125.827 284.11C125.891 284.146 125.972 284.192 126.059 284.19C127.835 284.526 129.633 284.824 131.459 285.111C131.968 285.193 132.495 284.793 132.656 284.21C132.816 283.627 132.536 283.105 132.027 283.023L132.016 283.042ZM153.794 285.323C151.943 285.23 150.116 285.097 148.299 284.945C147.784 284.911 147.261 285.34 147.144 285.921C147.046 286.358 147.219 286.767 147.526 286.942C147.623 286.997 147.731 287.033 147.85 287.049C149.667 287.201 151.522 287.323 153.372 287.417C153.888 287.451 154.405 286.993 154.494 286.422C154.611 285.841 154.277 285.339 153.766 285.334L153.794 285.323ZM142.844 284.459C141.006 284.269 139.206 284.049 137.407 283.829C136.903 283.775 136.376 284.175 136.215 284.758C136.105 285.214 136.267 285.643 136.591 285.827C136.671 285.873 136.752 285.919 136.882 285.915C138.698 286.145 140.514 286.374 142.352 286.564C142.856 286.618 143.378 286.189 143.511 285.617C143.644 285.044 143.337 284.532 142.833 284.479L142.844 284.459ZM198.409 283.851C196.511 284.067 194.651 284.254 192.791 284.44C192.275 284.483 191.811 284.997 191.765 285.567C191.732 285.963 191.901 286.267 192.176 286.423C192.305 286.497 192.473 286.54 192.642 286.507C194.518 286.33 196.405 286.133 198.303 285.917C198.83 285.854 199.278 285.331 199.324 284.761C199.354 284.182 198.947 283.769 198.431 283.812L198.409 283.851ZM220.937 280.415C219.048 280.766 217.17 281.097 215.292 281.429C214.77 281.52 214.338 282.053 214.324 282.641C214.314 282.998 214.494 283.282 214.737 283.42C214.882 283.503 215.077 283.536 215.262 283.512C217.14 283.18 219.034 282.858 220.934 282.488C221.457 282.396 221.883 281.835 221.886 281.266C221.889 280.697 221.444 280.314 220.921 280.406L220.937 280.415ZM233.192 278.911C233.168 278.352 232.723 277.969 232.205 278.09C230.315 278.518 228.447 278.907 226.579 279.296C226.045 279.407 225.63 279.948 225.643 280.526C225.66 280.873 225.808 281.139 226.051 281.276C226.212 281.368 226.407 281.402 226.619 281.367C228.487 280.978 230.383 280.579 232.273 280.151C232.791 280.03 233.217 279.469 233.192 278.911ZM209.659 282.346C207.76 282.639 205.899 282.902 204.022 283.157C203.495 283.219 203.047 283.743 203.033 284.331C203.012 284.707 203.181 285.011 203.439 285.158C203.585 285.241 203.752 285.285 203.937 285.26C205.814 285.006 207.702 284.732 209.602 284.439C210.14 284.356 210.572 283.824 210.574 283.255C210.577 282.687 210.171 282.274 209.648 282.365L209.659 282.346ZM71.8707 261.444C70.3644 260.483 68.8965 259.493 67.4509 258.463C67.0431 258.127 66.4425 258.355 66.1204 258.846C65.7873 259.357 65.854 259.991 66.2518 260.269C67.6974 261.299 69.1976 262.308 70.7201 263.278L70.7524 263.297C71.1724 263.536 71.7346 263.337 72.0566 262.846C72.3737 262.327 72.2907 261.683 71.8818 261.425L71.8707 261.444ZM200.212 53.4117C200.741 53.2719 201.118 52.6831 201.078 52.1156C201.026 51.5676 200.559 51.2239 200.03 51.3638C198.132 51.9173 196.262 52.4605 194.408 53.0129C193.884 53.1815 193.502 53.7415 193.558 54.3182C193.597 54.6256 193.74 54.8626 193.967 54.9913C194.144 55.0924 194.383 55.1244 194.617 55.0505C196.471 54.4981 198.342 53.9549 200.239 53.4014L200.212 53.4117ZM188.769 54.7299C186.876 55.3123 185 55.9038 183.156 56.5137C182.632 56.6824 182.254 57.2711 182.322 57.8283C182.361 58.1356 182.515 58.3531 182.725 58.4726C182.919 58.5829 183.142 58.6057 183.392 58.5409C185.236 57.931 187.102 57.359 188.994 56.7767C189.518 56.608 189.885 56.0389 189.828 55.4621C189.76 54.905 189.281 54.5808 188.758 54.7495L188.769 54.7299ZM121.348 281.043C119.579 280.658 117.82 280.253 116.088 279.839C115.601 279.717 115.053 280.079 114.86 280.643C114.696 281.12 114.841 281.617 115.196 281.82C115.261 281.856 115.309 281.884 115.385 281.901C117.133 282.325 118.908 282.739 120.694 283.133C121.192 283.235 121.74 282.873 121.917 282.299C122.093 281.726 121.835 281.164 121.354 281.072L121.348 281.043ZM81.0669 266.781C79.8492 266.14 78.6587 265.488 77.4955 264.826L76.4131 264.21C76.0538 263.902 75.3875 264.171 75.0866 264.7C74.7857 265.229 74.8798 265.853 75.316 266.101L76.4145 266.726C77.5939 267.397 78.7893 268.077 80.0344 268.708C80.4706 268.956 81.0662 268.699 81.3509 268.161C81.6518 267.632 81.5193 267.038 81.0669 266.781ZM63.1971 255.264C61.7799 254.147 60.4173 253.009 59.082 251.86C58.7066 251.542 58.0971 251.636 57.7316 252.128C57.3499 252.611 57.3621 253.266 57.7537 253.593C59.094 254.77 60.4889 255.927 61.9222 257.054C61.9546 257.072 61.9869 257.09 62.0192 257.109C62.4069 257.329 62.9468 257.17 63.2738 256.708C63.6232 256.207 63.5837 255.562 63.1971 255.264ZM177.553 58.3551C175.67 58.995 173.788 59.6349 171.949 60.2736C171.43 60.471 171.079 61.0493 171.147 61.6065C171.197 61.8943 171.336 62.1025 171.546 62.222C171.739 62.3323 171.978 62.3643 172.224 62.2708C174.063 61.6321 175.929 60.983 177.8 60.3627C178.324 60.194 178.686 59.5961 178.618 59.0389C178.55 58.4818 178.06 58.1772 177.537 58.3459L177.553 58.3551ZM100.648 275.253C98.9572 274.653 97.2776 274.035 95.6253 273.406C95.1556 273.216 94.5812 273.511 94.345 274.077C94.1148 274.594 94.2535 275.14 94.6412 275.36C94.6735 275.379 94.7058 275.397 94.7381 275.416C96.3955 276.073 98.0751 276.692 99.8093 277.29C100.29 277.46 100.859 277.136 101.085 276.59C101.321 276.024 101.134 275.451 100.653 275.281L100.648 275.253ZM110.885 278.459C109.155 277.967 107.424 277.475 105.728 276.924C105.252 276.783 104.682 277.107 104.473 277.663C104.271 278.169 104.432 278.676 104.803 278.887C104.852 278.915 104.9 278.942 104.948 278.97C106.657 279.501 108.392 280.022 110.15 280.504C110.625 280.645 111.19 280.292 111.41 279.717C111.619 279.162 111.388 278.59 110.912 278.449L110.885 278.459ZM212.341 49.0096C212.3 48.4421 211.833 48.0983 211.32 48.2474C209.429 48.7526 207.537 49.2578 205.678 49.7814C205.149 49.9213 204.755 50.5008 204.812 51.0776C204.84 51.4045 204.999 51.6507 205.226 51.7794C205.403 51.8805 205.626 51.9033 205.849 51.849C207.708 51.3254 209.572 50.8306 211.464 50.3254C211.992 50.1855 212.386 49.6059 212.335 49.058L212.341 49.0096ZM90.6705 271.364C89.0193 270.658 87.4066 269.922 85.8161 269.146C85.3576 268.937 84.7782 269.204 84.5046 269.722C84.2471 270.25 84.3635 270.834 84.7674 271.064L84.8159 271.092C86.4175 271.848 88.0626 272.602 89.7299 273.318C90.1884 273.527 90.7628 273.231 91.0314 272.684C91.3 272.137 91.1128 271.564 90.6655 271.335L90.6705 271.364Z" fill="#872BFF"/>
</svg>
