<svg width="684" height="449" viewBox="0 0 684 449" fill="none" xmlns="http://www.w3.org/2000/svg">
<g clip-path="url(#clip0_1125_674)">
<g filter="url(#filter0_d_1125_674)">
<rect width="684" height="457" rx="30" fill="white"/>
</g>
<path d="M654.719 493.908L205.023 492.522L18.9388 491.95C18.9388 491.95 13.6226 483.145 8.00347 468.709C2.29663 449.45 -1.03519 425.906 0.289615 401.322C0.719893 393.367 1.63423 385.305 3.11756 377.242C9.48963 380.714 15.9495 382.38 20.3994 378.917C27.516 373.377 47.8976 357.187 63.331 344.916L63.3366 344.911C73.952 336.468 82.2264 329.877 82.2264 329.877C82.2264 329.877 90.8999 321.522 96.5727 323.863C99.1969 324.946 101.753 327.527 104.001 329.897C104.015 329.911 104.021 329.916 104.021 329.916C106.625 332.654 108.819 335.085 110.248 334.55C111.545 334.062 121.062 324.322 132.127 313.5C143.898 301.988 157.412 289.25 164.63 285.118C164.63 285.118 171.348 278.226 178.64 286.121C182.376 290.163 188.12 300.495 194.543 312.916C209.351 341.569 227.748 381.36 233.333 380.827C241.341 380.068 253.8 362.254 261.361 360.471C268.922 358.689 303.358 421.009 318.041 423.684C332.724 426.354 360.752 403.64 383.441 410.32C406.135 417.002 442.839 454.415 476.876 447.733C504.116 442.385 590.622 473.884 630.094 464.342C660.483 479.702 665.725 439.12 654.717 493.908H654.719Z" fill="#B8D6F9"/>
<path d="M194.546 312.913C191.024 314.049 186.124 314.656 185.516 309.923C184.627 303.02 164.828 316.382 154.598 319.275C144.367 322.168 150.151 310.368 149.927 307.027C149.791 304.984 139.844 309.6 132.133 313.497C143.9 301.985 157.414 289.244 164.636 285.115C164.636 285.115 171.353 278.223 178.648 286.118C182.382 290.16 188.128 300.489 194.549 312.913H194.546Z" fill="#F8FBFF"/>
<path d="M104.004 329.896C103.78 329.695 101.872 328.134 98.396 329.916C94.6905 331.821 89.7961 332.861 87.5711 332.192C85.3461 331.523 63.334 344.916 63.334 344.916L63.3396 344.91C73.9551 336.465 82.2294 329.874 82.2294 329.874C82.2294 329.874 90.9029 321.522 96.5729 323.86C99.1971 324.943 101.753 327.527 104.001 329.894L104.004 329.896Z" fill="#F8FBFF"/>
<path d="M205.756 485.262H17.9763C17.8546 485.026 17.73 484.789 17.6083 484.552C16.6034 482.603 15.6466 480.632 14.7379 478.627C12.2695 473.187 9.99351 467.1 8.00347 460.504C2.29663 441.582 -1.03519 418.451 0.289615 394.297C7.77984 397.541 14.8709 402.009 20.1928 407.84C36.1555 425.328 53.4487 389.043 105.433 402.413C157.417 415.78 152.548 459.04 174.498 462.414C192.921 465.252 202.438 479.424 205.023 483.901C205.518 484.758 205.759 485.262 205.759 485.262H205.756Z" fill="#86B1F2"/>
<path d="M86.324 83.8371C86.324 85.1811 85.848 86.2637 84.896 87.0851C83.944 87.9064 82.7307 88.4197 81.256 88.6251V88.7091C83.0853 88.8957 84.4853 89.4091 85.456 90.2491C86.4453 91.0704 86.94 92.1437 86.94 93.4691C86.94 94.6264 86.6227 95.6624 85.988 96.5771C85.3533 97.4731 84.4107 98.1731 83.16 98.6771C81.9093 99.1811 80.36 99.4331 78.512 99.4331C77 99.4331 75.656 99.3397 74.48 99.1531C73.3227 98.9664 72.3147 98.6957 71.456 98.3411V94.7851C72.0347 95.0651 72.688 95.3077 73.416 95.5131C74.144 95.6997 74.8813 95.8491 75.628 95.9611C76.3747 96.0544 77.0653 96.1011 77.7 96.1011C79.4733 96.1011 80.752 95.8491 81.536 95.3451C82.3387 94.8224 82.74 94.0944 82.74 93.1611C82.74 92.2091 82.1613 91.5184 81.004 91.0891C79.8467 90.6411 78.288 90.4171 76.328 90.4171H74.452V87.1131H76.132C77.7187 87.1131 78.9507 87.0104 79.828 86.8051C80.7053 86.5997 81.3213 86.3011 81.676 85.9091C82.0307 85.5171 82.208 85.0504 82.208 84.5091C82.208 83.8184 81.9 83.2771 81.284 82.8851C80.6867 82.4744 79.7813 82.2691 78.568 82.2691C77.5413 82.2691 76.5707 82.4184 75.656 82.7171C74.76 83.0157 73.92 83.4077 73.136 83.8931L71.288 81.0651C71.9787 80.6171 72.7067 80.2344 73.472 79.9171C74.256 79.5811 75.1147 79.3291 76.048 79.1611C76.9813 78.9744 78.0173 78.8811 79.156 78.8811C80.668 78.8811 81.956 79.0957 83.02 79.5251C84.084 79.9544 84.896 80.5424 85.456 81.2891C86.0347 82.0171 86.324 82.8664 86.324 83.8371ZM104.088 83.8651V96.1011H106.328V104.641H102.576V99.1531H92.3003V104.641H88.5483V96.1011H89.8363C90.5083 95.0744 91.0776 93.9077 91.5443 92.6011C92.0109 91.2757 92.3843 89.8664 92.6643 88.3731C92.9443 86.8797 93.1496 85.3771 93.2803 83.8651H104.088ZM96.7803 87.0011C96.6309 88.1211 96.4443 89.2131 96.2203 90.2771C95.9963 91.3224 95.7163 92.3304 95.3803 93.3011C95.0629 94.2717 94.6709 95.2051 94.2043 96.1011H99.9163V87.0011H96.7803ZM115.234 83.5851C116.653 83.5851 117.866 83.8557 118.874 84.3971C119.901 84.9384 120.694 85.7224 121.254 86.7491C121.814 87.7757 122.094 89.0357 122.094 90.5291V92.5451H112.238C112.275 93.7211 112.621 94.6451 113.274 95.3171C113.946 95.9891 114.87 96.3251 116.046 96.3251C117.035 96.3251 117.931 96.2317 118.734 96.0451C119.537 95.8397 120.367 95.5317 121.226 95.1211V98.3411C120.479 98.7144 119.686 98.9851 118.846 99.1531C118.025 99.3397 117.026 99.4331 115.85 99.4331C114.319 99.4331 112.966 99.1531 111.79 98.5931C110.614 98.0144 109.69 97.1464 109.018 95.9891C108.346 94.8317 108.01 93.3757 108.01 91.6211C108.01 89.8291 108.309 88.3451 108.906 87.1691C109.522 85.9744 110.371 85.0784 111.454 84.4811C112.537 83.8837 113.797 83.5851 115.234 83.5851ZM115.262 86.5531C114.459 86.5531 113.787 86.8144 113.246 87.3371C112.723 87.8597 112.415 88.6717 112.322 89.7731H118.174C118.174 89.1571 118.062 88.6064 117.838 88.1211C117.633 87.6357 117.315 87.2531 116.886 86.9731C116.457 86.6931 115.915 86.5531 115.262 86.5531ZM131.693 99.4331C130.181 99.4331 128.893 99.1624 127.829 98.6211C126.765 98.0611 125.953 97.2024 125.393 96.0451C124.833 94.8877 124.553 93.4037 124.553 91.5931C124.553 89.7264 124.87 88.2051 125.505 87.0291C126.14 85.8531 127.017 84.9851 128.137 84.4251C129.276 83.8651 130.582 83.5851 132.057 83.5851C133.102 83.5851 134.008 83.6877 134.773 83.8931C135.557 84.0984 136.238 84.3411 136.817 84.6211L135.585 87.8411C134.932 87.5797 134.316 87.3651 133.737 87.1971C133.177 87.0291 132.617 86.9451 132.057 86.9451C131.329 86.9451 130.722 87.1224 130.237 87.4771C129.752 87.8131 129.388 88.3264 129.145 89.0171C128.921 89.6891 128.809 90.5384 128.809 91.5651C128.809 92.5731 128.93 93.4131 129.173 94.0851C129.434 94.7384 129.808 95.2331 130.293 95.5691C130.778 95.8864 131.366 96.0451 132.057 96.0451C132.934 96.0451 133.709 95.9331 134.381 95.7091C135.053 95.4664 135.706 95.1397 136.341 94.7291V98.2851C135.706 98.6957 135.034 98.9851 134.325 99.1531C133.634 99.3397 132.757 99.4331 131.693 99.4331ZM146.972 89.7731C148.54 89.7731 149.837 89.9411 150.864 90.2771C151.89 90.5944 152.646 91.0891 153.132 91.7611C153.636 92.4331 153.888 93.2731 153.888 94.2811C153.888 95.2704 153.654 96.1291 153.188 96.8571C152.74 97.5851 152.021 98.1544 151.032 98.5651C150.042 98.9571 148.745 99.1531 147.14 99.1531H139.86V83.8651H144.032V89.7731H146.972ZM149.716 94.3371C149.716 93.7397 149.473 93.3104 148.988 93.0491C148.521 92.7877 147.821 92.6571 146.888 92.6571H144.032V96.2691H146.944C147.765 96.2691 148.428 96.1197 148.932 95.8211C149.454 95.5224 149.716 95.0277 149.716 94.3371ZM175.842 83.8651V99.1531H171.67V87.0011H166.126V99.1531H161.954V83.8651H175.842ZM194.107 91.4811C194.107 92.7504 193.93 93.8797 193.575 94.8691C193.239 95.8584 192.744 96.6984 192.091 97.3891C191.456 98.0611 190.682 98.5744 189.767 98.9291C188.852 99.2651 187.816 99.4331 186.659 99.4331C185.595 99.4331 184.606 99.2651 183.691 98.9291C182.795 98.5744 182.02 98.0611 181.367 97.3891C180.714 96.6984 180.2 95.8584 179.827 94.8691C179.472 93.8797 179.295 92.7504 179.295 91.4811C179.295 89.7824 179.594 88.3544 180.191 87.1971C180.788 86.0211 181.647 85.1251 182.767 84.5091C183.887 83.8931 185.212 83.5851 186.743 83.5851C188.18 83.5851 189.45 83.8931 190.551 84.5091C191.652 85.1251 192.52 86.0211 193.155 87.1971C193.79 88.3544 194.107 89.7824 194.107 91.4811ZM183.551 91.4811C183.551 92.4891 183.654 93.3384 183.859 94.0291C184.083 94.7011 184.428 95.2144 184.895 95.5691C185.362 95.9051 185.968 96.0731 186.715 96.0731C187.462 96.0731 188.059 95.9051 188.507 95.5691C188.974 95.2144 189.31 94.7011 189.515 94.0291C189.739 93.3384 189.851 92.4891 189.851 91.4811C189.851 90.4731 189.739 89.6331 189.515 88.9611C189.31 88.2891 188.974 87.7851 188.507 87.4491C188.04 87.1131 187.434 86.9451 186.687 86.9451C185.586 86.9451 184.783 87.3277 184.279 88.0931C183.794 88.8397 183.551 89.9691 183.551 91.4811ZM199.879 99.1531H195.371L199.487 93.1051C198.964 92.8811 198.47 92.5824 198.003 92.2091C197.555 91.8171 197.191 91.3224 196.911 90.7251C196.631 90.1277 196.491 89.4184 196.491 88.5971C196.491 87.0664 197.07 85.8997 198.227 85.0971C199.384 84.2757 200.868 83.8651 202.679 83.8651H209.791V99.1531H205.619V93.4691H203.323L199.879 99.1531ZM200.579 88.6251C200.579 89.2597 200.831 89.7637 201.335 90.1371C201.839 90.4917 202.492 90.6691 203.295 90.6691H205.619V86.8051H202.763C202.016 86.8051 201.466 86.9917 201.111 87.3651C200.756 87.7197 200.579 88.1397 200.579 88.6251ZM227.705 87.8691C227.705 88.6904 227.443 89.3904 226.921 89.9691C226.417 90.5477 225.661 90.9211 224.653 91.0891V91.2011C225.717 91.3317 226.566 91.6957 227.201 92.2931C227.854 92.8904 228.181 93.6557 228.181 94.5891C228.181 95.2424 228.05 95.8491 227.789 96.4091C227.546 96.9691 227.154 97.4544 226.613 97.8651C226.071 98.2757 225.371 98.5931 224.513 98.8171C223.673 99.0411 222.646 99.1531 221.433 99.1531H214.153V83.8651H221.433C222.627 83.8651 223.691 83.9957 224.625 84.2571C225.577 84.4997 226.323 84.9104 226.865 85.4891C227.425 86.0677 227.705 86.8611 227.705 87.8691ZM223.869 94.3651C223.869 93.7677 223.635 93.3384 223.169 93.0771C222.702 92.7971 222.002 92.6571 221.069 92.6571H218.325V96.2691H221.153C221.937 96.2691 222.581 96.1291 223.085 95.8491C223.607 95.5504 223.869 95.0557 223.869 94.3651ZM223.477 88.2051C223.477 87.7197 223.29 87.3651 222.917 87.1411C222.543 86.9171 221.993 86.8051 221.265 86.8051H218.325V89.8291H220.789C221.666 89.8291 222.329 89.7077 222.777 89.4651C223.243 89.2037 223.477 88.7837 223.477 88.2051ZM234.086 99.1531H229.578L233.694 93.1051C233.171 92.8811 232.677 92.5824 232.21 92.2091C231.762 91.8171 231.398 91.3224 231.118 90.7251C230.838 90.1277 230.698 89.4184 230.698 88.5971C230.698 87.0664 231.277 85.8997 232.434 85.0971C233.591 84.2757 235.075 83.8651 236.886 83.8651H243.998V99.1531H239.826V93.4691H237.53L234.086 99.1531ZM234.786 88.6251C234.786 89.2597 235.038 89.7637 235.542 90.1371C236.046 90.4917 236.699 90.6691 237.502 90.6691H239.826V86.8051H236.97C236.223 86.8051 235.673 86.9917 235.318 87.3651C234.963 87.7197 234.786 88.1397 234.786 88.6251ZM261.016 87.0011H256.004V99.1531H251.832V87.0011H246.82V83.8651H261.016V87.0011ZM269.779 99.4331C268.267 99.4331 266.979 99.1624 265.915 98.6211C264.851 98.0611 264.039 97.2024 263.479 96.0451C262.919 94.8877 262.639 93.4037 262.639 91.5931C262.639 89.7264 262.956 88.2051 263.591 87.0291C264.226 85.8531 265.103 84.9851 266.223 84.4251C267.362 83.8651 268.668 83.5851 270.143 83.5851C271.188 83.5851 272.094 83.6877 272.859 83.8931C273.643 84.0984 274.324 84.3411 274.903 84.6211L273.671 87.8411C273.018 87.5797 272.402 87.3651 271.823 87.1971C271.263 87.0291 270.703 86.9451 270.143 86.9451C269.415 86.9451 268.808 87.1224 268.323 87.4771C267.838 87.8131 267.474 88.3264 267.231 89.0171C267.007 89.6891 266.895 90.5384 266.895 91.5651C266.895 92.5731 267.016 93.4131 267.259 94.0851C267.52 94.7384 267.894 95.2331 268.379 95.5691C268.864 95.8864 269.452 96.0451 270.143 96.0451C271.02 96.0451 271.795 95.9331 272.467 95.7091C273.139 95.4664 273.792 95.1397 274.427 94.7291V98.2851C273.792 98.6957 273.12 98.9851 272.411 99.1531C271.72 99.3397 270.843 99.4331 269.779 99.4331ZM280.27 99.1531H275.762L279.878 93.1051C279.355 92.8811 278.86 92.5824 278.394 92.2091C277.946 91.8171 277.582 91.3224 277.302 90.7251C277.022 90.1277 276.882 89.4184 276.882 88.5971C276.882 87.0664 277.46 85.8997 278.618 85.0971C279.775 84.2757 281.259 83.8651 283.07 83.8651H290.182V99.1531H286.01V93.4691H283.714L280.27 99.1531ZM280.97 88.6251C280.97 89.2597 281.222 89.7637 281.726 90.1371C282.23 90.4917 282.883 90.6691 283.686 90.6691H286.01V86.8051H283.154C282.407 86.8051 281.856 86.9917 281.502 87.3651C281.147 87.7197 280.97 88.1397 280.97 88.6251ZM312.99 87.8691C312.99 88.6904 312.729 89.3904 312.206 89.9691C311.702 90.5477 310.946 90.9211 309.938 91.0891V91.2011C311.002 91.3317 311.851 91.6957 312.486 92.2931C313.139 92.8904 313.466 93.6557 313.466 94.5891C313.466 95.2424 313.335 95.8491 313.074 96.4091C312.831 96.9691 312.439 97.4544 311.898 97.8651C311.357 98.2757 310.657 98.5931 309.798 98.8171C308.958 99.0411 307.931 99.1531 306.718 99.1531H299.438V83.8651H306.718C307.913 83.8651 308.977 83.9957 309.91 84.2571C310.862 84.4997 311.609 84.9104 312.15 85.4891C312.71 86.0677 312.99 86.8611 312.99 87.8691ZM309.154 94.3651C309.154 93.7677 308.921 93.3384 308.454 93.0771C307.987 92.7971 307.287 92.6571 306.354 92.6571H303.61V96.2691H306.438C307.222 96.2691 307.866 96.1291 308.37 95.8491C308.893 95.5504 309.154 95.0557 309.154 94.3651ZM308.762 88.2051C308.762 87.7197 308.575 87.3651 308.202 87.1411C307.829 86.9171 307.278 86.8051 306.55 86.8051H303.61V89.8291H306.074C306.951 89.8291 307.614 89.7077 308.062 89.4651C308.529 89.2037 308.762 88.7837 308.762 88.2051ZM323.319 83.5571C325.373 83.5571 326.941 84.0051 328.023 84.9011C329.125 85.7784 329.675 87.1317 329.675 88.9611V99.1531H326.763L325.951 97.0811H325.839C325.41 97.6224 324.962 98.0704 324.495 98.4251C324.047 98.7797 323.525 99.0317 322.927 99.1811C322.349 99.3491 321.63 99.4331 320.771 99.4331C319.875 99.4331 319.063 99.2651 318.335 98.9291C317.626 98.5744 317.066 98.0424 316.655 97.3331C316.245 96.6051 316.039 95.6904 316.039 94.5891C316.039 92.9651 316.609 91.7704 317.747 91.0051C318.886 90.2211 320.594 89.7917 322.871 89.7171L325.531 89.6331V88.9611C325.531 88.1584 325.317 87.5704 324.887 87.1971C324.477 86.8237 323.898 86.6371 323.151 86.6371C322.405 86.6371 321.677 86.7491 320.967 86.9731C320.258 87.1784 319.549 87.4397 318.839 87.7571L317.467 84.9291C318.289 84.4997 319.194 84.1637 320.183 83.9211C321.191 83.6784 322.237 83.5571 323.319 83.5571ZM323.907 92.1251C322.563 92.1624 321.63 92.4051 321.107 92.8531C320.585 93.3011 320.323 93.8891 320.323 94.6171C320.323 95.2517 320.51 95.7091 320.883 95.9891C321.257 96.2504 321.742 96.3811 322.339 96.3811C323.235 96.3811 323.991 96.1197 324.607 95.5971C325.223 95.0557 325.531 94.2997 325.531 93.3291V92.0691L323.907 92.1251ZM356.71 83.8651V99.1531H333.946V83.8651H338.118V96.0171H343.242V83.8651H347.414V96.0171H352.538V83.8651H356.71ZM365.103 89.9131C365.103 90.2304 365.084 90.6224 365.047 91.0891C365.028 91.5557 365 92.0317 364.963 92.5171C364.944 93.0024 364.916 93.4317 364.879 93.8051C364.841 94.1784 364.813 94.4397 364.795 94.5891L371.851 83.8651H376.863V99.1531H372.831V93.0491C372.831 92.5451 372.849 91.9944 372.887 91.3971C372.924 90.7811 372.961 90.2117 372.999 89.6891C373.055 89.1477 373.092 88.7371 373.111 88.4571L366.083 99.1531H361.071V83.8651H365.103V89.9131ZM71.26 124.997C71.26 122.738 71.54 120.825 72.1 119.257C72.66 117.67 73.5467 116.41 74.76 115.477C75.9733 114.525 77.56 113.881 79.52 113.545C80.5093 113.377 81.508 113.237 82.516 113.125C83.5427 112.994 84.5973 112.864 85.68 112.733L86.156 116.373C85.6893 116.429 85.176 116.494 84.616 116.569C84.056 116.625 83.4867 116.69 82.908 116.765C82.348 116.821 81.8067 116.886 81.284 116.961C80.7613 117.036 80.2853 117.101 79.856 117.157C79.1653 117.269 78.5587 117.428 78.036 117.633C77.5133 117.82 77.0747 118.09 76.72 118.445C76.3653 118.8 76.0853 119.285 75.88 119.901C75.6933 120.498 75.572 121.273 75.516 122.225H75.712C75.936 121.87 76.244 121.516 76.636 121.161C77.0467 120.806 77.5507 120.508 78.148 120.265C78.7453 120.022 79.4267 119.901 80.192 119.901C81.4053 119.901 82.46 120.153 83.356 120.657C84.252 121.161 84.9427 121.908 85.428 122.897C85.9133 123.886 86.156 125.118 86.156 126.593C86.156 128.329 85.8387 129.776 85.204 130.933C84.5693 132.09 83.692 132.968 82.572 133.565C81.452 134.144 80.1547 134.433 78.68 134.433C77.56 134.433 76.5427 134.228 75.628 133.817C74.7133 133.406 73.9293 132.8 73.276 131.997C72.6227 131.194 72.1187 130.205 71.764 129.029C71.428 127.853 71.26 126.509 71.26 124.997ZM78.932 131.045C79.5293 131.045 80.0427 130.914 80.472 130.653C80.92 130.392 81.2653 129.962 81.508 129.365C81.7693 128.768 81.9 127.965 81.9 126.957C81.9 125.744 81.6947 124.782 81.284 124.073C80.892 123.345 80.2013 122.981 79.212 122.981C78.6147 122.981 78.0547 123.13 77.532 123.429C77.028 123.709 76.5987 124.036 76.244 124.409C75.8893 124.764 75.6467 125.072 75.516 125.333C75.516 126.061 75.572 126.77 75.684 127.461C75.796 128.133 75.9827 128.74 76.244 129.281C76.5053 129.822 76.8507 130.252 77.28 130.569C77.728 130.886 78.2787 131.045 78.932 131.045ZM87.418 118.865H91.982L94.866 127.461C94.9593 127.741 95.034 128.021 95.09 128.301C95.1646 128.581 95.2206 128.87 95.258 129.169C95.314 129.468 95.3513 129.785 95.37 130.121H95.454C95.51 129.636 95.5846 129.178 95.678 128.749C95.79 128.301 95.9113 127.872 96.042 127.461L98.87 118.865H103.35L96.882 136.113C96.49 137.158 95.9766 138.036 95.342 138.745C94.726 139.454 94.0073 139.986 93.186 140.341C92.3646 140.696 91.4686 140.873 90.498 140.873C90.0313 140.873 89.6206 140.845 89.266 140.789C88.93 140.752 88.6313 140.705 88.37 140.649V137.345C88.5753 137.382 88.818 137.42 89.098 137.457C89.3966 137.494 89.7046 137.513 90.022 137.513C90.6006 137.513 91.0953 137.392 91.506 137.149C91.9353 136.906 92.29 136.57 92.57 136.141C92.85 135.73 93.074 135.282 93.242 134.797L93.494 134.041L87.418 118.865ZM118.745 118.865V131.101H120.985V139.641H117.233V134.153H106.957V139.641H103.205V131.101H104.493C105.165 130.074 105.734 128.908 106.201 127.601C106.667 126.276 107.041 124.866 107.321 123.373C107.601 121.88 107.806 120.377 107.937 118.865H118.745ZM111.437 122.001C111.287 123.121 111.101 124.213 110.877 125.277C110.653 126.322 110.373 127.33 110.037 128.301C109.719 129.272 109.327 130.205 108.861 131.101H114.573V122.001H111.437ZM121.406 118.865H125.97L128.854 127.461C128.948 127.741 129.022 128.021 129.078 128.301C129.153 128.581 129.209 128.87 129.246 129.169C129.302 129.468 129.34 129.785 129.358 130.121H129.442C129.498 129.636 129.573 129.178 129.666 128.749C129.778 128.301 129.9 127.872 130.03 127.461L132.858 118.865H137.338L130.87 136.113C130.478 137.158 129.965 138.036 129.33 138.745C128.714 139.454 127.996 139.986 127.174 140.341C126.353 140.696 125.457 140.873 124.486 140.873C124.02 140.873 123.609 140.845 123.254 140.789C122.918 140.752 122.62 140.705 122.358 140.649V137.345C122.564 137.382 122.806 137.42 123.086 137.457C123.385 137.494 123.693 137.513 124.01 137.513C124.589 137.513 125.084 137.392 125.494 137.149C125.924 136.906 126.278 136.57 126.558 136.141C126.838 135.73 127.062 135.282 127.23 134.797L127.482 134.041L121.406 118.865ZM162.296 118.865V131.101H164.536V139.641H160.784V134.153H139.532V118.865H143.704V131.017H148.828V118.865H153V131.017H158.124V118.865H162.296ZM171.154 124.913C171.154 125.23 171.135 125.622 171.098 126.089C171.079 126.556 171.051 127.032 171.014 127.517C170.995 128.002 170.967 128.432 170.93 128.805C170.892 129.178 170.864 129.44 170.846 129.589L177.902 118.865H182.914V134.153H178.882V128.049C178.882 127.545 178.9 126.994 178.938 126.397C178.975 125.781 179.012 125.212 179.05 124.689C179.106 124.148 179.143 123.737 179.162 123.457L172.133 134.153H167.122V118.865H171.154V124.913ZM193.574 118.585C194.993 118.585 196.206 118.856 197.214 119.397C198.241 119.938 199.034 120.722 199.594 121.749C200.154 122.776 200.434 124.036 200.434 125.529V127.545H190.578C190.615 128.721 190.961 129.645 191.614 130.317C192.286 130.989 193.21 131.325 194.386 131.325C195.375 131.325 196.271 131.232 197.074 131.045C197.877 130.84 198.707 130.532 199.566 130.121V133.341C198.819 133.714 198.026 133.985 197.186 134.153C196.365 134.34 195.366 134.433 194.19 134.433C192.659 134.433 191.306 134.153 190.13 133.593C188.954 133.014 188.03 132.146 187.358 130.989C186.686 129.832 186.35 128.376 186.35 126.621C186.35 124.829 186.649 123.345 187.246 122.169C187.862 120.974 188.711 120.078 189.794 119.481C190.877 118.884 192.137 118.585 193.574 118.585ZM193.602 121.553C192.799 121.553 192.127 121.814 191.586 122.337C191.063 122.86 190.755 123.672 190.662 124.773H196.514C196.514 124.157 196.402 123.606 196.178 123.121C195.973 122.636 195.655 122.253 195.226 121.973C194.797 121.693 194.255 121.553 193.602 121.553ZM222.599 118.865V134.153H218.427V122.001H212.883V134.153H208.711V118.865H222.599ZM240.865 126.481C240.865 127.75 240.688 128.88 240.333 129.869C239.997 130.858 239.502 131.698 238.849 132.389C238.214 133.061 237.44 133.574 236.525 133.929C235.61 134.265 234.574 134.433 233.417 134.433C232.353 134.433 231.364 134.265 230.449 133.929C229.553 133.574 228.778 133.061 228.125 132.389C227.472 131.698 226.958 130.858 226.585 129.869C226.23 128.88 226.053 127.75 226.053 126.481C226.053 124.782 226.352 123.354 226.949 122.197C227.546 121.021 228.405 120.125 229.525 119.509C230.645 118.893 231.97 118.585 233.501 118.585C234.938 118.585 236.208 118.893 237.309 119.509C238.41 120.125 239.278 121.021 239.913 122.197C240.548 123.354 240.865 124.782 240.865 126.481ZM230.309 126.481C230.309 127.489 230.412 128.338 230.617 129.029C230.841 129.701 231.186 130.214 231.653 130.569C232.12 130.905 232.726 131.073 233.473 131.073C234.22 131.073 234.817 130.905 235.265 130.569C235.732 130.214 236.068 129.701 236.273 129.029C236.497 128.338 236.609 127.489 236.609 126.481C236.609 125.473 236.497 124.633 236.273 123.961C236.068 123.289 235.732 122.785 235.265 122.449C234.798 122.113 234.192 121.945 233.445 121.945C232.344 121.945 231.541 122.328 231.037 123.093C230.552 123.84 230.309 124.969 230.309 126.481ZM250.613 118.585C252.032 118.585 253.245 118.856 254.253 119.397C255.28 119.938 256.073 120.722 256.633 121.749C257.193 122.776 257.473 124.036 257.473 125.529V127.545H247.617C247.654 128.721 248 129.645 248.653 130.317C249.325 130.989 250.249 131.325 251.425 131.325C252.414 131.325 253.31 131.232 254.113 131.045C254.916 130.84 255.746 130.532 256.605 130.121V133.341C255.858 133.714 255.065 133.985 254.225 134.153C253.404 134.34 252.405 134.433 251.229 134.433C249.698 134.433 248.345 134.153 247.169 133.593C245.993 133.014 245.069 132.146 244.397 130.989C243.725 129.832 243.389 128.376 243.389 126.621C243.389 124.829 243.688 123.345 244.285 122.169C244.901 120.974 245.75 120.078 246.833 119.481C247.916 118.884 249.176 118.585 250.613 118.585ZM250.641 121.553C249.838 121.553 249.166 121.814 248.625 122.337C248.102 122.86 247.794 123.672 247.701 124.773H253.553C253.553 124.157 253.441 123.606 253.217 123.121C253.012 122.636 252.694 122.253 252.265 121.973C251.836 121.693 251.294 121.553 250.641 121.553ZM266.428 118.585C267.529 118.585 268.556 118.734 269.508 119.033C270.479 119.313 271.253 119.752 271.832 120.349C272.429 120.946 272.728 121.712 272.728 122.645C272.728 123.56 272.448 124.288 271.888 124.829C271.347 125.37 270.609 125.762 269.676 126.005V126.145C270.329 126.294 270.917 126.509 271.44 126.789C271.963 127.05 272.373 127.414 272.672 127.881C272.989 128.329 273.148 128.936 273.148 129.701C273.148 130.541 272.877 131.325 272.336 132.053C271.813 132.762 270.992 133.341 269.872 133.789C268.771 134.218 267.352 134.433 265.616 134.433C264.795 134.433 264.02 134.396 263.292 134.321C262.564 134.246 261.901 134.144 261.304 134.013C260.707 133.864 260.184 133.686 259.736 133.481V130.037C260.371 130.336 261.145 130.606 262.06 130.849C262.993 131.092 263.983 131.213 265.028 131.213C265.793 131.213 266.475 131.157 267.072 131.045C267.688 130.933 268.173 130.746 268.528 130.485C268.901 130.224 269.088 129.878 269.088 129.449C269.088 129.038 268.929 128.702 268.612 128.441C268.295 128.161 267.819 127.956 267.184 127.825C266.549 127.694 265.737 127.629 264.748 127.629H263.124V124.745H264.664C266.045 124.745 267.109 124.633 267.856 124.409C268.621 124.185 269.004 123.765 269.004 123.149C269.004 122.664 268.761 122.3 268.276 122.057C267.791 121.796 266.997 121.665 265.896 121.665C265.168 121.665 264.375 121.749 263.516 121.917C262.657 122.085 261.845 122.328 261.08 122.645L259.848 119.733C260.725 119.397 261.687 119.126 262.732 118.921C263.777 118.697 265.009 118.585 266.428 118.585ZM290.135 118.865V131.101H292.375V139.641H288.623V134.153H278.347V139.641H274.595V131.101H275.883C276.555 130.074 277.124 128.908 277.591 127.601C278.058 126.276 278.431 124.866 278.711 123.373C278.991 121.88 279.196 120.377 279.327 118.865H290.135ZM282.827 122.001C282.678 123.121 282.491 124.213 282.267 125.277C282.043 126.322 281.763 127.33 281.427 128.301C281.11 129.272 280.718 130.205 280.251 131.101H285.963V122.001H282.827ZM305.005 118.865H309.597L303.549 126.201L310.129 134.153H305.397L299.153 126.397V134.153H294.981V118.865H299.153V126.285L305.005 118.865ZM316.349 124.913C316.349 125.23 316.33 125.622 316.293 126.089C316.274 126.556 316.246 127.032 316.209 127.517C316.19 128.002 316.162 128.432 316.125 128.805C316.087 129.178 316.059 129.44 316.041 129.589L323.097 118.865H328.109V134.153H324.077V128.049C324.077 127.545 324.095 126.994 324.133 126.397C324.17 125.781 324.207 125.212 324.245 124.689C324.301 124.148 324.338 123.737 324.357 123.457L317.329 134.153H312.317V118.865H316.349V124.913Z" fill="#1C1C1C"/>
<g filter="url(#filter1_dddd_1125_674)">
<rect width="50.1059" height="50.0035" rx="25.0018" transform="matrix(0.178577 -0.983926 0.983788 0.179334 467 244.727)" fill="#50BFA5"/>
<path fill-rule="evenodd" clip-rule="evenodd" d="M484.636 218.859C484.11 218.822 483.304 219.052 483.054 219.417C482.005 220.95 484.669 220.735 485.418 220.77C484.933 221.181 483.083 223.123 482.973 223.583C482.847 224.098 482.85 228.204 482.839 229.086C482.821 230.362 482.526 233.371 483.64 233.781C483.96 233.898 485.741 233.91 486.127 233.826C487.046 233.623 486.848 232.784 486.889 231.789C490.121 231.564 502.036 231.569 505.253 231.795C505.292 232.722 505.109 233.554 505.91 233.807C506.298 233.929 508.159 233.916 508.503 233.79C509.884 233.284 509.165 228.254 509.192 226.539C509.241 223.541 509.147 222.695 506.716 220.777C507.511 220.741 509.9 221.029 509.137 219.521C508.906 219.065 507.446 218.495 506.907 219.125C505.811 220.403 505.93 219.028 504.931 217.588C503.77 215.261 503.479 215.3 499.834 215.338C498.633 215.282 497.335 215.236 496.137 215.233C494.892 215.228 490.092 215.376 489.056 215.617C488.044 215.637 486.715 218.257 486.244 219.186C485.505 220.638 485.64 218.933 484.636 218.859L484.636 218.859ZM486.238 220.522C489.304 220.576 492.79 220.15 495.996 220.148C499.317 220.145 502.635 220.502 505.897 220.529L504.134 217.112C503.81 216.583 503.801 216.379 503.105 216.263C500.539 215.844 491.814 215.896 489.16 216.242C488.188 216.37 488.196 216.752 487.436 218.106C486.977 218.922 486.571 219.683 486.238 220.522ZM491.059 227.464C491.059 228.365 491.796 229.101 492.695 229.101L499.451 229.103C500.349 229.104 501.087 228.369 501.086 227.468L501.086 226.339C501.086 225.44 500.348 224.702 499.45 224.701L492.693 224.699C491.795 224.698 491.058 225.436 491.058 226.335L491.059 227.464ZM488.978 227.468C489.352 227.291 489.733 226.859 489.87 226.5C488.862 225.904 485.114 225.638 483.963 225.866C483.446 228.917 487.921 227.971 488.978 227.468ZM502.272 226.505C502.41 226.863 502.791 227.296 503.166 227.473C504.223 227.976 508.699 228.926 508.179 225.875C507.028 225.647 503.28 225.91 502.272 226.505Z" fill="white"/>
</g>
<path d="M465.573 78.4739C463.828 77.8858 462.065 77.304 460.292 76.7482C459.801 76.5869 459.468 76.0352 459.577 75.506C459.685 74.9768 460.162 74.6522 460.653 74.8134C462.444 75.3631 464.224 75.9387 465.977 76.5466C466.467 76.7079 466.79 77.2855 466.664 77.821C466.604 78.1544 466.373 78.3923 466.11 78.4852C465.934 78.5471 465.756 78.5433 465.556 78.4801L465.573 78.4739ZM455.311 73.1981C453.534 72.6881 451.74 72.1843 449.935 71.7066C449.434 71.5714 448.957 71.896 448.88 72.4587C448.796 73.0015 449.146 73.547 449.647 73.6823C451.435 74.1662 453.222 74.6501 454.982 75.1663C455.157 75.2159 455.336 75.2197 455.493 75.1639C455.774 75.0649 455.998 74.8071 456.051 74.4539C456.135 73.911 455.82 73.3532 455.318 73.2179L455.311 73.1981ZM497.348 91.4086C497.576 91.3281 497.769 91.1484 497.867 90.8683C498.043 90.3602 497.808 89.7515 497.331 89.5184C495.638 88.6886 493.928 87.8651 492.2 87.0478C491.723 86.8146 491.201 87.0661 491.026 87.5742C490.851 88.0824 491.12 88.6786 491.597 88.9118C493.318 89.7093 495.011 90.539 496.686 91.3749C496.907 91.4977 497.145 91.5027 497.355 91.4284L497.348 91.4086ZM552.562 268.493C550.827 267.991 549.061 267.455 547.263 266.885C546.772 266.724 546.288 267.029 546.162 267.564C546.053 268.093 546.369 268.651 546.866 268.832C548.689 269.415 550.48 269.965 552.215 270.467C552.39 270.517 552.562 270.501 552.72 270.445C553 270.346 553.224 270.089 553.277 269.735C553.361 269.192 553.028 268.641 552.545 268.499L552.562 268.493ZM444.555 70.3726C442.764 69.9345 440.962 69.5225 439.15 69.1365C438.639 69.0272 438.193 69.3853 438.127 69.922C438.067 70.4785 438.428 70.9979 438.922 71.1134C440.717 71.5056 442.518 71.9176 444.285 72.342C444.453 72.3718 444.607 72.3619 444.747 72.3124C445.045 72.2071 445.263 71.9296 445.315 71.5763C445.382 71.0397 445.032 70.4942 444.537 70.3788L444.555 70.3726ZM487.083 86.6248C487.328 86.5382 487.531 86.3325 487.605 86.0387C487.756 85.517 487.493 84.9405 487.023 84.7272C485.299 83.9755 483.575 83.2239 481.822 82.5045C481.342 82.3172 480.82 82.5687 480.687 83.0842C480.536 83.606 480.823 84.1961 481.303 84.3834C483.038 85.109 484.756 85.8408 486.48 86.5924C486.694 86.6954 486.908 86.6868 487.1 86.6187L487.083 86.6248ZM536.766 263.12C536.285 262.933 535.77 263.204 535.637 263.72C535.504 264.235 535.791 264.825 536.271 265.013C538.059 265.72 539.825 266.367 541.542 266.988C541.742 267.051 541.939 267.048 542.096 266.993C542.359 266.9 542.573 266.668 542.64 266.355C542.766 265.819 542.468 265.255 541.97 265.074C540.253 264.454 538.504 263.8 536.741 263.107L536.766 263.12ZM476.074 82.3045C476.281 82.3876 476.477 82.3852 476.652 82.3232C476.915 82.2304 477.112 82.0048 477.203 81.7049C477.336 81.1893 477.049 80.5992 476.569 80.4119C474.83 79.7322 473.064 79.0847 471.297 78.4371C470.817 78.2498 470.309 78.5409 470.183 79.0764C470.056 79.6118 470.354 80.1758 470.852 80.3569C472.611 80.9846 474.36 81.6384 476.081 82.3243L476.074 82.3045ZM526.398 258.774C525.911 258.567 525.399 258.792 525.231 259.32C525.08 259.842 525.326 260.425 525.82 260.652C527.576 261.437 529.318 262.182 531.01 262.9C531.217 262.983 531.438 262.995 531.613 262.933C531.859 262.846 532.062 262.64 532.153 262.34C532.304 261.819 532.017 261.229 531.536 261.041C529.844 260.323 528.126 259.591 526.37 258.806L526.398 258.774ZM595.597 179.555C596.659 181.277 597.679 182.991 598.657 184.698C598.905 185.123 599.368 185.317 599.771 185.175C599.824 185.156 599.894 185.131 599.946 185.113C600.367 184.852 600.483 184.232 600.213 183.747C599.228 182.02 598.194 180.266 597.126 178.524C596.838 178.045 596.27 177.889 595.839 178.175C595.426 178.455 595.335 179.09 595.622 179.568L595.597 179.555ZM601.544 189.969C602.49 191.754 603.384 193.558 604.246 195.328C604.474 195.806 604.968 196.033 605.388 195.884C605.423 195.872 605.458 195.859 605.494 195.847C605.946 195.62 606.111 195.027 605.851 194.516C604.993 192.7 604.082 190.902 603.121 189.077C602.869 188.586 602.28 188.371 601.86 188.631C601.415 188.877 601.292 189.478 601.551 189.989L601.544 189.969ZM433.704 68.0044C431.906 67.6581 430.09 67.3179 428.264 67.0038C427.759 66.9144 427.321 67.2923 427.279 67.8426C427.237 68.3929 427.615 68.9062 428.12 68.9956C429.929 69.3159 431.737 69.6362 433.518 69.9888C433.668 70.0248 433.816 69.9951 433.938 69.9517C434.236 69.8464 434.464 69.5428 434.51 69.1698C434.552 68.6195 434.191 68.1 433.679 67.9908L433.704 68.0044ZM589.03 169.56C590.183 171.205 591.301 172.863 592.394 174.507C592.647 174.886 593.095 175.04 593.463 174.91C593.533 174.885 593.621 174.854 593.677 174.79C594.084 174.49 594.157 173.861 593.853 173.389C592.752 171.725 591.634 170.068 590.457 168.409C590.134 167.943 589.563 167.832 589.164 168.152C588.764 168.472 588.708 169.094 589.03 169.56ZM606.727 200.788C607.522 202.649 608.282 204.522 608.987 206.348C609.169 206.863 609.702 207.144 610.175 206.976L610.192 206.97C610.666 206.803 610.872 206.217 610.666 205.687C609.947 203.822 609.18 201.929 608.371 200.029C608.146 199.505 607.586 199.257 607.144 199.458C606.685 199.665 606.495 200.245 606.72 200.768L606.727 200.788ZM585.536 164.749C585.799 165.102 586.223 165.242 586.574 165.118C586.661 165.087 586.766 165.05 586.833 164.96C587.208 164.626 587.257 163.984 586.924 163.544C585.75 161.951 584.517 160.357 583.266 158.769C582.915 158.335 582.333 158.25 581.965 158.604C581.597 158.957 581.566 159.592 581.916 160.026C583.16 161.595 584.352 163.182 585.536 164.749ZM553.683 130C553.946 130.242 554.283 130.302 554.563 130.203C554.721 130.147 554.865 130.052 554.97 129.903C555.275 129.483 555.187 128.844 554.781 128.475C553.337 127.178 551.851 125.874 550.354 124.595C549.93 124.232 549.362 124.299 549.082 124.732C548.784 125.172 548.889 125.805 549.306 126.148C550.803 127.426 552.257 128.697 553.701 129.994L553.683 130ZM570.418 146.509C570.677 146.797 571.063 146.883 571.378 146.772C571.501 146.729 571.61 146.646 571.711 146.543C572.048 146.156 572.02 145.519 571.659 145.111C570.32 143.666 568.964 142.226 567.583 140.773C567.204 140.371 566.616 140.379 566.279 140.765C565.943 141.152 565.995 141.803 566.374 142.204C567.747 143.638 569.097 145.057 570.411 146.489L570.418 146.509ZM594.983 270.438C593.388 271.002 591.692 271.445 589.925 271.801C589.449 271.903 589.144 272.434 589.273 272.969C589.41 273.523 589.911 273.881 590.388 273.78C592.224 273.398 593.991 272.93 595.656 272.342C596.129 272.175 596.361 271.602 596.178 271.087C595.989 270.551 595.467 270.245 594.994 270.412L594.983 270.438ZM563.259 271.094C561.521 270.749 559.726 270.357 557.911 269.905C557.416 269.79 556.947 270.134 556.88 270.671C556.813 271.208 557.164 271.753 557.658 271.869C559.516 272.328 561.328 272.714 563.091 273.072C563.241 273.108 563.389 273.079 563.511 273.035C563.809 272.93 564.037 272.626 564.083 272.253C564.125 271.703 563.764 271.184 563.252 271.074L563.259 271.094ZM610.989 257.376C610.091 258.965 609.075 260.44 607.921 261.806C607.585 262.193 607.637 262.844 608.016 263.246C608.293 263.527 608.654 263.6 608.952 263.495C609.092 263.445 609.2 263.362 609.302 263.26C610.512 261.828 611.623 260.231 612.569 258.558C612.825 258.111 612.678 257.471 612.251 257.153C611.805 256.842 611.252 256.949 610.996 257.396L610.989 257.376ZM579.505 155.546C579.873 155.193 579.88 154.544 579.512 154.116C578.247 152.6 576.958 151.07 575.64 149.572C575.279 149.164 574.694 149.126 574.35 149.492C573.989 149.865 574.017 150.502 574.378 150.91C575.696 152.408 576.971 153.898 578.219 155.421C578.492 155.748 578.885 155.855 579.218 155.737C579.323 155.7 579.439 155.637 579.523 155.54L579.505 155.546ZM563.402 136.584C562.007 135.202 560.577 133.834 559.13 132.471C558.741 132.095 558.159 132.122 557.854 132.543C557.549 132.963 557.612 133.587 558.019 133.957C559.459 135.3 560.864 136.655 562.242 138.042C562.512 138.304 562.855 138.383 563.17 138.272C563.311 138.222 563.437 138.133 563.531 138.01C563.861 137.604 563.791 136.959 563.402 136.584ZM616.382 234.366C615.864 234.348 615.481 234.773 615.506 235.345C615.583 237.348 615.562 239.296 615.442 241.19C615.4 241.74 615.778 242.254 616.301 242.337C616.444 242.353 616.581 242.349 616.704 242.306C617.019 242.194 617.247 241.891 617.286 241.498C617.419 239.532 617.43 237.498 617.35 235.429C617.332 234.878 616.908 234.403 616.389 234.386L616.382 234.366ZM611.555 210.772C611.04 210.932 610.837 211.472 611.008 212.014C611.636 213.956 612.214 215.871 612.701 217.752C612.855 218.3 613.349 218.638 613.843 218.531C613.861 218.524 613.896 218.512 613.913 218.506C614.351 218.351 614.586 217.844 614.446 217.336C613.945 215.416 613.346 213.441 612.712 211.479C612.523 210.943 612.018 210.631 611.538 210.778L611.555 210.772ZM604.146 265.461C602.81 266.535 601.338 267.501 599.782 268.341C599.337 268.588 599.189 269.175 599.431 269.692C599.652 270.149 600.146 270.376 600.567 270.228C600.602 270.215 600.637 270.203 600.689 270.184C602.326 269.294 603.897 268.27 605.313 267.145C605.713 266.826 605.769 266.203 605.446 265.737C605.124 265.271 604.553 265.161 604.153 265.48L604.146 265.461ZM614.764 222.422C614.281 222.503 613.951 223.021 614.063 223.562C614.466 225.539 614.774 227.527 615.012 229.428C615.072 229.987 615.535 230.404 616.039 230.382C616.109 230.357 616.187 230.352 616.257 230.327C616.642 230.191 616.888 229.77 616.821 229.303C616.579 227.335 616.24 225.314 615.833 223.271C615.714 222.711 615.224 222.326 614.74 222.408L614.764 222.422ZM615.803 246.172C615.312 246.01 614.811 246.321 614.726 246.864C614.369 248.753 613.878 250.6 613.278 252.306C613.103 252.814 613.338 253.423 613.814 253.656C614.028 253.759 614.273 253.784 614.484 253.71C614.712 253.629 614.904 253.45 615.002 253.169C615.644 251.359 616.16 249.414 616.542 247.427C616.651 246.898 616.328 246.32 615.827 246.185L615.803 246.172ZM517.431 100.599C515.794 99.5934 514.147 98.6137 512.482 97.6402C512.016 97.381 511.483 97.5469 511.266 98.0476C511.066 98.5421 511.259 99.1433 511.732 99.4223C513.39 100.376 515.02 101.362 516.632 102.354C516.877 102.49 517.147 102.529 517.375 102.448C517.585 102.374 517.767 102.22 517.862 101.986C518.086 101.505 517.887 100.884 517.431 100.599ZM574.019 272.535C572.274 272.393 570.472 272.204 568.65 271.956C568.152 271.886 567.721 272.284 567.679 272.835C567.654 273.379 568.05 273.886 568.548 273.955C570.413 274.211 572.256 274.408 574.044 274.557C574.163 274.559 574.275 274.542 574.38 274.505C574.713 274.387 574.962 274.032 574.952 273.611C574.952 273.054 574.528 272.579 574.019 272.535ZM507.467 96.6682C507.677 96.5939 507.87 96.4142 507.965 96.18C508.164 95.6855 507.947 95.0707 507.481 94.8115C505.813 93.8839 504.134 92.9822 502.438 92.0868C501.972 91.8276 501.435 92.0394 501.242 92.5538C501.043 93.0483 501.277 93.6569 501.761 93.9099C503.45 94.7855 505.111 95.6933 506.773 96.6011C506.994 96.7238 507.256 96.7425 507.467 96.6682ZM541.291 117.133C540.857 116.796 540.296 116.883 540.022 117.336C539.749 117.79 539.872 118.416 540.306 118.753C541.834 119.953 543.362 121.154 544.838 122.372C545.093 122.594 545.423 122.634 545.686 122.541C545.861 122.479 545.998 122.364 546.113 122.189C546.394 121.756 546.282 121.104 545.847 120.766C544.347 119.534 542.812 118.314 541.267 117.12L541.291 117.133ZM536.514 115.386C536.689 115.324 536.861 115.196 536.952 115.008C537.208 114.56 537.079 113.914 536.633 113.603C535.084 112.455 533.518 111.313 531.916 110.183C531.471 109.872 530.924 109.998 530.668 110.446C530.419 110.913 530.577 111.526 531.005 111.844C532.582 112.96 534.148 114.102 535.673 115.237C535.939 115.432 536.227 115.465 536.49 115.372L536.514 115.386ZM584.72 272.525C583.02 272.679 581.233 272.753 579.4 272.754C578.888 272.756 578.513 273.201 578.555 273.766C578.597 274.331 579.031 274.78 579.543 274.778C581.418 274.785 583.258 274.692 585.018 274.539C585.088 274.514 585.148 274.515 585.218 274.491C585.603 274.355 585.849 273.933 585.775 273.446C585.698 272.893 585.218 272.483 584.72 272.525ZM522.32 103.668C521.865 103.383 521.307 103.535 521.083 104.016C520.858 104.497 521.034 105.104 521.496 105.409C523.105 106.447 524.721 107.505 526.301 108.575C526.561 108.751 526.824 108.77 527.069 108.683C527.262 108.615 527.426 108.468 527.535 108.273C527.784 107.806 527.602 107.179 527.157 106.868C525.569 105.778 523.953 104.72 522.32 103.668Z" fill="#7879F1"/>
<path d="M69.3624 393.953C68.9941 393.953 68.648 393.72 68.5238 393.354C68.1733 392.321 67.8139 391.289 67.4501 390.262C67.286 389.803 67.53 389.3 67.9914 389.137C68.4528 388.974 68.9586 389.216 69.1228 389.675C69.491 390.712 69.8504 391.748 70.2053 392.789C70.3606 393.252 70.1122 393.751 69.6463 393.905C69.5531 393.936 69.4555 393.953 69.3624 393.953ZM66.4696 385.873C66.1102 385.873 65.7686 385.653 65.6399 385.3C65.0765 383.791 64.4598 382.177 63.7543 380.36C63.5768 379.905 63.8076 379.394 64.2645 379.222C64.7215 379.045 65.2362 379.275 65.4092 379.729C66.1147 381.551 66.7358 383.174 67.2993 384.687C67.4723 385.145 67.2372 385.653 66.7757 385.82C66.6737 385.86 66.5672 385.878 66.4652 385.878L66.4696 385.873ZM62.654 375.993C62.2991 375.993 61.9663 375.782 61.8288 375.433L61.3673 374.255C60.8704 372.994 60.378 371.746 59.8943 370.502C59.7169 370.048 59.9432 369.536 60.4001 369.36C60.8571 369.183 61.3718 369.408 61.5493 369.862C62.0329 371.102 62.5253 372.354 63.0223 373.611L63.4837 374.789C63.6611 375.243 63.4349 375.755 62.9823 375.931C62.8758 375.971 62.7649 375.993 62.6584 375.993H62.654ZM58.8073 366.122C58.448 366.122 58.1108 365.906 57.9777 365.553C57.2855 363.732 56.6777 362.1 56.132 360.574C55.9678 360.115 56.2074 359.612 56.6688 359.444C57.1303 359.281 57.636 359.519 57.8046 359.978C58.3504 361.495 58.9493 363.114 59.6415 364.931C59.8145 365.386 59.5838 365.897 59.1268 366.069C59.0247 366.109 58.9183 366.127 58.8118 366.127L58.8073 366.122ZM55.2446 356.145C54.872 356.145 54.5215 355.907 54.4017 355.537C53.9269 354.077 53.4966 352.67 53.1194 351.355C53.044 351.091 53.0973 350.804 53.2659 350.583C53.4345 350.363 53.6962 350.235 53.9757 350.235C54.2819 350.235 54.6013 350.235 54.9296 350.235C55.4132 350.226 55.8214 350.623 55.8259 351.108C55.8259 351.523 55.5419 351.876 55.1515 351.973C55.4399 352.943 55.7593 353.958 56.0965 354.998C56.2473 355.462 55.99 355.96 55.5242 356.11C55.4354 356.141 55.3422 356.154 55.2491 356.154L55.2446 356.145ZM60.2582 351.871C59.7834 351.871 59.3886 351.496 59.3708 351.02C59.3531 350.535 59.7391 350.125 60.2271 350.107C61.851 350.054 63.639 349.979 65.5423 349.887C66.0348 349.869 66.4474 350.239 66.4696 350.725C66.4918 351.21 66.1147 351.624 65.6266 351.646C63.7188 351.735 61.9219 351.81 60.2892 351.867C60.2803 351.867 60.267 351.867 60.2582 351.867V351.871ZM70.9063 351.373C70.4405 351.373 70.0501 351.011 70.0234 350.539C69.9968 350.054 70.3695 349.635 70.8575 349.609C72.579 349.512 74.3581 349.406 76.1683 349.287C76.6564 349.256 77.0779 349.622 77.1089 350.111C77.14 350.597 76.7673 351.016 76.2792 351.047C74.4602 351.161 72.681 351.271 70.9551 351.369C70.9374 351.369 70.9197 351.369 70.9019 351.369L70.9063 351.373ZM81.5412 350.694C81.0798 350.694 80.6894 350.336 80.6583 349.873C80.6228 349.388 80.9911 348.965 81.4791 348.929C83.2361 348.806 85.0107 348.678 86.7899 348.541C87.2779 348.506 87.7038 348.868 87.7438 349.353C87.7793 349.838 87.4155 350.261 86.9274 350.301C85.1439 350.438 83.3692 350.566 81.6078 350.689C81.5856 350.689 81.5634 350.689 81.5457 350.689L81.5412 350.694ZM92.1716 349.887C91.7147 349.887 91.3242 349.538 91.2887 349.075C91.2488 348.59 91.6126 348.162 92.1007 348.122C93.8842 347.977 95.6545 347.827 97.4026 347.677C97.8951 347.642 98.321 347.994 98.3653 348.48C98.4097 348.965 98.0459 349.393 97.5579 349.437C95.8053 349.591 94.0306 349.741 92.2426 349.887C92.216 349.887 92.1938 349.887 92.1672 349.887H92.1716ZM102.789 348.956C102.336 348.956 101.95 348.612 101.906 348.158C101.861 347.672 102.216 347.24 102.704 347.196C104.519 347.024 106.289 346.852 108.002 346.68C108.49 346.627 108.925 346.984 108.974 347.469C109.022 347.955 108.667 348.387 108.179 348.435C106.467 348.612 104.688 348.784 102.869 348.956C102.842 348.956 102.811 348.956 102.784 348.956H102.789ZM113.393 347.875C112.949 347.875 112.563 347.544 112.514 347.09C112.461 346.605 112.811 346.168 113.295 346.115C114.431 345.988 115.527 345.86 116.569 345.736C116.569 345.736 116.569 345.732 116.569 345.727C116.45 345.255 116.738 344.775 117.213 344.655C117.687 344.536 118.171 344.823 118.291 345.295C118.375 345.626 118.459 345.952 118.539 346.265C118.601 346.512 118.557 346.773 118.415 346.984C118.273 347.196 118.042 347.333 117.789 347.364C116.441 347.531 115.008 347.699 113.495 347.871C113.459 347.871 113.428 347.875 113.393 347.875ZM116.219 341.228C115.811 341.228 115.442 340.946 115.354 340.536C115.003 338.953 114.635 337.197 114.258 335.331C114.16 334.855 114.471 334.387 114.954 334.295C115.433 334.198 115.904 334.507 115.997 334.987C116.374 336.849 116.738 338.591 117.084 340.165C117.19 340.642 116.884 341.109 116.405 341.215C116.343 341.228 116.276 341.237 116.214 341.237L116.219 341.228ZM114.111 330.832C113.694 330.832 113.322 330.537 113.242 330.114C112.922 328.433 112.598 326.686 112.275 324.891C112.186 324.411 112.51 323.952 112.989 323.868C113.472 323.78 113.934 324.102 114.018 324.578C114.342 326.369 114.666 328.107 114.985 329.787C115.079 330.268 114.759 330.727 114.28 330.819C114.222 330.828 114.169 330.837 114.116 330.837L114.111 330.832ZM112.212 320.397C111.791 320.397 111.414 320.097 111.338 319.665C111.037 317.953 110.739 316.211 110.438 314.434C110.358 313.953 110.682 313.499 111.165 313.419C111.649 313.335 112.106 313.662 112.19 314.143C112.492 315.916 112.789 317.658 113.091 319.365C113.175 319.846 112.851 320.3 112.368 320.384C112.314 320.392 112.266 320.397 112.212 320.397ZM110.433 309.944C110.007 309.944 109.63 309.635 109.559 309.207C109.275 307.478 108.987 305.731 108.703 303.972C108.623 303.491 108.956 303.037 109.439 302.962C109.923 302.882 110.38 303.213 110.455 303.694C110.739 305.454 111.028 307.2 111.312 308.925C111.392 309.406 111.063 309.86 110.58 309.939C110.531 309.948 110.482 309.952 110.433 309.952V309.944ZM108.738 299.477C108.308 299.477 107.931 299.168 107.864 298.732C107.589 296.99 107.314 295.243 107.039 293.492C106.964 293.011 107.297 292.561 107.78 292.486C108.264 292.411 108.716 292.742 108.792 293.223C109.067 294.969 109.337 296.72 109.617 298.458C109.692 298.939 109.364 299.393 108.88 299.468C108.832 299.477 108.787 299.477 108.743 299.477H108.738ZM107.101 289.002C106.671 289.002 106.294 288.689 106.227 288.252C105.957 286.501 105.69 284.754 105.429 283.017C105.358 282.536 105.69 282.086 106.174 282.011C106.658 281.94 107.11 282.271 107.186 282.752C107.447 284.49 107.714 286.232 107.984 287.983C108.06 288.464 107.727 288.914 107.243 288.989C107.199 288.997 107.155 288.997 107.11 288.997L107.101 289.002ZM105.513 278.526C105.083 278.526 104.701 278.213 104.634 277.772C104.368 276.008 104.111 274.257 103.854 272.528C103.783 272.047 104.12 271.597 104.603 271.527C105.087 271.456 105.54 271.791 105.611 272.272C105.863 274.001 106.125 275.748 106.391 277.516C106.462 277.997 106.13 278.447 105.646 278.518C105.602 278.522 105.557 278.526 105.513 278.526ZM103.965 268.038C103.53 268.038 103.153 267.72 103.086 267.284C102.824 265.502 102.571 263.746 102.323 262.035C102.252 261.554 102.589 261.104 103.077 261.038C103.561 260.968 104.013 261.303 104.08 261.788C104.328 263.499 104.581 265.25 104.843 267.032C104.914 267.513 104.577 267.963 104.093 268.034C104.049 268.038 104.009 268.042 103.965 268.042V268.038ZM278.377 263.552C277.974 263.552 277.61 263.274 277.512 262.869L276.319 257.713C276.208 257.236 276.505 256.764 276.984 256.654C277.463 256.544 277.938 256.839 278.049 257.316L279.242 262.472C279.353 262.948 279.056 263.42 278.577 263.53C278.51 263.543 278.444 263.552 278.377 263.552ZM102.447 257.541C102.012 257.541 101.631 257.223 101.569 256.782C101.311 254.969 101.058 253.218 100.823 251.529C100.757 251.048 101.094 250.598 101.578 250.532C102.061 250.466 102.514 250.801 102.58 251.282C102.82 252.967 103.068 254.722 103.326 256.531C103.397 257.011 103.059 257.461 102.571 257.527C102.527 257.532 102.487 257.536 102.447 257.536V257.541ZM275.986 253.236C275.582 253.236 275.218 252.958 275.121 252.552L273.927 247.396C273.816 246.92 274.114 246.448 274.593 246.338C275.068 246.227 275.547 246.523 275.658 246.999L276.851 252.155C276.962 252.632 276.665 253.103 276.186 253.214C276.119 253.227 276.052 253.236 275.986 253.236ZM100.956 247.039C100.522 247.039 100.14 246.721 100.078 246.28C99.8162 244.401 99.5677 242.646 99.3459 241.027C99.2793 240.546 99.6165 240.101 100.105 240.035C100.588 239.964 101.036 240.304 101.103 240.789C101.329 242.408 101.573 244.167 101.835 246.042C101.901 246.523 101.564 246.968 101.081 247.039C101.041 247.043 100.996 247.048 100.956 247.048V247.039ZM273.595 242.924C273.191 242.924 272.827 242.646 272.729 242.24L271.536 237.084C271.425 236.608 271.722 236.136 272.201 236.025C272.676 235.915 273.155 236.211 273.266 236.687L274.46 241.843C274.571 242.319 274.273 242.791 273.794 242.902C273.728 242.915 273.661 242.924 273.595 242.924ZM99.4923 236.528C99.0575 236.528 98.6759 236.206 98.6138 235.765L98.4008 234.217C98.3698 233.979 98.4363 233.736 98.5827 233.547C98.7336 233.357 98.9554 233.238 99.195 233.216C100.353 233.11 101.6 232.986 102.926 232.85C103.419 232.797 103.849 233.154 103.898 233.635C103.947 234.116 103.592 234.552 103.108 234.601C102.119 234.702 101.178 234.795 100.282 234.883L100.371 235.523C100.437 236.003 100.096 236.449 99.6121 236.515C99.5721 236.519 99.5322 236.524 99.4923 236.524V236.528ZM108.321 234.041C107.878 234.041 107.492 233.705 107.438 233.255C107.385 232.77 107.736 232.334 108.224 232.281C109.905 232.095 111.676 231.893 113.517 231.672C114.005 231.619 114.444 231.959 114.502 232.444C114.559 232.929 114.213 233.366 113.725 233.423C111.88 233.639 110.109 233.842 108.423 234.032C108.388 234.032 108.357 234.036 108.321 234.036V234.041ZM118.912 232.797C118.468 232.797 118.087 232.47 118.033 232.025C117.971 231.54 118.317 231.103 118.805 231.041C120.522 230.83 122.288 230.609 124.09 230.38C124.573 230.322 125.021 230.658 125.083 231.143C125.146 231.628 124.804 232.069 124.316 232.131C122.51 232.36 120.744 232.581 119.023 232.792C118.987 232.797 118.947 232.801 118.912 232.801V232.797ZM271.208 232.607C270.804 232.607 270.44 232.329 270.342 231.923L269.149 226.767C269.038 226.291 269.335 225.819 269.814 225.709C270.289 225.599 270.768 225.894 270.879 226.37L272.073 231.527C272.184 232.003 271.886 232.475 271.407 232.585C271.341 232.598 271.274 232.607 271.208 232.607ZM129.489 231.452C129.05 231.452 128.668 231.13 128.611 230.684C128.544 230.199 128.886 229.758 129.374 229.692C131.113 229.462 132.874 229.224 134.653 228.986C135.137 228.92 135.585 229.259 135.652 229.74C135.718 230.221 135.377 230.666 134.893 230.733C133.109 230.975 131.344 231.213 129.604 231.443C129.565 231.447 129.525 231.452 129.485 231.452H129.489ZM140.053 230.014C139.618 230.014 139.237 229.696 139.175 229.255C139.108 228.774 139.445 228.324 139.929 228.258C141.677 228.011 143.438 227.764 145.204 227.508C145.688 227.438 146.14 227.773 146.211 228.254C146.282 228.735 145.945 229.184 145.461 229.255C143.696 229.511 141.934 229.758 140.182 230.005C140.142 230.009 140.097 230.014 140.057 230.014H140.053ZM150.608 228.492C150.178 228.492 149.796 228.179 149.73 227.742C149.659 227.261 149.991 226.812 150.475 226.741C152.232 226.481 153.989 226.216 155.737 225.947C156.22 225.872 156.673 226.203 156.748 226.684C156.824 227.164 156.491 227.614 156.008 227.689C154.259 227.958 152.498 228.223 150.737 228.483C150.692 228.492 150.648 228.492 150.604 228.492H150.608ZM161.141 226.878C160.71 226.878 160.333 226.569 160.267 226.132C160.191 225.652 160.52 225.197 161.003 225.122C162.774 224.84 164.531 224.558 166.261 224.275C166.744 224.196 167.201 224.522 167.281 225.003C167.361 225.484 167.033 225.938 166.549 226.018C164.814 226.304 163.058 226.587 161.283 226.869C161.234 226.878 161.19 226.882 161.141 226.882V226.878ZM171.66 225.144C171.234 225.144 170.862 224.84 170.786 224.412C170.702 223.931 171.026 223.477 171.509 223.393C173.293 223.089 175.046 222.78 176.754 222.471C177.237 222.383 177.699 222.701 177.783 223.182C177.872 223.662 177.548 224.121 177.069 224.205C175.356 224.514 173.604 224.822 171.811 225.127C171.762 225.135 171.709 225.14 171.66 225.14V225.144ZM182.153 223.252C181.736 223.252 181.363 222.957 181.284 222.538C181.19 222.057 181.505 221.598 181.989 221.505C183.821 221.157 185.578 220.809 187.207 220.478C187.686 220.381 188.156 220.685 188.254 221.166C188.351 221.642 188.045 222.11 187.562 222.207C185.924 222.542 184.163 222.89 182.317 223.243C182.26 223.252 182.206 223.261 182.149 223.261L182.153 223.252ZM268.821 222.291C268.417 222.291 268.053 222.013 267.955 221.607L266.762 216.451C266.651 215.975 266.948 215.503 267.427 215.392C267.907 215.282 268.381 215.578 268.492 216.054L269.686 221.21C269.797 221.686 269.499 222.158 269.02 222.269C268.954 222.282 268.887 222.291 268.821 222.291ZM192.597 221.1C192.194 221.1 191.825 220.822 191.732 220.412C191.621 219.935 191.923 219.463 192.402 219.358C194.305 218.925 196.04 218.506 197.553 218.105C198.028 217.981 198.512 218.259 198.64 218.731C198.764 219.203 198.485 219.684 198.01 219.812C196.475 220.218 194.723 220.641 192.801 221.078C192.735 221.091 192.668 221.1 192.602 221.1H192.597ZM202.926 218.467C202.531 218.467 202.172 218.202 202.065 217.805C201.946 217.333 202.23 216.852 202.704 216.733C204.293 216.327 206.041 215.904 207.9 215.467C208.379 215.357 208.854 215.648 208.969 216.124C209.08 216.601 208.787 217.073 208.308 217.187C206.462 217.62 204.723 218.043 203.143 218.444C203.068 218.462 202.997 218.471 202.922 218.471L202.926 218.467ZM213.304 216.027C212.895 216.027 212.532 215.75 212.438 215.335C212.332 214.859 212.634 214.387 213.113 214.281C214.817 213.906 216.56 213.531 218.335 213.156C218.814 213.055 219.284 213.359 219.386 213.835C219.488 214.312 219.182 214.779 218.703 214.881C216.937 215.251 215.194 215.626 213.499 216.001C213.432 216.014 213.37 216.023 213.304 216.023V216.027ZM223.734 213.827C223.322 213.827 222.954 213.54 222.865 213.121C222.767 212.644 223.078 212.177 223.557 212.08C225.296 211.727 227.044 211.379 228.792 211.035C229.276 210.942 229.742 211.251 229.835 211.727C229.928 212.203 229.618 212.671 229.138 212.764C227.399 213.108 225.651 213.456 223.916 213.809C223.859 213.822 223.797 213.827 223.739 213.827H223.734ZM266.429 211.978C266.025 211.978 265.662 211.701 265.564 211.295L264.371 206.139C264.26 205.662 264.557 205.19 265.036 205.08C265.511 204.97 265.99 205.265 266.101 205.742L267.294 210.898C267.405 211.374 267.108 211.846 266.629 211.956C266.562 211.97 266.496 211.978 266.429 211.978ZM234.196 211.767C233.779 211.767 233.406 211.471 233.327 211.052C233.233 210.571 233.548 210.113 234.032 210.02C235.807 209.681 237.559 209.35 239.276 209.028C239.755 208.94 240.221 209.253 240.31 209.733C240.399 210.214 240.084 210.673 239.6 210.761C237.888 211.083 236.135 211.414 234.365 211.754C234.307 211.762 234.249 211.771 234.196 211.771V211.767ZM244.676 209.804C244.254 209.804 243.882 209.509 243.806 209.081C243.717 208.6 244.037 208.141 244.516 208.053C246.344 207.718 248.101 207.4 249.765 207.1C250.248 207.016 250.71 207.334 250.794 207.81C250.883 208.291 250.559 208.75 250.08 208.834C248.416 209.134 246.659 209.451 244.836 209.782C244.782 209.791 244.729 209.795 244.676 209.795V209.804ZM255.173 207.921C254.752 207.921 254.375 207.621 254.299 207.193C254.215 206.712 254.534 206.253 255.018 206.17C257.032 205.817 258.807 205.508 260.28 205.257C260.759 205.173 261.22 205.495 261.305 205.976C261.389 206.456 261.065 206.911 260.582 206.994C259.113 207.246 257.338 207.555 255.328 207.907C255.275 207.916 255.226 207.921 255.173 207.921Z" fill="#7879F1"/>
<path d="M295.667 253.315C295.667 256.945 290.179 263.861 289.056 263.861C287.934 263.861 282.445 256.941 282.445 253.315C282.445 249.689 285.405 246.743 289.056 246.743C292.707 246.743 295.667 249.685 295.667 253.315Z" fill="#F411CF"/>
<path d="M290.034 256.397C291.755 255.862 292.715 254.041 292.176 252.33C291.638 250.618 289.807 249.665 288.085 250.2C286.364 250.735 285.405 252.556 285.943 254.267C286.481 255.978 288.313 256.932 290.034 256.397Z" fill="white"/>
<path d="M81.0262 383.699C81.0262 387.329 75.5379 394.245 74.4154 394.245C73.2929 394.245 67.8047 387.324 67.8047 383.699C67.8047 380.073 70.764 377.127 74.4154 377.127C78.0669 377.127 81.0262 380.069 81.0262 383.699Z" fill="#FACD49"/>
<path d="M74.4139 386.946C76.2173 386.946 77.6793 385.492 77.6793 383.699C77.6793 381.907 76.2173 380.453 74.4139 380.453C72.6104 380.453 71.1484 381.907 71.1484 383.699C71.1484 385.492 72.6104 386.946 74.4139 386.946Z" fill="white"/>
<path d="M172.947 199.656C185.002 192.666 213.499 193.914 219.524 224.241C225.549 254.569 227.812 246.334 244.006 254.944C260.2 263.558 258.319 270.672 256.434 281.902C254.548 293.136 268.861 299.875 242.121 315.974C214.249 326.459 162.65 335.443 147.21 335.443C127.626 328.704 118.961 319.719 128.003 303.245C137.041 286.771 138.926 290.141 134.028 277.412C129.13 264.683 139.676 262.063 145.706 247.459C151.731 232.86 141.06 205.399 172.947 199.661V199.656Z" fill="#191919"/>
<path d="M161.277 247.834C158.824 250.776 155.816 253.193 152.834 255.57C149.759 257.881 146.441 259.84 142.82 261.172C143.925 260.4 145.11 259.743 146.197 258.958C147.962 257.683 149.751 256.435 151.512 255.151C154.8 252.756 157.972 250.207 161.273 247.834H161.277Z" fill="#232C40"/>
<path d="M186.953 203.899C189.114 207.679 191.78 211.411 194.855 214.507C196.545 216.289 198.338 217.93 200.254 219.473C201.794 220.717 203.467 221.749 205.095 222.874C200.942 221.22 197.277 218.693 194.207 215.46C191.141 212.231 188.253 208.209 186.953 203.904V203.899Z" fill="#232C40"/>
<path d="M215.867 247.529C216.976 250.956 219.39 254.203 222.185 256.456C223.933 257.855 225.832 258.922 227.904 259.764C229.146 260.272 230.464 260.611 231.755 260.977C237.811 262.711 243.739 266.081 247.093 271.537C248.508 273.702 249.085 276.234 249.09 278.783C248.597 274.531 246.445 271.007 243.22 268.206C240.664 265.983 237.723 264.413 234.612 263.117C232.572 262.261 230.389 261.767 228.295 261.066C224.071 259.65 220.353 256.527 218.055 252.769C217.083 251.181 216.213 249.369 215.867 247.529Z" fill="#232C40"/>
<path d="M169.439 207.896C169.439 215.125 167.931 222.521 165.446 229.3C164.111 232.948 162.482 236.441 160.49 239.776C158.818 242.577 156.812 245.108 154.625 247.53C156.373 244.927 158.152 242.391 159.634 239.617C161.475 236.163 163.073 232.613 164.386 228.926C166.804 222.155 168.587 215.036 169.439 207.896Z" fill="#232C40"/>
<path d="M147.085 435.542C144.321 444.527 143.065 449.52 140.43 457.009H239.232C239.232 451.271 239.147 445.418 235.048 425.38C221.405 421.816 163.656 429.804 147.085 435.542Z" fill="#232C40"/>
<path d="M186.941 307.554C190.145 320.843 214.263 392.358 193.353 435.044C214.627 438.789 224.419 438.414 234.965 433.169C234.965 414.076 236.846 381.873 236.846 362.405C236.846 342.936 223.376 312.983 215.86 296.695C207.089 296.695 194.284 305.869 186.941 307.554Z" fill="#D1D1D3"/>
<path d="M208.355 280.406C206.447 279.851 204.739 273.795 203.683 267.88C213.719 260.589 211.949 246.184 211.181 240.406C214.447 240.406 216.63 235.912 215.627 230.544C214.624 225.176 211.913 222.772 207.206 227.452C203.568 226.455 185.306 223.994 176.721 212.385C176.721 223.368 170.195 238.968 161.281 247.829C163.291 252.571 165.168 254.538 168.309 253.541C170.168 258.115 173.669 263.703 178.656 267.505C180.47 275.087 181.708 284.786 177.16 285.832C183.753 297.626 185.257 302.12 186.952 307.55C192.6 310.734 211.27 313.539 215.871 296.691C212.938 288.451 211.243 285.395 208.355 280.402V280.406Z" fill="#F3A393"/>
<path d="M209.168 231.545C209.607 229.547 211.928 227.113 212.935 230.174C213.937 233.235 213.121 238.413 210.109 235.418C210.361 233.918 211.111 232.485 209.168 231.55V231.545Z" fill="#F28C80"/>
<path d="M165.182 243.33C166.42 245.086 165.79 247.458 167.675 248.583C167.675 250.396 165.244 251.133 163.039 245.959C164.259 244.746 164.836 243.798 165.186 243.334L165.182 243.33Z" fill="#F28C80"/>
<path d="M198.793 255.367C197.923 257.166 195.869 258.639 193.895 258.939C191.716 259.27 189.777 258.52 188.273 256.937C189.968 257.524 191.645 258.225 193.482 257.876C195.452 257.501 197.196 256.553 198.797 255.367H198.793Z" fill="#B86825"/>
<path d="M178.645 267.51C178.645 267.51 192.101 275.325 203.677 267.88C201.068 272.542 192.376 277.2 178.645 267.51Z" fill="#F28C80"/>
<path d="M208.36 280.407C220.162 280.407 233.086 281.885 239.12 287.883C245.154 293.882 256.068 327.213 264.352 344.062C262.998 353.196 271.57 373.887 258.899 378.919C255.953 377.221 247.674 373.256 243.108 372.303C237.15 396.359 245.518 434.299 238.774 447.359C237.394 442.742 235.726 438.296 234.971 433.175C231.582 415.951 208.355 297.993 208.355 280.412L208.36 280.407Z" fill="#7879F1"/>
<path d="M177.16 285.836C170.195 289.021 152.115 293.136 148.535 298.38C144.959 303.62 140.438 335.073 140.438 352.671C140.438 370.27 146.463 399.098 153.996 410.707C148.348 424.56 147.217 426.162 142.319 437.532C155.5 443.284 178.003 445.313 183.749 451.02C186.513 445.78 189.836 441.409 193.359 435.045C202.454 420.816 228.378 336.757 177.156 285.836H177.16Z" fill="#7879F1"/>
<path d="M236.352 308.49C238.419 316.151 240.451 323.817 242.505 331.478C243.597 335.545 245.305 339.607 245.749 343.81C246.157 347.687 246.099 351.586 245.833 355.477C245.194 364.832 243.428 374.125 240.367 382.999C242.585 374.707 244.005 366.243 244.657 357.682C244.981 353.39 245.127 349.055 244.719 344.759C244.342 340.767 243.016 336.939 241.937 333.088C239.666 325.003 237.989 316.716 236.352 308.485V308.49Z" fill="#384666"/>
<path d="M171.693 324.465C172.58 340.784 173.205 357.174 175.073 373.423C175.566 377.715 176.271 381.953 177.154 386.183C174.78 378.178 173.56 369.886 172.864 361.581C172.083 352.261 171.661 342.95 171.577 333.599C171.551 330.56 171.568 327.508 171.688 324.469L171.693 324.465Z" fill="#384666"/>
<path d="M266.219 316.723C262.075 330.577 240.983 400.698 231.945 437.527C251.152 429.049 277.142 419.69 288.061 414.821C295.218 389.362 317.064 315.466 327.233 292.694C319.101 300.774 308.528 309.984 303.506 314.976C293.212 314.976 273.376 315.722 266.219 316.723Z" fill="#FAF2EB"/>
<path d="M303.508 314.976C305.979 314.491 308.561 314.544 311.068 314.632C313.566 314.729 316.153 314.968 318.557 315.682C316.104 316.216 313.49 316.229 310.993 316.128C308.499 316.044 305.89 315.735 303.508 314.981V314.976Z" fill="#D6C5B8"/>
<path d="M274.147 337.863C273.952 337.863 273.784 337.708 273.77 337.514C273.757 337.307 273.912 337.126 274.121 337.113L304.331 335.071C304.544 335.053 304.717 335.216 304.73 335.419C304.743 335.626 304.588 335.803 304.379 335.82L274.17 337.863C274.17 337.863 274.152 337.863 274.143 337.863H274.147Z" fill="#BDA795"/>
<path d="M268.897 342.842C268.702 342.842 268.534 342.688 268.52 342.494C268.507 342.287 268.662 342.11 268.871 342.097L302.874 339.869C303.078 339.852 303.26 340.015 303.273 340.218C303.287 340.425 303.131 340.602 302.923 340.615L268.92 342.842C268.92 342.842 268.902 342.842 268.893 342.842H268.897Z" fill="#BDA795"/>
<path d="M267.55 347.659C267.355 347.659 267.186 347.509 267.173 347.31C267.159 347.103 267.315 346.927 267.523 346.913L301.42 344.668C301.624 344.655 301.806 344.809 301.819 345.017C301.833 345.224 301.677 345.4 301.469 345.414L267.572 347.659C267.572 347.659 267.554 347.659 267.545 347.659H267.55Z" fill="#BDA795"/>
<path d="M266.229 352.37C266.034 352.37 265.866 352.22 265.852 352.021C265.839 351.814 265.994 351.637 266.203 351.624L299.966 349.463C300.184 349.441 300.352 349.604 300.366 349.811C300.379 350.019 300.219 350.195 300.015 350.208L266.247 352.37H266.221H266.229Z" fill="#BDA795"/>
<path d="M264.89 357.146C264.694 357.146 264.526 356.992 264.512 356.794C264.499 356.586 264.659 356.41 264.863 356.397L298.516 354.253C298.72 354.231 298.902 354.394 298.915 354.601C298.928 354.809 298.769 354.985 298.564 354.998L264.912 357.142C264.912 357.142 264.894 357.142 264.89 357.142V357.146Z" fill="#BDA795"/>
<path d="M263.55 361.927C263.355 361.927 263.186 361.777 263.173 361.579C263.159 361.372 263.315 361.195 263.523 361.182L297.061 359.052C297.265 359.025 297.447 359.193 297.46 359.4C297.473 359.607 297.313 359.784 297.109 359.797L263.572 361.927H263.55Z" fill="#BDA795"/>
<path d="M262.171 366.84C261.976 366.84 261.812 366.69 261.794 366.492C261.78 366.285 261.936 366.108 262.144 366.091L295.606 363.846C295.819 363.832 295.992 363.987 296.005 364.194C296.019 364.401 295.864 364.578 295.655 364.591L262.193 366.836C262.193 366.836 262.175 366.836 262.166 366.836L262.171 366.84Z" fill="#BDA795"/>
<path d="M261.104 371.634C260.909 371.634 260.741 371.484 260.727 371.286C260.714 371.079 260.869 370.902 261.078 370.889L294.22 368.644C294.433 368.635 294.606 368.785 294.624 368.992C294.637 369.2 294.482 369.376 294.274 369.389L261.131 371.634H261.104Z" fill="#BDA795"/>
<path d="M156.621 412.202C168.299 414.072 199.555 408.832 231.948 397.223C236.846 398.723 243.874 399.469 245.946 399.469C248.018 399.469 258.577 397.1 258.75 391.856C260.663 390.766 262.047 388.768 261.856 386.585C264.021 385.368 265.836 383.14 265.028 380.811C267.287 379.687 269.687 378.015 268.103 376.445C266.927 375.276 259.975 377.336 254.358 377.336C248.741 377.336 241.944 376.458 239.229 378.319C236.514 380.181 234.02 381.874 231.948 381.874C229.876 381.874 196.543 387.489 177.15 386.179C168.299 394.978 158.697 404.713 156.626 412.202H156.621Z" fill="#F3A393"/>
<path d="M265.028 380.811C262.716 382.033 259.744 382.43 257.166 382.699C254.49 382.919 251.771 383.109 249.082 382.994C251.709 382.443 254.411 382.178 257.081 381.953C258.594 381.821 260.098 381.565 261.611 381.411C262.743 381.296 263.932 381.12 265.028 380.807V380.811Z" fill="#B86825"/>
<path d="M261.859 386.584C259.849 387.391 257.68 387.704 255.55 388.013C253.452 388.326 251.202 388.375 249.086 388.238C251.096 387.748 253.154 387.612 255.195 387.312C257.4 386.99 259.641 386.76 261.859 386.584Z" fill="#B86825"/>
<path d="M258.753 391.859C256.198 393.663 252.497 394.259 249.449 393.778C250.984 393.403 252.568 393.213 254.117 392.896C255.674 392.662 257.218 392.212 258.753 391.859Z" fill="#B86825"/>
</g>
<defs>
<filter id="filter0_d_1125_674" x="-70" y="-68" width="824" height="597" filterUnits="userSpaceOnUse" color-interpolation-filters="sRGB">
<feFlood flood-opacity="0" result="BackgroundImageFix"/>
<feColorMatrix in="SourceAlpha" type="matrix" values="0 0 0 0 0 0 0 0 0 0 0 0 0 0 0 0 0 0 127 0" result="hardAlpha"/>
<feOffset dy="2"/>
<feGaussianBlur stdDeviation="35"/>
<feComposite in2="hardAlpha" operator="out"/>
<feColorMatrix type="matrix" values="0 0 0 0 0 0 0 0 0 0 0 0 0 0 0 0 0 0 0.06 0"/>
<feBlend mode="normal" in2="BackgroundImageFix" result="effect1_dropShadow_1125_674"/>
<feBlend mode="normal" in="SourceGraphic" in2="effect1_dropShadow_1125_674" result="shape"/>
</filter>
<filter id="filter1_dddd_1125_674" x="458" y="193.427" width="76.1406" height="91.2676" filterUnits="userSpaceOnUse" color-interpolation-filters="sRGB">
<feFlood flood-opacity="0" result="BackgroundImageFix"/>
<feColorMatrix in="SourceAlpha" type="matrix" values="0 0 0 0 0 0 0 0 0 0 0 0 0 0 0 0 0 0 127 0" result="hardAlpha"/>
<feOffset dy="1"/>
<feGaussianBlur stdDeviation="1.5"/>
<feColorMatrix type="matrix" values="0 0 0 0 0.54902 0 0 0 0 0.54902 0 0 0 0 0.54902 0 0 0 0.1 0"/>
<feBlend mode="normal" in2="BackgroundImageFix" result="effect1_dropShadow_1125_674"/>
<feColorMatrix in="SourceAlpha" type="matrix" values="0 0 0 0 0 0 0 0 0 0 0 0 0 0 0 0 0 0 127 0" result="hardAlpha"/>
<feOffset dy="6"/>
<feGaussianBlur stdDeviation="3"/>
<feColorMatrix type="matrix" values="0 0 0 0 0.54902 0 0 0 0 0.54902 0 0 0 0 0.54902 0 0 0 0.09 0"/>
<feBlend mode="normal" in2="effect1_dropShadow_1125_674" result="effect2_dropShadow_1125_674"/>
<feColorMatrix in="SourceAlpha" type="matrix" values="0 0 0 0 0 0 0 0 0 0 0 0 0 0 0 0 0 0 127 0" result="hardAlpha"/>
<feOffset dy="13"/>
<feGaussianBlur stdDeviation="4"/>
<feColorMatrix type="matrix" values="0 0 0 0 0.54902 0 0 0 0 0.54902 0 0 0 0 0.54902 0 0 0 0.05 0"/>
<feBlend mode="normal" in2="effect2_dropShadow_1125_674" result="effect3_dropShadow_1125_674"/>
<feColorMatrix in="SourceAlpha" type="matrix" values="0 0 0 0 0 0 0 0 0 0 0 0 0 0 0 0 0 0 127 0" result="hardAlpha"/>
<feOffset dy="22"/>
<feGaussianBlur stdDeviation="4.5"/>
<feColorMatrix type="matrix" values="0 0 0 0 0.54902 0 0 0 0 0.54902 0 0 0 0 0.54902 0 0 0 0.01 0"/>
<feBlend mode="normal" in2="effect3_dropShadow_1125_674" result="effect4_dropShadow_1125_674"/>
<feBlend mode="normal" in="SourceGraphic" in2="effect4_dropShadow_1125_674" result="shape"/>
</filter>
<clipPath id="clip0_1125_674">
<rect width="684" height="449" rx="30" fill="white"/>
</clipPath>
</defs>
</svg>
