<svg width="25" height="25" viewBox="0 0 25 25" fill="none" xmlns="http://www.w3.org/2000/svg">
<path d="M22.4616 2.53896L11.0847 13.9159M2.59445 9.76259L22.1257 2.3705C22.1962 2.34355 22.2729 2.33758 22.3467 2.35331C22.4205 2.36904 22.4881 2.4058 22.5415 2.45914C22.5948 2.51248 22.6316 2.58013 22.6473 2.6539C22.663 2.72768 22.657 2.80444 22.6301 2.8749L15.238 22.4061C15.2086 22.4803 15.1572 22.5437 15.0907 22.5878C15.0242 22.6319 14.9458 22.6545 14.866 22.6527C14.7863 22.6509 14.709 22.6247 14.6445 22.5777C14.5801 22.5306 14.5316 22.465 14.5056 22.3895L11.2146 14.2797C11.1762 14.1648 11.1116 14.0603 11.026 13.9746C10.9403 13.889 10.8358 13.8244 10.7209 13.786L2.61105 10.4979C2.53465 10.4725 2.46798 10.4241 2.42015 10.3593C2.37231 10.2946 2.34567 10.2166 2.34385 10.1361C2.34203 10.0556 2.36513 9.97653 2.40999 9.90966C2.45485 9.8428 2.51928 9.79143 2.59445 9.76259Z" stroke="white" stroke-width="1.5625" stroke-linecap="round" stroke-linejoin="round"/>
</svg>
