<svg width="410" height="349" viewBox="0 0 410 349" fill="none" xmlns="http://www.w3.org/2000/svg">
<path d="M15 346.668L408 349C408 349 272.032 288.404 246.681 285.738C245.888 285.654 245.108 285.579 244.334 285.516C218.954 283.377 195.129 276.809 176.424 266.239C160.535 257.258 138.139 250.072 109.643 254.19C84.4447 257.832 39.3037 302.96 15.0048 328.765V346.671L15 346.668Z" fill="#B8D6F9"/>
<path d="M-132 345.242C-132 345.242 -62.7688 285.701 26.4995 282.044C56.4756 280.816 179.218 305.44 282.579 324.786C286.924 325.599 395.251 345.411 410 346L-131.998 345.244L-132 345.242Z" fill="#96D9C9"/>
<path d="M253.786 0.498047H370.687C374.727 0.498047 378 3.78336 378 7.83471V56.2416C378 60.293 374.727 63.5783 370.687 63.5783H278.651C274.927 68.7945 268.171 78.1331 267.575 78.1331C267.018 78.1331 268.092 69.3118 268.85 63.5783H253.786C249.747 63.5783 246.473 60.293 246.473 56.2416V7.83471C246.473 3.78336 249.747 0.498047 253.786 0.498047Z" fill="#FACD49"/>
<path d="M328.291 17.7295H361.961C362.533 17.7295 362.996 18.1927 362.996 18.764V19.8894C362.996 20.4608 362.533 20.924 361.961 20.924H328.291C327.72 20.924 327.257 20.4608 327.257 19.8894V18.764C327.257 18.1927 327.72 17.7295 328.291 17.7295Z" fill="white"/>
<path d="M339.888 31.6807H361.961C362.533 31.6807 362.996 32.1438 362.996 32.7152V33.8406C362.996 34.412 362.533 34.8751 361.961 34.8751H339.888C339.317 34.8751 338.854 34.412 338.854 33.8406V32.7152C338.854 32.1438 339.317 31.6807 339.888 31.6807Z" fill="white"/>
<path d="M331.356 31.6807H307.265C306.693 31.6807 306.231 32.1427 306.231 32.7152V33.8406C306.231 34.4131 306.696 34.8751 307.265 34.8751H331.356C331.929 34.8751 332.391 34.4092 332.391 33.8406V32.7152C332.391 32.1427 331.925 31.6807 331.356 31.6807Z" fill="white"/>
<path d="M297.696 31.6807H261.984C261.411 31.6807 260.949 32.1466 260.949 32.7152V33.8406C260.949 34.4131 261.415 34.8751 261.984 34.8751H297.696C298.268 34.8751 298.73 34.4131 298.73 33.8406V32.7152C298.73 32.1427 298.264 31.6807 297.696 31.6807Z" fill="white"/>
<path d="M318.536 17.7295H261.987C261.414 17.7295 260.952 18.1915 260.952 18.764V19.8894C260.952 20.462 261.418 20.924 261.987 20.924H318.536C319.108 20.924 319.57 20.462 319.57 19.8894V18.764C319.57 18.1915 319.104 17.7295 318.536 17.7295Z" fill="white"/>
<path d="M361.961 45.8955H316.157C315.584 45.8955 315.122 46.3615 315.122 46.9301V48.0554C315.122 48.628 315.588 49.09 316.157 49.09H361.961C362.534 49.09 362.996 48.628 362.996 48.0554V46.9301C362.996 46.3575 362.53 45.8955 361.961 45.8955Z" fill="white"/>
<path d="M307.801 45.8955H261.981C261.408 45.8955 260.946 46.3615 260.946 46.9301V48.0554C260.946 48.628 261.412 49.09 261.981 49.09H307.801C308.374 49.09 308.836 48.628 308.836 48.0554V46.9301C308.836 46.3575 308.37 45.8955 307.801 45.8955Z" fill="white"/>
<path d="M148.246 235.774C147.779 235.774 147.418 235.39 147.418 234.942V186.491H120.183V234.942C120.183 235.411 119.801 235.774 119.355 235.774C118.909 235.774 118.527 235.39 118.527 234.942V185.659C118.527 185.19 118.909 184.828 119.355 184.828H148.267C148.734 184.828 149.095 185.212 149.095 185.659V234.942C149.095 235.411 148.713 235.774 148.267 235.774H148.246Z" fill="#3E537A"/>
<path d="M259.989 100.779L260.94 101.631C261.429 102.068 262.162 102.049 262.58 101.591L279.419 83.0213C279.837 82.56 279.782 81.8306 279.293 81.393L278.342 80.5413C277.853 80.1037 277.12 80.1195 276.702 80.5808L259.863 99.1508C259.445 99.6121 259.5 100.341 259.989 100.779Z" fill="#183658"/>
<path d="M202.9 85.6934C205.151 83.8561 222.554 91.5207 222.333 94.1859C222.112 96.8551 234.479 122.707 234.479 122.707L255.849 105.616H255.857C256.046 105.005 258.073 98.3533 258.171 97.1666C258.274 95.9207 261.886 93.7364 263.562 94.0597C265.238 94.383 262.127 96.4924 261.926 96.8787C261.37 97.9314 263.519 98.3296 263.519 98.3296C263.519 98.3296 269.694 94.9311 269.824 92.9321C269.954 90.9332 271.232 86.7421 272.565 87.6174C273.255 88.0708 273.247 91.0436 273.03 92.4511C273.425 90.8504 273.989 89.0407 274.537 88.8633C275.534 88.5361 276.031 89.8095 275.85 90.4364C275.668 91.0633 274.056 97.8605 273.567 98.6253C273.09 99.3745 263.116 107.433 261.681 109.18C261.681 109.18 234.041 140.879 232.073 141.707C230.346 142.436 224.19 131.511 218.374 124.261C212.557 117.01 195.872 91.43 202.904 85.6934H202.9Z" fill="#F7A491"/>
<path d="M147.141 318.489C147.141 318.489 143.343 322.207 143.257 323.571C143.17 324.935 142.921 339.554 144.471 340.919C146.021 342.283 150.576 343.253 149.113 344.786C148.005 345.946 139.491 345.697 133.852 345.386C132.203 345.295 130.141 332.111 129.486 330.171C128.54 327.356 126.233 321.016 127.096 319.056C127.514 318.102 129.526 316.135 132.353 314.302C135.33 312.374 138.177 308.08 138.177 308.08L147.145 318.485L147.141 318.489Z" fill="#F7A491"/>
<path d="M186.481 327.428C186.481 327.428 183.082 337.06 183.078 337.083C182.825 338.609 181.831 342.378 181.831 343.766C181.831 348.978 205.26 339.342 200.011 337.032C199.534 336.823 198.043 335.151 197.889 333.381C197.649 330.649 199.861 327.219 199.861 327.219L186.481 327.424V327.428Z" fill="#F8A492"/>
<path d="M223.242 147.775C223.242 147.775 224.949 165.044 224.949 165.301C224.949 193.234 230.47 247.797 229.417 253.049C226.858 265.859 199.297 331.204 199.297 331.204L184.403 329.418L203.812 251.184L196.671 219.694L186.564 157.447L223.242 147.775Z" fill="#355389"/>
<path d="M173.245 163.05L170.417 179.416L162.771 246.773L133.648 312.604C133.648 312.604 137.745 322.184 143.787 323.529L190.138 255.939L218.93 169.453L217.92 150.236L173.245 163.046V163.05Z" fill="#13375B"/>
<path d="M229.172 106.941L208.516 109.059C208.516 109.059 207.57 92.0696 207.57 83.9674C207.57 74.1344 208.406 61.4745 209.589 61.7465C212.909 62.5114 217.385 64.3526 220.047 68.0232C229.262 80.7265 229.172 106.945 229.172 106.945V106.941Z" fill="#B75742"/>
<path d="M219.026 82.2321C219.46 85.2285 227.398 166.72 227.398 166.72C189.79 184.943 169.035 169.965 169.035 169.965C169.035 169.965 170.265 112.741 168.791 104.954C167.817 99.8007 166.598 65.5585 169.926 64.6004C174.197 63.3703 179.095 62.0614 184.434 61.5054C188.993 61.0323 206.691 60.7563 209.858 61.8248C209.858 61.8248 217.205 69.6274 219.023 82.2321H219.026Z" fill="#F47458"/>
<path d="M132.526 314.21C132.526 314.21 141.28 338.934 144.707 340.129C145.618 340.445 149.983 341.249 150.808 343.189C151.056 343.772 150.808 345.72 150.808 345.72H132.561C132.561 345.72 130.254 334.826 129.343 330.04C129.343 330.04 124.512 318.346 125.049 317.281C125.585 316.217 132.53 314.21 132.53 314.21H132.526Z" fill="#194655"/>
<path d="M180.5 345.49L183.182 336.985C183.182 336.985 188.817 339.379 191.632 338.976C194.448 338.578 199.949 336.985 199.949 336.985C211.196 340.699 220.408 342.501 218.732 345.49H180.496H180.5Z" fill="#194655"/>
<path d="M232.066 141.707C232.153 141.672 232.457 141.431 232.634 141.285C231.964 133.301 232.086 125.566 234.582 122.952C234.523 122.826 233.975 121.663 233.407 120.456C230.512 122.703 229.136 128.669 229.676 138.356C229.712 139.022 229.905 139.531 230.059 140.363C230.899 141.289 231.66 141.884 232.066 141.711V141.707Z" fill="#F8A492"/>
<path d="M131.79 167.583C131.767 167.41 131.763 167.232 131.782 167.059C132.338 161.417 137.007 114.026 137.792 112.011C138.502 110.194 159.45 80.1387 159.45 80.1387L169.746 94.2101L149.599 121.166C149.145 122.881 141.878 154.868 141.878 154.868C141.878 154.868 140.387 160.699 139.72 164.193C140.024 165.032 140.324 165.829 140.588 166.479C141.254 167.875 142.043 169.018 142.757 169.98C143.656 171.191 145.147 173.836 145.328 174.546C145.541 175.37 145.927 177.081 146.144 178.11C146.361 179.143 146.661 180.346 146.712 180.906C146.744 181.245 147.095 181.927 147.363 182.408C147.765 183.121 147.079 183.969 146.302 183.709C145.569 183.464 145.001 182.514 144.65 181.923C143.66 180.251 143.132 177.199 142.883 177.361C142.639 177.523 141.767 182.7 141.629 183.287C141.491 183.874 140.45 189.887 139.862 190.983C139.275 192.079 138.498 191.898 138.289 191.212C138.112 190.62 138.94 182.207 138.94 182.207C138.94 182.207 139.042 181.134 138.573 181.469C138.104 181.805 137.339 189.441 137.011 190.561C136.684 191.677 135.943 192.272 135.312 191.373C134.547 190.281 135.864 182.179 135.864 182.179C135.864 182.179 136.01 181.162 135.576 181.257C135.142 181.351 134.598 187.861 134.263 188.424C133.924 188.988 133.072 189.189 132.666 188.251C132.188 187.147 133.427 179.924 133.427 179.924C133.427 179.924 133.364 179.348 133.095 179.541C132.823 179.731 131.968 185.247 131.408 185.759C130.938 186.189 130.548 185.771 130.548 185.771C129.523 185.069 131.096 179.821 131.08 177.211C131.065 174.601 132.271 171.672 131.912 168.565C131.889 168.368 131.826 167.891 131.786 167.591L131.79 167.583Z" fill="#F7A491"/>
<path d="M143.086 99.1736L160.981 111.226C160.981 111.226 171.064 96.1693 176.479 90.8112C183.262 84.0968 174.01 63.5279 169.641 64.6909C159.869 67.2931 143.09 99.1736 143.09 99.1736H143.086Z" fill="#B75742"/>
<path d="M185.752 43.8885L183.074 61.5872C183.074 61.5872 192.85 82.6569 198.683 80.8314C203.58 79.2977 200.568 60.6528 200.568 60.6528C200.568 60.6528 197.898 50.6384 198.698 45.6312C199.499 40.62 185.752 43.8925 185.752 43.8925V43.8885Z" fill="#F7A491"/>
<path d="M198.696 45.6292C199.496 40.6181 185.749 43.8905 185.749 43.8905L185.529 45.3572C185.931 46.3389 186.424 47.1787 187.019 47.8253C190.091 51.1411 194.891 53.1321 199.039 53.282C198.625 50.5812 198.369 47.6833 198.696 45.6292Z" fill="#F47458"/>
<path d="M183.502 18.8531C183.116 18.7112 180.387 39.0081 185.561 44.5948C190.735 50.1816 200.814 52.0071 204.43 47.607C208.429 42.7418 208.228 20.9269 200.187 15.1825C192.143 9.43798 183.506 18.8531 183.506 18.8531H183.502Z" fill="#F7A491"/>
<path d="M197.125 4.32374C190.906 5.59723 186.88 9.40585 185.401 11.0302C182.577 11.3654 178.74 12.9306 174.781 19.5109C169.911 27.6013 173.507 36.567 179.178 40.967C184.849 45.367 184.77 50.4452 184.77 50.4452L185.665 47.8194C186.328 45.8283 186.596 43.719 186.375 41.6293C186.241 40.3756 185.973 39.0193 185.456 37.9075C184.092 34.9702 188.386 33.0186 189.589 30.5741C190.516 28.6934 190.559 24.388 192.022 21.2773L193.765 18.9038C193.765 18.9038 197.791 15.7615 201.727 16.6486C205.662 17.5357 205.098 2.69542 197.121 4.32769L197.125 4.32374Z" fill="#184655"/>
<path d="M189.323 34.1867C189.363 36.6627 188.243 38.6893 186.815 38.7169C185.392 38.7405 184.201 36.7534 184.161 34.2774C184.122 31.8014 185.242 29.7749 186.669 29.7473C188.093 29.7236 189.284 31.7107 189.323 34.1867Z" fill="#F8A492"/>
<path d="M197.723 39.908L205.52 39.502C205.52 39.502 205.492 42.4826 202.069 42.7586C197.893 43.0977 197.723 39.9041 197.723 39.9041V39.908Z" fill="white"/>
<path d="M167.619 242.539V327.214C167.619 333.487 162.546 338.59 156.243 338.59H111.355C105.094 338.59 100 333.487 100 327.214V242.539C100 236.245 105.072 231.142 111.355 231.142H156.243C162.525 231.142 167.619 236.224 167.619 242.539Z" fill="#3E537A"/>
<path d="M167.617 242.539V327.214C167.617 333.487 162.551 338.59 156.256 338.59H120.602C114.349 338.59 109.262 333.487 109.262 327.214V242.539C109.262 236.245 114.328 231.142 120.602 231.142H156.256C162.53 231.142 167.617 236.224 167.617 242.539Z" fill="#7879F1"/>
<path d="M118.814 338.146H116.405C115.249 338.146 114.312 339.084 114.312 340.241V343.946C114.312 345.104 115.249 346.042 116.405 346.042H118.814C119.97 346.042 120.907 345.104 120.907 343.946V340.241C120.907 339.084 119.97 338.146 118.814 338.146Z" fill="black"/>
<path d="M150.885 338.146H148.475C147.32 338.146 146.383 339.084 146.383 340.241V343.946C146.383 345.104 147.32 346.042 148.475 346.042H150.885C152.04 346.042 152.977 345.104 152.977 343.946V340.241C152.977 339.084 152.04 338.146 150.885 338.146Z" fill="black"/>
</svg>
