<svg width="21" height="21" viewBox="0 0 21 21" fill="none" xmlns="http://www.w3.org/2000/svg">
<circle cx="10.5" cy="10.5" r="9.65" stroke="#ADADAF" stroke-width="1.7"/>
<path d="M6.3 9C5.72011 9 5.25 9.51485 5.25 10.15C5.25 10.7851 5.72011 11.3 6.3 11.3H14.7C15.2799 11.3 15.75 10.7851 15.75 10.15C15.75 9.51485 15.2799 9 14.7 9H6.3Z" fill="#ADADAF"/>
<path d="M11.6504 14.35C11.6504 14.9299 11.1355 15.4 10.5004 15.4C9.86525 15.4 9.35039 14.9299 9.35039 14.35L9.35039 5.95002C9.35039 5.37011 9.86525 4.90002 10.5004 4.90002C11.1355 4.90002 11.6504 5.37011 11.6504 5.95002L11.6504 14.35Z" fill="#ADADAF"/>
</svg>
