<svg width="20" height="20" viewBox="0 0 20 20" fill="none" xmlns="http://www.w3.org/2000/svg">
<path d="M19.1706 7.41939C19.113 7.24958 19.0068 7.10037 18.8653 6.99018C18.7239 6.87999 18.5532 6.81365 18.3744 6.79934L13.1453 6.38383L10.8825 1.37482C10.8104 1.21349 10.6932 1.07646 10.545 0.980278C10.3968 0.884093 10.2239 0.832861 10.0472 0.832764C9.87048 0.832667 9.69753 0.883709 9.54921 0.979732C9.40088 1.07575 9.28352 1.21265 9.21128 1.3739L6.94846 6.38383L1.71931 6.79934C1.54362 6.81326 1.37566 6.8775 1.23552 6.98438C1.09538 7.09125 0.989 7.23624 0.929105 7.40199C0.86921 7.56774 0.858335 7.74724 0.897783 7.91901C0.937231 8.09078 1.02533 8.24755 1.15154 8.37056L5.01585 12.1376L3.64917 18.0556C3.60767 18.2348 3.62097 18.4222 3.68734 18.5937C3.75372 18.7652 3.8701 18.9128 4.02138 19.0173C4.17267 19.1218 4.35188 19.1785 4.53575 19.1799C4.71963 19.1813 4.89968 19.1274 5.05254 19.0252L10.0469 15.6956L15.0412 19.0252C15.1975 19.1289 15.3817 19.1823 15.5692 19.1782C15.7567 19.1741 15.9384 19.1126 16.09 19.0022C16.2415 18.8917 16.3556 18.7374 16.4169 18.5602C16.4781 18.3829 16.4836 18.1912 16.4327 18.0107L14.755 12.1404L18.9156 8.39625C19.188 8.15043 19.288 7.76702 19.1706 7.41939V7.41939Z" fill="#FACD49"/>
</svg>
