<svg width="202" height="231" viewBox="0 0 202 231" fill="none" xmlns="http://www.w3.org/2000/svg">
<path d="M-47.579 71.2223C-48.011 71.224 -48.3387 70.9888 -48.4551 70.6751C-48.5004 70.5531 -48.5245 70.4233 -48.4999 70.2952C-48.2095 68.4228 -47.8638 66.5696 -47.4629 64.7356C-47.3435 64.2154 -46.7891 63.8312 -46.198 63.8696C-45.6069 63.9079 -45.2292 64.3427 -45.3486 64.8629C-45.7478 66.6368 -46.0999 68.4726 -46.3822 70.3023C-46.4594 70.8068 -47.0008 71.2258 -47.579 71.2223ZM111.027 8.98428C111.581 9.11587 112.21 8.80311 112.412 8.31171C112.635 7.81247 112.35 7.30362 111.803 7.18946C109.803 6.72236 107.816 6.29012 105.842 5.89273C105.295 5.77856 104.666 6.09133 104.463 6.58273C104.374 6.79444 104.375 6.99222 104.44 7.16649C104.537 7.42788 104.775 7.61696 105.093 7.69713C107.046 8.10236 109.034 8.53461 111.006 8.99212L111.027 8.98428ZM-43.9188 59.4548C-43.3653 57.6435 -42.7355 55.8434 -42.0587 54.1052C-41.863 53.5964 -42.1627 53.1128 -42.7098 52.9987C-43.278 52.8923 -43.8794 53.2147 -44.0816 53.7061C-44.7877 55.4948 -45.4257 57.3376 -45.9874 59.1916C-46.0413 59.3703 -46.0253 59.5428 -45.9671 59.6996C-45.8636 59.9784 -45.5912 60.1945 -45.2161 60.2337C-44.6396 60.2974 -44.0447 59.9576 -43.8977 59.447L-43.9188 59.4548ZM88.3886 3.74598C88.5632 3.245 88.2148 2.75968 87.6595 2.6882C85.578 2.39013 83.5305 2.11907 81.496 1.88286C80.9196 1.81924 80.3311 2.17644 80.1841 2.68701C80.1302 2.86562 80.1462 3.03814 80.2044 3.19498C80.3079 3.47379 80.5804 3.68988 80.9555 3.7291C82.9688 3.97315 85.0098 4.22679 87.0638 4.51527C87.6255 4.60417 88.2416 4.25655 88.3886 3.74598ZM-36.962 43.7476C-36.6835 43.2675 -36.8628 42.7194 -37.4082 42.5452C-37.9325 42.363 -38.5938 42.5887 -38.8659 43.0862C-39.8902 44.7947 -40.8463 46.5573 -41.7197 48.3486C-41.8305 48.5682 -41.8374 48.8087 -41.7662 49.0003C-41.6757 49.2443 -41.4649 49.4238 -41.1678 49.5118C-40.6289 49.6687 -39.9934 49.3733 -39.7425 48.8837C-38.8984 47.1429 -37.9505 45.423 -36.9555 43.765L-36.962 43.7476ZM135.215 13.4097C133.267 12.8241 131.353 12.2656 129.439 11.707C128.9 11.5501 128.258 11.828 128.007 12.3177C127.897 12.5373 127.89 12.7777 127.961 12.9694C128.045 13.196 128.262 13.3929 128.532 13.4713C130.439 14.0125 132.353 14.571 134.273 15.147C134.812 15.3039 135.46 15.0434 135.711 14.5538C135.962 14.0641 135.741 13.5317 135.202 13.3749L135.215 13.4097ZM-46.8137 91.9346C-46.9991 90.1398 -47.1148 88.3388 -47.1963 86.5649C-47.1955 86.0491 -47.7292 85.7119 -48.3026 85.7859C-48.8972 85.8678 -49.3641 86.3583 -49.3226 86.8584C-49.2557 88.6576 -49.1061 90.4856 -48.9352 92.3057C-48.9158 92.358 -48.9111 92.4355 -48.8917 92.4878C-48.7494 92.8712 -48.2756 93.1117 -47.7785 93.0263C-47.1904 92.927 -46.7511 92.4269 -46.7925 91.9268L-46.8137 91.9346ZM124.157 11.2685C124.387 10.7867 124.144 10.2622 123.605 10.1053C121.634 9.58768 119.67 9.08747 117.733 8.59685C117.18 8.46526 116.565 8.75276 116.315 9.24241C116.225 9.45413 116.212 9.67718 116.283 9.86887C116.373 10.1128 116.591 10.3098 116.909 10.3899C118.839 10.8631 120.782 11.3712 122.753 11.8888C123.285 12.0282 123.927 11.7503 124.178 11.2607L124.157 11.2685ZM158.317 22.1637C158.595 21.6836 158.416 21.1356 157.892 20.9535C156.002 20.2668 154.147 19.6072 152.292 18.9475C151.768 18.7654 151.113 19.0085 150.834 19.4885C150.681 19.7238 150.681 19.9817 150.759 20.1908C150.836 20.3999 151.026 20.5872 151.274 20.6735C153.123 21.3157 154.978 21.9754 156.846 22.6699C157.371 22.852 158.032 22.6263 158.31 22.1463L158.317 22.1637ZM-47.272 81.1803C-47.2333 79.3419 -47.1394 77.5226 -47.005 75.7478C-46.9554 75.2338 -47.4111 74.8478 -48.0039 74.8695C-48.5967 74.8913 -49.1042 75.3374 -49.1537 75.8514C-49.3028 77.6515 -49.4049 79.5134 -49.4307 81.3867C-49.4406 81.4895 -49.4082 81.5766 -49.3759 81.6638C-49.2401 82.0297 -48.8426 82.2589 -48.3601 82.1988C-47.7591 82.1343 -47.2793 81.6787 -47.272 81.1803ZM139.99 16.9509C141.868 17.5426 143.753 18.1517 145.65 18.7956C146.174 18.9777 146.823 18.7173 147.108 18.2546C147.386 17.7746 147.165 17.2422 146.661 17.0522C144.743 16.4161 142.852 15.7896 140.974 15.1979C140.435 15.041 139.801 15.2762 139.529 15.7737C139.397 16.0011 139.39 16.2416 139.468 16.4507C139.552 16.6773 139.742 16.8646 140.011 16.943L139.99 16.9509ZM4.86701 9.4467C5.04164 9.9172 5.6211 10.1185 6.19795 9.92422C8.18372 9.18719 10.2229 8.52946 12.2751 7.90658C12.8584 7.72973 13.2149 7.20088 13.0825 6.71469C12.9355 6.25377 12.3789 5.98452 11.7956 6.16137C9.69471 6.7825 7.59859 7.48119 5.56411 8.21647C4.99373 8.42817 4.66479 8.96661 4.83942 9.43712L4.86701 9.4467ZM-5.51308 15.0242C-3.66011 14.0589 -1.71791 13.1398 0.250154 12.2904C0.807597 12.0438 1.08136 11.4862 0.864471 11.0314C0.647597 10.5766 0.0323495 10.4084 -0.525094 10.6549C-2.53541 11.52 -4.53454 12.4801 -6.45086 13.469C-6.93199 13.7268 -7.18289 14.2165 -7.02766 14.6347C-7.01472 14.6696 -6.99532 14.7218 -6.98239 14.7567C-6.72325 15.1958 -6.0787 15.3135 -5.55532 15.0399L-5.51308 15.0242ZM17.2386 5.60833C17.2386 5.60833 17.2709 5.69547 17.2839 5.73032C17.4391 6.14854 17.9552 6.37335 18.4816 6.23745C20.5092 5.74265 22.6195 5.2766 24.7282 4.87068C25.3098 4.75394 25.7491 4.25384 25.6865 3.76157C25.624 3.26928 25.0967 2.9495 24.5151 3.06622C22.3642 3.48783 20.2263 3.9443 18.1564 4.45478C17.5602 4.59678 17.1761 5.11605 17.2597 5.60049L17.2386 5.60833ZM29.8728 3.06036C29.8728 3.06036 29.8823 3.21544 29.9082 3.28515C30.0505 3.66852 30.4902 3.88201 30.9726 3.82191C33.0227 3.51705 35.1619 3.25837 37.2719 3.05022C37.8729 2.98577 38.3527 2.53011 38.3535 2.0143C38.3544 1.4985 37.884 1.13777 37.283 1.20222C35.1308 1.42604 32.9704 1.69257 30.8717 1.99569C30.2771 2.07756 29.8102 2.56808 29.8517 3.0682L29.8728 3.06036ZM92.4305 4.9224C92.5275 5.18379 92.7789 5.40772 93.1329 5.45478C95.1087 5.79206 97.1122 6.13892 99.1498 6.51279C99.718 6.61911 100.319 6.29676 100.515 5.78794C100.711 5.27912 100.411 4.79553 99.8429 4.68921C97.7989 4.29792 95.7954 3.95106 93.7773 3.62946C93.2155 3.54057 92.6141 3.86292 92.4184 4.37174C92.3434 4.5582 92.3447 4.75598 92.4094 4.93024L92.4305 4.9224ZM-29.997 34.0844C-29.6293 33.6505 -29.6966 33.0807 -30.1622 32.7975C-30.6214 32.5317 -31.2939 32.6624 -31.6828 33.1041C-33.0235 34.6724 -34.3108 36.3199 -35.5007 37.971C-35.6895 38.2393 -35.7257 38.5303 -35.6351 38.7743C-35.564 38.966 -35.4083 39.1263 -35.2023 39.2282C-34.7073 39.4609 -34.0331 39.2701 -33.7205 38.8171C-32.5664 37.1991 -31.3085 35.6021 -30.0181 34.0922L-29.997 34.0844ZM55.2495 1.23523C55.2314 1.38074 55.2491 1.49313 55.2944 1.61512C55.4173 1.94621 55.7596 2.15621 56.1705 2.16232C58.2184 2.17548 60.3003 2.21565 62.4163 2.28283C63.0009 2.30377 63.5489 1.90213 63.6471 1.38982C63.7454 0.877506 63.3466 0.45055 62.762 0.429615C60.6184 0.352847 58.5089 0.303095 56.4399 0.297777C55.8617 0.294266 55.3202 0.713332 55.2431 1.21781L55.2495 1.23523ZM-11.0577 18.1528C-10.5473 17.8444 -10.3563 17.258 -10.6723 16.8598C-10.9673 16.4538 -11.62 16.3788 -12.1304 16.6872C-13.995 17.8155 -15.8273 19.0309 -17.5556 20.2671C-17.9329 20.5459 -18.0846 20.979 -17.9553 21.3275C-17.9229 21.4146 -17.8906 21.5017 -17.816 21.5732C-17.4853 21.9461 -16.8032 21.9705 -16.3268 21.6351C-14.6343 20.4319 -12.8589 19.2575 -11.0577 18.1528ZM51.0611 1.28297C51.1107 0.768914 50.6761 0.375073 50.1044 0.388991C47.9427 0.457728 45.815 0.553481 43.7215 0.67624C43.1351 0.715425 42.6277 1.1615 42.5993 1.66771C42.5894 1.77053 42.6071 1.88292 42.6459 1.98748C42.7752 2.336 43.1516 2.57301 43.6194 2.53818C45.6854 2.40583 47.7854 2.3005 49.926 2.2396C50.5188 2.21784 51.0327 1.7892 51.0887 1.29256L51.0611 1.28297ZM-21.2782 25.4555C-20.8212 25.0678 -20.77 24.4936 -21.164 24.1442C-21.5581 23.7948 -22.2207 23.8227 -22.6777 24.2104C-24.3056 25.5878 -25.8865 27.0271 -27.3993 28.5204C-27.6791 28.8027 -27.7657 29.1521 -27.6493 29.4658C-27.5976 29.6052 -27.5036 29.7289 -27.3738 29.8195C-26.9439 30.1358 -26.2796 30.0479 -25.8566 29.6331C-24.3943 28.1982 -22.8703 26.7998 -21.2993 25.4634L-21.2782 25.4555ZM76.1133 2.27471C76.2603 1.76415 75.8973 1.30409 75.2997 1.2483C73.1872 1.06088 71.1087 0.900471 69.0578 0.749649C68.4667 0.711288 67.9123 1.09551 67.7929 1.61566C67.7537 1.769 67.7632 1.92409 67.8149 2.0635C67.9249 2.35975 68.2249 2.58542 68.6212 2.61681C70.6656 2.7502 72.723 2.91845 74.8079 3.09628C75.3843 3.15991 75.9663 2.78529 76.0857 2.26513L76.1133 2.27471ZM30.7448 204.929C29.2086 203.833 27.7147 202.722 26.2208 201.611C25.7909 201.295 25.1201 201.366 24.6972 201.78C24.4174 202.063 24.3161 202.437 24.426 202.734C24.4778 202.873 24.5718 202.997 24.7015 203.087C26.1955 204.198 27.717 205.319 29.2596 206.431C29.683 206.73 30.375 206.652 30.7768 206.245C31.1786 205.838 31.1746 205.245 30.7513 204.946L30.7448 204.929ZM13.1579 191.154C11.7437 189.934 10.3571 188.723 8.99167 187.505C8.5976 187.156 7.93496 187.184 7.47797 187.571C7.14946 187.852 7.03353 188.252 7.15642 188.583C7.19522 188.688 7.26161 188.802 7.36378 188.883C8.7357 190.118 10.1499 191.338 11.5641 192.558C11.9517 192.89 12.6354 192.854 13.0713 192.474C13.5072 192.095 13.552 191.503 13.1644 191.171L13.1579 191.154ZM21.783 198.203C20.2973 197.049 18.8538 195.88 17.4379 194.72C17.0292 194.396 16.3518 194.449 15.916 194.829C15.6086 195.102 15.5138 195.494 15.6302 195.807C15.6755 195.929 15.763 196.036 15.8717 196.134C17.3151 197.303 18.7586 198.473 20.2508 199.644C20.6596 199.968 21.3304 199.897 21.7598 199.5C22.1892 199.103 22.2129 198.519 21.783 198.203ZM-10.2993 168.038C-11.507 166.662 -12.6724 165.271 -13.8102 163.889C-14.1263 163.491 -14.7936 163.441 -15.2912 163.784C-15.696 164.053 -15.8624 164.512 -15.7266 164.878C-15.7007 164.947 -15.6683 165.035 -15.6002 165.089C-14.4559 166.488 -13.2694 167.872 -12.0553 169.265C-11.7181 169.655 -11.0572 169.687 -10.5597 169.344C-10.0622 169.001 -9.94105 168.421 -10.2782 168.03L-10.2993 168.038ZM4.91817 183.783C3.56091 182.522 2.24592 181.246 0.952033 179.961C0.579078 179.604 -0.0965105 179.597 -0.559952 179.967C-0.916055 180.238 -1.04668 180.664 -0.923782 180.995C-0.884981 181.099 -0.825045 181.196 -0.743995 181.285C0.549894 182.569 1.89252 183.855 3.24977 185.116C3.62271 185.473 4.31294 185.455 4.7488 185.075C5.21224 184.705 5.27821 184.105 4.89061 183.773L4.91817 183.783ZM-2.91496 176.083C-4.20065 174.756 -5.43766 173.431 -6.67464 172.105C-7.02645 171.74 -7.68736 171.708 -8.18488 172.051C-8.5621 172.33 -8.71385 172.763 -8.58449 173.112C-8.55215 173.199 -8.51982 173.286 -8.41764 173.367C-7.17419 174.71 -5.93076 176.052 -4.64506 177.379C-4.29324 177.745 -3.61763 177.752 -3.14771 177.399C-2.6778 177.046 -2.58428 176.456 -2.93611 176.091L-2.91496 176.083ZM40.0433 211.331C38.4502 210.277 36.9059 209.224 35.3615 208.172C34.9381 207.873 34.2526 207.969 33.8508 208.376C33.5711 208.658 33.5055 208.999 33.6155 209.296C33.6672 209.435 33.7677 209.576 33.9186 209.659C35.4694 210.729 37.0414 211.791 38.6345 212.845C39.079 213.136 39.758 213.023 40.1598 212.616C40.5551 212.192 40.5089 211.614 40.0856 211.316L40.0433 211.331ZM59.5108 223.179C57.8379 222.234 56.1862 221.28 54.5345 220.327C54.0753 220.061 53.4028 220.192 53.0139 220.634C52.7764 220.9 52.732 221.234 52.829 221.495C52.8872 221.652 53.0153 221.803 53.1726 221.903C54.8243 222.856 56.4825 223.827 58.1765 224.765C58.6356 225.03 59.3229 224.874 59.6906 224.441C60.0583 224.007 59.9635 223.427 59.5043 223.162L59.5108 223.179ZM69.866 229.903C70.2061 229.46 70.1112 228.88 69.6374 228.64C67.9141 227.753 66.2331 226.85 64.5521 225.947C64.0718 225.689 63.4057 225.837 63.0445 226.289C62.8345 226.565 62.7772 226.864 62.8742 227.125C62.9389 227.299 63.0669 227.45 63.2519 227.56C64.9329 228.463 66.6415 229.375 68.3648 230.262C68.8386 230.503 69.5258 230.347 69.866 229.903ZM49.6298 217.409C47.9863 216.413 46.3915 215.419 44.7902 214.407C44.3457 214.116 43.6667 214.229 43.2778 214.671C43.0192 214.945 42.9536 215.287 43.0571 215.566C43.1153 215.723 43.2158 215.864 43.3732 215.964C44.9744 216.976 46.5968 217.979 48.2404 218.975C48.706 219.259 49.3785 219.128 49.7463 218.694C50.114 218.26 50.0678 217.682 49.6087 217.417L49.6298 217.409ZM-42.4936 112.834C-43.03 111.13 -43.5177 109.428 -43.9632 107.709C-44.0597 107.19 -44.6668 106.979 -45.229 107.148C-45.8123 107.325 -46.1688 107.854 -46.0429 108.323C-45.5975 110.041 -45.0968 111.778 -44.554 113.5L-44.541 113.535C-44.3729 113.988 -43.8146 114.197 -43.2524 114.028C-42.6755 113.834 -42.3255 113.288 -42.4725 112.827L-42.4936 112.834ZM189.537 35.9541C190.032 36.1867 190.7 35.9785 191.034 35.5176C191.346 35.0646 191.209 34.5008 190.714 34.2682C188.905 33.4726 187.123 32.6866 185.348 31.9181C184.838 31.7107 184.185 31.8936 183.858 32.372C183.69 32.6325 183.647 32.906 183.738 33.15C183.809 33.3417 183.971 33.5195 184.198 33.6136C185.974 34.3821 187.756 35.1681 189.565 35.9637L189.537 35.9541ZM179.924 29.6089C178.1 28.8386 176.282 28.0858 174.477 27.3677C173.968 27.1604 173.3 27.3686 172.994 27.839C172.826 28.0996 172.804 28.3653 172.889 28.5918C172.966 28.801 173.122 28.9613 173.355 29.0728C175.16 29.7908 176.957 30.5515 178.781 31.3218C179.291 31.5292 179.937 31.3289 180.264 30.8505C180.571 30.3801 180.412 29.8242 179.903 29.6168L179.924 29.6089ZM-17.1862 159.65C-18.2947 158.217 -19.3821 156.777 -20.4419 155.346C-20.7368 154.94 -21.3895 154.866 -21.9 155.174C-22.3324 155.434 -22.541 155.908 -22.3987 156.291C-22.3728 156.361 -22.3535 156.413 -22.3064 156.475C-21.2402 157.923 -20.1464 159.381 -19.0314 160.83C-18.7153 161.229 -18.0626 161.304 -17.5586 160.978C-17.0546 160.652 -16.8913 160.056 -17.2008 159.675L-17.1862 159.65ZM-38.8785 122.834C-39.3994 121.56 -39.8927 120.295 -40.3584 119.041L-40.7917 117.873C-40.8689 117.406 -41.5522 117.184 -42.1226 117.396C-42.693 117.607 -43.0219 118.146 -42.8473 118.616L-42.4075 119.801C-41.9354 121.073 -41.4567 122.363 -40.9083 123.646C-40.7337 124.117 -40.1119 124.302 -39.548 124.073C-38.9777 123.862 -38.6974 123.321 -38.8785 122.834ZM-45.1662 102.525C-45.5336 100.758 -45.8459 99.0104 -46.1305 97.2722C-46.2142 96.7878 -46.7414 96.468 -47.3377 96.61C-47.9404 96.7345 -48.3521 97.2442 -48.262 97.7461C-47.992 99.5096 -47.6669 101.292 -47.293 103.077C-47.2801 103.112 -47.2671 103.146 -47.2542 103.181C-47.099 103.599 -46.5829 103.824 -46.0354 103.681C-45.4456 103.521 -45.0615 103.002 -45.1662 102.525ZM169.001 25.1771C167.148 24.4573 165.294 23.7376 163.475 23.0448C162.951 22.8627 162.31 23.0805 162.004 23.551C161.858 23.8036 161.83 24.0519 161.914 24.2785C161.991 24.4876 162.154 24.6653 162.402 24.7516C164.221 25.4444 166.068 26.1467 167.901 26.8743C168.41 27.0817 169.072 26.8561 169.378 26.3856C169.684 25.9151 169.504 25.367 168.995 25.1597L169.001 25.1771ZM-29.3229 141.909C-30.2331 140.363 -31.1222 138.81 -31.9837 137.266C-32.2217 136.819 -32.8515 136.676 -33.396 136.957C-33.9048 137.206 -34.1492 137.713 -33.994 138.131C-33.9811 138.166 -33.9681 138.201 -33.9552 138.236C-33.1084 139.805 -32.2193 141.358 -31.275 142.931C-31.0159 143.37 -30.3714 143.488 -29.848 143.214C-29.3035 142.933 -29.0785 142.373 -29.3376 141.934L-29.3229 141.909ZM-23.5415 150.945C-24.5508 149.456 -25.5602 147.967 -26.5061 146.455C-26.7799 146.041 -27.4245 145.923 -27.9414 146.214C-28.4225 146.472 -28.6247 146.963 -28.4759 147.364C-28.4565 147.417 -28.4371 147.469 -28.4177 147.521C-27.4506 149.026 -26.4559 150.54 -25.419 152.039C-25.1452 152.453 -24.486 152.545 -23.948 152.246C-23.431 151.955 -23.2401 151.369 -23.5139 150.955L-23.5415 150.945ZM201.658 40.3773C201.992 39.9164 201.855 39.3526 201.367 39.1374C199.593 38.3087 197.819 37.4801 196.058 36.6862C195.563 36.4536 194.889 36.6444 194.562 37.1227C194.373 37.391 194.337 37.6821 194.427 37.926C194.499 38.1177 194.654 38.278 194.86 38.38C196.621 39.1738 198.367 39.9929 200.141 40.8216C200.636 41.0542 201.31 40.8634 201.623 40.4104L201.658 40.3773ZM-34.4672 132.517C-35.2782 130.915 -36.0405 129.314 -36.7606 127.698C-36.9775 127.243 -37.5927 127.075 -38.1355 127.296C-38.6718 127.535 -38.9585 128.058 -38.7968 128.493L-38.7774 128.546C-38.0362 130.154 -37.261 131.79 -36.4434 133.409C-36.2266 133.864 -35.5967 134.007 -35.0392 133.761C-34.4818 133.514 -34.2568 132.955 -34.4525 132.492L-34.4672 132.517Z" fill="#FACD49"/>
</svg>
